%TF.GenerationSoftware,KiCad,Pcbnew,6.0.11-2627ca5db0~126~ubuntu22.04.1*%
%TF.CreationDate,2023-11-30T20:29:01+00:00*%
%TF.ProjectId,zx-spectrum-diagnostics,7a782d73-7065-4637-9472-756d2d646961,1.1*%
%TF.SameCoordinates,Original*%
%TF.FileFunction,Soldermask,Top*%
%TF.FilePolarity,Negative*%
%FSLAX46Y46*%
G04 Gerber Fmt 4.6, Leading zero omitted, Abs format (unit mm)*
G04 Created by KiCad (PCBNEW 6.0.11-2627ca5db0~126~ubuntu22.04.1) date 2023-11-30 20:29:01*
%MOMM*%
%LPD*%
G01*
G04 APERTURE LIST*
%ADD10C,2.000000*%
%ADD11R,1.700000X1.700000*%
%ADD12O,1.700000X1.700000*%
%ADD13O,2.800000X1.727200*%
%ADD14O,1.800000X1.800000*%
%ADD15O,1.500000X1.500000*%
G04 APERTURE END LIST*
D10*
%TO.C,*%
X109220000Y-128778000D03*
%TD*%
%TO.C,*%
X112776000Y-128778000D03*
%TD*%
%TO.C,REF\u002A\u002A17*%
X166690000Y-148640000D03*
%TD*%
%TO.C,REF\u002A\u002A20*%
X148610000Y-151180000D03*
%TD*%
%TO.C,REF\u002A\u002A19*%
X158770000Y-148640000D03*
%TD*%
%TO.C,REF\u002A\u002A*%
X148610000Y-141020000D03*
%TD*%
%TO.C,REF\u002A\u002A10*%
X148610000Y-146100000D03*
%TD*%
%TO.C,REF\u002A\u002A21*%
X151150000Y-151180000D03*
%TD*%
%TO.C,REF\u002A\u002A17*%
X153690000Y-148640000D03*
%TD*%
%TO.C,REF\u002A\u002A1*%
X151150000Y-141020000D03*
%TD*%
%TO.C,REF\u002A\u002A3*%
X169230000Y-141020000D03*
%TD*%
%TO.C,REF\u002A\u002A8*%
X169230000Y-143560000D03*
%TD*%
%TO.C,REF\u002A\u002A21*%
X164150000Y-151180000D03*
%TD*%
%TO.C,REF\u002A\u002A11*%
X164150000Y-146100000D03*
%TD*%
%TO.C,REF\u002A\u002A9*%
X158770000Y-143560000D03*
%TD*%
%TO.C,REF\u002A\u002A6*%
X164150000Y-143560000D03*
%TD*%
%TO.C,REF\u002A\u002A18*%
X156230000Y-148640000D03*
%TD*%
%TO.C,REF\u002A\u002A24*%
X158770000Y-151180000D03*
%TD*%
%TO.C,REF\u002A\u002A12*%
X166690000Y-146100000D03*
%TD*%
%TO.C,REF\u002A\u002A*%
X161610000Y-141020000D03*
%TD*%
%TO.C,*%
X166270000Y-136750000D03*
%TD*%
%TO.C,REF\u002A\u002A13*%
X156230000Y-146100000D03*
%TD*%
%TO.C,REF\u002A\u002A24*%
X171770000Y-151180000D03*
%TD*%
%TO.C,REF\u002A\u002A3*%
X156230000Y-141020000D03*
%TD*%
%TO.C,REF\u002A\u002A22*%
X166690000Y-151180000D03*
%TD*%
%TO.C,REF\u002A\u002A13*%
X169230000Y-146100000D03*
%TD*%
%TO.C,*%
X171850000Y-136810000D03*
%TD*%
%TO.C,REF\u002A\u002A2*%
X166690000Y-141020000D03*
%TD*%
D11*
%TO.C,J101*%
X161544000Y-118608000D03*
D12*
X161544000Y-116068000D03*
X161544000Y-113528000D03*
X161544000Y-110988000D03*
%TD*%
D10*
%TO.C,SW101*%
X143138000Y-148524000D03*
X136638000Y-148524000D03*
X136638000Y-144024000D03*
X143138000Y-144024000D03*
%TD*%
D13*
%TO.C,Z101*%
X82738000Y-81504000D03*
X82738000Y-84044000D03*
X82738000Y-86584000D03*
X82738000Y-89124000D03*
X82738000Y-94204000D03*
X82738000Y-96744000D03*
X82738000Y-99284000D03*
X82738000Y-101824000D03*
X82738000Y-104364000D03*
X82738000Y-106904000D03*
X82738000Y-109444000D03*
X82738000Y-111984000D03*
X82738000Y-114524000D03*
X82738000Y-117064000D03*
X82738000Y-119604000D03*
X82738000Y-122144000D03*
X82738000Y-124684000D03*
X82738000Y-127224000D03*
X82738000Y-129764000D03*
X82738000Y-132304000D03*
X82738000Y-134844000D03*
X82738000Y-137384000D03*
X82738000Y-139924000D03*
X82738000Y-142464000D03*
X82738000Y-145004000D03*
X82738000Y-147544000D03*
X82738000Y-150084000D03*
X77658000Y-81504000D03*
X77658000Y-84044000D03*
X77658000Y-86584000D03*
X77658000Y-89124000D03*
X77658000Y-94204000D03*
X77658000Y-96744000D03*
X77658000Y-99284000D03*
X77658000Y-101824000D03*
X77658000Y-104364000D03*
X77658000Y-106904000D03*
X77658000Y-109444000D03*
X77658000Y-111984000D03*
X77658000Y-114524000D03*
X77658000Y-117064000D03*
X77658000Y-119604000D03*
X77658000Y-122144000D03*
X77658000Y-124684000D03*
X77658000Y-127224000D03*
X77658000Y-129764000D03*
X77658000Y-132304000D03*
X77658000Y-134844000D03*
X77658000Y-137384000D03*
X77658000Y-139924000D03*
X77658000Y-142464000D03*
X77658000Y-145004000D03*
X77658000Y-147544000D03*
X77658000Y-150084000D03*
%TD*%
D10*
%TO.C,REF\u002A\u002A15*%
X161610000Y-148640000D03*
%TD*%
%TO.C,REF\u002A\u002A5*%
X148610000Y-143560000D03*
%TD*%
%TO.C,*%
X169050000Y-136800000D03*
%TD*%
%TO.C,REF\u002A\u002A2*%
X153690000Y-141020000D03*
%TD*%
%TO.C,REF\u002A\u002A6*%
X151150000Y-143560000D03*
%TD*%
%TO.C,REF\u002A\u002A11*%
X151150000Y-146100000D03*
%TD*%
%TO.C,REF\u002A\u002A14*%
X171770000Y-146100000D03*
%TD*%
%TO.C,SW102*%
X130946000Y-148778000D03*
X124446000Y-148778000D03*
X130946000Y-144278000D03*
X124446000Y-144278000D03*
%TD*%
%TO.C,REF\u002A\u002A1*%
X164150000Y-141020000D03*
%TD*%
%TO.C,REF\u002A\u002A16*%
X164150000Y-148640000D03*
%TD*%
%TO.C,REF\u002A\u002A10*%
X161610000Y-146100000D03*
%TD*%
%TO.C,REF\u002A\u002A4*%
X158770000Y-141020000D03*
%TD*%
%TO.C,REF\u002A\u002A20*%
X161610000Y-151180000D03*
%TD*%
%TO.C,REF\u002A\u002A16*%
X151150000Y-148640000D03*
%TD*%
%TO.C,REF\u002A\u002A15*%
X148610000Y-148640000D03*
%TD*%
%TO.C,REF\u002A\u002A14*%
X158770000Y-146100000D03*
%TD*%
%TO.C,REF\u002A\u002A7*%
X166690000Y-143560000D03*
%TD*%
%TO.C,REF\u002A\u002A9*%
X171770000Y-143560000D03*
%TD*%
%TO.C,REF\u002A\u002A12*%
X153690000Y-146100000D03*
%TD*%
%TO.C,REF\u002A\u002A19*%
X171770000Y-148640000D03*
%TD*%
%TO.C,REF\u002A\u002A7*%
X153690000Y-143560000D03*
%TD*%
%TO.C,REF\u002A\u002A23*%
X169230000Y-151180000D03*
%TD*%
%TO.C,REF\u002A\u002A23*%
X156230000Y-151180000D03*
%TD*%
%TO.C,REF\u002A\u002A22*%
X153690000Y-151180000D03*
%TD*%
%TO.C,REF\u002A\u002A4*%
X171770000Y-141020000D03*
%TD*%
%TO.C,REF\u002A\u002A5*%
X161610000Y-143560000D03*
%TD*%
%TO.C,REF\u002A\u002A8*%
X156230000Y-143560000D03*
%TD*%
%TO.C,REF\u002A\u002A18*%
X169230000Y-148640000D03*
%TD*%
D11*
%TO.C,J203*%
X87285000Y-81470000D03*
D12*
X87285000Y-84010000D03*
X87285000Y-86550000D03*
X87285000Y-89090000D03*
X87285000Y-91630000D03*
X87285000Y-94170000D03*
X87285000Y-96710000D03*
X87285000Y-99250000D03*
X87285000Y-101790000D03*
X87285000Y-104330000D03*
X87285000Y-106870000D03*
X87285000Y-109410000D03*
X87285000Y-111950000D03*
X87285000Y-114490000D03*
X87285000Y-117030000D03*
X87285000Y-119570000D03*
X87285000Y-122110000D03*
X87285000Y-124650000D03*
X87285000Y-127190000D03*
X87285000Y-129730000D03*
%TD*%
D11*
%TO.C,J202*%
X92990000Y-138565000D03*
D12*
X95530000Y-138565000D03*
X98070000Y-138565000D03*
X100610000Y-138565000D03*
X103150000Y-138565000D03*
X105690000Y-138565000D03*
X108230000Y-138565000D03*
X110770000Y-138565000D03*
X113310000Y-138565000D03*
X115850000Y-138565000D03*
X118390000Y-138565000D03*
X120930000Y-138565000D03*
X123470000Y-138565000D03*
X126010000Y-138565000D03*
X128550000Y-138565000D03*
X131090000Y-138565000D03*
X133630000Y-138565000D03*
X136170000Y-138565000D03*
X138710000Y-138565000D03*
X141250000Y-138565000D03*
%TD*%
D14*
%TO.C,U102*%
X117986000Y-74237000D03*
D15*
X121016000Y-79387000D03*
X121016000Y-74537000D03*
D14*
X117986000Y-79687000D03*
D12*
X117856000Y-68072000D03*
X120396000Y-68072000D03*
D11*
X122936000Y-68072000D03*
D12*
X125476000Y-68072000D03*
X128016000Y-68072000D03*
X130556000Y-68072000D03*
X133096000Y-68072000D03*
D11*
X135636000Y-68072000D03*
D12*
X138176000Y-68072000D03*
X140716000Y-68072000D03*
X143256000Y-68072000D03*
X145796000Y-68072000D03*
D11*
X148336000Y-68072000D03*
D12*
X150876000Y-68072000D03*
X153416000Y-68072000D03*
X155956000Y-68072000D03*
X158496000Y-68072000D03*
D11*
X161036000Y-68072000D03*
D12*
X163576000Y-68072000D03*
X166116000Y-68072000D03*
X166116000Y-85852000D03*
X163576000Y-85852000D03*
D11*
X161036000Y-85852000D03*
D12*
X158496000Y-85852000D03*
X155956000Y-85852000D03*
X153416000Y-85852000D03*
X150876000Y-85852000D03*
D11*
X148336000Y-85852000D03*
D12*
X145796000Y-85852000D03*
X143256000Y-85852000D03*
X140716000Y-85852000D03*
X138176000Y-85852000D03*
D11*
X135636000Y-85852000D03*
D12*
X133096000Y-85852000D03*
X130556000Y-85852000D03*
X128016000Y-85852000D03*
X125476000Y-85852000D03*
D11*
X122936000Y-85852000D03*
D12*
X120396000Y-85852000D03*
X117856000Y-85852000D03*
X165886000Y-74422000D03*
D11*
X165886000Y-76962000D03*
D12*
X165886000Y-79502000D03*
%TD*%
D14*
%TO.C,U101*%
X117986000Y-112337000D03*
D15*
X121016000Y-117487000D03*
X121016000Y-112637000D03*
D14*
X117986000Y-117787000D03*
D12*
X117856000Y-106172000D03*
X120396000Y-106172000D03*
D11*
X122936000Y-106172000D03*
D12*
X125476000Y-106172000D03*
X128016000Y-106172000D03*
X130556000Y-106172000D03*
X133096000Y-106172000D03*
D11*
X135636000Y-106172000D03*
D12*
X138176000Y-106172000D03*
X140716000Y-106172000D03*
X143256000Y-106172000D03*
X145796000Y-106172000D03*
D11*
X148336000Y-106172000D03*
D12*
X150876000Y-106172000D03*
X153416000Y-106172000D03*
X155956000Y-106172000D03*
X158496000Y-106172000D03*
D11*
X161036000Y-106172000D03*
D12*
X163576000Y-106172000D03*
X166116000Y-106172000D03*
X166116000Y-123952000D03*
X163576000Y-123952000D03*
D11*
X161036000Y-123952000D03*
D12*
X158496000Y-123952000D03*
X155956000Y-123952000D03*
X153416000Y-123952000D03*
X150876000Y-123952000D03*
D11*
X148336000Y-123952000D03*
D12*
X145796000Y-123952000D03*
X143256000Y-123952000D03*
X140716000Y-123952000D03*
X138176000Y-123952000D03*
D11*
X135636000Y-123952000D03*
D12*
X133096000Y-123952000D03*
X130556000Y-123952000D03*
X128016000Y-123952000D03*
X125476000Y-123952000D03*
D11*
X122936000Y-123952000D03*
D12*
X120396000Y-123952000D03*
X117856000Y-123952000D03*
X165886000Y-112522000D03*
D11*
X165886000Y-115062000D03*
D12*
X165886000Y-117602000D03*
%TD*%
D11*
%TO.C,J201*%
X94090000Y-81430000D03*
D12*
X94090000Y-83970000D03*
X94090000Y-86510000D03*
X94090000Y-89050000D03*
X94090000Y-91590000D03*
X94090000Y-94130000D03*
X94090000Y-96670000D03*
X94090000Y-99210000D03*
X94090000Y-101750000D03*
X94090000Y-104290000D03*
X94090000Y-106830000D03*
X94090000Y-109370000D03*
X94090000Y-111910000D03*
X94090000Y-114450000D03*
X94090000Y-116990000D03*
X94090000Y-119530000D03*
X94090000Y-122070000D03*
X94090000Y-124610000D03*
X94090000Y-127150000D03*
X94090000Y-129690000D03*
%TD*%
M02*
