%TF.GenerationSoftware,KiCad,Pcbnew,6.0.11-2627ca5db0~126~ubuntu22.04.1*%
%TF.CreationDate,2023-11-05T18:43:30+00:00*%
%TF.ProjectId,zx-spectrum-diagnostics,7a782d73-7065-4637-9472-756d2d646961,rev?*%
%TF.SameCoordinates,Original*%
%TF.FileFunction,Legend,Top*%
%TF.FilePolarity,Positive*%
%FSLAX46Y46*%
G04 Gerber Fmt 4.6, Leading zero omitted, Abs format (unit mm)*
G04 Created by KiCad (PCBNEW 6.0.11-2627ca5db0~126~ubuntu22.04.1) date 2023-11-05 18:43:30*
%MOMM*%
%LPD*%
G01*
G04 APERTURE LIST*
%ADD10C,0.125000*%
%ADD11C,0.150000*%
%ADD12C,0.120000*%
%ADD13C,2.000000*%
%ADD14R,1.700000X1.700000*%
%ADD15O,1.700000X1.700000*%
%ADD16C,1.524000*%
%ADD17O,1.800000X1.800000*%
%ADD18O,1.500000X1.500000*%
G04 APERTURE END LIST*
D10*
X152687428Y-108916190D02*
X152782666Y-108916190D01*
X152830285Y-108940000D01*
X152877904Y-108987619D01*
X152901714Y-109082857D01*
X152901714Y-109249523D01*
X152877904Y-109344761D01*
X152830285Y-109392380D01*
X152782666Y-109416190D01*
X152687428Y-109416190D01*
X152639809Y-109392380D01*
X152592190Y-109344761D01*
X152568380Y-109249523D01*
X152568380Y-109082857D01*
X152592190Y-108987619D01*
X152639809Y-108940000D01*
X152687428Y-108916190D01*
X153354095Y-109416190D02*
X153116000Y-109416190D01*
X153116000Y-108916190D01*
X153520761Y-109154285D02*
X153687428Y-109154285D01*
X153758857Y-109416190D02*
X153520761Y-109416190D01*
X153520761Y-108916190D01*
X153758857Y-108916190D01*
X153973142Y-109416190D02*
X153973142Y-108916190D01*
X154092190Y-108916190D01*
X154163619Y-108940000D01*
X154211238Y-108987619D01*
X154235047Y-109035238D01*
X154258857Y-109130476D01*
X154258857Y-109201904D01*
X154235047Y-109297142D01*
X154211238Y-109344761D01*
X154163619Y-109392380D01*
X154092190Y-109416190D01*
X153973142Y-109416190D01*
X155116000Y-108940000D02*
X155068380Y-108916190D01*
X154996952Y-108916190D01*
X154925523Y-108940000D01*
X154877904Y-108987619D01*
X154854095Y-109035238D01*
X154830285Y-109130476D01*
X154830285Y-109201904D01*
X154854095Y-109297142D01*
X154877904Y-109344761D01*
X154925523Y-109392380D01*
X154996952Y-109416190D01*
X155044571Y-109416190D01*
X155116000Y-109392380D01*
X155139809Y-109368571D01*
X155139809Y-109201904D01*
X155044571Y-109201904D01*
X155354095Y-109416190D02*
X155354095Y-108916190D01*
X155639809Y-109416190D01*
X155639809Y-108916190D01*
X155877904Y-109416190D02*
X155877904Y-108916190D01*
X155996952Y-108916190D01*
X156068380Y-108940000D01*
X156116000Y-108987619D01*
X156139809Y-109035238D01*
X156163619Y-109130476D01*
X156163619Y-109201904D01*
X156139809Y-109297142D01*
X156116000Y-109344761D01*
X156068380Y-109392380D01*
X155996952Y-109416190D01*
X155877904Y-109416190D01*
X152758857Y-111456190D02*
X152854095Y-111456190D01*
X152901714Y-111480000D01*
X152949333Y-111527619D01*
X152973142Y-111622857D01*
X152973142Y-111789523D01*
X152949333Y-111884761D01*
X152901714Y-111932380D01*
X152854095Y-111956190D01*
X152758857Y-111956190D01*
X152711238Y-111932380D01*
X152663619Y-111884761D01*
X152639809Y-111789523D01*
X152639809Y-111622857D01*
X152663619Y-111527619D01*
X152711238Y-111480000D01*
X152758857Y-111456190D01*
X153425523Y-111956190D02*
X153187428Y-111956190D01*
X153187428Y-111456190D01*
X153592190Y-111694285D02*
X153758857Y-111694285D01*
X153830285Y-111956190D02*
X153592190Y-111956190D01*
X153592190Y-111456190D01*
X153830285Y-111456190D01*
X154044571Y-111956190D02*
X154044571Y-111456190D01*
X154163619Y-111456190D01*
X154235047Y-111480000D01*
X154282666Y-111527619D01*
X154306476Y-111575238D01*
X154330285Y-111670476D01*
X154330285Y-111741904D01*
X154306476Y-111837142D01*
X154282666Y-111884761D01*
X154235047Y-111932380D01*
X154163619Y-111956190D01*
X154044571Y-111956190D01*
X154877904Y-111456190D02*
X155187428Y-111456190D01*
X155020761Y-111646666D01*
X155092190Y-111646666D01*
X155139809Y-111670476D01*
X155163619Y-111694285D01*
X155187428Y-111741904D01*
X155187428Y-111860952D01*
X155163619Y-111908571D01*
X155139809Y-111932380D01*
X155092190Y-111956190D01*
X154949333Y-111956190D01*
X154901714Y-111932380D01*
X154877904Y-111908571D01*
X155330285Y-111456190D02*
X155496952Y-111956190D01*
X155663619Y-111456190D01*
X155782666Y-111456190D02*
X156092190Y-111456190D01*
X155925523Y-111646666D01*
X155996952Y-111646666D01*
X156044571Y-111670476D01*
X156068380Y-111694285D01*
X156092190Y-111741904D01*
X156092190Y-111860952D01*
X156068380Y-111908571D01*
X156044571Y-111932380D01*
X155996952Y-111956190D01*
X155854095Y-111956190D01*
X155806476Y-111932380D01*
X155782666Y-111908571D01*
X146361238Y-113996190D02*
X146456476Y-113996190D01*
X146504095Y-114020000D01*
X146551714Y-114067619D01*
X146575523Y-114162857D01*
X146575523Y-114329523D01*
X146551714Y-114424761D01*
X146504095Y-114472380D01*
X146456476Y-114496190D01*
X146361238Y-114496190D01*
X146313619Y-114472380D01*
X146266000Y-114424761D01*
X146242190Y-114329523D01*
X146242190Y-114162857D01*
X146266000Y-114067619D01*
X146313619Y-114020000D01*
X146361238Y-113996190D01*
X147027904Y-114496190D02*
X146789809Y-114496190D01*
X146789809Y-113996190D01*
X147194571Y-114234285D02*
X147361238Y-114234285D01*
X147432666Y-114496190D02*
X147194571Y-114496190D01*
X147194571Y-113996190D01*
X147432666Y-113996190D01*
X147646952Y-114496190D02*
X147646952Y-113996190D01*
X147766000Y-113996190D01*
X147837428Y-114020000D01*
X147885047Y-114067619D01*
X147908857Y-114115238D01*
X147932666Y-114210476D01*
X147932666Y-114281904D01*
X147908857Y-114377142D01*
X147885047Y-114424761D01*
X147837428Y-114472380D01*
X147766000Y-114496190D01*
X147646952Y-114496190D01*
X148504095Y-114472380D02*
X148575523Y-114496190D01*
X148694571Y-114496190D01*
X148742190Y-114472380D01*
X148766000Y-114448571D01*
X148789809Y-114400952D01*
X148789809Y-114353333D01*
X148766000Y-114305714D01*
X148742190Y-114281904D01*
X148694571Y-114258095D01*
X148599333Y-114234285D01*
X148551714Y-114210476D01*
X148527904Y-114186666D01*
X148504095Y-114139047D01*
X148504095Y-114091428D01*
X148527904Y-114043809D01*
X148551714Y-114020000D01*
X148599333Y-113996190D01*
X148718380Y-113996190D01*
X148789809Y-114020000D01*
X149289809Y-114448571D02*
X149266000Y-114472380D01*
X149194571Y-114496190D01*
X149146952Y-114496190D01*
X149075523Y-114472380D01*
X149027904Y-114424761D01*
X149004095Y-114377142D01*
X148980285Y-114281904D01*
X148980285Y-114210476D01*
X149004095Y-114115238D01*
X149027904Y-114067619D01*
X149075523Y-114020000D01*
X149146952Y-113996190D01*
X149194571Y-113996190D01*
X149266000Y-114020000D01*
X149289809Y-114043809D01*
X149504095Y-114496190D02*
X149504095Y-113996190D01*
X149789809Y-114496190D02*
X149575523Y-114210476D01*
X149789809Y-113996190D02*
X149504095Y-114281904D01*
X146396952Y-116790190D02*
X146492190Y-116790190D01*
X146539809Y-116814000D01*
X146587428Y-116861619D01*
X146611238Y-116956857D01*
X146611238Y-117123523D01*
X146587428Y-117218761D01*
X146539809Y-117266380D01*
X146492190Y-117290190D01*
X146396952Y-117290190D01*
X146349333Y-117266380D01*
X146301714Y-117218761D01*
X146277904Y-117123523D01*
X146277904Y-116956857D01*
X146301714Y-116861619D01*
X146349333Y-116814000D01*
X146396952Y-116790190D01*
X147063619Y-117290190D02*
X146825523Y-117290190D01*
X146825523Y-116790190D01*
X147230285Y-117028285D02*
X147396952Y-117028285D01*
X147468380Y-117290190D02*
X147230285Y-117290190D01*
X147230285Y-116790190D01*
X147468380Y-116790190D01*
X147682666Y-117290190D02*
X147682666Y-116790190D01*
X147801714Y-116790190D01*
X147873142Y-116814000D01*
X147920761Y-116861619D01*
X147944571Y-116909238D01*
X147968380Y-117004476D01*
X147968380Y-117075904D01*
X147944571Y-117171142D01*
X147920761Y-117218761D01*
X147873142Y-117266380D01*
X147801714Y-117290190D01*
X147682666Y-117290190D01*
X148539809Y-117266380D02*
X148611238Y-117290190D01*
X148730285Y-117290190D01*
X148777904Y-117266380D01*
X148801714Y-117242571D01*
X148825523Y-117194952D01*
X148825523Y-117147333D01*
X148801714Y-117099714D01*
X148777904Y-117075904D01*
X148730285Y-117052095D01*
X148635047Y-117028285D01*
X148587428Y-117004476D01*
X148563619Y-116980666D01*
X148539809Y-116933047D01*
X148539809Y-116885428D01*
X148563619Y-116837809D01*
X148587428Y-116814000D01*
X148635047Y-116790190D01*
X148754095Y-116790190D01*
X148825523Y-116814000D01*
X149039809Y-117290190D02*
X149039809Y-116790190D01*
X149158857Y-116790190D01*
X149230285Y-116814000D01*
X149277904Y-116861619D01*
X149301714Y-116909238D01*
X149325523Y-117004476D01*
X149325523Y-117075904D01*
X149301714Y-117171142D01*
X149277904Y-117218761D01*
X149230285Y-117266380D01*
X149158857Y-117290190D01*
X149039809Y-117290190D01*
X149516000Y-117147333D02*
X149754095Y-117147333D01*
X149468380Y-117290190D02*
X149635047Y-116790190D01*
X149801714Y-117290190D01*
D11*
X77220000Y-90290000D02*
X82110000Y-90290000D01*
X82110000Y-90290000D02*
X82110000Y-92680000D01*
X82110000Y-92680000D02*
X77220000Y-92680000D01*
X77220000Y-92680000D02*
X77220000Y-90290000D01*
G36*
X77220000Y-90290000D02*
G01*
X82110000Y-90290000D01*
X82110000Y-92680000D01*
X77220000Y-92680000D01*
X77220000Y-90290000D01*
G37*
%TO.C,*%
%TO.C,J101*%
X149778285Y-118582380D02*
X149778285Y-119296666D01*
X149730666Y-119439523D01*
X149635428Y-119534761D01*
X149492571Y-119582380D01*
X149397333Y-119582380D01*
X150778285Y-119582380D02*
X150206857Y-119582380D01*
X150492571Y-119582380D02*
X150492571Y-118582380D01*
X150397333Y-118725238D01*
X150302095Y-118820476D01*
X150206857Y-118868095D01*
X151397333Y-118582380D02*
X151492571Y-118582380D01*
X151587809Y-118630000D01*
X151635428Y-118677619D01*
X151683047Y-118772857D01*
X151730666Y-118963333D01*
X151730666Y-119201428D01*
X151683047Y-119391904D01*
X151635428Y-119487142D01*
X151587809Y-119534761D01*
X151492571Y-119582380D01*
X151397333Y-119582380D01*
X151302095Y-119534761D01*
X151254476Y-119487142D01*
X151206857Y-119391904D01*
X151159238Y-119201428D01*
X151159238Y-118963333D01*
X151206857Y-118772857D01*
X151254476Y-118677619D01*
X151302095Y-118630000D01*
X151397333Y-118582380D01*
X152683047Y-119582380D02*
X152111619Y-119582380D01*
X152397333Y-119582380D02*
X152397333Y-118582380D01*
X152302095Y-118725238D01*
X152206857Y-118820476D01*
X152111619Y-118868095D01*
%TO.C,*%
%TO.C,SW101*%
X137602285Y-150928761D02*
X137745142Y-150976380D01*
X137983238Y-150976380D01*
X138078476Y-150928761D01*
X138126095Y-150881142D01*
X138173714Y-150785904D01*
X138173714Y-150690666D01*
X138126095Y-150595428D01*
X138078476Y-150547809D01*
X137983238Y-150500190D01*
X137792761Y-150452571D01*
X137697523Y-150404952D01*
X137649904Y-150357333D01*
X137602285Y-150262095D01*
X137602285Y-150166857D01*
X137649904Y-150071619D01*
X137697523Y-150024000D01*
X137792761Y-149976380D01*
X138030857Y-149976380D01*
X138173714Y-150024000D01*
X138507047Y-149976380D02*
X138745142Y-150976380D01*
X138935619Y-150262095D01*
X139126095Y-150976380D01*
X139364190Y-149976380D01*
X140268952Y-150976380D02*
X139697523Y-150976380D01*
X139983238Y-150976380D02*
X139983238Y-149976380D01*
X139888000Y-150119238D01*
X139792761Y-150214476D01*
X139697523Y-150262095D01*
X140888000Y-149976380D02*
X140983238Y-149976380D01*
X141078476Y-150024000D01*
X141126095Y-150071619D01*
X141173714Y-150166857D01*
X141221333Y-150357333D01*
X141221333Y-150595428D01*
X141173714Y-150785904D01*
X141126095Y-150881142D01*
X141078476Y-150928761D01*
X140983238Y-150976380D01*
X140888000Y-150976380D01*
X140792761Y-150928761D01*
X140745142Y-150881142D01*
X140697523Y-150785904D01*
X140649904Y-150595428D01*
X140649904Y-150357333D01*
X140697523Y-150166857D01*
X140745142Y-150071619D01*
X140792761Y-150024000D01*
X140888000Y-149976380D01*
X142173714Y-150976380D02*
X141602285Y-150976380D01*
X141888000Y-150976380D02*
X141888000Y-149976380D01*
X141792761Y-150119238D01*
X141697523Y-150214476D01*
X141602285Y-150262095D01*
%TO.C,*%
%TO.C,SW102*%
X125410285Y-151182761D02*
X125553142Y-151230380D01*
X125791238Y-151230380D01*
X125886476Y-151182761D01*
X125934095Y-151135142D01*
X125981714Y-151039904D01*
X125981714Y-150944666D01*
X125934095Y-150849428D01*
X125886476Y-150801809D01*
X125791238Y-150754190D01*
X125600761Y-150706571D01*
X125505523Y-150658952D01*
X125457904Y-150611333D01*
X125410285Y-150516095D01*
X125410285Y-150420857D01*
X125457904Y-150325619D01*
X125505523Y-150278000D01*
X125600761Y-150230380D01*
X125838857Y-150230380D01*
X125981714Y-150278000D01*
X126315047Y-150230380D02*
X126553142Y-151230380D01*
X126743619Y-150516095D01*
X126934095Y-151230380D01*
X127172190Y-150230380D01*
X128076952Y-151230380D02*
X127505523Y-151230380D01*
X127791238Y-151230380D02*
X127791238Y-150230380D01*
X127696000Y-150373238D01*
X127600761Y-150468476D01*
X127505523Y-150516095D01*
X128696000Y-150230380D02*
X128791238Y-150230380D01*
X128886476Y-150278000D01*
X128934095Y-150325619D01*
X128981714Y-150420857D01*
X129029333Y-150611333D01*
X129029333Y-150849428D01*
X128981714Y-151039904D01*
X128934095Y-151135142D01*
X128886476Y-151182761D01*
X128791238Y-151230380D01*
X128696000Y-151230380D01*
X128600761Y-151182761D01*
X128553142Y-151135142D01*
X128505523Y-151039904D01*
X128457904Y-150849428D01*
X128457904Y-150611333D01*
X128505523Y-150420857D01*
X128553142Y-150325619D01*
X128600761Y-150278000D01*
X128696000Y-150230380D01*
X129410285Y-150325619D02*
X129457904Y-150278000D01*
X129553142Y-150230380D01*
X129791238Y-150230380D01*
X129886476Y-150278000D01*
X129934095Y-150325619D01*
X129981714Y-150420857D01*
X129981714Y-150516095D01*
X129934095Y-150658952D01*
X129362666Y-151230380D01*
X129981714Y-151230380D01*
%TO.C,*%
%TO.C,Z101*%
X75332380Y-117361904D02*
X75332380Y-116695238D01*
X76332380Y-117361904D01*
X76332380Y-116695238D01*
X76332380Y-115790476D02*
X76332380Y-116361904D01*
X76332380Y-116076190D02*
X75332380Y-116076190D01*
X75475238Y-116171428D01*
X75570476Y-116266666D01*
X75618095Y-116361904D01*
X75332380Y-115171428D02*
X75332380Y-115076190D01*
X75380000Y-114980952D01*
X75427619Y-114933333D01*
X75522857Y-114885714D01*
X75713333Y-114838095D01*
X75951428Y-114838095D01*
X76141904Y-114885714D01*
X76237142Y-114933333D01*
X76284761Y-114980952D01*
X76332380Y-115076190D01*
X76332380Y-115171428D01*
X76284761Y-115266666D01*
X76237142Y-115314285D01*
X76141904Y-115361904D01*
X75951428Y-115409523D01*
X75713333Y-115409523D01*
X75522857Y-115361904D01*
X75427619Y-115314285D01*
X75380000Y-115266666D01*
X75332380Y-115171428D01*
X76332380Y-113885714D02*
X76332380Y-114457142D01*
X76332380Y-114171428D02*
X75332380Y-114171428D01*
X75475238Y-114266666D01*
X75570476Y-114361904D01*
X75618095Y-114457142D01*
D12*
%TO.C,REF\u002A\u002A17*%
X167890000Y-148640000D02*
G75*
G03*
X167890000Y-148640000I-1200000J0D01*
G01*
%TO.C,REF\u002A\u002A20*%
X149810000Y-151180000D02*
G75*
G03*
X149810000Y-151180000I-1200000J0D01*
G01*
%TO.C,REF\u002A\u002A19*%
X159970000Y-148640000D02*
G75*
G03*
X159970000Y-148640000I-1200000J0D01*
G01*
%TO.C,REF\u002A\u002A*%
X149810000Y-141020000D02*
G75*
G03*
X149810000Y-141020000I-1200000J0D01*
G01*
%TO.C,REF\u002A\u002A10*%
X149810000Y-146100000D02*
G75*
G03*
X149810000Y-146100000I-1200000J0D01*
G01*
%TO.C,REF\u002A\u002A21*%
X152350000Y-151180000D02*
G75*
G03*
X152350000Y-151180000I-1200000J0D01*
G01*
%TO.C,REF\u002A\u002A17*%
X154890000Y-148640000D02*
G75*
G03*
X154890000Y-148640000I-1200000J0D01*
G01*
%TO.C,REF\u002A\u002A1*%
X152350000Y-141020000D02*
G75*
G03*
X152350000Y-141020000I-1200000J0D01*
G01*
%TO.C,REF\u002A\u002A3*%
X170430000Y-141020000D02*
G75*
G03*
X170430000Y-141020000I-1200000J0D01*
G01*
%TO.C,REF\u002A\u002A8*%
X170430000Y-143560000D02*
G75*
G03*
X170430000Y-143560000I-1200000J0D01*
G01*
%TO.C,REF\u002A\u002A21*%
X165350000Y-151180000D02*
G75*
G03*
X165350000Y-151180000I-1200000J0D01*
G01*
%TO.C,REF\u002A\u002A11*%
X165350000Y-146100000D02*
G75*
G03*
X165350000Y-146100000I-1200000J0D01*
G01*
%TO.C,REF\u002A\u002A9*%
X159970000Y-143560000D02*
G75*
G03*
X159970000Y-143560000I-1200000J0D01*
G01*
%TO.C,REF\u002A\u002A6*%
X165350000Y-143560000D02*
G75*
G03*
X165350000Y-143560000I-1200000J0D01*
G01*
%TO.C,REF\u002A\u002A18*%
X157430000Y-148640000D02*
G75*
G03*
X157430000Y-148640000I-1200000J0D01*
G01*
%TO.C,REF\u002A\u002A24*%
X159970000Y-151180000D02*
G75*
G03*
X159970000Y-151180000I-1200000J0D01*
G01*
%TO.C,REF\u002A\u002A12*%
X167890000Y-146100000D02*
G75*
G03*
X167890000Y-146100000I-1200000J0D01*
G01*
%TO.C,REF\u002A\u002A*%
X162810000Y-141020000D02*
G75*
G03*
X162810000Y-141020000I-1200000J0D01*
G01*
%TO.C,REF\u002A\u002A13*%
X157430000Y-146100000D02*
G75*
G03*
X157430000Y-146100000I-1200000J0D01*
G01*
%TO.C,REF\u002A\u002A24*%
X172970000Y-151180000D02*
G75*
G03*
X172970000Y-151180000I-1200000J0D01*
G01*
%TO.C,REF\u002A\u002A3*%
X157430000Y-141020000D02*
G75*
G03*
X157430000Y-141020000I-1200000J0D01*
G01*
%TO.C,REF\u002A\u002A22*%
X167890000Y-151180000D02*
G75*
G03*
X167890000Y-151180000I-1200000J0D01*
G01*
%TO.C,REF\u002A\u002A13*%
X170430000Y-146100000D02*
G75*
G03*
X170430000Y-146100000I-1200000J0D01*
G01*
%TO.C,REF\u002A\u002A2*%
X167890000Y-141020000D02*
G75*
G03*
X167890000Y-141020000I-1200000J0D01*
G01*
%TO.C,J101*%
X149734000Y-115530000D02*
X149734000Y-107850000D01*
X152394000Y-107850000D02*
X149734000Y-107850000D01*
X152394000Y-118130000D02*
X151064000Y-118130000D01*
X152394000Y-115530000D02*
X149734000Y-115530000D01*
X152394000Y-116800000D02*
X152394000Y-118130000D01*
X152394000Y-115530000D02*
X152394000Y-107850000D01*
%TO.C,SW101*%
X137638000Y-149524000D02*
X142138000Y-149524000D01*
X142138000Y-143024000D02*
X137638000Y-143024000D01*
X143388000Y-147024000D02*
X143388000Y-145524000D01*
X136388000Y-145524000D02*
X136388000Y-147024000D01*
%TO.C,REF\u002A\u002A15*%
X162810000Y-148640000D02*
G75*
G03*
X162810000Y-148640000I-1200000J0D01*
G01*
%TO.C,REF\u002A\u002A5*%
X149810000Y-143560000D02*
G75*
G03*
X149810000Y-143560000I-1200000J0D01*
G01*
%TO.C,REF\u002A\u002A2*%
X154890000Y-141020000D02*
G75*
G03*
X154890000Y-141020000I-1200000J0D01*
G01*
%TO.C,REF\u002A\u002A6*%
X152350000Y-143560000D02*
G75*
G03*
X152350000Y-143560000I-1200000J0D01*
G01*
%TO.C,REF\u002A\u002A11*%
X152350000Y-146100000D02*
G75*
G03*
X152350000Y-146100000I-1200000J0D01*
G01*
%TO.C,REF\u002A\u002A14*%
X172970000Y-146100000D02*
G75*
G03*
X172970000Y-146100000I-1200000J0D01*
G01*
%TO.C,SW102*%
X125446000Y-149778000D02*
X129946000Y-149778000D01*
X131196000Y-147278000D02*
X131196000Y-145778000D01*
X129946000Y-143278000D02*
X125446000Y-143278000D01*
X124196000Y-145778000D02*
X124196000Y-147278000D01*
%TO.C,REF\u002A\u002A1*%
X165350000Y-141020000D02*
G75*
G03*
X165350000Y-141020000I-1200000J0D01*
G01*
%TO.C,REF\u002A\u002A16*%
X165350000Y-148640000D02*
G75*
G03*
X165350000Y-148640000I-1200000J0D01*
G01*
%TO.C,REF\u002A\u002A10*%
X162810000Y-146100000D02*
G75*
G03*
X162810000Y-146100000I-1200000J0D01*
G01*
%TO.C,REF\u002A\u002A4*%
X159970000Y-141020000D02*
G75*
G03*
X159970000Y-141020000I-1200000J0D01*
G01*
%TO.C,REF\u002A\u002A20*%
X162810000Y-151180000D02*
G75*
G03*
X162810000Y-151180000I-1200000J0D01*
G01*
%TO.C,REF\u002A\u002A16*%
X152350000Y-148640000D02*
G75*
G03*
X152350000Y-148640000I-1200000J0D01*
G01*
%TO.C,REF\u002A\u002A15*%
X149810000Y-148640000D02*
G75*
G03*
X149810000Y-148640000I-1200000J0D01*
G01*
%TO.C,REF\u002A\u002A14*%
X159970000Y-146100000D02*
G75*
G03*
X159970000Y-146100000I-1200000J0D01*
G01*
%TO.C,REF\u002A\u002A7*%
X167890000Y-143560000D02*
G75*
G03*
X167890000Y-143560000I-1200000J0D01*
G01*
%TO.C,REF\u002A\u002A9*%
X172970000Y-143560000D02*
G75*
G03*
X172970000Y-143560000I-1200000J0D01*
G01*
%TO.C,REF\u002A\u002A12*%
X154890000Y-146100000D02*
G75*
G03*
X154890000Y-146100000I-1200000J0D01*
G01*
%TO.C,REF\u002A\u002A19*%
X172970000Y-148640000D02*
G75*
G03*
X172970000Y-148640000I-1200000J0D01*
G01*
%TO.C,REF\u002A\u002A7*%
X154890000Y-143560000D02*
G75*
G03*
X154890000Y-143560000I-1200000J0D01*
G01*
%TO.C,REF\u002A\u002A23*%
X170430000Y-151180000D02*
G75*
G03*
X170430000Y-151180000I-1200000J0D01*
G01*
X157430000Y-151180000D02*
G75*
G03*
X157430000Y-151180000I-1200000J0D01*
G01*
%TO.C,REF\u002A\u002A22*%
X154890000Y-151180000D02*
G75*
G03*
X154890000Y-151180000I-1200000J0D01*
G01*
%TO.C,REF\u002A\u002A4*%
X172970000Y-141020000D02*
G75*
G03*
X172970000Y-141020000I-1200000J0D01*
G01*
D11*
%TO.C,Z101*%
X77150000Y-151160000D02*
X82230000Y-151160000D01*
X82230000Y-151160000D02*
X82230000Y-80040000D01*
X82230000Y-80040000D02*
X77150000Y-80040000D01*
X77150000Y-80040000D02*
X77150000Y-151160000D01*
D12*
%TO.C,REF\u002A\u002A5*%
X162810000Y-143560000D02*
G75*
G03*
X162810000Y-143560000I-1200000J0D01*
G01*
%TO.C,REF\u002A\u002A8*%
X157430000Y-143560000D02*
G75*
G03*
X157430000Y-143560000I-1200000J0D01*
G01*
%TO.C,REF\u002A\u002A18*%
X170430000Y-148640000D02*
G75*
G03*
X170430000Y-148640000I-1200000J0D01*
G01*
%TD*%
%LPC*%
D13*
%TO.C,*%
X155890000Y-76424000D03*
%TD*%
%TO.C,*%
X158938000Y-76424000D03*
%TD*%
%TO.C,*%
X161986000Y-76424000D03*
%TD*%
%TO.C,*%
X164780000Y-76424000D03*
%TD*%
%TO.C,REF\u002A\u002A17*%
X166690000Y-148640000D03*
%TD*%
%TO.C,REF\u002A\u002A20*%
X148610000Y-151180000D03*
%TD*%
%TO.C,*%
X109726000Y-77898000D03*
%TD*%
%TO.C,REF\u002A\u002A19*%
X158770000Y-148640000D03*
%TD*%
%TO.C,REF\u002A\u002A*%
X148610000Y-141020000D03*
%TD*%
%TO.C,*%
X99248000Y-78018000D03*
%TD*%
%TO.C,REF\u002A\u002A10*%
X148610000Y-146100000D03*
%TD*%
%TO.C,REF\u002A\u002A21*%
X151150000Y-151180000D03*
%TD*%
%TO.C,REF\u002A\u002A17*%
X153690000Y-148640000D03*
%TD*%
%TO.C,REF\u002A\u002A1*%
X151150000Y-141020000D03*
%TD*%
%TO.C,REF\u002A\u002A3*%
X169230000Y-141020000D03*
%TD*%
%TO.C,REF\u002A\u002A8*%
X169230000Y-143560000D03*
%TD*%
%TO.C,REF\u002A\u002A21*%
X164150000Y-151180000D03*
%TD*%
%TO.C,REF\u002A\u002A11*%
X164150000Y-146100000D03*
%TD*%
%TO.C,REF\u002A\u002A9*%
X158770000Y-143560000D03*
%TD*%
%TO.C,REF\u002A\u002A6*%
X164150000Y-143560000D03*
%TD*%
%TO.C,REF\u002A\u002A18*%
X156230000Y-148640000D03*
%TD*%
%TO.C,REF\u002A\u002A24*%
X158770000Y-151180000D03*
%TD*%
%TO.C,REF\u002A\u002A12*%
X166690000Y-146100000D03*
%TD*%
%TO.C,REF\u002A\u002A*%
X161610000Y-141020000D03*
%TD*%
%TO.C,*%
X166270000Y-136750000D03*
%TD*%
%TO.C,REF\u002A\u002A13*%
X156230000Y-146100000D03*
%TD*%
%TO.C,*%
X102296000Y-77948000D03*
%TD*%
%TO.C,REF\u002A\u002A24*%
X171770000Y-151180000D03*
%TD*%
%TO.C,REF\u002A\u002A3*%
X156230000Y-141020000D03*
%TD*%
%TO.C,REF\u002A\u002A22*%
X166690000Y-151180000D03*
%TD*%
%TO.C,REF\u002A\u002A13*%
X169230000Y-146100000D03*
%TD*%
%TO.C,*%
X171850000Y-136810000D03*
%TD*%
%TO.C,REF\u002A\u002A2*%
X166690000Y-141020000D03*
%TD*%
D14*
%TO.C,J101*%
X151064000Y-116800000D03*
D15*
X151064000Y-114260000D03*
X151064000Y-111720000D03*
X151064000Y-109180000D03*
%TD*%
D13*
%TO.C,*%
X115758000Y-77898000D03*
%TD*%
%TO.C,SW101*%
X143138000Y-148524000D03*
X136638000Y-148524000D03*
X136638000Y-144024000D03*
X143138000Y-144024000D03*
%TD*%
%TO.C,REF\u002A\u002A15*%
X161610000Y-148640000D03*
%TD*%
%TO.C,REF\u002A\u002A5*%
X148610000Y-143560000D03*
%TD*%
%TO.C,*%
X112710000Y-77948000D03*
%TD*%
%TO.C,*%
X169050000Y-136800000D03*
%TD*%
%TO.C,REF\u002A\u002A2*%
X153690000Y-141020000D03*
%TD*%
%TO.C,REF\u002A\u002A6*%
X151150000Y-143560000D03*
%TD*%
%TO.C,REF\u002A\u002A11*%
X151150000Y-146100000D03*
%TD*%
%TO.C,REF\u002A\u002A14*%
X171770000Y-146100000D03*
%TD*%
%TO.C,SW102*%
X130946000Y-148778000D03*
X124446000Y-148778000D03*
X130946000Y-144278000D03*
X124446000Y-144278000D03*
%TD*%
%TO.C,REF\u002A\u002A1*%
X164150000Y-141020000D03*
%TD*%
%TO.C,REF\u002A\u002A16*%
X164150000Y-148640000D03*
%TD*%
%TO.C,REF\u002A\u002A10*%
X161610000Y-146100000D03*
%TD*%
%TO.C,*%
X105344000Y-77948000D03*
%TD*%
%TO.C,REF\u002A\u002A4*%
X158770000Y-141020000D03*
%TD*%
%TO.C,REF\u002A\u002A20*%
X161610000Y-151180000D03*
%TD*%
%TO.C,REF\u002A\u002A16*%
X151150000Y-148640000D03*
%TD*%
%TO.C,REF\u002A\u002A15*%
X148610000Y-148640000D03*
%TD*%
%TO.C,*%
X167828000Y-76424000D03*
%TD*%
%TO.C,REF\u002A\u002A14*%
X158770000Y-146100000D03*
%TD*%
%TO.C,REF\u002A\u002A7*%
X166690000Y-143560000D03*
%TD*%
%TO.C,REF\u002A\u002A9*%
X171770000Y-143560000D03*
%TD*%
%TO.C,REF\u002A\u002A12*%
X153690000Y-146100000D03*
%TD*%
%TO.C,REF\u002A\u002A19*%
X171770000Y-148640000D03*
%TD*%
%TO.C,REF\u002A\u002A7*%
X153690000Y-143560000D03*
%TD*%
%TO.C,REF\u002A\u002A23*%
X169230000Y-151180000D03*
%TD*%
%TO.C,REF\u002A\u002A23*%
X156230000Y-151180000D03*
%TD*%
%TO.C,REF\u002A\u002A22*%
X153690000Y-151180000D03*
%TD*%
%TO.C,REF\u002A\u002A4*%
X171770000Y-141020000D03*
%TD*%
D16*
%TO.C,Z101*%
X78420000Y-91470000D03*
X80960000Y-91470000D03*
X80960000Y-81310000D03*
X80960000Y-83850000D03*
X80960000Y-86390000D03*
X80960000Y-88930000D03*
X80960000Y-94010000D03*
X80960000Y-96550000D03*
X80960000Y-99090000D03*
X80960000Y-101630000D03*
X80960000Y-104170000D03*
X80960000Y-106710000D03*
X80960000Y-109250000D03*
X80960000Y-111790000D03*
X80960000Y-114330000D03*
X80960000Y-116870000D03*
X80960000Y-119410000D03*
X80960000Y-121950000D03*
X80960000Y-124490000D03*
X80960000Y-127030000D03*
X80960000Y-129570000D03*
X80960000Y-132110000D03*
X80960000Y-134650000D03*
X80960000Y-137190000D03*
X80960000Y-139730000D03*
X80960000Y-142270000D03*
X80960000Y-144810000D03*
X80960000Y-147350000D03*
X80960000Y-149890000D03*
X78420000Y-81310000D03*
X78420000Y-83850000D03*
X78420000Y-86390000D03*
X78420000Y-88930000D03*
X78420000Y-94010000D03*
X78420000Y-96550000D03*
X78420000Y-99090000D03*
X78420000Y-101630000D03*
X78420000Y-104170000D03*
X78420000Y-106710000D03*
X78420000Y-109250000D03*
X78420000Y-111790000D03*
X78420000Y-114330000D03*
X78420000Y-116870000D03*
X78420000Y-119410000D03*
X78420000Y-121950000D03*
X78420000Y-124490000D03*
X78420000Y-127030000D03*
X78420000Y-129570000D03*
X78420000Y-132110000D03*
X78420000Y-134650000D03*
X78420000Y-137190000D03*
X78420000Y-139730000D03*
X78420000Y-142270000D03*
X78420000Y-144810000D03*
X78420000Y-147350000D03*
X78420000Y-149890000D03*
%TD*%
D13*
%TO.C,REF\u002A\u002A5*%
X161610000Y-143560000D03*
%TD*%
%TO.C,REF\u002A\u002A8*%
X156230000Y-143560000D03*
%TD*%
%TO.C,REF\u002A\u002A18*%
X169230000Y-148640000D03*
%TD*%
D14*
%TO.C,J203*%
X86365000Y-81470000D03*
D15*
X86365000Y-84010000D03*
X86365000Y-86550000D03*
X86365000Y-89090000D03*
X86365000Y-91630000D03*
X86365000Y-94170000D03*
X86365000Y-96710000D03*
X86365000Y-99250000D03*
X86365000Y-101790000D03*
X86365000Y-104330000D03*
X86365000Y-106870000D03*
X86365000Y-109410000D03*
X86365000Y-111950000D03*
X86365000Y-114490000D03*
X86365000Y-117030000D03*
X86365000Y-119570000D03*
X86365000Y-122110000D03*
X86365000Y-124650000D03*
X86365000Y-127190000D03*
X86365000Y-129730000D03*
%TD*%
D14*
%TO.C,J204*%
X168295000Y-82560000D03*
D15*
X168295000Y-85100000D03*
X168295000Y-87640000D03*
X168295000Y-90180000D03*
X168295000Y-92720000D03*
X168295000Y-95260000D03*
X168295000Y-97800000D03*
X168295000Y-100340000D03*
X168295000Y-102880000D03*
X168295000Y-105420000D03*
X168295000Y-107960000D03*
X168295000Y-110500000D03*
X168295000Y-113040000D03*
X168295000Y-115580000D03*
X168295000Y-118120000D03*
X168295000Y-120660000D03*
X168295000Y-123200000D03*
X168295000Y-125740000D03*
X168295000Y-128280000D03*
X168295000Y-130820000D03*
%TD*%
%TO.C,J202*%
X141250000Y-138565000D03*
X138710000Y-138565000D03*
X136170000Y-138565000D03*
X133630000Y-138565000D03*
X131090000Y-138565000D03*
X128550000Y-138565000D03*
X126010000Y-138565000D03*
X123470000Y-138565000D03*
X120930000Y-138565000D03*
X118390000Y-138565000D03*
X115850000Y-138565000D03*
X113310000Y-138565000D03*
X110770000Y-138565000D03*
X108230000Y-138565000D03*
X105690000Y-138565000D03*
X103150000Y-138565000D03*
X100610000Y-138565000D03*
X98070000Y-138565000D03*
X95530000Y-138565000D03*
D14*
X92990000Y-138565000D03*
%TD*%
%TO.C,J102*%
X155825000Y-136465000D03*
D15*
X158365000Y-136465000D03*
X160905000Y-136465000D03*
%TD*%
D17*
%TO.C,U102*%
X116355000Y-83150000D03*
D18*
X111205000Y-86180000D03*
X116055000Y-86180000D03*
D17*
X110905000Y-83150000D03*
D15*
X122520000Y-83020000D03*
X122520000Y-85560000D03*
D14*
X122520000Y-88100000D03*
D15*
X122520000Y-90640000D03*
X122520000Y-93180000D03*
X122520000Y-95720000D03*
X122520000Y-98260000D03*
D14*
X122520000Y-100800000D03*
D15*
X122520000Y-103340000D03*
X122520000Y-105880000D03*
X122520000Y-108420000D03*
X122520000Y-110960000D03*
D14*
X122520000Y-113500000D03*
D15*
X122520000Y-116040000D03*
X122520000Y-118580000D03*
X122520000Y-121120000D03*
X122520000Y-123660000D03*
D14*
X122520000Y-126200000D03*
D15*
X122520000Y-128740000D03*
X122520000Y-131280000D03*
X104740000Y-131280000D03*
X104740000Y-128740000D03*
D14*
X104740000Y-126200000D03*
D15*
X104740000Y-123660000D03*
X104740000Y-121120000D03*
X104740000Y-118580000D03*
X104740000Y-116040000D03*
D14*
X104740000Y-113500000D03*
D15*
X104740000Y-110960000D03*
X104740000Y-108420000D03*
X104740000Y-105880000D03*
X104740000Y-103340000D03*
D14*
X104740000Y-100800000D03*
D15*
X104740000Y-98260000D03*
X104740000Y-95720000D03*
X104740000Y-93180000D03*
X104740000Y-90640000D03*
D14*
X104740000Y-88100000D03*
D15*
X104740000Y-85560000D03*
X104740000Y-83020000D03*
X116170000Y-131050000D03*
D14*
X113630000Y-131050000D03*
D15*
X111090000Y-131050000D03*
%TD*%
D14*
%TO.C,J103*%
X113235000Y-143915000D03*
D15*
X115775000Y-143915000D03*
X118315000Y-143915000D03*
%TD*%
D17*
%TO.C,U101*%
X154325000Y-82755000D03*
D18*
X149175000Y-85785000D03*
X154025000Y-85785000D03*
D17*
X148875000Y-82755000D03*
D15*
X160490000Y-82625000D03*
X160490000Y-85165000D03*
D14*
X160490000Y-87705000D03*
D15*
X160490000Y-90245000D03*
X160490000Y-92785000D03*
X160490000Y-95325000D03*
X160490000Y-97865000D03*
D14*
X160490000Y-100405000D03*
D15*
X160490000Y-102945000D03*
X160490000Y-105485000D03*
X160490000Y-108025000D03*
X160490000Y-110565000D03*
D14*
X160490000Y-113105000D03*
D15*
X160490000Y-115645000D03*
X160490000Y-118185000D03*
X160490000Y-120725000D03*
X160490000Y-123265000D03*
D14*
X160490000Y-125805000D03*
D15*
X160490000Y-128345000D03*
X160490000Y-130885000D03*
X142710000Y-130885000D03*
X142710000Y-128345000D03*
D14*
X142710000Y-125805000D03*
D15*
X142710000Y-123265000D03*
X142710000Y-120725000D03*
X142710000Y-118185000D03*
X142710000Y-115645000D03*
D14*
X142710000Y-113105000D03*
D15*
X142710000Y-110565000D03*
X142710000Y-108025000D03*
X142710000Y-105485000D03*
X142710000Y-102945000D03*
D14*
X142710000Y-100405000D03*
D15*
X142710000Y-97865000D03*
X142710000Y-95325000D03*
X142710000Y-92785000D03*
X142710000Y-90245000D03*
D14*
X142710000Y-87705000D03*
D15*
X142710000Y-85165000D03*
X142710000Y-82625000D03*
X154140000Y-130655000D03*
D14*
X151600000Y-130655000D03*
D15*
X149060000Y-130655000D03*
%TD*%
D14*
%TO.C,J205*%
X129770000Y-83240000D03*
D15*
X129770000Y-85780000D03*
X129770000Y-88320000D03*
X129770000Y-90860000D03*
X129770000Y-93400000D03*
X129770000Y-95940000D03*
X129770000Y-98480000D03*
X129770000Y-101020000D03*
X129770000Y-103560000D03*
X129770000Y-106100000D03*
X129770000Y-108640000D03*
X129770000Y-111180000D03*
X129770000Y-113720000D03*
X129770000Y-116260000D03*
X129770000Y-118800000D03*
X129770000Y-121340000D03*
X129770000Y-123880000D03*
X129770000Y-126420000D03*
X129770000Y-128960000D03*
X129770000Y-131500000D03*
%TD*%
D14*
%TO.C,J201*%
X94090000Y-81430000D03*
D15*
X94090000Y-83970000D03*
X94090000Y-86510000D03*
X94090000Y-89050000D03*
X94090000Y-91590000D03*
X94090000Y-94130000D03*
X94090000Y-96670000D03*
X94090000Y-99210000D03*
X94090000Y-101750000D03*
X94090000Y-104290000D03*
X94090000Y-106830000D03*
X94090000Y-109370000D03*
X94090000Y-111910000D03*
X94090000Y-114450000D03*
X94090000Y-116990000D03*
X94090000Y-119530000D03*
X94090000Y-122070000D03*
X94090000Y-124610000D03*
X94090000Y-127150000D03*
X94090000Y-129690000D03*
%TD*%
M02*
