%TF.GenerationSoftware,KiCad,Pcbnew,6.0.11-2627ca5db0~126~ubuntu22.04.1*%
%TF.CreationDate,2023-11-05T18:43:30+00:00*%
%TF.ProjectId,zx-spectrum-diagnostics,7a782d73-7065-4637-9472-756d2d646961,rev?*%
%TF.SameCoordinates,Original*%
%TF.FileFunction,Copper,L2,Bot*%
%TF.FilePolarity,Positive*%
%FSLAX46Y46*%
G04 Gerber Fmt 4.6, Leading zero omitted, Abs format (unit mm)*
G04 Created by KiCad (PCBNEW 6.0.11-2627ca5db0~126~ubuntu22.04.1) date 2023-11-05 18:43:30*
%MOMM*%
%LPD*%
G01*
G04 APERTURE LIST*
G04 Aperture macros list*
%AMRoundRect*
0 Rectangle with rounded corners*
0 $1 Rounding radius*
0 $2 $3 $4 $5 $6 $7 $8 $9 X,Y pos of 4 corners*
0 Add a 4 corners polygon primitive as box body*
4,1,4,$2,$3,$4,$5,$6,$7,$8,$9,$2,$3,0*
0 Add four circle primitives for the rounded corners*
1,1,$1+$1,$2,$3*
1,1,$1+$1,$4,$5*
1,1,$1+$1,$6,$7*
1,1,$1+$1,$8,$9*
0 Add four rect primitives between the rounded corners*
20,1,$1+$1,$2,$3,$4,$5,0*
20,1,$1+$1,$4,$5,$6,$7,0*
20,1,$1+$1,$6,$7,$8,$9,0*
20,1,$1+$1,$8,$9,$2,$3,0*%
G04 Aperture macros list end*
%TA.AperFunction,SMDPad,CuDef*%
%ADD10R,0.900000X1.200000*%
%TD*%
%TA.AperFunction,ComponentPad*%
%ADD11C,2.000000*%
%TD*%
%TA.AperFunction,SMDPad,CuDef*%
%ADD12RoundRect,0.250000X0.400000X0.625000X-0.400000X0.625000X-0.400000X-0.625000X0.400000X-0.625000X0*%
%TD*%
%TA.AperFunction,ComponentPad*%
%ADD13R,1.700000X1.700000*%
%TD*%
%TA.AperFunction,ComponentPad*%
%ADD14O,1.700000X1.700000*%
%TD*%
%TA.AperFunction,ComponentPad*%
%ADD15C,1.524000*%
%TD*%
%TA.AperFunction,SMDPad,CuDef*%
%ADD16RoundRect,0.250000X-0.400000X-0.625000X0.400000X-0.625000X0.400000X0.625000X-0.400000X0.625000X0*%
%TD*%
%TA.AperFunction,SMDPad,CuDef*%
%ADD17R,2.000000X0.650000*%
%TD*%
%TA.AperFunction,SMDPad,CuDef*%
%ADD18RoundRect,0.250001X-0.624999X0.462499X-0.624999X-0.462499X0.624999X-0.462499X0.624999X0.462499X0*%
%TD*%
%TA.AperFunction,SMDPad,CuDef*%
%ADD19R,3.500000X1.700000*%
%TD*%
%TA.AperFunction,SMDPad,CuDef*%
%ADD20R,1.700000X3.500000*%
%TD*%
%TA.AperFunction,ViaPad*%
%ADD21C,0.800000*%
%TD*%
%TA.AperFunction,Conductor*%
%ADD22C,0.500000*%
%TD*%
%TA.AperFunction,Conductor*%
%ADD23C,0.300000*%
%TD*%
%TA.AperFunction,Conductor*%
%ADD24C,0.250000*%
%TD*%
G04 APERTURE END LIST*
D10*
%TO.P,D103,1,K*%
%TO.N,MIN5V_DIV*%
X122220000Y-150270000D03*
%TO.P,D103,2,A*%
%TO.N,GND*%
X118920000Y-150270000D03*
%TD*%
%TO.P,D102,1,K*%
%TO.N,3V3_PICO1*%
X115910000Y-150290000D03*
%TO.P,D102,2,A*%
%TO.N,MIN5V_DIV*%
X112610000Y-150290000D03*
%TD*%
D11*
%TO.P,,1*%
%TO.N,GND*%
X155890000Y-76424000D03*
%TD*%
%TO.P,,1*%
%TO.N,GND*%
X158938000Y-76424000D03*
%TD*%
%TO.P,,1*%
%TO.N,GND*%
X161986000Y-76424000D03*
%TD*%
%TO.P,,1*%
%TO.N,GND*%
X164780000Y-76424000D03*
%TD*%
D12*
%TO.P,R107,1*%
%TO.N,PICO_RESET_Z80*%
X97170000Y-150370000D03*
%TO.P,R107,2*%
%TO.N,Net-(Q101-Pad1)*%
X94070000Y-150370000D03*
%TD*%
D11*
%TO.P,REF\u002A\u002A17,1*%
%TO.N,N/C*%
X166690000Y-148640000D03*
%TD*%
%TO.P,REF\u002A\u002A20,1*%
%TO.N,N/C*%
X148610000Y-151180000D03*
%TD*%
%TO.P,,1*%
%TO.N,+5V*%
X109726000Y-77898000D03*
%TD*%
%TO.P,REF\u002A\u002A19,1*%
%TO.N,N/C*%
X158770000Y-148640000D03*
%TD*%
%TO.P,REF\u002A\u002A,1*%
%TO.N,N/C*%
X148610000Y-141020000D03*
%TD*%
%TO.P,,1*%
%TO.N,3V3_PICO2*%
X99248000Y-78018000D03*
%TD*%
%TO.P,REF\u002A\u002A10,1*%
%TO.N,N/C*%
X148610000Y-146100000D03*
%TD*%
%TO.P,REF\u002A\u002A21,1*%
%TO.N,N/C*%
X151150000Y-151180000D03*
%TD*%
%TO.P,REF\u002A\u002A17,1*%
%TO.N,N/C*%
X153690000Y-148640000D03*
%TD*%
%TO.P,REF\u002A\u002A1,1*%
%TO.N,N/C*%
X151150000Y-141020000D03*
%TD*%
%TO.P,REF\u002A\u002A3,1*%
%TO.N,N/C*%
X169230000Y-141020000D03*
%TD*%
%TO.P,REF\u002A\u002A8,1*%
%TO.N,N/C*%
X169230000Y-143560000D03*
%TD*%
%TO.P,REF\u002A\u002A21,1*%
%TO.N,N/C*%
X164150000Y-151180000D03*
%TD*%
%TO.P,REF\u002A\u002A11,1*%
%TO.N,N/C*%
X164150000Y-146100000D03*
%TD*%
%TO.P,REF\u002A\u002A9,1*%
%TO.N,N/C*%
X158770000Y-143560000D03*
%TD*%
%TO.P,REF\u002A\u002A6,1*%
%TO.N,N/C*%
X164150000Y-143560000D03*
%TD*%
%TO.P,REF\u002A\u002A18,1*%
%TO.N,N/C*%
X156230000Y-148640000D03*
%TD*%
%TO.P,REF\u002A\u002A24,1*%
%TO.N,N/C*%
X158770000Y-151180000D03*
%TD*%
%TO.P,REF\u002A\u002A12,1*%
%TO.N,N/C*%
X166690000Y-146100000D03*
%TD*%
%TO.P,REF\u002A\u002A,1*%
%TO.N,N/C*%
X161610000Y-141020000D03*
%TD*%
%TO.P,,1*%
%TO.N,3V3_PICO1*%
X166270000Y-136750000D03*
%TD*%
%TO.P,REF\u002A\u002A13,1*%
%TO.N,N/C*%
X156230000Y-146100000D03*
%TD*%
%TO.P,,1*%
%TO.N,GND*%
X102296000Y-77948000D03*
%TD*%
%TO.P,REF\u002A\u002A24,1*%
%TO.N,N/C*%
X171770000Y-151180000D03*
%TD*%
%TO.P,REF\u002A\u002A3,1*%
%TO.N,N/C*%
X156230000Y-141020000D03*
%TD*%
%TO.P,REF\u002A\u002A22,1*%
%TO.N,N/C*%
X166690000Y-151180000D03*
%TD*%
%TO.P,REF\u002A\u002A13,1*%
%TO.N,N/C*%
X169230000Y-146100000D03*
%TD*%
%TO.P,,1*%
%TO.N,GND*%
X171850000Y-136810000D03*
%TD*%
%TO.P,REF\u002A\u002A2,1*%
%TO.N,N/C*%
X166690000Y-141020000D03*
%TD*%
D13*
%TO.P,J101,1,Pin_1*%
%TO.N,OLED_SDA*%
X151064000Y-116800000D03*
D14*
%TO.P,J101,2,Pin_2*%
%TO.N,OLED_SCK*%
X151064000Y-114260000D03*
%TO.P,J101,3,Pin_3*%
%TO.N,3V3_PICO1*%
X151064000Y-111720000D03*
%TO.P,J101,4,Pin_4*%
%TO.N,GND*%
X151064000Y-109180000D03*
%TD*%
D11*
%TO.P,,1*%
%TO.N,3V3_PICO1*%
X115758000Y-77898000D03*
%TD*%
%TO.P,SW101,1,A*%
%TO.N,GND*%
X143138000Y-148524000D03*
X136638000Y-148524000D03*
%TO.P,SW101,2,B*%
%TO.N,INPUT1*%
X136638000Y-144024000D03*
X143138000Y-144024000D03*
%TD*%
%TO.P,REF\u002A\u002A15,1*%
%TO.N,N/C*%
X161610000Y-148640000D03*
%TD*%
%TO.P,REF\u002A\u002A5,1*%
%TO.N,N/C*%
X148610000Y-143560000D03*
%TD*%
%TO.P,,1*%
%TO.N,GND*%
X112710000Y-77948000D03*
%TD*%
%TO.P,,1*%
%TO.N,+5V*%
X169050000Y-136800000D03*
%TD*%
%TO.P,REF\u002A\u002A2,1*%
%TO.N,N/C*%
X153690000Y-141020000D03*
%TD*%
%TO.P,REF\u002A\u002A6,1*%
%TO.N,N/C*%
X151150000Y-143560000D03*
%TD*%
%TO.P,REF\u002A\u002A11,1*%
%TO.N,N/C*%
X151150000Y-146100000D03*
%TD*%
%TO.P,REF\u002A\u002A14,1*%
%TO.N,N/C*%
X171770000Y-146100000D03*
%TD*%
%TO.P,SW102,1,A*%
%TO.N,GND*%
X130946000Y-148778000D03*
X124446000Y-148778000D03*
%TO.P,SW102,2,B*%
%TO.N,INPUT2*%
X130946000Y-144278000D03*
X124446000Y-144278000D03*
%TD*%
%TO.P,REF\u002A\u002A1,1*%
%TO.N,N/C*%
X164150000Y-141020000D03*
%TD*%
%TO.P,REF\u002A\u002A16,1*%
%TO.N,N/C*%
X164150000Y-148640000D03*
%TD*%
%TO.P,REF\u002A\u002A10,1*%
%TO.N,N/C*%
X161610000Y-146100000D03*
%TD*%
%TO.P,,1*%
%TO.N,+5V*%
X105344000Y-77948000D03*
%TD*%
%TO.P,REF\u002A\u002A4,1*%
%TO.N,N/C*%
X158770000Y-141020000D03*
%TD*%
%TO.P,REF\u002A\u002A20,1*%
%TO.N,N/C*%
X161610000Y-151180000D03*
%TD*%
%TO.P,REF\u002A\u002A16,1*%
%TO.N,N/C*%
X151150000Y-148640000D03*
%TD*%
%TO.P,REF\u002A\u002A15,1*%
%TO.N,N/C*%
X148610000Y-148640000D03*
%TD*%
%TO.P,,1*%
%TO.N,GND*%
X167828000Y-76424000D03*
%TD*%
%TO.P,REF\u002A\u002A14,1*%
%TO.N,N/C*%
X158770000Y-146100000D03*
%TD*%
%TO.P,REF\u002A\u002A7,1*%
%TO.N,N/C*%
X166690000Y-143560000D03*
%TD*%
%TO.P,REF\u002A\u002A9,1*%
%TO.N,N/C*%
X171770000Y-143560000D03*
%TD*%
%TO.P,REF\u002A\u002A12,1*%
%TO.N,N/C*%
X153690000Y-146100000D03*
%TD*%
%TO.P,REF\u002A\u002A19,1*%
%TO.N,N/C*%
X171770000Y-148640000D03*
%TD*%
%TO.P,REF\u002A\u002A7,1*%
%TO.N,N/C*%
X153690000Y-143560000D03*
%TD*%
%TO.P,REF\u002A\u002A23,1*%
%TO.N,N/C*%
X169230000Y-151180000D03*
%TD*%
%TO.P,REF\u002A\u002A23,1*%
%TO.N,N/C*%
X156230000Y-151180000D03*
%TD*%
%TO.P,REF\u002A\u002A22,1*%
%TO.N,N/C*%
X153690000Y-151180000D03*
%TD*%
%TO.P,REF\u002A\u002A4,1*%
%TO.N,N/C*%
X171770000Y-141020000D03*
%TD*%
D15*
%TO.P,Z101,*%
%TO.N,*%
X78420000Y-91470000D03*
X80960000Y-91470000D03*
%TO.P,Z101,A1,A15*%
%TO.N,ZXA15*%
X80960000Y-81310000D03*
%TO.P,Z101,A2,A13*%
%TO.N,ZXA13*%
X80960000Y-83850000D03*
%TO.P,Z101,A3,D7*%
%TO.N,ZXD7*%
X80960000Y-86390000D03*
%TO.P,Z101,A4,NC*%
%TO.N,unconnected-(Z101-PadA4)*%
X80960000Y-88930000D03*
%TO.P,Z101,A6,D0*%
%TO.N,ZXD0*%
X80960000Y-94010000D03*
%TO.P,Z101,A7,D1*%
%TO.N,ZXD1*%
X80960000Y-96550000D03*
%TO.P,Z101,A8,D2*%
%TO.N,ZXD2*%
X80960000Y-99090000D03*
%TO.P,Z101,A9,D6*%
%TO.N,ZXD6*%
X80960000Y-101630000D03*
%TO.P,Z101,A10,D5*%
%TO.N,ZXD5*%
X80960000Y-104170000D03*
%TO.P,Z101,A11,D3*%
%TO.N,ZXD3*%
X80960000Y-106710000D03*
%TO.P,Z101,A12,D4*%
%TO.N,ZXD4*%
X80960000Y-109250000D03*
%TO.P,Z101,A13,~{INT}*%
%TO.N,ZXINT*%
X80960000Y-111790000D03*
%TO.P,Z101,A14,~{NMI}*%
%TO.N,ZXNMI*%
X80960000Y-114330000D03*
%TO.P,Z101,A15,~{HALT}*%
%TO.N,ZXHALT*%
X80960000Y-116870000D03*
%TO.P,Z101,A16,~{MREQ}*%
%TO.N,ZXMREQ*%
X80960000Y-119410000D03*
%TO.P,Z101,A17,~{IORQ}*%
%TO.N,ZXIORQ*%
X80960000Y-121950000D03*
%TO.P,Z101,A18,~{RD}*%
%TO.N,ZXRD*%
X80960000Y-124490000D03*
%TO.P,Z101,A19,~{WR}*%
%TO.N,ZXWR*%
X80960000Y-127030000D03*
%TO.P,Z101,A20,-5V*%
%TO.N,ZXMIN5V*%
X80960000Y-129570000D03*
%TO.P,Z101,A21,~{WAIT}*%
%TO.N,ZXWAIT*%
X80960000Y-132110000D03*
%TO.P,Z101,A22,+12V*%
%TO.N,ZX12V*%
X80960000Y-134650000D03*
%TO.P,Z101,A23,+12VAC*%
%TO.N,ZX12VAC*%
X80960000Y-137190000D03*
%TO.P,Z101,A24,~{M1}*%
%TO.N,ZXM1*%
X80960000Y-139730000D03*
%TO.P,Z101,A25,~{RFSH}*%
%TO.N,ZXRFSH*%
X80960000Y-142270000D03*
%TO.P,Z101,A26,A8*%
%TO.N,ZXA8*%
X80960000Y-144810000D03*
%TO.P,Z101,A27,A10*%
%TO.N,ZXA10*%
X80960000Y-147350000D03*
%TO.P,Z101,A28,NC*%
%TO.N,unconnected-(Z101-PadA28)*%
X80960000Y-149890000D03*
%TO.P,Z101,B1,A14*%
%TO.N,ZXA14*%
X78420000Y-81310000D03*
%TO.P,Z101,B2,A12*%
%TO.N,ZXA12*%
X78420000Y-83850000D03*
%TO.P,Z101,B3,+5v*%
%TO.N,+5V*%
X78420000Y-86390000D03*
%TO.P,Z101,B4,+9V*%
%TO.N,ZX9V*%
X78420000Y-88930000D03*
%TO.P,Z101,B6,GND*%
%TO.N,GND*%
X78420000Y-94010000D03*
%TO.P,Z101,B7,GND*%
X78420000Y-96550000D03*
%TO.P,Z101,B8,CLK*%
%TO.N,ZXCLK*%
X78420000Y-99090000D03*
%TO.P,Z101,B9,A0*%
%TO.N,ZXA0*%
X78420000Y-101630000D03*
%TO.P,Z101,B10,A1*%
%TO.N,ZXA1*%
X78420000Y-104170000D03*
%TO.P,Z101,B11,A2*%
%TO.N,ZXA2*%
X78420000Y-106710000D03*
%TO.P,Z101,B12,A3*%
%TO.N,ZXA3*%
X78420000Y-109250000D03*
%TO.P,Z101,B13,~{IORQGE}*%
%TO.N,ZXIORQGE*%
X78420000Y-111790000D03*
%TO.P,Z101,B14,GND*%
%TO.N,GND*%
X78420000Y-114330000D03*
%TO.P,Z101,B15,VIDEO*%
%TO.N,ZXVIDEO*%
X78420000Y-116870000D03*
%TO.P,Z101,B16,Y*%
%TO.N,ZXY*%
X78420000Y-119410000D03*
%TO.P,Z101,B17,V*%
%TO.N,ZXV*%
X78420000Y-121950000D03*
%TO.P,Z101,B18,U*%
%TO.N,ZXU*%
X78420000Y-124490000D03*
%TO.P,Z101,B19,~{BUSRQ}*%
%TO.N,ZXBUSRQ*%
X78420000Y-127030000D03*
%TO.P,Z101,B20,~{RESET}*%
%TO.N,ZXRESET*%
X78420000Y-129570000D03*
%TO.P,Z101,B21,A7*%
%TO.N,ZXA7*%
X78420000Y-132110000D03*
%TO.P,Z101,B22,A6*%
%TO.N,ZXA6*%
X78420000Y-134650000D03*
%TO.P,Z101,B23,A5*%
%TO.N,ZXA5*%
X78420000Y-137190000D03*
%TO.P,Z101,B24,A4*%
%TO.N,ZXA4*%
X78420000Y-139730000D03*
%TO.P,Z101,B25,~{ROMCS}*%
%TO.N,ZXROMCS*%
X78420000Y-142270000D03*
%TO.P,Z101,B26,~{BUSACK}*%
%TO.N,ZXBUSACK*%
X78420000Y-144810000D03*
%TO.P,Z101,B27,A9*%
%TO.N,ZXA9*%
X78420000Y-147350000D03*
%TO.P,Z101,B28,A11*%
%TO.N,ZXA11*%
X78420000Y-149890000D03*
%TD*%
D11*
%TO.P,REF\u002A\u002A5,1*%
%TO.N,N/C*%
X161610000Y-143560000D03*
%TD*%
%TO.P,REF\u002A\u002A8,1*%
%TO.N,N/C*%
X156230000Y-143560000D03*
%TD*%
%TO.P,REF\u002A\u002A18,1*%
%TO.N,N/C*%
X169230000Y-148640000D03*
%TD*%
D13*
%TO.P,J203,1,Pin_1*%
%TO.N,ZXA14*%
X86365000Y-81470000D03*
D14*
%TO.P,J203,2,Pin_2*%
%TO.N,ZXA12*%
X86365000Y-84010000D03*
%TO.P,J203,3,Pin_3*%
%TO.N,+5V*%
X86365000Y-86550000D03*
%TO.P,J203,4,Pin_4*%
%TO.N,ZX9V*%
X86365000Y-89090000D03*
%TO.P,J203,5,Pin_5*%
%TO.N,ZXCLK*%
X86365000Y-91630000D03*
%TO.P,J203,6,Pin_6*%
%TO.N,ZXA0*%
X86365000Y-94170000D03*
%TO.P,J203,7,Pin_7*%
%TO.N,ZXA1*%
X86365000Y-96710000D03*
%TO.P,J203,8,Pin_8*%
%TO.N,ZXA2*%
X86365000Y-99250000D03*
%TO.P,J203,9,Pin_9*%
%TO.N,ZXA3*%
X86365000Y-101790000D03*
%TO.P,J203,10,Pin_10*%
%TO.N,ZXIORQGE*%
X86365000Y-104330000D03*
%TO.P,J203,11,Pin_11*%
%TO.N,ZXVIDEO*%
X86365000Y-106870000D03*
%TO.P,J203,12,Pin_12*%
%TO.N,ZXY*%
X86365000Y-109410000D03*
%TO.P,J203,13,Pin_13*%
%TO.N,ZXV*%
X86365000Y-111950000D03*
%TO.P,J203,14,Pin_14*%
%TO.N,ZXU*%
X86365000Y-114490000D03*
%TO.P,J203,15,Pin_15*%
%TO.N,ZXBUSRQ*%
X86365000Y-117030000D03*
%TO.P,J203,16,Pin_16*%
%TO.N,ZXRESET*%
X86365000Y-119570000D03*
%TO.P,J203,17,Pin_17*%
%TO.N,ZXA7*%
X86365000Y-122110000D03*
%TO.P,J203,18,Pin_18*%
%TO.N,ZXA6*%
X86365000Y-124650000D03*
%TO.P,J203,19,Pin_19*%
%TO.N,ZXA5*%
X86365000Y-127190000D03*
%TO.P,J203,20,Pin_20*%
%TO.N,ZXA4*%
X86365000Y-129730000D03*
%TD*%
D16*
%TO.P,R106,1*%
%TO.N,12V_DIV*%
X92820000Y-143560000D03*
%TO.P,R106,2*%
%TO.N,GND*%
X95920000Y-143560000D03*
%TD*%
D13*
%TO.P,J204,1,Pin_1*%
%TO.N,P1_GPIO0*%
X168295000Y-82560000D03*
D14*
%TO.P,J204,2,Pin_2*%
%TO.N,P1_GPIO1*%
X168295000Y-85100000D03*
%TO.P,J204,3,Pin_3*%
%TO.N,P1_GPIO2*%
X168295000Y-87640000D03*
%TO.P,J204,4,Pin_4*%
%TO.N,P1_GPIO3*%
X168295000Y-90180000D03*
%TO.P,J204,5,Pin_5*%
%TO.N,P1_GPIO4*%
X168295000Y-92720000D03*
%TO.P,J204,6,Pin_6*%
%TO.N,P1_GPIO5*%
X168295000Y-95260000D03*
%TO.P,J204,7,Pin_7*%
%TO.N,P1_GPIO6*%
X168295000Y-97800000D03*
%TO.P,J204,8,Pin_8*%
%TO.N,P1_GPIO7*%
X168295000Y-100340000D03*
%TO.P,J204,9,Pin_9*%
%TO.N,P1_GPIO8*%
X168295000Y-102880000D03*
%TO.P,J204,10,Pin_10*%
%TO.N,P1_GPIO9*%
X168295000Y-105420000D03*
%TO.P,J204,11,Pin_11*%
%TO.N,P1_GPIO10*%
X168295000Y-107960000D03*
%TO.P,J204,12,Pin_12*%
%TO.N,P1_GPIO11*%
X168295000Y-110500000D03*
%TO.P,J204,13,Pin_13*%
%TO.N,P1_GPIO12*%
X168295000Y-113040000D03*
%TO.P,J204,14,Pin_14*%
%TO.N,P1_GPIO13*%
X168295000Y-115580000D03*
%TO.P,J204,15,Pin_15*%
%TO.N,P1_GPIO14*%
X168295000Y-118120000D03*
%TO.P,J204,16,Pin_16*%
%TO.N,P1_GPIO15*%
X168295000Y-120660000D03*
%TO.P,J204,17,Pin_17*%
%TO.N,P2_GPIO0*%
X168295000Y-123200000D03*
%TO.P,J204,18,Pin_18*%
%TO.N,P2_GPIO1*%
X168295000Y-125740000D03*
%TO.P,J204,19,Pin_19*%
%TO.N,P2_GPIO2*%
X168295000Y-128280000D03*
%TO.P,J204,20,Pin_20*%
%TO.N,P2_GPIO3*%
X168295000Y-130820000D03*
%TD*%
D12*
%TO.P,R101,1*%
%TO.N,+5V*%
X103140000Y-150330000D03*
%TO.P,R101,2*%
%TO.N,MIN5V_DIV*%
X100040000Y-150330000D03*
%TD*%
D14*
%TO.P,J202,20,Pin_20*%
%TO.N,unconnected-(J202-Pad20)*%
X141250000Y-138565000D03*
%TO.P,J202,19,Pin_19*%
%TO.N,unconnected-(J202-Pad19)*%
X138710000Y-138565000D03*
%TO.P,J202,18,Pin_18*%
%TO.N,unconnected-(J202-Pad18)*%
X136170000Y-138565000D03*
%TO.P,J202,17,Pin_17*%
%TO.N,unconnected-(J202-Pad17)*%
X133630000Y-138565000D03*
%TO.P,J202,16,Pin_16*%
%TO.N,unconnected-(J202-Pad16)*%
X131090000Y-138565000D03*
%TO.P,J202,15,Pin_15*%
%TO.N,unconnected-(J202-Pad15)*%
X128550000Y-138565000D03*
%TO.P,J202,14,Pin_14*%
%TO.N,unconnected-(J202-Pad14)*%
X126010000Y-138565000D03*
%TO.P,J202,13,Pin_13*%
%TO.N,unconnected-(J202-Pad13)*%
X123470000Y-138565000D03*
%TO.P,J202,12,Pin_12*%
%TO.N,MIN5V_DIV*%
X120930000Y-138565000D03*
%TO.P,J202,11,Pin_11*%
%TO.N,12V_DIV*%
X118390000Y-138565000D03*
%TO.P,J202,10,Pin_10*%
%TO.N,5V_DIV*%
X115850000Y-138565000D03*
%TO.P,J202,9,Pin_9*%
%TO.N,ZXA10*%
X113310000Y-138565000D03*
%TO.P,J202,8,Pin_8*%
%TO.N,ZXA8*%
X110770000Y-138565000D03*
%TO.P,J202,7,Pin_7*%
%TO.N,ZXRFSH*%
X108230000Y-138565000D03*
%TO.P,J202,6,Pin_6*%
%TO.N,ZXM1*%
X105690000Y-138565000D03*
%TO.P,J202,5,Pin_5*%
%TO.N,ZX12VAC*%
X103150000Y-138565000D03*
%TO.P,J202,4,Pin_4*%
%TO.N,ZXA11*%
X100610000Y-138565000D03*
%TO.P,J202,3,Pin_3*%
%TO.N,ZXA9*%
X98070000Y-138565000D03*
%TO.P,J202,2,Pin_2*%
%TO.N,ZXBUSACK*%
X95530000Y-138565000D03*
D13*
%TO.P,J202,1,Pin_1*%
%TO.N,ZXROMCS*%
X92990000Y-138565000D03*
%TD*%
D17*
%TO.P,Q101,1,B*%
%TO.N,Net-(Q101-Pad1)*%
X90790000Y-148980000D03*
%TO.P,Q101,2,E*%
%TO.N,GND*%
X90790000Y-150880000D03*
%TO.P,Q101,3,C*%
%TO.N,ZXRESET*%
X87370000Y-149930000D03*
%TD*%
D13*
%TO.P,J102,1,Pin_1*%
%TO.N,P1_SWDIO*%
X155825000Y-136465000D03*
D14*
%TO.P,J102,2,Pin_2*%
%TO.N,GND*%
X158365000Y-136465000D03*
%TO.P,J102,3,Pin_3*%
%TO.N,P1_SWCLK*%
X160905000Y-136465000D03*
%TD*%
D16*
%TO.P,R102,1*%
%TO.N,MIN5V_DIV*%
X105900000Y-150320000D03*
%TO.P,R102,2*%
%TO.N,ZXMIN5V*%
X109000000Y-150320000D03*
%TD*%
D12*
%TO.P,R103,1*%
%TO.N,5V_DIV*%
X101990000Y-143590000D03*
%TO.P,R103,2*%
%TO.N,+5V*%
X98890000Y-143590000D03*
%TD*%
D18*
%TO.P,D101,1,K*%
%TO.N,PICO_PWR*%
X109550000Y-90952500D03*
%TO.P,D101,2,A*%
%TO.N,+5V*%
X109550000Y-93927500D03*
%TD*%
D19*
%TO.P,U102,1,GPIO0*%
%TO.N,P2_GPIO0*%
X123420000Y-83020000D03*
D14*
X122520000Y-83020000D03*
%TO.P,U102,2,GPIO1*%
%TO.N,P2_GPIO1*%
X122520000Y-85560000D03*
D19*
X123420000Y-85560000D03*
D13*
%TO.P,U102,3,GND*%
%TO.N,GND*%
X122520000Y-88100000D03*
D19*
X123420000Y-88100000D03*
%TO.P,U102,4,GPIO2*%
%TO.N,P2_GPIO2*%
X123420000Y-90640000D03*
D14*
X122520000Y-90640000D03*
D19*
%TO.P,U102,5,GPIO3*%
%TO.N,P2_GPIO3*%
X123420000Y-93180000D03*
D14*
X122520000Y-93180000D03*
D19*
%TO.P,U102,6,GPIO4*%
%TO.N,P2_GPIO4*%
X123420000Y-95720000D03*
D14*
X122520000Y-95720000D03*
%TO.P,U102,7,GPIO5*%
%TO.N,P2_GPIO5*%
X122520000Y-98260000D03*
D19*
X123420000Y-98260000D03*
%TO.P,U102,8,GND*%
%TO.N,GND*%
X123420000Y-100800000D03*
D13*
X122520000Y-100800000D03*
D14*
%TO.P,U102,9,GPIO6*%
%TO.N,P2_GPIO6*%
X122520000Y-103340000D03*
D19*
X123420000Y-103340000D03*
D14*
%TO.P,U102,10,GPIO7*%
%TO.N,P2_GPIO7*%
X122520000Y-105880000D03*
D19*
X123420000Y-105880000D03*
D14*
%TO.P,U102,11,GPIO8*%
%TO.N,P2_GPIO8*%
X122520000Y-108420000D03*
D19*
X123420000Y-108420000D03*
%TO.P,U102,12,GPIO9*%
%TO.N,P2_GPIO9*%
X123420000Y-110960000D03*
D14*
X122520000Y-110960000D03*
D13*
%TO.P,U102,13,GND*%
%TO.N,GND*%
X122520000Y-113500000D03*
D19*
X123420000Y-113500000D03*
%TO.P,U102,14,GPIO10*%
%TO.N,P2_GPIO10*%
X123420000Y-116040000D03*
D14*
X122520000Y-116040000D03*
D19*
%TO.P,U102,15,GPIO11*%
%TO.N,P2_GPIO11*%
X123420000Y-118580000D03*
D14*
X122520000Y-118580000D03*
D19*
%TO.P,U102,16,GPIO12*%
%TO.N,P2_GPIO12*%
X123420000Y-121120000D03*
D14*
X122520000Y-121120000D03*
%TO.P,U102,17,GPIO13*%
%TO.N,P2_GPIO13*%
X122520000Y-123660000D03*
D19*
X123420000Y-123660000D03*
D13*
%TO.P,U102,18,GND*%
%TO.N,GND*%
X122520000Y-126200000D03*
D19*
X123420000Y-126200000D03*
D14*
%TO.P,U102,19,GPIO14*%
%TO.N,P2_GPIO14*%
X122520000Y-128740000D03*
D19*
X123420000Y-128740000D03*
%TO.P,U102,20,GPIO15*%
%TO.N,P2_GPIO15*%
X123420000Y-131280000D03*
D14*
X122520000Y-131280000D03*
%TO.P,U102,21,GPIO16*%
%TO.N,P2_GPIO16*%
X104740000Y-131280000D03*
D19*
X103840000Y-131280000D03*
D14*
%TO.P,U102,22,GPIO17*%
%TO.N,P2_GPIO17*%
X104740000Y-128740000D03*
D19*
X103840000Y-128740000D03*
%TO.P,U102,23,GND*%
%TO.N,GND*%
X103840000Y-126200000D03*
D13*
X104740000Y-126200000D03*
D19*
%TO.P,U102,24,GPIO18*%
%TO.N,P2_GPIO18*%
X103840000Y-123660000D03*
D14*
X104740000Y-123660000D03*
D19*
%TO.P,U102,25,GPIO19*%
%TO.N,P2_GPIO19*%
X103840000Y-121120000D03*
D14*
X104740000Y-121120000D03*
D19*
%TO.P,U102,26,GPIO20*%
%TO.N,P2_GPIO20*%
X103840000Y-118580000D03*
D14*
X104740000Y-118580000D03*
D19*
%TO.P,U102,27,GPIO21*%
%TO.N,P2_LINKIN*%
X103840000Y-116040000D03*
D14*
X104740000Y-116040000D03*
D13*
%TO.P,U102,28,GND*%
%TO.N,GND*%
X104740000Y-113500000D03*
D19*
X103840000Y-113500000D03*
D14*
%TO.P,U102,29,GPIO22*%
%TO.N,P2_LINKOUT*%
X104740000Y-110960000D03*
D19*
X103840000Y-110960000D03*
D14*
%TO.P,U102,30,RUN*%
%TO.N,unconnected-(U102-Pad30)*%
X104740000Y-108420000D03*
D19*
X103840000Y-108420000D03*
%TO.P,U102,31,GPIO26_ADC0*%
%TO.N,P2_GPIO26*%
X103840000Y-105880000D03*
D14*
X104740000Y-105880000D03*
%TO.P,U102,32,GPIO27_ADC1*%
%TO.N,P2_GPIO27*%
X104740000Y-103340000D03*
D19*
X103840000Y-103340000D03*
%TO.P,U102,33,AGND*%
%TO.N,GND*%
X103840000Y-100800000D03*
D13*
X104740000Y-100800000D03*
D14*
%TO.P,U102,34,GPIO28_ADC2*%
%TO.N,P2_GPIO28*%
X104740000Y-98260000D03*
D19*
X103840000Y-98260000D03*
D14*
%TO.P,U102,35,ADC_VREF*%
%TO.N,unconnected-(U102-Pad35)*%
X104740000Y-95720000D03*
D19*
X103840000Y-95720000D03*
%TO.P,U102,36,3V3*%
%TO.N,3V3_PICO2*%
X103840000Y-93180000D03*
D14*
X104740000Y-93180000D03*
%TO.P,U102,37,3V3_EN*%
%TO.N,unconnected-(U102-Pad37)*%
X104740000Y-90640000D03*
D19*
X103840000Y-90640000D03*
%TO.P,U102,38,GND*%
%TO.N,GND*%
X103840000Y-88100000D03*
D13*
X104740000Y-88100000D03*
D19*
%TO.P,U102,39,VSYS*%
%TO.N,PICO_PWR*%
X103840000Y-85560000D03*
D14*
X104740000Y-85560000D03*
%TO.P,U102,40,VBUS*%
%TO.N,unconnected-(U102-Pad40)*%
X104740000Y-83020000D03*
D19*
X103840000Y-83020000D03*
D14*
%TO.P,U102,41,SWCLK*%
%TO.N,P2_SWCLK*%
X116170000Y-131050000D03*
D20*
X116170000Y-131950000D03*
D13*
%TO.P,U102,42,GND*%
%TO.N,GND*%
X113630000Y-131050000D03*
D20*
X113630000Y-131950000D03*
%TO.P,U102,43,SWDIO*%
%TO.N,P2_SWDIO*%
X111090000Y-131950000D03*
D14*
X111090000Y-131050000D03*
%TD*%
D13*
%TO.P,J103,1,Pin_1*%
%TO.N,P2_SWDIO*%
X113235000Y-143915000D03*
D14*
%TO.P,J103,2,Pin_2*%
%TO.N,GND*%
X115775000Y-143915000D03*
%TO.P,J103,3,Pin_3*%
%TO.N,P2_SWCLK*%
X118315000Y-143915000D03*
%TD*%
D19*
%TO.P,U101,1,GPIO0*%
%TO.N,P1_GPIO0*%
X161390000Y-82625000D03*
D14*
X160490000Y-82625000D03*
D19*
%TO.P,U101,2,GPIO1*%
%TO.N,P1_GPIO1*%
X161390000Y-85165000D03*
D14*
X160490000Y-85165000D03*
D19*
%TO.P,U101,3,GND*%
%TO.N,GND*%
X161390000Y-87705000D03*
D13*
X160490000Y-87705000D03*
D14*
%TO.P,U101,4,GPIO2*%
%TO.N,P1_GPIO2*%
X160490000Y-90245000D03*
D19*
X161390000Y-90245000D03*
%TO.P,U101,5,GPIO3*%
%TO.N,P1_GPIO3*%
X161390000Y-92785000D03*
D14*
X160490000Y-92785000D03*
%TO.P,U101,6,GPIO4*%
%TO.N,P1_GPIO4*%
X160490000Y-95325000D03*
D19*
X161390000Y-95325000D03*
D14*
%TO.P,U101,7,GPIO5*%
%TO.N,P1_GPIO5*%
X160490000Y-97865000D03*
D19*
X161390000Y-97865000D03*
%TO.P,U101,8,GND*%
%TO.N,GND*%
X161390000Y-100405000D03*
D13*
X160490000Y-100405000D03*
D19*
%TO.P,U101,9,GPIO6*%
%TO.N,P1_GPIO6*%
X161390000Y-102945000D03*
D14*
X160490000Y-102945000D03*
%TO.P,U101,10,GPIO7*%
%TO.N,P1_GPIO7*%
X160490000Y-105485000D03*
D19*
X161390000Y-105485000D03*
%TO.P,U101,11,GPIO8*%
%TO.N,P1_GPIO8*%
X161390000Y-108025000D03*
D14*
X160490000Y-108025000D03*
%TO.P,U101,12,GPIO9*%
%TO.N,P1_GPIO9*%
X160490000Y-110565000D03*
D19*
X161390000Y-110565000D03*
%TO.P,U101,13,GND*%
%TO.N,GND*%
X161390000Y-113105000D03*
D13*
X160490000Y-113105000D03*
D19*
%TO.P,U101,14,GPIO10*%
%TO.N,P1_GPIO10*%
X161390000Y-115645000D03*
D14*
X160490000Y-115645000D03*
D19*
%TO.P,U101,15,GPIO11*%
%TO.N,P1_GPIO11*%
X161390000Y-118185000D03*
D14*
X160490000Y-118185000D03*
D19*
%TO.P,U101,16,GPIO12*%
%TO.N,P1_GPIO12*%
X161390000Y-120725000D03*
D14*
X160490000Y-120725000D03*
D19*
%TO.P,U101,17,GPIO13*%
%TO.N,P1_GPIO13*%
X161390000Y-123265000D03*
D14*
X160490000Y-123265000D03*
D19*
%TO.P,U101,18,GND*%
%TO.N,GND*%
X161390000Y-125805000D03*
D13*
X160490000Y-125805000D03*
D14*
%TO.P,U101,19,GPIO14*%
%TO.N,P1_GPIO14*%
X160490000Y-128345000D03*
D19*
X161390000Y-128345000D03*
%TO.P,U101,20,GPIO15*%
%TO.N,P1_GPIO15*%
X161390000Y-130885000D03*
D14*
X160490000Y-130885000D03*
%TO.P,U101,21,GPIO16*%
%TO.N,OLED_SDA*%
X142710000Y-130885000D03*
D19*
X141810000Y-130885000D03*
D14*
%TO.P,U101,22,GPIO17*%
%TO.N,OLED_SCK*%
X142710000Y-128345000D03*
D19*
X141810000Y-128345000D03*
%TO.P,U101,23,GND*%
%TO.N,GND*%
X141810000Y-125805000D03*
D13*
X142710000Y-125805000D03*
D14*
%TO.P,U101,24,GPIO18*%
%TO.N,P2_LINKOUT*%
X142710000Y-123265000D03*
D19*
X141810000Y-123265000D03*
D14*
%TO.P,U101,25,GPIO19*%
%TO.N,P2_LINKIN*%
X142710000Y-120725000D03*
D19*
X141810000Y-120725000D03*
D14*
%TO.P,U101,26,GPIO20*%
%TO.N,INPUT2*%
X142710000Y-118185000D03*
D19*
X141810000Y-118185000D03*
D14*
%TO.P,U101,27,GPIO21*%
%TO.N,INPUT1*%
X142710000Y-115645000D03*
D19*
X141810000Y-115645000D03*
D13*
%TO.P,U101,28,GND*%
%TO.N,GND*%
X142710000Y-113105000D03*
D19*
X141810000Y-113105000D03*
D14*
%TO.P,U101,29,GPIO22*%
%TO.N,PICO_RESET_Z80*%
X142710000Y-110565000D03*
D19*
X141810000Y-110565000D03*
%TO.P,U101,30,RUN*%
%TO.N,unconnected-(U101-Pad30)*%
X141810000Y-108025000D03*
D14*
X142710000Y-108025000D03*
D19*
%TO.P,U101,31,GPIO26_ADC0*%
%TO.N,MIN5V_DIV*%
X141810000Y-105485000D03*
D14*
X142710000Y-105485000D03*
%TO.P,U101,32,GPIO27_ADC1*%
%TO.N,12V_DIV*%
X142710000Y-102945000D03*
D19*
X141810000Y-102945000D03*
%TO.P,U101,33,AGND*%
%TO.N,GND*%
X141810000Y-100405000D03*
D13*
X142710000Y-100405000D03*
D19*
%TO.P,U101,34,GPIO28_ADC2*%
%TO.N,5V_DIV*%
X141810000Y-97865000D03*
D14*
X142710000Y-97865000D03*
D19*
%TO.P,U101,35,ADC_VREF*%
%TO.N,unconnected-(U101-Pad35)*%
X141810000Y-95325000D03*
D14*
X142710000Y-95325000D03*
D19*
%TO.P,U101,36,3V3*%
%TO.N,3V3_PICO1*%
X141810000Y-92785000D03*
D14*
X142710000Y-92785000D03*
D19*
%TO.P,U101,37,3V3_EN*%
%TO.N,unconnected-(U101-Pad37)*%
X141810000Y-90245000D03*
D14*
X142710000Y-90245000D03*
D13*
%TO.P,U101,38,GND*%
%TO.N,GND*%
X142710000Y-87705000D03*
D19*
X141810000Y-87705000D03*
D14*
%TO.P,U101,39,VSYS*%
%TO.N,PICO_PWR*%
X142710000Y-85165000D03*
D19*
X141810000Y-85165000D03*
D14*
%TO.P,U101,40,VBUS*%
%TO.N,unconnected-(U101-Pad40)*%
X142710000Y-82625000D03*
D19*
X141810000Y-82625000D03*
D14*
%TO.P,U101,41,SWCLK*%
%TO.N,P1_SWCLK*%
X154140000Y-130655000D03*
D20*
X154140000Y-131555000D03*
%TO.P,U101,42,GND*%
%TO.N,GND*%
X151600000Y-131555000D03*
D13*
X151600000Y-130655000D03*
D20*
%TO.P,U101,43,SWDIO*%
%TO.N,P1_SWDIO*%
X149060000Y-131555000D03*
D14*
X149060000Y-130655000D03*
%TD*%
D16*
%TO.P,R104,1*%
%TO.N,5V_DIV*%
X104650000Y-143530000D03*
%TO.P,R104,2*%
%TO.N,GND*%
X107750000Y-143530000D03*
%TD*%
D13*
%TO.P,J205,1,Pin_1*%
%TO.N,P2_GPIO4*%
X129770000Y-83240000D03*
D14*
%TO.P,J205,2,Pin_2*%
%TO.N,P2_GPIO5*%
X129770000Y-85780000D03*
%TO.P,J205,3,Pin_3*%
%TO.N,P2_GPIO6*%
X129770000Y-88320000D03*
%TO.P,J205,4,Pin_4*%
%TO.N,P2_GPIO7*%
X129770000Y-90860000D03*
%TO.P,J205,5,Pin_5*%
%TO.N,P2_GPIO8*%
X129770000Y-93400000D03*
%TO.P,J205,6,Pin_6*%
%TO.N,P2_GPIO9*%
X129770000Y-95940000D03*
%TO.P,J205,7,Pin_7*%
%TO.N,P2_GPIO10*%
X129770000Y-98480000D03*
%TO.P,J205,8,Pin_8*%
%TO.N,P2_GPIO11*%
X129770000Y-101020000D03*
%TO.P,J205,9,Pin_9*%
%TO.N,P2_GPIO12*%
X129770000Y-103560000D03*
%TO.P,J205,10,Pin_10*%
%TO.N,P2_GPIO13*%
X129770000Y-106100000D03*
%TO.P,J205,11,Pin_11*%
%TO.N,P2_GPIO14*%
X129770000Y-108640000D03*
%TO.P,J205,12,Pin_12*%
%TO.N,P2_GPIO15*%
X129770000Y-111180000D03*
%TO.P,J205,13,Pin_13*%
%TO.N,P2_GPIO16*%
X129770000Y-113720000D03*
%TO.P,J205,14,Pin_14*%
%TO.N,P2_GPIO17*%
X129770000Y-116260000D03*
%TO.P,J205,15,Pin_15*%
%TO.N,P2_GPIO18*%
X129770000Y-118800000D03*
%TO.P,J205,16,Pin_16*%
%TO.N,P2_GPIO19*%
X129770000Y-121340000D03*
%TO.P,J205,17,Pin_17*%
%TO.N,P2_GPIO20*%
X129770000Y-123880000D03*
%TO.P,J205,18,Pin_18*%
%TO.N,P2_GPIO26*%
X129770000Y-126420000D03*
%TO.P,J205,19,Pin_19*%
%TO.N,P2_GPIO27*%
X129770000Y-128960000D03*
%TO.P,J205,20,Pin_20*%
%TO.N,P2_GPIO28*%
X129770000Y-131500000D03*
%TD*%
D12*
%TO.P,R105,1*%
%TO.N,12V_DIV*%
X90180000Y-143550000D03*
%TO.P,R105,2*%
%TO.N,ZX12V*%
X87080000Y-143550000D03*
%TD*%
D13*
%TO.P,J201,1,Pin_1*%
%TO.N,ZXA15*%
X94090000Y-81430000D03*
D14*
%TO.P,J201,2,Pin_2*%
%TO.N,ZXA13*%
X94090000Y-83970000D03*
%TO.P,J201,3,Pin_3*%
%TO.N,ZXD7*%
X94090000Y-86510000D03*
%TO.P,J201,4,Pin_4*%
%TO.N,ZXD0*%
X94090000Y-89050000D03*
%TO.P,J201,5,Pin_5*%
%TO.N,ZXD1*%
X94090000Y-91590000D03*
%TO.P,J201,6,Pin_6*%
%TO.N,ZXD2*%
X94090000Y-94130000D03*
%TO.P,J201,7,Pin_7*%
%TO.N,ZXD6*%
X94090000Y-96670000D03*
%TO.P,J201,8,Pin_8*%
%TO.N,ZXD5*%
X94090000Y-99210000D03*
%TO.P,J201,9,Pin_9*%
%TO.N,ZXD3*%
X94090000Y-101750000D03*
%TO.P,J201,10,Pin_10*%
%TO.N,ZXD4*%
X94090000Y-104290000D03*
%TO.P,J201,11,Pin_11*%
%TO.N,ZXINT*%
X94090000Y-106830000D03*
%TO.P,J201,12,Pin_12*%
%TO.N,ZXNMI*%
X94090000Y-109370000D03*
%TO.P,J201,13,Pin_13*%
%TO.N,ZXHALT*%
X94090000Y-111910000D03*
%TO.P,J201,14,Pin_14*%
%TO.N,ZXMREQ*%
X94090000Y-114450000D03*
%TO.P,J201,15,Pin_15*%
%TO.N,ZXIORQ*%
X94090000Y-116990000D03*
%TO.P,J201,16,Pin_16*%
%TO.N,ZXRD*%
X94090000Y-119530000D03*
%TO.P,J201,17,Pin_17*%
%TO.N,ZXWR*%
X94090000Y-122070000D03*
%TO.P,J201,18,Pin_18*%
%TO.N,ZXMIN5V*%
X94090000Y-124610000D03*
%TO.P,J201,19,Pin_19*%
%TO.N,ZXWAIT*%
X94090000Y-127150000D03*
%TO.P,J201,20,Pin_20*%
%TO.N,ZX12V*%
X94090000Y-129690000D03*
%TD*%
D21*
%TO.N,3V3_PICO1*%
X138618000Y-92934000D03*
X138618000Y-77694000D03*
%TO.N,PICO_PWR*%
X139634000Y-76424000D03*
X118298000Y-80488000D03*
X118298000Y-76424000D03*
X108900000Y-80488000D03*
%TO.N,+5V*%
X76642000Y-79218000D03*
%TO.N,3V3_PICO2*%
X99248000Y-92172000D03*
%TO.N,PICO_PWR*%
X108900000Y-85568000D03*
%TO.N,GND*%
X113726000Y-126208000D03*
%TO.N,3V3_PICO1*%
X145984000Y-92934000D03*
%TO.N,OLED_SCK*%
X153096000Y-114270000D03*
X153096000Y-127224000D03*
%TO.N,OLED_SDA*%
X147254000Y-128240000D03*
X153858000Y-116810000D03*
X147254000Y-130780000D03*
X153858000Y-128240000D03*
%TO.N,P2_GPIO4*%
X134046000Y-83282000D03*
X134046000Y-94458000D03*
%TO.N,P2_GPIO5*%
X134808000Y-85822000D03*
X134845500Y-97252000D03*
%TO.N,P2_GPIO6*%
X135570000Y-88362000D03*
X135607500Y-102078000D03*
%TO.N,P2_GPIO7*%
X136332000Y-90902000D03*
X136332000Y-104618000D03*
%TO.N,P2_GPIO8*%
X137094000Y-93442000D03*
X137385500Y-107158000D03*
%TO.N,P2_GPIO9*%
X137856000Y-95982000D03*
X138110000Y-109952000D03*
%TO.N,P2_GPIO10*%
X131506000Y-98522000D03*
X131506000Y-114778000D03*
%TO.N,P2_GPIO11*%
X132268000Y-101062000D03*
X132268000Y-117318000D03*
%TO.N,P2_GPIO12*%
X133030000Y-103602000D03*
X133105000Y-119858000D03*
%TO.N,P2_GPIO13*%
X133792000Y-105888000D03*
X133829500Y-122398000D03*
%TO.N,P2_GPIO14*%
X134554000Y-108682000D03*
X134554000Y-127478000D03*
%TO.N,P2_GPIO15*%
X135316000Y-111222000D03*
X135316000Y-130018000D03*
%TO.N,P2_LINKIN*%
X136332000Y-133357500D03*
X136332000Y-120620000D03*
X119060000Y-116048000D03*
X119060000Y-133320000D03*
%TO.N,P2_LINKOUT*%
X118044000Y-110968000D03*
X137337652Y-133817652D03*
X137348000Y-123414000D03*
X118044000Y-134082000D03*
%TO.N,P2_GPIO16*%
X106360000Y-131288000D03*
X106360000Y-114524000D03*
%TO.N,P2_GPIO17*%
X112710000Y-128099500D03*
X112710000Y-117318000D03*
%TO.N,P2_GPIO18*%
X107122000Y-123668000D03*
X107122000Y-119858000D03*
%TO.N,P2_GPIO19*%
X107884000Y-120874000D03*
X107884000Y-122144000D03*
%TO.N,P2_GPIO20*%
X108646000Y-118588000D03*
X108640500Y-124938000D03*
%TO.N,P2_GPIO26*%
X111186000Y-105888000D03*
X110932000Y-127224000D03*
%TO.N,P2_GPIO27*%
X111948000Y-129002000D03*
X111694000Y-103348000D03*
%TO.N,P2_GPIO28*%
X101280000Y-132558000D03*
%TO.N,P2_GPIO2*%
X120838000Y-90648000D03*
%TO.N,P2_GPIO3*%
X172238848Y-77554727D03*
X119838497Y-78964000D03*
X120330000Y-93188000D03*
%TO.N,P2_GPIO2*%
X120838000Y-78964000D03*
X171684424Y-78386364D03*
%TO.N,P2_GPIO1*%
X121784364Y-79425576D03*
X171130000Y-79218000D03*
%TO.N,P2_GPIO0*%
X122616000Y-79980000D03*
X170368000Y-79980000D03*
%TO.N,MIN5V_DIV*%
X138872000Y-106142000D03*
%TO.N,12V_DIV*%
X139703636Y-135051576D03*
X118298000Y-136114000D03*
%TO.N,5V_DIV*%
X115758000Y-135352000D03*
X145222000Y-98014000D03*
X145904500Y-135606000D03*
%TO.N,INPUT2*%
X138110000Y-118080000D03*
%TO.N,MIN5V_DIV*%
X138872000Y-135606000D03*
%TO.N,P1_SWCLK*%
X154112000Y-133320000D03*
%TO.N,P1_SWDIO*%
X149032000Y-136622000D03*
%TO.N,3V3_PICO1*%
X145984000Y-111984000D03*
X147127000Y-138019000D03*
%TO.N,INPUT1*%
X144455500Y-136368000D03*
X143190000Y-136368000D03*
%TO.N,INPUT2*%
X138110000Y-136368000D03*
X132268000Y-136368000D03*
%TO.N,3V3_PICO1*%
X115758000Y-152878000D03*
X144460000Y-152878000D03*
X144455500Y-137892000D03*
%TO.N,GND*%
X117450000Y-150290000D03*
X115760000Y-147650000D03*
X110060000Y-147700000D03*
X110770000Y-150180000D03*
X95850000Y-146680000D03*
X92580000Y-146680000D03*
X95930000Y-141970000D03*
X92580000Y-151160000D03*
%TO.N,+5V*%
X109630000Y-135780000D03*
X99435000Y-136155000D03*
%TO.N,5V_DIV*%
X115880000Y-141900000D03*
X104650000Y-141970000D03*
%TO.N,+5V*%
X146238000Y-139162000D03*
X146280000Y-146040000D03*
X98910000Y-147036000D03*
X103140000Y-147036000D03*
%TO.N,MIN5V_DIV*%
X105130000Y-152060000D03*
X112810000Y-152060000D03*
X122060000Y-151910000D03*
X100070000Y-152060000D03*
%TO.N,PICO_RESET_Z80*%
X144714000Y-110460000D03*
X97170000Y-148440000D03*
X145730000Y-146930000D03*
%TO.N,Net-(Q101-Pad1)*%
X94010000Y-148680000D03*
X90810000Y-149860000D03*
%TO.N,12V_DIV*%
X120240000Y-145300000D03*
X94440000Y-144720000D03*
%TO.N,ZXMIN5V*%
X108970000Y-147580000D03*
X89110000Y-147520000D03*
X89125000Y-128555000D03*
%TO.N,ZXA11*%
X100690000Y-146230000D03*
%TO.N,ZXA10*%
X86130000Y-147330000D03*
X110990000Y-145510000D03*
X86200000Y-145470000D03*
%TO.N,ZXA9*%
X97350000Y-143470000D03*
X84990000Y-146180000D03*
X84990000Y-143580000D03*
%TO.N,ZXA8*%
X110770500Y-140600000D03*
X83840000Y-144820000D03*
X84461254Y-141993344D03*
%TO.N,ZXBUSACK*%
X95520000Y-136525500D03*
X82890000Y-143740000D03*
X82857308Y-136525500D03*
%TO.N,ZXROMCS*%
X87530000Y-138600000D03*
X87460000Y-140464500D03*
%TO.N,ZX12V*%
X84840000Y-134650000D03*
%TO.N,ZXA4*%
X86370000Y-138650000D03*
%TO.N,ZXA5*%
X82780000Y-135374500D03*
%TO.N,ZXRESET*%
X87430000Y-152300000D03*
X75730000Y-152350000D03*
%TO.N,ZXA6*%
X82750000Y-132834500D03*
%TO.N,ZXA7*%
X82810000Y-129350000D03*
%TO.N,ZXRESET*%
X82820000Y-126710000D03*
%TO.N,ZXBUSRQ*%
X82750000Y-124240000D03*
%TO.N,ZXU*%
X82930000Y-121840000D03*
%TO.N,ZXV*%
X82970000Y-119290000D03*
%TO.N,ZXY*%
X82950000Y-116500000D03*
%TO.N,ZXVIDEO*%
X82810000Y-114160000D03*
%TO.N,ZXIORQGE*%
X82810000Y-109100000D03*
%TO.N,ZXA3*%
X82820000Y-106580000D03*
%TO.N,ZXA2*%
X82840000Y-103960000D03*
%TO.N,ZXA1*%
X82720000Y-101460000D03*
%TO.N,ZXA0*%
X83510000Y-94190000D03*
X82670000Y-99260000D03*
%TO.N,ZXCLK*%
X82770000Y-91630000D03*
X82720000Y-96690000D03*
%TD*%
D22*
%TO.N,ZX12V*%
X84840000Y-134650000D02*
X85278000Y-135088000D01*
X85278000Y-135088000D02*
X85278000Y-141748000D01*
X85278000Y-141748000D02*
X87080000Y-143550000D01*
D23*
%TO.N,+5V*%
X99248000Y-139084057D02*
X99270000Y-139062057D01*
X99248000Y-143232000D02*
X99248000Y-139084057D01*
X99270000Y-139062057D02*
X99270000Y-136320000D01*
X99270000Y-136320000D02*
X99435000Y-136155000D01*
D22*
X103140000Y-150330000D02*
X103140000Y-147036000D01*
D24*
%TO.N,PICO_RESET_Z80*%
X144714000Y-110460000D02*
X144714000Y-135606000D01*
X144714000Y-135606000D02*
X144751000Y-135643000D01*
X144751000Y-135643000D02*
X144755805Y-135643000D01*
X144755805Y-135643000D02*
X145476000Y-136363195D01*
X145513000Y-136307598D02*
X145513000Y-146713000D01*
X145513000Y-146713000D02*
X145730000Y-146930000D01*
D22*
%TO.N,3V3_PICO1*%
X144485000Y-152853000D02*
X144714000Y-152624000D01*
X144714000Y-152624000D02*
X144714000Y-146528000D01*
X145984000Y-134082000D02*
X145984000Y-114524000D01*
X145984000Y-114524000D02*
X146111000Y-114397000D01*
X146111000Y-114397000D02*
X146111000Y-111984000D01*
X147127000Y-138019000D02*
X147127000Y-137257000D01*
X146754500Y-135958082D02*
X146754500Y-134852500D01*
X147127000Y-137257000D02*
X146746000Y-136876000D01*
X146746000Y-136876000D02*
X146746000Y-135966582D01*
X146746000Y-135966582D02*
X146754500Y-135958082D01*
X146754500Y-134852500D02*
X145984000Y-134082000D01*
%TO.N,PICO_PWR*%
X139735000Y-76525000D02*
X139735000Y-77779082D01*
X139735000Y-77779082D02*
X139380000Y-78134082D01*
X139380000Y-78134082D02*
X139380000Y-84298000D01*
X139380000Y-84298000D02*
X140247000Y-85165000D01*
X140247000Y-85165000D02*
X141100000Y-85165000D01*
D24*
X139634000Y-76424000D02*
X139735000Y-76525000D01*
D22*
X118298000Y-80488000D02*
X118298000Y-76424000D01*
%TO.N,+5V*%
X98910000Y-143610000D02*
X98910000Y-147036000D01*
X146280000Y-139204000D02*
X146280000Y-146040000D01*
D24*
X146238000Y-139162000D02*
X146280000Y-139204000D01*
D22*
%TO.N,3V3_PICO1*%
X146238000Y-111857000D02*
X146238000Y-92807000D01*
D24*
%TO.N,OLED_SDA*%
X153858000Y-128240000D02*
X153858000Y-116810000D01*
%TO.N,OLED_SCK*%
X153096000Y-127224000D02*
X153096000Y-114270000D01*
D22*
%TO.N,GND*%
X110060000Y-147700000D02*
X110060000Y-148450000D01*
X110060000Y-148450000D02*
X110770000Y-149160000D01*
X110770000Y-149160000D02*
X110770000Y-150180000D01*
D24*
%TO.N,P2_GPIO16*%
X106360000Y-114524000D02*
X106360000Y-131288000D01*
%TO.N,P2_GPIO27*%
X111948000Y-129002000D02*
X111948000Y-103602000D01*
X111948000Y-103602000D02*
X111694000Y-103348000D01*
D22*
%TO.N,+5V*%
X109726000Y-77898000D02*
X106868000Y-80756000D01*
X106868000Y-80756000D02*
X106868000Y-91245500D01*
X106868000Y-91245500D02*
X109550000Y-93927500D01*
D24*
%TO.N,P1_GPIO0*%
X160555000Y-82560000D02*
X168295000Y-82560000D01*
%TO.N,P1_GPIO1*%
X160555000Y-85100000D02*
X168295000Y-85100000D01*
%TO.N,P1_GPIO2*%
X160490000Y-90245000D02*
X165690000Y-90245000D01*
X165690000Y-90245000D02*
X168295000Y-87640000D01*
%TO.N,P1_GPIO3*%
X160490000Y-92785000D02*
X165690000Y-92785000D01*
X165690000Y-92785000D02*
X168295000Y-90180000D01*
%TO.N,P1_GPIO4*%
X160490000Y-95325000D02*
X165690000Y-95325000D01*
X165690000Y-95325000D02*
X168295000Y-92720000D01*
%TO.N,P1_GPIO5*%
X160490000Y-97865000D02*
X165690000Y-97865000D01*
X165690000Y-97865000D02*
X168295000Y-95260000D01*
%TO.N,P1_GPIO6*%
X160490000Y-102945000D02*
X163150000Y-102945000D01*
X163150000Y-102945000D02*
X168295000Y-97800000D01*
%TO.N,P1_GPIO7*%
X160490000Y-105485000D02*
X163150000Y-105485000D01*
X163150000Y-105485000D02*
X168295000Y-100340000D01*
%TO.N,P1_GPIO8*%
X160490000Y-108025000D02*
X163150000Y-108025000D01*
X163150000Y-108025000D02*
X168295000Y-102880000D01*
%TO.N,P1_GPIO9*%
X166558000Y-108428000D02*
X166558000Y-106650000D01*
X160490000Y-110565000D02*
X164421000Y-110565000D01*
X164421000Y-110565000D02*
X166558000Y-108428000D01*
X166558000Y-106650000D02*
X167065000Y-106650000D01*
X167065000Y-106650000D02*
X168295000Y-105420000D01*
%TO.N,P1_GPIO10*%
X162100000Y-115645000D02*
X166304000Y-111441000D01*
X166304000Y-109951000D02*
X168295000Y-107960000D01*
X166304000Y-111441000D02*
X166304000Y-109951000D01*
%TO.N,P1_GPIO11*%
X166304000Y-112491000D02*
X168295000Y-110500000D01*
X162100000Y-118185000D02*
X166304000Y-113981000D01*
X166304000Y-113981000D02*
X166304000Y-112491000D01*
%TO.N,P1_GPIO12*%
X162100000Y-120725000D02*
X166304000Y-116521000D01*
X166304000Y-116521000D02*
X166304000Y-115031000D01*
X166304000Y-115031000D02*
X168295000Y-113040000D01*
%TO.N,P1_GPIO13*%
X166050000Y-119315000D02*
X166050000Y-117572000D01*
X162100000Y-123265000D02*
X166050000Y-119315000D01*
X166050000Y-117572000D02*
X166303000Y-117572000D01*
X166303000Y-117572000D02*
X168295000Y-115580000D01*
%TO.N,P1_GPIO14*%
X162100000Y-128345000D02*
X166108000Y-124337000D01*
X166108000Y-124337000D02*
X166108000Y-120307000D01*
X166108000Y-120307000D02*
X168295000Y-118120000D01*
%TO.N,P1_GPIO15*%
X162100000Y-130885000D02*
X166558000Y-126427000D01*
X166558000Y-126427000D02*
X166558000Y-122397000D01*
X166558000Y-122397000D02*
X168295000Y-120660000D01*
D22*
%TO.N,3V3_PICO1*%
X138618000Y-77694000D02*
X138618000Y-92934000D01*
%TO.N,PICO_PWR*%
X108900000Y-85568000D02*
X108900000Y-80488000D01*
%TO.N,+5V*%
X76642000Y-79218000D02*
X76642000Y-84612000D01*
X76642000Y-84612000D02*
X78420000Y-86390000D01*
%TO.N,3V3_PICO2*%
X99248000Y-78018000D02*
X99248000Y-92172000D01*
%TO.N,PICO_PWR*%
X109550000Y-86218000D02*
X108900000Y-85568000D01*
X109550000Y-90952500D02*
X109550000Y-86218000D01*
D24*
%TO.N,GND*%
X113630000Y-126304000D02*
X113726000Y-126208000D01*
X113630000Y-131050000D02*
X113630000Y-126304000D01*
%TO.N,OLED_SDA*%
X147254000Y-130780000D02*
X147254000Y-128240000D01*
%TO.N,5V_DIV*%
X145222000Y-98014000D02*
X145164000Y-98072000D01*
X145164000Y-98072000D02*
X145164000Y-109884695D01*
X145164000Y-111035305D02*
X145164000Y-134865500D01*
X145164000Y-109884695D02*
X145439000Y-110159695D01*
X145439000Y-110159695D02*
X145439000Y-110760305D01*
X145439000Y-110760305D02*
X145164000Y-111035305D01*
X145164000Y-134865500D02*
X145904500Y-135606000D01*
%TO.N,INPUT1*%
X144455500Y-136368000D02*
X144206000Y-136118500D01*
X143952000Y-116887000D02*
X142710000Y-115645000D01*
X144206000Y-136118500D02*
X144206000Y-130018000D01*
X144206000Y-130018000D02*
X143952000Y-129764000D01*
X143952000Y-129764000D02*
X143952000Y-116887000D01*
%TO.N,P2_GPIO4*%
X134046000Y-94458000D02*
X134046000Y-83282000D01*
%TO.N,P2_GPIO5*%
X134845500Y-85859500D02*
X134808000Y-85822000D01*
X134845500Y-97252000D02*
X134845500Y-85859500D01*
%TO.N,P2_GPIO6*%
X135570000Y-102040500D02*
X135570000Y-88362000D01*
X135607500Y-102078000D02*
X135570000Y-102040500D01*
%TO.N,P2_GPIO7*%
X136332000Y-104618000D02*
X136332000Y-90902000D01*
%TO.N,P2_GPIO8*%
X137385500Y-107158000D02*
X137094000Y-106866500D01*
X137094000Y-106866500D02*
X137094000Y-93442000D01*
%TO.N,P2_GPIO9*%
X138110000Y-96236000D02*
X137856000Y-95982000D01*
X138110000Y-109952000D02*
X138110000Y-96236000D01*
%TO.N,P2_GPIO10*%
X131506000Y-114778000D02*
X131506000Y-98522000D01*
%TO.N,P2_GPIO11*%
X132268000Y-117318000D02*
X132268000Y-101062000D01*
%TO.N,P2_GPIO12*%
X133030000Y-106904000D02*
X133030000Y-103602000D01*
X133105000Y-106979000D02*
X133030000Y-106904000D01*
X133105000Y-119858000D02*
X133105000Y-106979000D01*
%TO.N,P2_GPIO13*%
X133829500Y-105925500D02*
X133792000Y-105888000D01*
X133829500Y-122398000D02*
X133829500Y-105925500D01*
%TO.N,P2_GPIO14*%
X134554000Y-127478000D02*
X134554000Y-108682000D01*
%TO.N,P2_GPIO15*%
X135316000Y-130018000D02*
X135316000Y-111222000D01*
%TO.N,P2_LINKIN*%
X119060000Y-133320000D02*
X119060000Y-116048000D01*
X136332000Y-120620000D02*
X136332000Y-133357500D01*
%TO.N,P2_LINKOUT*%
X118044000Y-134082000D02*
X118044000Y-110968000D01*
X137348000Y-133807304D02*
X137337652Y-133817652D01*
X137348000Y-123414000D02*
X137348000Y-133807304D01*
%TO.N,12V_DIV*%
X139703636Y-135051576D02*
X139380000Y-134727940D01*
X139380000Y-134727940D02*
X139380000Y-106904000D01*
X139380000Y-106904000D02*
X139634000Y-106650000D01*
X139634000Y-106650000D02*
X139634000Y-104411000D01*
X139634000Y-104411000D02*
X141100000Y-102945000D01*
%TO.N,MIN5V_DIV*%
X138872000Y-135606000D02*
X138872000Y-106142000D01*
%TO.N,P2_GPIO17*%
X112710000Y-117318000D02*
X112710000Y-128099500D01*
%TO.N,P2_GPIO18*%
X107122000Y-119858000D02*
X107122000Y-123668000D01*
%TO.N,P2_GPIO19*%
X107884000Y-122144000D02*
X107884000Y-120874000D01*
%TO.N,P2_GPIO20*%
X108646000Y-124932500D02*
X108646000Y-118588000D01*
%TO.N,P2_GPIO26*%
X111186000Y-127154500D02*
X111186000Y-105888000D01*
%TO.N,P2_GPIO28*%
X101280000Y-132558000D02*
X101280000Y-100110000D01*
X101280000Y-100110000D02*
X103130000Y-98260000D01*
%TO.N,P2_GPIO3*%
X120330000Y-93188000D02*
X120076000Y-92934000D01*
X120076000Y-92934000D02*
X120076000Y-79201503D01*
X120076000Y-79201503D02*
X119838497Y-78964000D01*
%TO.N,P2_GPIO2*%
X120838000Y-90648000D02*
X120838000Y-84514396D01*
X120838000Y-84514396D02*
X120642000Y-84318396D01*
X120642000Y-84318396D02*
X120642000Y-79931544D01*
X120642000Y-79931544D02*
X120838000Y-79735544D01*
X120838000Y-79735544D02*
X120838000Y-78964000D01*
%TO.N,P2_GPIO1*%
X121784364Y-79425576D02*
X121092000Y-80117940D01*
X121092000Y-80117940D02*
X121092000Y-84132000D01*
X121092000Y-84132000D02*
X122520000Y-85560000D01*
%TO.N,P2_GPIO3*%
X172238848Y-77554727D02*
X172409424Y-77725303D01*
X172409424Y-77725303D02*
X172409424Y-80236673D01*
X172409424Y-80236673D02*
X171834000Y-80812097D01*
X171834000Y-80812097D02*
X171834000Y-127281000D01*
X171834000Y-127281000D02*
X168295000Y-130820000D01*
%TO.N,P2_GPIO2*%
X171684424Y-78386364D02*
X171855000Y-78556940D01*
X171855000Y-78556940D02*
X171855000Y-80154701D01*
X171855000Y-80154701D02*
X171384000Y-80625701D01*
X171384000Y-80625701D02*
X171384000Y-125191000D01*
X171384000Y-125191000D02*
X168295000Y-128280000D01*
%TO.N,P2_GPIO1*%
X171130000Y-79218000D02*
X171130000Y-80243305D01*
X171130000Y-80243305D02*
X170876000Y-80497305D01*
X170876000Y-80497305D02*
X170876000Y-123159000D01*
X170876000Y-123159000D02*
X168295000Y-125740000D01*
%TO.N,P2_GPIO0*%
X122616000Y-79980000D02*
X122616000Y-82924000D01*
X168295000Y-123200000D02*
X170368000Y-121127000D01*
X170368000Y-121127000D02*
X170368000Y-79980000D01*
%TO.N,12V_DIV*%
X118390000Y-136206000D02*
X118298000Y-136114000D01*
X118390000Y-138565000D02*
X118390000Y-136206000D01*
%TO.N,5V_DIV*%
X115850000Y-138565000D02*
X115850000Y-135444000D01*
X115850000Y-135444000D02*
X115758000Y-135352000D01*
%TO.N,INPUT2*%
X138110000Y-136368000D02*
X138110000Y-118080000D01*
%TO.N,P1_SWCLK*%
X154112000Y-133320000D02*
X154140000Y-133292000D01*
X154140000Y-133292000D02*
X154140000Y-130655000D01*
%TO.N,P1_SWDIO*%
X149032000Y-136622000D02*
X149060000Y-136594000D01*
X149060000Y-136594000D02*
X149060000Y-130655000D01*
%TO.N,INPUT1*%
X143138000Y-144024000D02*
X143138000Y-136420000D01*
X143138000Y-136420000D02*
X143190000Y-136368000D01*
%TO.N,INPUT2*%
X130946000Y-144278000D02*
X132268000Y-142956000D01*
X132268000Y-142956000D02*
X132268000Y-136368000D01*
%TO.N,3V3_PICO1*%
X144460000Y-152878000D02*
X144485000Y-152853000D01*
D22*
X144714000Y-146370695D02*
X144714000Y-138150500D01*
D24*
X144714000Y-138150500D02*
X144455500Y-137892000D01*
X115747500Y-152867500D02*
X115758000Y-152878000D01*
D22*
X115747500Y-150290000D02*
X115747500Y-152867500D01*
D24*
%TO.N,MIN5V_DIV*%
X122057500Y-150270000D02*
X122057500Y-139692500D01*
X122057500Y-139692500D02*
X120930000Y-138565000D01*
%TO.N,P2_SWCLK*%
X118315000Y-143915000D02*
X118315000Y-140703000D01*
X117028000Y-139416000D02*
X117028000Y-131908000D01*
X118315000Y-140703000D02*
X117028000Y-139416000D01*
X117028000Y-131908000D02*
X116170000Y-131050000D01*
%TO.N,P2_SWDIO*%
X114610000Y-139180000D02*
X114610000Y-137600000D01*
X113235000Y-143915000D02*
X113235000Y-140555000D01*
X113235000Y-140555000D02*
X114610000Y-139180000D01*
X114610000Y-137600000D02*
X111090000Y-134080000D01*
X111090000Y-134080000D02*
X111090000Y-131050000D01*
D22*
%TO.N,GND*%
X117450000Y-150290000D02*
X119062500Y-150290000D01*
X117450000Y-149340000D02*
X117450000Y-150290000D01*
X115760000Y-147650000D02*
X117450000Y-149340000D01*
D24*
X115760000Y-147650000D02*
X115775000Y-147635000D01*
D22*
X115775000Y-147635000D02*
X115775000Y-143915000D01*
X107750000Y-143530000D02*
X108860000Y-143530000D01*
X110060000Y-147280000D02*
X110060000Y-147700000D01*
X108860000Y-143530000D02*
X110060000Y-144730000D01*
X110060000Y-144730000D02*
X110060000Y-147280000D01*
X92580000Y-151160000D02*
X92580000Y-146680000D01*
X95850000Y-146680000D02*
X95850000Y-143630000D01*
D24*
X95920000Y-141980000D02*
X95930000Y-141970000D01*
X95920000Y-143560000D02*
X95920000Y-141980000D01*
X92300000Y-150880000D02*
X92580000Y-151160000D01*
X90790000Y-150880000D02*
X92300000Y-150880000D01*
D22*
%TO.N,+5V*%
X109662000Y-135780000D02*
X109662000Y-94007500D01*
D24*
%TO.N,5V_DIV*%
X101990000Y-143590000D02*
X104590000Y-143590000D01*
X115880000Y-141900000D02*
X115850000Y-141870000D01*
X104650000Y-143530000D02*
X104650000Y-141970000D01*
X115850000Y-141870000D02*
X115850000Y-138565000D01*
%TO.N,ZXA8*%
X110770000Y-140599500D02*
X110770000Y-138565000D01*
X110770500Y-140600000D02*
X110770000Y-140599500D01*
%TO.N,MIN5V_DIV*%
X105130000Y-152060000D02*
X105130000Y-151090000D01*
X105130000Y-151090000D02*
X105900000Y-150320000D01*
X112810000Y-152060000D02*
X112810000Y-150327500D01*
X100040000Y-150330000D02*
X100040000Y-152030000D01*
X100040000Y-152030000D02*
X100070000Y-152060000D01*
X122060000Y-151910000D02*
X122060000Y-150272500D01*
%TO.N,PICO_RESET_Z80*%
X97170000Y-150370000D02*
X97170000Y-148440000D01*
%TO.N,Net-(Q101-Pad1)*%
X94010000Y-148680000D02*
X94010000Y-150310000D01*
X90790000Y-148980000D02*
X90790000Y-149840000D01*
X90790000Y-149840000D02*
X90810000Y-149860000D01*
%TO.N,12V_DIV*%
X120240000Y-140415000D02*
X118390000Y-138565000D01*
X120240000Y-145300000D02*
X120240000Y-140415000D01*
X93280000Y-143560000D02*
X94440000Y-144720000D01*
X90180000Y-143550000D02*
X92810000Y-143550000D01*
%TO.N,ZXMIN5V*%
X89125000Y-128555000D02*
X89125000Y-147505000D01*
X89125000Y-147505000D02*
X89110000Y-147520000D01*
X108970000Y-147580000D02*
X108970000Y-150290000D01*
%TO.N,ZXA11*%
X100690000Y-146230000D02*
X100610000Y-146150000D01*
X100610000Y-146150000D02*
X100610000Y-138565000D01*
%TO.N,ZXA10*%
X111495000Y-140380000D02*
X113310000Y-138565000D01*
X86130000Y-147330000D02*
X86130000Y-145540000D01*
X110990000Y-145510000D02*
X111495000Y-145005000D01*
X86130000Y-145540000D02*
X86200000Y-145470000D01*
X111495000Y-145005000D02*
X111495000Y-140380000D01*
%TO.N,ZXA9*%
X97350000Y-139285000D02*
X98070000Y-138565000D01*
X97350000Y-143470000D02*
X97350000Y-139285000D01*
X84990000Y-146180000D02*
X84990000Y-143580000D01*
%TO.N,ZXA8*%
X83840000Y-144820000D02*
X83840000Y-142614598D01*
X83840000Y-142614598D02*
X84461254Y-141993344D01*
%TO.N,ZXBUSACK*%
X82890000Y-143740000D02*
X82890000Y-136558192D01*
X82890000Y-136558192D02*
X82857308Y-136525500D01*
X95520000Y-136525500D02*
X95520000Y-138555000D01*
%TO.N,ZXROMCS*%
X87460000Y-140464500D02*
X87460000Y-138670000D01*
X87460000Y-138670000D02*
X87530000Y-138600000D01*
%TO.N,ZXA4*%
X86370000Y-138650000D02*
X86365000Y-133495000D01*
X86365000Y-133495000D02*
X86365000Y-129730000D01*
%TO.N,ZXA5*%
X85190000Y-128365000D02*
X86365000Y-127190000D01*
X85190000Y-132964500D02*
X85190000Y-128365000D01*
X82780000Y-135374500D02*
X85190000Y-132964500D01*
%TO.N,ZXRESET*%
X78420000Y-129570000D02*
X75730000Y-132260000D01*
X75730000Y-132260000D02*
X75730000Y-152350000D01*
X87430000Y-152300000D02*
X87430000Y-149990000D01*
%TO.N,ZXA6*%
X82750000Y-132834500D02*
X82750000Y-130435305D01*
X84170000Y-125840000D02*
X85175000Y-125840000D01*
X82750000Y-130435305D02*
X84170000Y-129015305D01*
X84170000Y-129015305D02*
X84170000Y-125840000D01*
X85175000Y-125840000D02*
X86365000Y-124650000D01*
%TO.N,ZXA7*%
X82810000Y-129350000D02*
X83720000Y-128440000D01*
X83720000Y-128440000D02*
X83720000Y-124931701D01*
X83720000Y-124931701D02*
X86365000Y-122286701D01*
%TO.N,ZXRESET*%
X82820000Y-126710000D02*
X83270000Y-126260000D01*
X84105000Y-121937792D02*
X86365000Y-119677792D01*
X83270000Y-126260000D02*
X83270000Y-124745305D01*
X83270000Y-124745305D02*
X84105000Y-123910305D01*
X84105000Y-123910305D02*
X84105000Y-121937792D01*
%TO.N,ZXBUSRQ*%
X82750000Y-124240000D02*
X83655000Y-123335000D01*
X83655000Y-123335000D02*
X83655000Y-121751396D01*
X83655000Y-121751396D02*
X84885000Y-120521396D01*
X84885000Y-120521396D02*
X84885000Y-118510000D01*
X84885000Y-118510000D02*
X86365000Y-117030000D01*
%TO.N,ZXU*%
X82930000Y-121840000D02*
X83720000Y-121050000D01*
X83720000Y-121050000D02*
X83720000Y-119176396D01*
X83720000Y-119176396D02*
X84435000Y-118461396D01*
X84435000Y-118461396D02*
X84435000Y-116420000D01*
X84435000Y-116420000D02*
X86365000Y-114490000D01*
%TO.N,ZXV*%
X82970000Y-119290000D02*
X83985000Y-118275000D01*
X83985000Y-118275000D02*
X83985000Y-114330000D01*
X83985000Y-114330000D02*
X86365000Y-111950000D01*
%TO.N,ZXY*%
X83535000Y-115915000D02*
X83535000Y-112240000D01*
X82950000Y-116500000D02*
X83535000Y-115915000D01*
X83535000Y-112240000D02*
X86365000Y-109410000D01*
%TO.N,ZXVIDEO*%
X82810000Y-114160000D02*
X82810000Y-110425000D01*
X82810000Y-110425000D02*
X86365000Y-106870000D01*
%TO.N,ZXIORQGE*%
X82810000Y-109100000D02*
X82810000Y-107885000D01*
X82810000Y-107885000D02*
X86365000Y-104330000D01*
%TO.N,ZXA3*%
X82820000Y-106580000D02*
X82820000Y-105335000D01*
X82820000Y-105335000D02*
X86365000Y-101790000D01*
%TO.N,ZXA2*%
X82840000Y-103960000D02*
X82840000Y-102775000D01*
X82840000Y-102775000D02*
X86365000Y-99250000D01*
%TO.N,ZXA1*%
X82720000Y-101460000D02*
X82720000Y-100355000D01*
X82720000Y-100355000D02*
X86365000Y-96710000D01*
%TO.N,ZXA0*%
X83510000Y-98420000D02*
X83510000Y-94190000D01*
X82670000Y-99260000D02*
X83510000Y-98420000D01*
%TO.N,ZXCLK*%
X82720000Y-96690000D02*
X82770000Y-96640000D01*
X82770000Y-96640000D02*
X82770000Y-91630000D01*
D22*
%TO.N,GND*%
X76660000Y-112570000D02*
X76660000Y-98310000D01*
X78420000Y-114330000D02*
X76660000Y-112570000D01*
X78420000Y-96550000D02*
X78420000Y-94010000D01*
X76660000Y-98310000D02*
X78420000Y-96550000D01*
%TD*%
M02*
