M48
; DRILL file {KiCad 6.0.11-2627ca5db0~126~ubuntu22.04.1} date Sun 05 Nov 2023 18:43:35 GMT
; FORMAT={-:-/ absolute / metric / decimal}
; #@! TF.CreationDate,2023-11-05T18:43:35+00:00
; #@! TF.GenerationSoftware,Kicad,Pcbnew,6.0.11-2627ca5db0~126~ubuntu22.04.1
; #@! TF.FileFunction,Plated,1,2,PTH
FMAT,2
METRIC
; #@! TA.AperFunction,Plated,PTH,ViaDrill
T1C0.400
; #@! TA.AperFunction,Plated,PTH,ComponentDrill
T2C0.762
; #@! TA.AperFunction,Plated,PTH,ComponentDrill
T3C1.000
; #@! TA.AperFunction,Plated,PTH,ComponentDrill
T4C1.020
; #@! TA.AperFunction,Plated,PTH,ComponentDrill
T5C1.100
%
G90
G05
T1
X75.73Y-152.35
X76.642Y-79.218
X82.67Y-99.26
X82.72Y-96.69
X82.72Y-101.46
X82.75Y-124.24
X82.75Y-132.834
X82.77Y-91.63
X82.78Y-135.374
X82.81Y-109.1
X82.81Y-114.16
X82.81Y-129.35
X82.82Y-106.58
X82.82Y-126.71
X82.84Y-103.96
X82.857Y-136.525
X82.89Y-143.74
X82.93Y-121.84
X82.95Y-116.5
X82.97Y-119.29
X83.51Y-94.19
X83.84Y-144.82
X84.461Y-141.993
X84.84Y-134.65
X84.99Y-143.58
X84.99Y-146.18
X86.13Y-147.33
X86.2Y-145.47
X86.37Y-138.65
X87.43Y-152.3
X87.46Y-140.464
X87.53Y-138.6
X89.11Y-147.52
X89.125Y-128.555
X90.81Y-149.86
X92.58Y-146.68
X92.58Y-151.16
X94.01Y-148.68
X94.44Y-144.72
X95.52Y-136.525
X95.85Y-146.68
X95.93Y-141.97
X97.17Y-148.44
X97.35Y-143.47
X98.91Y-147.036
X99.248Y-92.172
X99.435Y-136.155
X100.07Y-152.06
X100.69Y-146.23
X101.28Y-132.558
X103.14Y-147.036
X104.65Y-141.97
X105.13Y-152.06
X106.36Y-114.524
X106.36Y-131.288
X107.122Y-119.858
X107.122Y-123.668
X107.884Y-120.874
X107.884Y-122.144
X108.64Y-124.938
X108.646Y-118.588
X108.9Y-80.488
X108.9Y-85.568
X108.97Y-147.58
X109.63Y-135.78
X110.06Y-147.7
X110.77Y-150.18
X110.77Y-140.6
X110.932Y-127.224
X110.99Y-145.51
X111.186Y-105.888
X111.694Y-103.348
X111.948Y-129.002
X112.71Y-117.318
X112.71Y-128.1
X112.81Y-152.06
X113.726Y-126.208
X115.758Y-135.352
X115.758Y-152.878
X115.76Y-147.65
X115.88Y-141.9
X117.45Y-150.29
X118.044Y-110.968
X118.044Y-134.082
X118.298Y-76.424
X118.298Y-80.488
X118.298Y-136.114
X119.06Y-116.048
X119.06Y-133.32
X119.838Y-78.964
X120.24Y-145.3
X120.33Y-93.188
X120.838Y-78.964
X120.838Y-90.648
X121.784Y-79.426
X122.06Y-151.91
X122.616Y-79.98
X131.506Y-98.522
X131.506Y-114.778
X132.268Y-101.062
X132.268Y-117.318
X132.268Y-136.368
X133.03Y-103.602
X133.105Y-119.858
X133.792Y-105.888
X133.829Y-122.398
X134.046Y-83.282
X134.046Y-94.458
X134.554Y-108.682
X134.554Y-127.478
X134.808Y-85.822
X134.845Y-97.252
X135.316Y-111.222
X135.316Y-130.018
X135.57Y-88.362
X135.607Y-102.078
X136.332Y-90.902
X136.332Y-104.618
X136.332Y-120.62
X136.332Y-133.357
X137.094Y-93.442
X137.338Y-133.818
X137.348Y-123.414
X137.386Y-107.158
X137.856Y-95.982
X138.11Y-109.952
X138.11Y-118.08
X138.11Y-136.368
X138.618Y-77.694
X138.618Y-92.934
X138.872Y-106.142
X138.872Y-135.606
X139.634Y-76.424
X139.704Y-135.052
X143.19Y-136.368
X144.456Y-136.368
X144.456Y-137.892
X144.46Y-152.878
X144.714Y-110.46
X145.222Y-98.014
X145.73Y-146.93
X145.904Y-135.606
X145.984Y-92.934
X145.984Y-111.984
X146.238Y-139.162
X146.28Y-146.04
X147.127Y-138.019
X147.254Y-128.24
X147.254Y-130.78
X149.032Y-136.622
X153.096Y-114.27
X153.096Y-127.224
X153.858Y-116.81
X153.858Y-128.24
X154.112Y-133.32
X170.368Y-79.98
X171.13Y-79.218
X171.684Y-78.386
X172.239Y-77.555
T2
X78.42Y-81.31
X78.42Y-83.85
X78.42Y-86.39
X78.42Y-88.93
X78.42Y-91.47
X78.42Y-94.01
X78.42Y-96.55
X78.42Y-99.09
X78.42Y-101.63
X78.42Y-104.17
X78.42Y-106.71
X78.42Y-109.25
X78.42Y-111.79
X78.42Y-114.33
X78.42Y-116.87
X78.42Y-119.41
X78.42Y-121.95
X78.42Y-124.49
X78.42Y-127.03
X78.42Y-129.57
X78.42Y-132.11
X78.42Y-134.65
X78.42Y-137.19
X78.42Y-139.73
X78.42Y-142.27
X78.42Y-144.81
X78.42Y-147.35
X78.42Y-149.89
X80.96Y-81.31
X80.96Y-83.85
X80.96Y-86.39
X80.96Y-88.93
X80.96Y-91.47
X80.96Y-94.01
X80.96Y-96.55
X80.96Y-99.09
X80.96Y-101.63
X80.96Y-104.17
X80.96Y-106.71
X80.96Y-109.25
X80.96Y-111.79
X80.96Y-114.33
X80.96Y-116.87
X80.96Y-119.41
X80.96Y-121.95
X80.96Y-124.49
X80.96Y-127.03
X80.96Y-129.57
X80.96Y-132.11
X80.96Y-134.65
X80.96Y-137.19
X80.96Y-139.73
X80.96Y-142.27
X80.96Y-144.81
X80.96Y-147.35
X80.96Y-149.89
T3
X86.365Y-81.47
X86.365Y-84.01
X86.365Y-86.55
X86.365Y-89.09
X86.365Y-91.63
X86.365Y-94.17
X86.365Y-96.71
X86.365Y-99.25
X86.365Y-101.79
X86.365Y-104.33
X86.365Y-106.87
X86.365Y-109.41
X86.365Y-111.95
X86.365Y-114.49
X86.365Y-117.03
X86.365Y-119.57
X86.365Y-122.11
X86.365Y-124.65
X86.365Y-127.19
X86.365Y-129.73
X92.99Y-138.565
X94.09Y-81.43
X94.09Y-83.97
X94.09Y-86.51
X94.09Y-89.05
X94.09Y-91.59
X94.09Y-94.13
X94.09Y-96.67
X94.09Y-99.21
X94.09Y-101.75
X94.09Y-104.29
X94.09Y-106.83
X94.09Y-109.37
X94.09Y-111.91
X94.09Y-114.45
X94.09Y-116.99
X94.09Y-119.53
X94.09Y-122.07
X94.09Y-124.61
X94.09Y-127.15
X94.09Y-129.69
X95.53Y-138.565
X98.07Y-138.565
X99.248Y-78.018
X100.61Y-138.565
X102.296Y-77.948
X103.15Y-138.565
X105.344Y-77.948
X105.69Y-138.565
X108.23Y-138.565
X109.726Y-77.898
X110.77Y-138.565
X112.71Y-77.948
X113.235Y-143.915
X113.31Y-138.565
X115.758Y-77.898
X115.775Y-143.915
X115.85Y-138.565
X118.315Y-143.915
X118.39Y-138.565
X120.93Y-138.565
X123.47Y-138.565
X126.01Y-138.565
X128.55Y-138.565
X129.77Y-83.24
X129.77Y-85.78
X129.77Y-88.32
X129.77Y-90.86
X129.77Y-93.4
X129.77Y-95.94
X129.77Y-98.48
X129.77Y-101.02
X129.77Y-103.56
X129.77Y-106.1
X129.77Y-108.64
X129.77Y-111.18
X129.77Y-113.72
X129.77Y-116.26
X129.77Y-118.8
X129.77Y-121.34
X129.77Y-123.88
X129.77Y-126.42
X129.77Y-128.96
X129.77Y-131.5
X131.09Y-138.565
X133.63Y-138.565
X136.17Y-138.565
X138.71Y-138.565
X141.25Y-138.565
X148.61Y-141.02
X148.61Y-143.56
X148.61Y-146.1
X148.61Y-148.64
X148.61Y-151.18
X151.064Y-109.18
X151.064Y-111.72
X151.064Y-114.26
X151.064Y-116.8
X151.15Y-141.02
X151.15Y-143.56
X151.15Y-146.1
X151.15Y-148.64
X151.15Y-151.18
X153.69Y-141.02
X153.69Y-143.56
X153.69Y-146.1
X153.69Y-148.64
X153.69Y-151.18
X155.825Y-136.465
X155.89Y-76.424
X156.23Y-141.02
X156.23Y-143.56
X156.23Y-146.1
X156.23Y-148.64
X156.23Y-151.18
X158.365Y-136.465
X158.77Y-141.02
X158.77Y-143.56
X158.77Y-146.1
X158.77Y-148.64
X158.77Y-151.18
X158.938Y-76.424
X160.905Y-136.465
X161.61Y-141.02
X161.61Y-143.56
X161.61Y-146.1
X161.61Y-148.64
X161.61Y-151.18
X161.986Y-76.424
X164.15Y-141.02
X164.15Y-143.56
X164.15Y-146.1
X164.15Y-148.64
X164.15Y-151.18
X164.78Y-76.424
X166.27Y-136.75
X166.69Y-141.02
X166.69Y-143.56
X166.69Y-146.1
X166.69Y-148.64
X166.69Y-151.18
X167.828Y-76.424
X168.295Y-82.56
X168.295Y-85.1
X168.295Y-87.64
X168.295Y-90.18
X168.295Y-92.72
X168.295Y-95.26
X168.295Y-97.8
X168.295Y-100.34
X168.295Y-102.88
X168.295Y-105.42
X168.295Y-107.96
X168.295Y-110.5
X168.295Y-113.04
X168.295Y-115.58
X168.295Y-118.12
X168.295Y-120.66
X168.295Y-123.2
X168.295Y-125.74
X168.295Y-128.28
X168.295Y-130.82
X169.05Y-136.8
X169.23Y-141.02
X169.23Y-143.56
X169.23Y-146.1
X169.23Y-148.64
X169.23Y-151.18
X171.77Y-141.02
X171.77Y-143.56
X171.77Y-146.1
X171.77Y-148.64
X171.77Y-151.18
X171.85Y-136.81
T4
X104.74Y-83.02
X104.74Y-85.56
X104.74Y-88.1
X104.74Y-90.64
X104.74Y-93.18
X104.74Y-95.72
X104.74Y-98.26
X104.74Y-100.8
X104.74Y-103.34
X104.74Y-105.88
X104.74Y-108.42
X104.74Y-110.96
X104.74Y-113.5
X104.74Y-116.04
X104.74Y-118.58
X104.74Y-121.12
X104.74Y-123.66
X104.74Y-126.2
X104.74Y-128.74
X104.74Y-131.28
X111.09Y-131.05
X113.63Y-131.05
X116.17Y-131.05
X122.52Y-83.02
X122.52Y-85.56
X122.52Y-88.1
X122.52Y-90.64
X122.52Y-93.18
X122.52Y-95.72
X122.52Y-98.26
X122.52Y-100.8
X122.52Y-103.34
X122.52Y-105.88
X122.52Y-108.42
X122.52Y-110.96
X122.52Y-113.5
X122.52Y-116.04
X122.52Y-118.58
X122.52Y-121.12
X122.52Y-123.66
X122.52Y-126.2
X122.52Y-128.74
X122.52Y-131.28
X142.71Y-82.625
X142.71Y-85.165
X142.71Y-87.705
X142.71Y-90.245
X142.71Y-92.785
X142.71Y-95.325
X142.71Y-97.865
X142.71Y-100.405
X142.71Y-102.945
X142.71Y-105.485
X142.71Y-108.025
X142.71Y-110.565
X142.71Y-113.105
X142.71Y-115.645
X142.71Y-118.185
X142.71Y-120.725
X142.71Y-123.265
X142.71Y-125.805
X142.71Y-128.345
X142.71Y-130.885
X149.06Y-130.655
X151.6Y-130.655
X154.14Y-130.655
X160.49Y-82.625
X160.49Y-85.165
X160.49Y-87.705
X160.49Y-90.245
X160.49Y-92.785
X160.49Y-95.325
X160.49Y-97.865
X160.49Y-100.405
X160.49Y-102.945
X160.49Y-105.485
X160.49Y-108.025
X160.49Y-110.565
X160.49Y-113.105
X160.49Y-115.645
X160.49Y-118.185
X160.49Y-120.725
X160.49Y-123.265
X160.49Y-125.805
X160.49Y-128.345
X160.49Y-130.885
T5
X124.446Y-144.278
X124.446Y-148.778
X130.946Y-144.278
X130.946Y-148.778
X136.638Y-144.024
X136.638Y-148.524
X143.138Y-144.024
X143.138Y-148.524
T0
M30
