%TF.GenerationSoftware,KiCad,Pcbnew,6.0.11-2627ca5db0~126~ubuntu22.04.1*%
%TF.CreationDate,2024-03-13T14:54:00+00:00*%
%TF.ProjectId,zx-spectrum-diagnostics,7a782d73-7065-4637-9472-756d2d646961,1.2*%
%TF.SameCoordinates,Original*%
%TF.FileFunction,Drillmap*%
%TF.FilePolarity,Positive*%
%FSLAX45Y45*%
G04 Gerber Fmt 4.5, Leading zero omitted, Abs format (unit mm)*
G04 Created by KiCad (PCBNEW 6.0.11-2627ca5db0~126~ubuntu22.04.1) date 2024-03-13 14:54:00*
%MOMM*%
%LPD*%
G01*
G04 APERTURE LIST*
%ADD10C,0.100000*%
%ADD11C,0.200000*%
%ADD12C,0.040000*%
%ADD13C,0.102000*%
%ADD14C,0.110000*%
%ADD15C,0.120000*%
G04 APERTURE END LIST*
D10*
X7470000Y-5588600D02*
X17461000Y-5588600D01*
X17461000Y-5588600D02*
X17461000Y-15405000D01*
X17461000Y-15405000D02*
X7470000Y-15405000D01*
X7470000Y-15405000D02*
X7470000Y-5588600D01*
D11*
D12*
X7930200Y-5949000D02*
X7970200Y-5989000D01*
X7970200Y-5949000D02*
X7930200Y-5989000D01*
X7930200Y-7727000D02*
X7970200Y-7767000D01*
X7970200Y-7727000D02*
X7930200Y-7767000D01*
X7930200Y-9251000D02*
X7970200Y-9291000D01*
X7970200Y-9251000D02*
X7930200Y-9291000D01*
X7930200Y-15215000D02*
X7970200Y-15255000D01*
X7970200Y-15215000D02*
X7930200Y-15255000D01*
X7990750Y-9530400D02*
X8030750Y-9570400D01*
X8030750Y-9530400D02*
X7990750Y-9570400D01*
X8006400Y-12578400D02*
X8046400Y-12618400D01*
X8046400Y-12578400D02*
X8006400Y-12618400D01*
X8006400Y-13721400D02*
X8046400Y-13761400D01*
X8046400Y-13721400D02*
X8006400Y-13761400D01*
X8023940Y-6059390D02*
X8063940Y-6099390D01*
X8063940Y-6059390D02*
X8023940Y-6099390D01*
X8057200Y-9784400D02*
X8097200Y-9824400D01*
X8097200Y-9784400D02*
X8057200Y-9824400D01*
X8057200Y-10038400D02*
X8097200Y-10078400D01*
X8097200Y-10038400D02*
X8057200Y-10078400D01*
X8057200Y-10800400D02*
X8097200Y-10840400D01*
X8097200Y-10800400D02*
X8057200Y-10840400D01*
X8082600Y-10292400D02*
X8122600Y-10332400D01*
X8122600Y-10292400D02*
X8082600Y-10332400D01*
X8082600Y-10546400D02*
X8122600Y-10586400D01*
X8122600Y-10546400D02*
X8082600Y-10586400D01*
X8082600Y-15118400D02*
X8122600Y-15158400D01*
X8122600Y-15118400D02*
X8082600Y-15158400D01*
X8438200Y-9784400D02*
X8478200Y-9824400D01*
X8478200Y-9784400D02*
X8438200Y-9824400D01*
X8438200Y-11816400D02*
X8478200Y-11856400D01*
X8478200Y-11816400D02*
X8438200Y-11856400D01*
X8463600Y-10013000D02*
X8503600Y-10053000D01*
X8503600Y-10013000D02*
X8463600Y-10053000D01*
X8463600Y-10292400D02*
X8503600Y-10332400D01*
X8503600Y-10292400D02*
X8463600Y-10332400D01*
X8463600Y-12070400D02*
X8503600Y-12110400D01*
X8503600Y-12070400D02*
X8463600Y-12110400D01*
X8489000Y-9251000D02*
X8529000Y-9291000D01*
X8529000Y-9251000D02*
X8489000Y-9291000D01*
X8489000Y-9530400D02*
X8529000Y-9570400D01*
X8529000Y-9530400D02*
X8489000Y-9570400D01*
X8489000Y-10495600D02*
X8529000Y-10535600D01*
X8529000Y-10495600D02*
X8489000Y-10535600D01*
X8514400Y-10749600D02*
X8554400Y-10789600D01*
X8554400Y-10749600D02*
X8514400Y-10789600D01*
X8565200Y-12273600D02*
X8605200Y-12313600D01*
X8605200Y-12273600D02*
X8565200Y-12313600D01*
X8590600Y-13696000D02*
X8630600Y-13736000D01*
X8630600Y-13696000D02*
X8590600Y-13736000D01*
X8592750Y-14000800D02*
X8632750Y-14040800D01*
X8632750Y-14000800D02*
X8592750Y-14040800D01*
X8692200Y-14051600D02*
X8732200Y-14091600D01*
X8732200Y-14051600D02*
X8692200Y-14091600D01*
X8692200Y-14200250D02*
X8732200Y-14240250D01*
X8732200Y-14200250D02*
X8692200Y-14240250D01*
X8717600Y-13899200D02*
X8757600Y-13939200D01*
X8757600Y-13899200D02*
X8717600Y-13939200D01*
X8723000Y-15210000D02*
X8763000Y-15250000D01*
X8763000Y-15210000D02*
X8723000Y-15250000D01*
X8743000Y-14686600D02*
X8783000Y-14726600D01*
X8783000Y-14686600D02*
X8743000Y-14726600D01*
X8743000Y-14864400D02*
X8783000Y-14904400D01*
X8783000Y-14864400D02*
X8743000Y-14904400D01*
X8768400Y-14483400D02*
X8808400Y-14523400D01*
X8808400Y-14483400D02*
X8768400Y-14523400D01*
X8793800Y-13975400D02*
X8833800Y-14015400D01*
X8833800Y-13975400D02*
X8793800Y-14015400D01*
X8819200Y-13492800D02*
X8859200Y-13532800D01*
X8859200Y-13492800D02*
X8819200Y-13532800D01*
X8870000Y-6787200D02*
X8910000Y-6827200D01*
X8910000Y-6787200D02*
X8870000Y-6827200D01*
X8870000Y-9149400D02*
X8910000Y-9189400D01*
X8910000Y-9149400D02*
X8870000Y-9189400D01*
X8870000Y-14534200D02*
X8910000Y-14574200D01*
X8910000Y-14534200D02*
X8870000Y-14574200D01*
X8870000Y-15118400D02*
X8910000Y-15158400D01*
X8910000Y-15118400D02*
X8870000Y-15158400D01*
X8876964Y-14047850D02*
X8916964Y-14087850D01*
X8916964Y-14047850D02*
X8876964Y-14087850D01*
X8891000Y-14762800D02*
X8931000Y-14802800D01*
X8931000Y-14762800D02*
X8891000Y-14802800D01*
X8920800Y-12299000D02*
X8960800Y-12339000D01*
X8960800Y-12299000D02*
X8920800Y-12339000D01*
X8943450Y-13340400D02*
X8983450Y-13380400D01*
X8983450Y-13340400D02*
X8943450Y-13380400D01*
X8946200Y-13569000D02*
X8986200Y-13609000D01*
X8986200Y-13569000D02*
X8946200Y-13609000D01*
X8946200Y-13823000D02*
X8986200Y-13863000D01*
X8986200Y-13823000D02*
X8946200Y-13863000D01*
X8993250Y-12484147D02*
X9033250Y-12524147D01*
X9033250Y-12484147D02*
X8993250Y-12524147D01*
X8993250Y-12654600D02*
X9033250Y-12694600D01*
X9033250Y-12654600D02*
X8993250Y-12694600D01*
X8997000Y-8133400D02*
X9037000Y-8173400D01*
X9037000Y-8133400D02*
X8997000Y-8173400D01*
X8997000Y-8570950D02*
X9037000Y-8610950D01*
X9037000Y-8570950D02*
X8997000Y-8610950D01*
X9022400Y-11689400D02*
X9062400Y-11729400D01*
X9062400Y-11689400D02*
X9022400Y-11729400D01*
X9047800Y-6152200D02*
X9087800Y-6192200D01*
X9087800Y-6152200D02*
X9047800Y-6192200D01*
X9047800Y-10978630D02*
X9087800Y-11018630D01*
X9087800Y-10978630D02*
X9047800Y-11018630D01*
X9047800Y-11283000D02*
X9087800Y-11323000D01*
X9087800Y-11283000D02*
X9047800Y-11323000D01*
X9047800Y-13086400D02*
X9087800Y-13126400D01*
X9087800Y-13086400D02*
X9047800Y-13126400D01*
X9061000Y-14966000D02*
X9101000Y-15006000D01*
X9101000Y-14966000D02*
X9061000Y-15006000D01*
X9073070Y-9860470D02*
X9113070Y-9900470D01*
X9113070Y-9860470D02*
X9073070Y-9900470D01*
X9073200Y-13645200D02*
X9113200Y-13685200D01*
X9113200Y-13645200D02*
X9073200Y-13685200D01*
X9073200Y-13899200D02*
X9113200Y-13939200D01*
X9113200Y-13899200D02*
X9073200Y-13939200D01*
X9120250Y-12807000D02*
X9160250Y-12847000D01*
X9160250Y-12807000D02*
X9120250Y-12847000D01*
X9123870Y-11435400D02*
X9163870Y-11475400D01*
X9163870Y-11435400D02*
X9123870Y-11475400D01*
X9145520Y-6177900D02*
X9185520Y-6217900D01*
X9185520Y-6177900D02*
X9145520Y-6217900D01*
X9145520Y-9531130D02*
X9185520Y-9571130D01*
X9185520Y-9531130D02*
X9145520Y-9571130D01*
X9149400Y-13496550D02*
X9189400Y-13536550D01*
X9189400Y-13496550D02*
X9149400Y-13536550D01*
X9178550Y-13213400D02*
X9218550Y-13253400D01*
X9218550Y-13213400D02*
X9178550Y-13253400D01*
X9200200Y-12019600D02*
X9240200Y-12059600D01*
X9240200Y-12019600D02*
X9200200Y-12059600D01*
X9217970Y-6258997D02*
X9257970Y-6298997D01*
X9257970Y-6258997D02*
X9217970Y-6298997D01*
X9217970Y-9200200D02*
X9257970Y-9240200D01*
X9257970Y-9200200D02*
X9217970Y-9240200D01*
X9225600Y-12476800D02*
X9265600Y-12516800D01*
X9265600Y-12476800D02*
X9225600Y-12516800D01*
X9226495Y-12198295D02*
X9266495Y-12238295D01*
X9266495Y-12198295D02*
X9226495Y-12238295D01*
X9238000Y-14585000D02*
X9278000Y-14625000D01*
X9278000Y-14585000D02*
X9238000Y-14625000D01*
X9238000Y-15096000D02*
X9278000Y-15136000D01*
X9278000Y-15096000D02*
X9238000Y-15136000D01*
X9251000Y-13569000D02*
X9291000Y-13609000D01*
X9291000Y-13569000D02*
X9251000Y-13609000D01*
X9378000Y-13645200D02*
X9418000Y-13685200D01*
X9418000Y-13645200D02*
X9378000Y-13685200D01*
X9381000Y-14848000D02*
X9421000Y-14888000D01*
X9421000Y-14848000D02*
X9381000Y-14888000D01*
X9424000Y-14452000D02*
X9464000Y-14492000D01*
X9464000Y-14452000D02*
X9424000Y-14492000D01*
X9530400Y-13315000D02*
X9570400Y-13355000D01*
X9570400Y-13315000D02*
X9530400Y-13355000D01*
X9555800Y-6939600D02*
X9595800Y-6979600D01*
X9595800Y-6939600D02*
X9555800Y-6979600D01*
X9555800Y-8133400D02*
X9595800Y-8173400D01*
X9595800Y-8133400D02*
X9555800Y-8173400D01*
X9555800Y-12426000D02*
X9595800Y-12466000D01*
X9595800Y-12426000D02*
X9555800Y-12466000D01*
X9565000Y-14585000D02*
X9605000Y-14625000D01*
X9605000Y-14585000D02*
X9565000Y-14625000D01*
X9606600Y-10521000D02*
X9646600Y-10561000D01*
X9646600Y-10521000D02*
X9606600Y-10561000D01*
X9606600Y-10673400D02*
X9646600Y-10713400D01*
X9646600Y-10673400D02*
X9606600Y-10713400D01*
X9606600Y-10800400D02*
X9646600Y-10840400D01*
X9646600Y-10800400D02*
X9606600Y-10840400D01*
X9632000Y-7015800D02*
X9672000Y-7055800D01*
X9672000Y-7015800D02*
X9632000Y-7055800D01*
X9632000Y-8362000D02*
X9672000Y-8402000D01*
X9672000Y-8362000D02*
X9632000Y-8402000D01*
X9632000Y-12172000D02*
X9672000Y-12212000D01*
X9672000Y-12172000D02*
X9632000Y-12212000D01*
X9632000Y-12705400D02*
X9672000Y-12745400D01*
X9672000Y-12705400D02*
X9632000Y-12745400D01*
X9657400Y-8768400D02*
X9697400Y-8808400D01*
X9697400Y-8768400D02*
X9657400Y-8808400D01*
X9657400Y-8997000D02*
X9697400Y-9037000D01*
X9697400Y-8997000D02*
X9657400Y-9037000D01*
X9682800Y-14634050D02*
X9722800Y-14674050D01*
X9722800Y-14634050D02*
X9682800Y-14674050D01*
X9697000Y-14824000D02*
X9737000Y-14864000D01*
X9737000Y-14824000D02*
X9697000Y-14864000D01*
X9708200Y-11029000D02*
X9748200Y-11069000D01*
X9748200Y-11029000D02*
X9708200Y-11069000D01*
X9769021Y-14692460D02*
X9809021Y-14732460D01*
X9809021Y-14692460D02*
X9769021Y-14732460D01*
X9784400Y-11537000D02*
X9824400Y-11577000D01*
X9824400Y-11537000D02*
X9784400Y-11577000D01*
X9784400Y-11943400D02*
X9824400Y-11983400D01*
X9824400Y-11943400D02*
X9784400Y-11983400D01*
X9784400Y-13238800D02*
X9824400Y-13278800D01*
X9824400Y-13238800D02*
X9784400Y-13278800D01*
X9871000Y-14683600D02*
X9911000Y-14723600D01*
X9911000Y-14683600D02*
X9871000Y-14723600D01*
X9886000Y-7193600D02*
X9926000Y-7233600D01*
X9926000Y-7193600D02*
X9886000Y-7233600D01*
X9886000Y-12553000D02*
X9926000Y-12593000D01*
X9926000Y-12553000D02*
X9886000Y-12593000D01*
X9962200Y-7092000D02*
X10002200Y-7132000D01*
X10002200Y-7092000D02*
X9962200Y-7132000D01*
X9965950Y-12807000D02*
X10005950Y-12847000D01*
X10005950Y-12807000D02*
X9965950Y-12847000D01*
X9987000Y-15186000D02*
X10027000Y-15226000D01*
X10027000Y-15186000D02*
X9987000Y-15226000D01*
X10038400Y-11156000D02*
X10078400Y-11196000D01*
X10078400Y-11156000D02*
X10038400Y-11196000D01*
X10038400Y-13238800D02*
X10078400Y-13278800D01*
X10078400Y-13238800D02*
X10038400Y-13278800D01*
X10063800Y-13416600D02*
X10103800Y-13456600D01*
X10103800Y-13416600D02*
X10063800Y-13456600D01*
X10114600Y-11410000D02*
X10154600Y-11450000D01*
X10154600Y-11410000D02*
X10114600Y-11450000D01*
X10114600Y-13315000D02*
X10154600Y-13355000D01*
X10154600Y-13315000D02*
X10114600Y-13355000D01*
X10190800Y-11664000D02*
X10230800Y-11704000D01*
X10230800Y-11664000D02*
X10190800Y-11704000D01*
X10190800Y-13416600D02*
X10230800Y-13456600D01*
X10230800Y-13416600D02*
X10190800Y-13456600D01*
X10267000Y-11918000D02*
X10307000Y-11958000D01*
X10307000Y-11918000D02*
X10267000Y-11958000D01*
X10267000Y-13492800D02*
X10307000Y-13532800D01*
X10307000Y-13492800D02*
X10267000Y-13532800D01*
X10292400Y-15270800D02*
X10332400Y-15310800D01*
X10332400Y-15270800D02*
X10292400Y-15310800D01*
X10339450Y-12426000D02*
X10379450Y-12466000D01*
X10379450Y-12426000D02*
X10339450Y-12466000D01*
X10343200Y-7266050D02*
X10383200Y-7306050D01*
X10383200Y-7266050D02*
X10343200Y-7306050D01*
X10411900Y-12299000D02*
X10451900Y-12339000D01*
X10451900Y-12299000D02*
X10411900Y-12339000D01*
X10419400Y-6355400D02*
X10459400Y-6395400D01*
X10459400Y-6355400D02*
X10419400Y-6395400D01*
X10444800Y-14051600D02*
X10484800Y-14091600D01*
X10484800Y-14051600D02*
X10444800Y-14091600D01*
X10484350Y-11918000D02*
X10524350Y-11958000D01*
X10524350Y-11918000D02*
X10484350Y-11958000D01*
X10493000Y-15169200D02*
X10533000Y-15209200D01*
X10533000Y-15169200D02*
X10493000Y-15209200D01*
X10495600Y-6431600D02*
X10535600Y-6471600D01*
X10535600Y-6431600D02*
X10495600Y-6471600D01*
X10546400Y-13619800D02*
X10586400Y-13659800D01*
X10586400Y-13619800D02*
X10546400Y-13659800D01*
X10556800Y-11664000D02*
X10596800Y-11704000D01*
X10596800Y-11664000D02*
X10556800Y-11704000D01*
X10571800Y-7574600D02*
X10611800Y-7614600D01*
X10611800Y-7574600D02*
X10571800Y-7614600D01*
X10629250Y-11410000D02*
X10669250Y-11450000D01*
X10669250Y-11410000D02*
X10629250Y-11450000D01*
X10648000Y-7650800D02*
X10688000Y-7690800D01*
X10688000Y-7650800D02*
X10648000Y-7690800D01*
X10724200Y-10521000D02*
X10764200Y-10561000D01*
X10764200Y-10521000D02*
X10724200Y-10561000D01*
X10724200Y-10749600D02*
X10764200Y-10789600D01*
X10764200Y-10749600D02*
X10724200Y-10789600D01*
X10800400Y-8082600D02*
X10840400Y-8122600D01*
X10840400Y-8082600D02*
X10800400Y-8122600D01*
X10800400Y-11156000D02*
X10840400Y-11196000D01*
X10840400Y-11156000D02*
X10800400Y-11196000D01*
X10800400Y-13416600D02*
X10840400Y-13456600D01*
X10840400Y-13416600D02*
X10800400Y-13456600D01*
X10870300Y-14337300D02*
X10910300Y-14377300D01*
X10910300Y-14337300D02*
X10870300Y-14377300D01*
X10877000Y-14738000D02*
X10917000Y-14778000D01*
X10917000Y-14738000D02*
X10877000Y-14778000D01*
X10902000Y-8158800D02*
X10942000Y-8198800D01*
X10942000Y-8158800D02*
X10902000Y-8198800D01*
X10902000Y-8514400D02*
X10942000Y-8554400D01*
X10942000Y-8514400D02*
X10902000Y-8554400D01*
X10978200Y-8997000D02*
X11018200Y-9037000D01*
X11018200Y-8997000D02*
X10978200Y-9037000D01*
X10978200Y-9809800D02*
X11018200Y-9849800D01*
X11018200Y-9809800D02*
X10978200Y-9849800D01*
X11054400Y-8616000D02*
X11094400Y-8656000D01*
X11094400Y-8616000D02*
X11054400Y-8656000D01*
X11054400Y-9962200D02*
X11094400Y-10002200D01*
X11094400Y-9962200D02*
X11054400Y-10002200D01*
X11054400Y-13315000D02*
X11094400Y-13355000D01*
X11094400Y-13315000D02*
X11054400Y-13355000D01*
X11057000Y-14998000D02*
X11097000Y-15038000D01*
X11097000Y-14998000D02*
X11057000Y-15038000D01*
X11261000Y-15169200D02*
X11301000Y-15209200D01*
X11301000Y-15169200D02*
X11261000Y-15209200D01*
X11308400Y-13238800D02*
X11348400Y-13278800D01*
X11348400Y-13238800D02*
X11308400Y-13278800D01*
X11486200Y-8336600D02*
X11526200Y-8376600D01*
X11526200Y-8336600D02*
X11486200Y-8376600D01*
X11486200Y-12197400D02*
X11526200Y-12237400D01*
X11526200Y-12197400D02*
X11486200Y-12237400D01*
X11555800Y-15267800D02*
X11595800Y-15307800D01*
X11595800Y-15267800D02*
X11555800Y-15307800D01*
X11562400Y-13166350D02*
X11602400Y-13206350D01*
X11602400Y-13166350D02*
X11562400Y-13206350D01*
X11568000Y-14051600D02*
X11608000Y-14091600D01*
X11608000Y-14051600D02*
X11568000Y-14091600D01*
X11725000Y-15009000D02*
X11765000Y-15049000D01*
X11765000Y-15009000D02*
X11725000Y-15049000D01*
X11765600Y-8895400D02*
X11805600Y-8935400D01*
X11805600Y-8895400D02*
X11765600Y-8935400D01*
X11816400Y-13086400D02*
X11856400Y-13126400D01*
X11856400Y-13086400D02*
X11816400Y-13126400D01*
X11816400Y-14510000D02*
X11856400Y-14550000D01*
X11856400Y-14510000D02*
X11816400Y-14550000D01*
X12019600Y-6279200D02*
X12059600Y-6319200D01*
X12059600Y-6279200D02*
X12019600Y-6319200D01*
X12019600Y-8336600D02*
X12059600Y-8376600D01*
X12059600Y-8336600D02*
X12019600Y-8376600D01*
X12019600Y-9124000D02*
X12059600Y-9164000D01*
X12059600Y-9124000D02*
X12019600Y-9164000D01*
X12019600Y-12197400D02*
X12059600Y-12237400D01*
X12059600Y-12197400D02*
X12019600Y-12237400D01*
X12070400Y-13013950D02*
X12110400Y-13053950D01*
X12110400Y-13013950D02*
X12070400Y-13053950D01*
X12095800Y-14254800D02*
X12135800Y-14294800D01*
X12135800Y-14254800D02*
X12095800Y-14294800D01*
X12113300Y-14737400D02*
X12153300Y-14777400D01*
X12153300Y-14737400D02*
X12113300Y-14777400D01*
X12186000Y-15171000D02*
X12226000Y-15211000D01*
X12226000Y-15171000D02*
X12186000Y-15211000D01*
X12273600Y-10267000D02*
X12313600Y-10307000D01*
X12313600Y-10267000D02*
X12273600Y-10307000D01*
X12324400Y-12934000D02*
X12364400Y-12974000D01*
X12364400Y-12934000D02*
X12324400Y-12974000D01*
X12527600Y-6177600D02*
X12567600Y-6217600D01*
X12567600Y-6177600D02*
X12527600Y-6217600D01*
X12527600Y-9378000D02*
X12567600Y-9418000D01*
X12567600Y-9378000D02*
X12527600Y-9418000D01*
X12603800Y-7777800D02*
X12643800Y-7817800D01*
X12643800Y-7777800D02*
X12603800Y-7817800D01*
X12654600Y-9378000D02*
X12694600Y-9418000D01*
X12694600Y-9378000D02*
X12654600Y-9418000D01*
X12654600Y-12857800D02*
X12694600Y-12897800D01*
X12694600Y-12857800D02*
X12654600Y-12897800D01*
X12756200Y-12861550D02*
X12796200Y-12901550D01*
X12796200Y-12861550D02*
X12756200Y-12901550D01*
X12781600Y-6126800D02*
X12821600Y-6166800D01*
X12821600Y-6126800D02*
X12781600Y-6166800D01*
X12781600Y-10165400D02*
X12821600Y-10205400D01*
X12821600Y-10165400D02*
X12781600Y-10205400D01*
X12781600Y-11765600D02*
X12821600Y-11805600D01*
X12821600Y-11765600D02*
X12781600Y-11805600D01*
X12908600Y-9574550D02*
X12948600Y-9614550D01*
X12948600Y-9574550D02*
X12908600Y-9614550D01*
X13035600Y-7092000D02*
X13075600Y-7132000D01*
X13075600Y-7092000D02*
X13035600Y-7132000D01*
X13035600Y-10394000D02*
X13075600Y-10434000D01*
X13075600Y-10394000D02*
X13035600Y-10434000D01*
X13162600Y-9276400D02*
X13202600Y-9316400D01*
X13202600Y-9276400D02*
X13162600Y-9316400D01*
X13289600Y-7193600D02*
X13329600Y-7233600D01*
X13329600Y-7193600D02*
X13289600Y-7233600D01*
X13289600Y-10034650D02*
X13329600Y-10074650D01*
X13329600Y-10034650D02*
X13289600Y-10074650D01*
X13289600Y-13162600D02*
X13329600Y-13202600D01*
X13329600Y-13162600D02*
X13289600Y-13202600D01*
X13543600Y-10241600D02*
X13583600Y-10281600D01*
X13583600Y-10241600D02*
X13543600Y-10281600D01*
X13594400Y-13467400D02*
X13634400Y-13507400D01*
X13634400Y-13467400D02*
X13594400Y-13507400D01*
X13797600Y-7295200D02*
X13837600Y-7335200D01*
X13837600Y-7295200D02*
X13797600Y-7335200D01*
X13797600Y-9276400D02*
X13837600Y-9316400D01*
X13837600Y-9276400D02*
X13797600Y-9316400D01*
X13797600Y-9632000D02*
X13837600Y-9672000D01*
X13837600Y-9632000D02*
X13797600Y-9672000D01*
X13797600Y-13086400D02*
X13837600Y-13126400D01*
X13837600Y-13086400D02*
X13797600Y-13126400D01*
X13848400Y-14254800D02*
X13888400Y-14294800D01*
X13888400Y-14254800D02*
X13848400Y-14294800D01*
X14051600Y-6355400D02*
X14091600Y-6395400D01*
X14091600Y-6355400D02*
X14051600Y-6395400D01*
X14051600Y-9555800D02*
X14091600Y-9595800D01*
X14091600Y-9555800D02*
X14051600Y-9595800D01*
X14051600Y-9987600D02*
X14091600Y-10027600D01*
X14091600Y-9987600D02*
X14051600Y-10027600D01*
X14051600Y-13010200D02*
X14091600Y-13050200D01*
X14091600Y-13010200D02*
X14051600Y-13050200D01*
X14102400Y-14127800D02*
X14142400Y-14167800D01*
X14142400Y-14127800D02*
X14102400Y-14167800D01*
X14178600Y-9174800D02*
X14218600Y-9214800D01*
X14218600Y-9174800D02*
X14178600Y-9214800D01*
X14280200Y-13823000D02*
X14320200Y-13863000D01*
X14320200Y-13823000D02*
X14280200Y-13863000D01*
X14305600Y-6431600D02*
X14345600Y-6471600D01*
X14345600Y-6431600D02*
X14305600Y-6471600D01*
X14305600Y-9555800D02*
X14345600Y-9595800D01*
X14345600Y-9555800D02*
X14305600Y-9595800D01*
X14305600Y-10825800D02*
X14345600Y-10865800D01*
X14345600Y-10825800D02*
X14305600Y-10865800D01*
X14305600Y-12857800D02*
X14345600Y-12897800D01*
X14345600Y-12857800D02*
X14305600Y-12897800D01*
X14331000Y-12045000D02*
X14371000Y-12085000D01*
X14371000Y-12045000D02*
X14331000Y-12085000D01*
X14381800Y-13721400D02*
X14421800Y-13761400D01*
X14421800Y-13721400D02*
X14381800Y-13761400D01*
X14426000Y-15267800D02*
X14466000Y-15307800D01*
X14466000Y-15267800D02*
X14426000Y-15307800D01*
X14432600Y-10825800D02*
X14472600Y-10865800D01*
X14472600Y-10825800D02*
X14432600Y-10865800D01*
X14437340Y-13619800D02*
X14477340Y-13659800D01*
X14477340Y-13619800D02*
X14437340Y-13659800D01*
X14534200Y-11232200D02*
X14574200Y-11272200D01*
X14574200Y-11232200D02*
X14534200Y-11272200D01*
X14553000Y-14673000D02*
X14593000Y-14713000D01*
X14593000Y-14673000D02*
X14553000Y-14713000D01*
X14559600Y-7549200D02*
X14599600Y-7589200D01*
X14599600Y-7549200D02*
X14559600Y-7589200D01*
X14559600Y-9174800D02*
X14599600Y-9214800D01*
X14599600Y-9174800D02*
X14559600Y-9214800D01*
X14661200Y-13895450D02*
X14701200Y-13935450D01*
X14701200Y-13895450D02*
X14661200Y-13935450D01*
X14661200Y-14610400D02*
X14701200Y-14650400D01*
X14701200Y-14610400D02*
X14661200Y-14650400D01*
X14686600Y-11232200D02*
X14726600Y-11272200D01*
X14726600Y-11232200D02*
X14686600Y-11272200D01*
X14686600Y-12934000D02*
X14726600Y-12974000D01*
X14726600Y-12934000D02*
X14686600Y-12974000D01*
X14915200Y-12146600D02*
X14955200Y-12186600D01*
X14955200Y-12146600D02*
X14915200Y-12186600D01*
X15042200Y-7625400D02*
X15082200Y-7665400D01*
X15082200Y-7625400D02*
X15042200Y-7665400D01*
X15042200Y-14178600D02*
X15082200Y-14218600D01*
X15082200Y-14178600D02*
X15042200Y-14218600D01*
X15042200Y-15220000D02*
X15082200Y-15260000D01*
X15082200Y-15220000D02*
X15042200Y-15260000D01*
X15067600Y-10038400D02*
X15107600Y-10078400D01*
X15107600Y-10038400D02*
X15067600Y-10078400D01*
X15067600Y-11359200D02*
X15107600Y-11399200D01*
X15107600Y-11359200D02*
X15067600Y-11399200D01*
X15067600Y-13797600D02*
X15107600Y-13837600D01*
X15107600Y-13797600D02*
X15067600Y-13837600D01*
X15321600Y-8082600D02*
X15361600Y-8122600D01*
X15361600Y-8082600D02*
X15321600Y-8122600D01*
X15321600Y-9555800D02*
X15361600Y-9595800D01*
X15361600Y-9555800D02*
X15321600Y-9595800D01*
X15321600Y-10216200D02*
X15361600Y-10256200D01*
X15361600Y-10216200D02*
X15321600Y-10256200D01*
X15321600Y-11511600D02*
X15361600Y-11551600D01*
X15361600Y-11511600D02*
X15321600Y-11551600D01*
X15321600Y-11918000D02*
X15361600Y-11958000D01*
X15361600Y-11918000D02*
X15321600Y-11958000D01*
X15575600Y-8209600D02*
X15615600Y-8249600D01*
X15615600Y-8209600D02*
X15575600Y-8249600D01*
X15575600Y-9352600D02*
X15615600Y-9392600D01*
X15615600Y-9352600D02*
X15575600Y-9392600D01*
X15575600Y-10902000D02*
X15615600Y-10942000D01*
X15615600Y-10902000D02*
X15575600Y-10942000D01*
X15575600Y-12146600D02*
X15615600Y-12186600D01*
X15615600Y-12146600D02*
X15575600Y-12186600D01*
X15804200Y-11333800D02*
X15844200Y-11373800D01*
X15844200Y-11333800D02*
X15804200Y-11373800D01*
X15804200Y-11765600D02*
X15844200Y-11805600D01*
X15844200Y-11765600D02*
X15804200Y-11805600D01*
X15829600Y-7015800D02*
X15869600Y-7055800D01*
X15869600Y-7015800D02*
X15829600Y-7055800D01*
X15829600Y-9809800D02*
X15869600Y-9849800D01*
X15869600Y-9809800D02*
X15829600Y-9849800D01*
X15829600Y-11029000D02*
X15869600Y-11069000D01*
X15869600Y-11029000D02*
X15829600Y-11069000D01*
X15829600Y-12045000D02*
X15869600Y-12085000D01*
X15869600Y-12045000D02*
X15829600Y-12085000D01*
X16134400Y-12146600D02*
X16174400Y-12186600D01*
X16174400Y-12146600D02*
X16134400Y-12186600D01*
X16159800Y-14178600D02*
X16199800Y-14218600D01*
X16199800Y-14178600D02*
X16159800Y-14218600D01*
X16159800Y-15220000D02*
X16199800Y-15260000D01*
X16199800Y-15220000D02*
X16159800Y-15260000D01*
X16337600Y-8158800D02*
X16377600Y-8198800D01*
X16377600Y-8158800D02*
X16337600Y-8198800D01*
X16337600Y-8946200D02*
X16377600Y-8986200D01*
X16377600Y-8946200D02*
X16337600Y-8986200D01*
X16337600Y-9809800D02*
X16377600Y-9849800D01*
X16377600Y-9809800D02*
X16337600Y-9849800D01*
X16337600Y-11587800D02*
X16377600Y-11627800D01*
X16377600Y-11587800D02*
X16337600Y-11627800D01*
X16457636Y-13242550D02*
X16497636Y-13282550D01*
X16497636Y-13242550D02*
X16457636Y-13282550D01*
X16464600Y-12832400D02*
X16504600Y-12872400D01*
X16504600Y-12832400D02*
X16464600Y-12872400D01*
X16540800Y-12908600D02*
X16580800Y-12948600D01*
X16580800Y-12908600D02*
X16540800Y-12948600D01*
X16540800Y-13315000D02*
X16580800Y-13355000D01*
X16580800Y-13315000D02*
X16540800Y-13355000D01*
X16591600Y-12146600D02*
X16631600Y-12186600D01*
X16631600Y-12146600D02*
X16591600Y-12186600D01*
X16642400Y-12984800D02*
X16682400Y-13024800D01*
X16682400Y-12984800D02*
X16642400Y-13024800D01*
X16642400Y-13365800D02*
X16682400Y-13405800D01*
X16682400Y-13365800D02*
X16642400Y-13405800D01*
X16769400Y-13238800D02*
X16809400Y-13278800D01*
X16809400Y-13238800D02*
X16769400Y-13278800D01*
X16769400Y-13467400D02*
X16809400Y-13507400D01*
X16809400Y-13467400D02*
X16769400Y-13507400D01*
X16820200Y-12836150D02*
X16860200Y-12876150D01*
X16860200Y-12836150D02*
X16820200Y-12876150D01*
X16849350Y-9804900D02*
X16889350Y-9844900D01*
X16889350Y-9804900D02*
X16849350Y-9844900D01*
X16871000Y-13340400D02*
X16911000Y-13380400D01*
X16911000Y-13340400D02*
X16871000Y-13380400D01*
X16896400Y-8946200D02*
X16936400Y-8986200D01*
X16936400Y-8946200D02*
X16896400Y-8986200D01*
X16921800Y-10216200D02*
X16961800Y-10256200D01*
X16961800Y-10216200D02*
X16921800Y-10256200D01*
X16921800Y-12883200D02*
X16961800Y-12923200D01*
X16961800Y-12883200D02*
X16921800Y-12923200D01*
X16972600Y-8565200D02*
X17012600Y-8605200D01*
X17012600Y-8565200D02*
X16972600Y-8605200D01*
X16998000Y-10038400D02*
X17038000Y-10078400D01*
X17038000Y-10038400D02*
X16998000Y-10078400D01*
X16998000Y-12959400D02*
X17038000Y-12999400D01*
X17038000Y-12959400D02*
X16998000Y-12999400D01*
X17099600Y-6046850D02*
X17139600Y-6086850D01*
X17139600Y-6046850D02*
X17099600Y-6086850D01*
X17099600Y-13238800D02*
X17139600Y-13278800D01*
X17139600Y-13238800D02*
X17099600Y-13278800D01*
X17201200Y-5974400D02*
X17241200Y-6014400D01*
X17241200Y-5974400D02*
X17201200Y-6014400D01*
X17201200Y-13340400D02*
X17241200Y-13380400D01*
X17241200Y-13340400D02*
X17201200Y-13380400D01*
X17277400Y-14178600D02*
X17317400Y-14218600D01*
X17317400Y-14178600D02*
X17277400Y-14218600D01*
X17277400Y-15220000D02*
X17317400Y-15260000D01*
X17317400Y-15220000D02*
X17277400Y-15260000D01*
D10*
X8778500Y-8147000D02*
G75*
G03*
X8778500Y-8147000I-50000J0D01*
G01*
X8778500Y-8401000D02*
G75*
G03*
X8778500Y-8401000I-50000J0D01*
G01*
X8778500Y-8655000D02*
G75*
G03*
X8778500Y-8655000I-50000J0D01*
G01*
X8778500Y-8909000D02*
G75*
G03*
X8778500Y-8909000I-50000J0D01*
G01*
X8778500Y-9163000D02*
G75*
G03*
X8778500Y-9163000I-50000J0D01*
G01*
X8778500Y-9417000D02*
G75*
G03*
X8778500Y-9417000I-50000J0D01*
G01*
X8778500Y-9671000D02*
G75*
G03*
X8778500Y-9671000I-50000J0D01*
G01*
X8778500Y-9925000D02*
G75*
G03*
X8778500Y-9925000I-50000J0D01*
G01*
X8778500Y-10179000D02*
G75*
G03*
X8778500Y-10179000I-50000J0D01*
G01*
X8778500Y-10433000D02*
G75*
G03*
X8778500Y-10433000I-50000J0D01*
G01*
X8778500Y-10687000D02*
G75*
G03*
X8778500Y-10687000I-50000J0D01*
G01*
X8778500Y-10941000D02*
G75*
G03*
X8778500Y-10941000I-50000J0D01*
G01*
X8778500Y-11195000D02*
G75*
G03*
X8778500Y-11195000I-50000J0D01*
G01*
X8778500Y-11449000D02*
G75*
G03*
X8778500Y-11449000I-50000J0D01*
G01*
X8778500Y-11703000D02*
G75*
G03*
X8778500Y-11703000I-50000J0D01*
G01*
X8778500Y-11957000D02*
G75*
G03*
X8778500Y-11957000I-50000J0D01*
G01*
X8778500Y-12211000D02*
G75*
G03*
X8778500Y-12211000I-50000J0D01*
G01*
X8778500Y-12465000D02*
G75*
G03*
X8778500Y-12465000I-50000J0D01*
G01*
X8778500Y-12719000D02*
G75*
G03*
X8778500Y-12719000I-50000J0D01*
G01*
X8778500Y-12973000D02*
G75*
G03*
X8778500Y-12973000I-50000J0D01*
G01*
X9349000Y-13856500D02*
G75*
G03*
X9349000Y-13856500I-50000J0D01*
G01*
X9459000Y-8143000D02*
G75*
G03*
X9459000Y-8143000I-50000J0D01*
G01*
X9459000Y-8397000D02*
G75*
G03*
X9459000Y-8397000I-50000J0D01*
G01*
X9459000Y-8651000D02*
G75*
G03*
X9459000Y-8651000I-50000J0D01*
G01*
X9459000Y-8905000D02*
G75*
G03*
X9459000Y-8905000I-50000J0D01*
G01*
X9459000Y-9159000D02*
G75*
G03*
X9459000Y-9159000I-50000J0D01*
G01*
X9459000Y-9413000D02*
G75*
G03*
X9459000Y-9413000I-50000J0D01*
G01*
X9459000Y-9667000D02*
G75*
G03*
X9459000Y-9667000I-50000J0D01*
G01*
X9459000Y-9921000D02*
G75*
G03*
X9459000Y-9921000I-50000J0D01*
G01*
X9459000Y-10175000D02*
G75*
G03*
X9459000Y-10175000I-50000J0D01*
G01*
X9459000Y-10429000D02*
G75*
G03*
X9459000Y-10429000I-50000J0D01*
G01*
X9459000Y-10683000D02*
G75*
G03*
X9459000Y-10683000I-50000J0D01*
G01*
X9459000Y-10937000D02*
G75*
G03*
X9459000Y-10937000I-50000J0D01*
G01*
X9459000Y-11191000D02*
G75*
G03*
X9459000Y-11191000I-50000J0D01*
G01*
X9459000Y-11445000D02*
G75*
G03*
X9459000Y-11445000I-50000J0D01*
G01*
X9459000Y-11699000D02*
G75*
G03*
X9459000Y-11699000I-50000J0D01*
G01*
X9459000Y-11953000D02*
G75*
G03*
X9459000Y-11953000I-50000J0D01*
G01*
X9459000Y-12207000D02*
G75*
G03*
X9459000Y-12207000I-50000J0D01*
G01*
X9459000Y-12461000D02*
G75*
G03*
X9459000Y-12461000I-50000J0D01*
G01*
X9459000Y-12715000D02*
G75*
G03*
X9459000Y-12715000I-50000J0D01*
G01*
X9459000Y-12969000D02*
G75*
G03*
X9459000Y-12969000I-50000J0D01*
G01*
X9603000Y-13856500D02*
G75*
G03*
X9603000Y-13856500I-50000J0D01*
G01*
X9857000Y-13856500D02*
G75*
G03*
X9857000Y-13856500I-50000J0D01*
G01*
X10111000Y-13856500D02*
G75*
G03*
X10111000Y-13856500I-50000J0D01*
G01*
X10365000Y-13856500D02*
G75*
G03*
X10365000Y-13856500I-50000J0D01*
G01*
X10619000Y-13856500D02*
G75*
G03*
X10619000Y-13856500I-50000J0D01*
G01*
X10873000Y-13856500D02*
G75*
G03*
X10873000Y-13856500I-50000J0D01*
G01*
X10972000Y-12877800D02*
G75*
G03*
X10972000Y-12877800I-50000J0D01*
G01*
X11127000Y-13856500D02*
G75*
G03*
X11127000Y-13856500I-50000J0D01*
G01*
X11327600Y-12877800D02*
G75*
G03*
X11327600Y-12877800I-50000J0D01*
G01*
X11381000Y-13856500D02*
G75*
G03*
X11381000Y-13856500I-50000J0D01*
G01*
X11635000Y-13856500D02*
G75*
G03*
X11635000Y-13856500I-50000J0D01*
G01*
X11889000Y-13856500D02*
G75*
G03*
X11889000Y-13856500I-50000J0D01*
G01*
X12143000Y-13856500D02*
G75*
G03*
X12143000Y-13856500I-50000J0D01*
G01*
X12397000Y-13856500D02*
G75*
G03*
X12397000Y-13856500I-50000J0D01*
G01*
X12651000Y-13856500D02*
G75*
G03*
X12651000Y-13856500I-50000J0D01*
G01*
X12905000Y-13856500D02*
G75*
G03*
X12905000Y-13856500I-50000J0D01*
G01*
X13159000Y-13856500D02*
G75*
G03*
X13159000Y-13856500I-50000J0D01*
G01*
X13413000Y-13856500D02*
G75*
G03*
X13413000Y-13856500I-50000J0D01*
G01*
X13667000Y-13856500D02*
G75*
G03*
X13667000Y-13856500I-50000J0D01*
G01*
X13921000Y-13856500D02*
G75*
G03*
X13921000Y-13856500I-50000J0D01*
G01*
X14175000Y-13856500D02*
G75*
G03*
X14175000Y-13856500I-50000J0D01*
G01*
X16204400Y-11098800D02*
G75*
G03*
X16204400Y-11098800I-50000J0D01*
G01*
X16204400Y-11352800D02*
G75*
G03*
X16204400Y-11352800I-50000J0D01*
G01*
X16204400Y-11606800D02*
G75*
G03*
X16204400Y-11606800I-50000J0D01*
G01*
X16204400Y-11860800D02*
G75*
G03*
X16204400Y-11860800I-50000J0D01*
G01*
X16677000Y-13675000D02*
G75*
G03*
X16677000Y-13675000I-50000J0D01*
G01*
X16955000Y-13680000D02*
G75*
G03*
X16955000Y-13680000I-50000J0D01*
G01*
X17235000Y-13681000D02*
G75*
G03*
X17235000Y-13681000I-50000J0D01*
G01*
D13*
X11785600Y-6756200D02*
X11785600Y-6858200D01*
X11734600Y-6807200D02*
X11836600Y-6807200D01*
X11785600Y-8534200D02*
X11785600Y-8636200D01*
X11734600Y-8585200D02*
X11836600Y-8585200D01*
X11785600Y-10566200D02*
X11785600Y-10668200D01*
X11734600Y-10617200D02*
X11836600Y-10617200D01*
X11785600Y-12344200D02*
X11785600Y-12446200D01*
X11734600Y-12395200D02*
X11836600Y-12395200D01*
X12039600Y-6756200D02*
X12039600Y-6858200D01*
X11988600Y-6807200D02*
X12090600Y-6807200D01*
X12039600Y-8534200D02*
X12039600Y-8636200D01*
X11988600Y-8585200D02*
X12090600Y-8585200D01*
X12039600Y-10566200D02*
X12039600Y-10668200D01*
X11988600Y-10617200D02*
X12090600Y-10617200D01*
X12039600Y-12344200D02*
X12039600Y-12446200D01*
X11988600Y-12395200D02*
X12090600Y-12395200D01*
X12293600Y-6756200D02*
X12293600Y-6858200D01*
X12242600Y-6807200D02*
X12344600Y-6807200D01*
X12293600Y-8534200D02*
X12293600Y-8636200D01*
X12242600Y-8585200D02*
X12344600Y-8585200D01*
X12293600Y-10566200D02*
X12293600Y-10668200D01*
X12242600Y-10617200D02*
X12344600Y-10617200D01*
X12293600Y-12344200D02*
X12293600Y-12446200D01*
X12242600Y-12395200D02*
X12344600Y-12395200D01*
X12547600Y-6756200D02*
X12547600Y-6858200D01*
X12496600Y-6807200D02*
X12598600Y-6807200D01*
X12547600Y-8534200D02*
X12547600Y-8636200D01*
X12496600Y-8585200D02*
X12598600Y-8585200D01*
X12547600Y-10566200D02*
X12547600Y-10668200D01*
X12496600Y-10617200D02*
X12598600Y-10617200D01*
X12547600Y-12344200D02*
X12547600Y-12446200D01*
X12496600Y-12395200D02*
X12598600Y-12395200D01*
X12801600Y-6756200D02*
X12801600Y-6858200D01*
X12750600Y-6807200D02*
X12852600Y-6807200D01*
X12801600Y-8534200D02*
X12801600Y-8636200D01*
X12750600Y-8585200D02*
X12852600Y-8585200D01*
X12801600Y-10566200D02*
X12801600Y-10668200D01*
X12750600Y-10617200D02*
X12852600Y-10617200D01*
X12801600Y-12344200D02*
X12801600Y-12446200D01*
X12750600Y-12395200D02*
X12852600Y-12395200D01*
X13055600Y-6756200D02*
X13055600Y-6858200D01*
X13004600Y-6807200D02*
X13106600Y-6807200D01*
X13055600Y-8534200D02*
X13055600Y-8636200D01*
X13004600Y-8585200D02*
X13106600Y-8585200D01*
X13055600Y-10566200D02*
X13055600Y-10668200D01*
X13004600Y-10617200D02*
X13106600Y-10617200D01*
X13055600Y-12344200D02*
X13055600Y-12446200D01*
X13004600Y-12395200D02*
X13106600Y-12395200D01*
X13309600Y-6756200D02*
X13309600Y-6858200D01*
X13258600Y-6807200D02*
X13360600Y-6807200D01*
X13309600Y-8534200D02*
X13309600Y-8636200D01*
X13258600Y-8585200D02*
X13360600Y-8585200D01*
X13309600Y-10566200D02*
X13309600Y-10668200D01*
X13258600Y-10617200D02*
X13360600Y-10617200D01*
X13309600Y-12344200D02*
X13309600Y-12446200D01*
X13258600Y-12395200D02*
X13360600Y-12395200D01*
X13563600Y-6756200D02*
X13563600Y-6858200D01*
X13512600Y-6807200D02*
X13614600Y-6807200D01*
X13563600Y-8534200D02*
X13563600Y-8636200D01*
X13512600Y-8585200D02*
X13614600Y-8585200D01*
X13563600Y-10566200D02*
X13563600Y-10668200D01*
X13512600Y-10617200D02*
X13614600Y-10617200D01*
X13563600Y-12344200D02*
X13563600Y-12446200D01*
X13512600Y-12395200D02*
X13614600Y-12395200D01*
X13817600Y-6756200D02*
X13817600Y-6858200D01*
X13766600Y-6807200D02*
X13868600Y-6807200D01*
X13817600Y-8534200D02*
X13817600Y-8636200D01*
X13766600Y-8585200D02*
X13868600Y-8585200D01*
X13817600Y-10566200D02*
X13817600Y-10668200D01*
X13766600Y-10617200D02*
X13868600Y-10617200D01*
X13817600Y-12344200D02*
X13817600Y-12446200D01*
X13766600Y-12395200D02*
X13868600Y-12395200D01*
X14071600Y-6756200D02*
X14071600Y-6858200D01*
X14020600Y-6807200D02*
X14122600Y-6807200D01*
X14071600Y-8534200D02*
X14071600Y-8636200D01*
X14020600Y-8585200D02*
X14122600Y-8585200D01*
X14071600Y-10566200D02*
X14071600Y-10668200D01*
X14020600Y-10617200D02*
X14122600Y-10617200D01*
X14071600Y-12344200D02*
X14071600Y-12446200D01*
X14020600Y-12395200D02*
X14122600Y-12395200D01*
X14325600Y-6756200D02*
X14325600Y-6858200D01*
X14274600Y-6807200D02*
X14376600Y-6807200D01*
X14325600Y-8534200D02*
X14325600Y-8636200D01*
X14274600Y-8585200D02*
X14376600Y-8585200D01*
X14325600Y-10566200D02*
X14325600Y-10668200D01*
X14274600Y-10617200D02*
X14376600Y-10617200D01*
X14325600Y-12344200D02*
X14325600Y-12446200D01*
X14274600Y-12395200D02*
X14376600Y-12395200D01*
X14579600Y-6756200D02*
X14579600Y-6858200D01*
X14528600Y-6807200D02*
X14630600Y-6807200D01*
X14579600Y-8534200D02*
X14579600Y-8636200D01*
X14528600Y-8585200D02*
X14630600Y-8585200D01*
X14579600Y-10566200D02*
X14579600Y-10668200D01*
X14528600Y-10617200D02*
X14630600Y-10617200D01*
X14579600Y-12344200D02*
X14579600Y-12446200D01*
X14528600Y-12395200D02*
X14630600Y-12395200D01*
X14833600Y-6756200D02*
X14833600Y-6858200D01*
X14782600Y-6807200D02*
X14884600Y-6807200D01*
X14833600Y-8534200D02*
X14833600Y-8636200D01*
X14782600Y-8585200D02*
X14884600Y-8585200D01*
X14833600Y-10566200D02*
X14833600Y-10668200D01*
X14782600Y-10617200D02*
X14884600Y-10617200D01*
X14833600Y-12344200D02*
X14833600Y-12446200D01*
X14782600Y-12395200D02*
X14884600Y-12395200D01*
X15087600Y-6756200D02*
X15087600Y-6858200D01*
X15036600Y-6807200D02*
X15138600Y-6807200D01*
X15087600Y-8534200D02*
X15087600Y-8636200D01*
X15036600Y-8585200D02*
X15138600Y-8585200D01*
X15087600Y-10566200D02*
X15087600Y-10668200D01*
X15036600Y-10617200D02*
X15138600Y-10617200D01*
X15087600Y-12344200D02*
X15087600Y-12446200D01*
X15036600Y-12395200D02*
X15138600Y-12395200D01*
X15341600Y-6756200D02*
X15341600Y-6858200D01*
X15290600Y-6807200D02*
X15392600Y-6807200D01*
X15341600Y-8534200D02*
X15341600Y-8636200D01*
X15290600Y-8585200D02*
X15392600Y-8585200D01*
X15341600Y-10566200D02*
X15341600Y-10668200D01*
X15290600Y-10617200D02*
X15392600Y-10617200D01*
X15341600Y-12344200D02*
X15341600Y-12446200D01*
X15290600Y-12395200D02*
X15392600Y-12395200D01*
X15595600Y-6756200D02*
X15595600Y-6858200D01*
X15544600Y-6807200D02*
X15646600Y-6807200D01*
X15595600Y-8534200D02*
X15595600Y-8636200D01*
X15544600Y-8585200D02*
X15646600Y-8585200D01*
X15595600Y-10566200D02*
X15595600Y-10668200D01*
X15544600Y-10617200D02*
X15646600Y-10617200D01*
X15595600Y-12344200D02*
X15595600Y-12446200D01*
X15544600Y-12395200D02*
X15646600Y-12395200D01*
X15849600Y-6756200D02*
X15849600Y-6858200D01*
X15798600Y-6807200D02*
X15900600Y-6807200D01*
X15849600Y-8534200D02*
X15849600Y-8636200D01*
X15798600Y-8585200D02*
X15900600Y-8585200D01*
X15849600Y-10566200D02*
X15849600Y-10668200D01*
X15798600Y-10617200D02*
X15900600Y-10617200D01*
X15849600Y-12344200D02*
X15849600Y-12446200D01*
X15798600Y-12395200D02*
X15900600Y-12395200D01*
X16103600Y-6756200D02*
X16103600Y-6858200D01*
X16052600Y-6807200D02*
X16154600Y-6807200D01*
X16103600Y-8534200D02*
X16103600Y-8636200D01*
X16052600Y-8585200D02*
X16154600Y-8585200D01*
X16103600Y-10566200D02*
X16103600Y-10668200D01*
X16052600Y-10617200D02*
X16154600Y-10617200D01*
X16103600Y-12344200D02*
X16103600Y-12446200D01*
X16052600Y-12395200D02*
X16154600Y-12395200D01*
X16357600Y-6756200D02*
X16357600Y-6858200D01*
X16306600Y-6807200D02*
X16408600Y-6807200D01*
X16357600Y-8534200D02*
X16357600Y-8636200D01*
X16306600Y-8585200D02*
X16408600Y-8585200D01*
X16357600Y-10566200D02*
X16357600Y-10668200D01*
X16306600Y-10617200D02*
X16408600Y-10617200D01*
X16357600Y-12344200D02*
X16357600Y-12446200D01*
X16306600Y-12395200D02*
X16408600Y-12395200D01*
X16588600Y-7391200D02*
X16588600Y-7493200D01*
X16537600Y-7442200D02*
X16639600Y-7442200D01*
X16588600Y-7645200D02*
X16588600Y-7747200D01*
X16537600Y-7696200D02*
X16639600Y-7696200D01*
X16588600Y-7899200D02*
X16588600Y-8001200D01*
X16537600Y-7950200D02*
X16639600Y-7950200D01*
X16588600Y-11201200D02*
X16588600Y-11303200D01*
X16537600Y-11252200D02*
X16639600Y-11252200D01*
X16588600Y-11455200D02*
X16588600Y-11557200D01*
X16537600Y-11506200D02*
X16639600Y-11506200D01*
X16588600Y-11709200D02*
X16588600Y-11811200D01*
X16537600Y-11760200D02*
X16639600Y-11760200D01*
X16611600Y-6756200D02*
X16611600Y-6858200D01*
X16560600Y-6807200D02*
X16662600Y-6807200D01*
X16611600Y-8534200D02*
X16611600Y-8636200D01*
X16560600Y-8585200D02*
X16662600Y-8585200D01*
X16611600Y-10566200D02*
X16611600Y-10668200D01*
X16560600Y-10617200D02*
X16662600Y-10617200D01*
X16611600Y-12344200D02*
X16611600Y-12446200D01*
X16560600Y-12395200D02*
X16662600Y-12395200D01*
D14*
X13702691Y-14441291D02*
X13702691Y-14363509D01*
X13624909Y-14363509D01*
X13624909Y-14441291D01*
X13702691Y-14441291D01*
X13702691Y-14891291D02*
X13702691Y-14813509D01*
X13624909Y-14813509D01*
X13624909Y-14891291D01*
X13702691Y-14891291D01*
X14352691Y-14441291D02*
X14352691Y-14363509D01*
X14274909Y-14363509D01*
X14274909Y-14441291D01*
X14352691Y-14441291D01*
X14352691Y-14891291D02*
X14352691Y-14813509D01*
X14274909Y-14813509D01*
X14274909Y-14891291D01*
X14352691Y-14891291D01*
D15*
X7765800Y-8210400D02*
X7825800Y-8150400D01*
X7765800Y-8090400D01*
X7705800Y-8150400D01*
X7765800Y-8210400D01*
X7765800Y-8464400D02*
X7825800Y-8404400D01*
X7765800Y-8344400D01*
X7705800Y-8404400D01*
X7765800Y-8464400D01*
X7765800Y-8718400D02*
X7825800Y-8658400D01*
X7765800Y-8598400D01*
X7705800Y-8658400D01*
X7765800Y-8718400D01*
X7765800Y-8972400D02*
X7825800Y-8912400D01*
X7765800Y-8852400D01*
X7705800Y-8912400D01*
X7765800Y-8972400D01*
X7765800Y-9480400D02*
X7825800Y-9420400D01*
X7765800Y-9360400D01*
X7705800Y-9420400D01*
X7765800Y-9480400D01*
X7765800Y-9734400D02*
X7825800Y-9674400D01*
X7765800Y-9614400D01*
X7705800Y-9674400D01*
X7765800Y-9734400D01*
X7765800Y-9988400D02*
X7825800Y-9928400D01*
X7765800Y-9868400D01*
X7705800Y-9928400D01*
X7765800Y-9988400D01*
X7765800Y-10242400D02*
X7825800Y-10182400D01*
X7765800Y-10122400D01*
X7705800Y-10182400D01*
X7765800Y-10242400D01*
X7765800Y-10496400D02*
X7825800Y-10436400D01*
X7765800Y-10376400D01*
X7705800Y-10436400D01*
X7765800Y-10496400D01*
X7765800Y-10750400D02*
X7825800Y-10690400D01*
X7765800Y-10630400D01*
X7705800Y-10690400D01*
X7765800Y-10750400D01*
X7765800Y-11004400D02*
X7825800Y-10944400D01*
X7765800Y-10884400D01*
X7705800Y-10944400D01*
X7765800Y-11004400D01*
X7765800Y-11258400D02*
X7825800Y-11198400D01*
X7765800Y-11138400D01*
X7705800Y-11198400D01*
X7765800Y-11258400D01*
X7765800Y-11512400D02*
X7825800Y-11452400D01*
X7765800Y-11392400D01*
X7705800Y-11452400D01*
X7765800Y-11512400D01*
X7765800Y-11766400D02*
X7825800Y-11706400D01*
X7765800Y-11646400D01*
X7705800Y-11706400D01*
X7765800Y-11766400D01*
X7765800Y-12020400D02*
X7825800Y-11960400D01*
X7765800Y-11900400D01*
X7705800Y-11960400D01*
X7765800Y-12020400D01*
X7765800Y-12274400D02*
X7825800Y-12214400D01*
X7765800Y-12154400D01*
X7705800Y-12214400D01*
X7765800Y-12274400D01*
X7765800Y-12528400D02*
X7825800Y-12468400D01*
X7765800Y-12408400D01*
X7705800Y-12468400D01*
X7765800Y-12528400D01*
X7765800Y-12782400D02*
X7825800Y-12722400D01*
X7765800Y-12662400D01*
X7705800Y-12722400D01*
X7765800Y-12782400D01*
X7765800Y-13036400D02*
X7825800Y-12976400D01*
X7765800Y-12916400D01*
X7705800Y-12976400D01*
X7765800Y-13036400D01*
X7765800Y-13290400D02*
X7825800Y-13230400D01*
X7765800Y-13170400D01*
X7705800Y-13230400D01*
X7765800Y-13290400D01*
X7765800Y-13544400D02*
X7825800Y-13484400D01*
X7765800Y-13424400D01*
X7705800Y-13484400D01*
X7765800Y-13544400D01*
X7765800Y-13798400D02*
X7825800Y-13738400D01*
X7765800Y-13678400D01*
X7705800Y-13738400D01*
X7765800Y-13798400D01*
X7765800Y-14052400D02*
X7825800Y-13992400D01*
X7765800Y-13932400D01*
X7705800Y-13992400D01*
X7765800Y-14052400D01*
X7765800Y-14306400D02*
X7825800Y-14246400D01*
X7765800Y-14186400D01*
X7705800Y-14246400D01*
X7765800Y-14306400D01*
X7765800Y-14560400D02*
X7825800Y-14500400D01*
X7765800Y-14440400D01*
X7705800Y-14500400D01*
X7765800Y-14560400D01*
X7765800Y-14814400D02*
X7825800Y-14754400D01*
X7765800Y-14694400D01*
X7705800Y-14754400D01*
X7765800Y-14814400D01*
X7765800Y-15068400D02*
X7825800Y-15008400D01*
X7765800Y-14948400D01*
X7705800Y-15008400D01*
X7765800Y-15068400D01*
X8273800Y-8210400D02*
X8333800Y-8150400D01*
X8273800Y-8090400D01*
X8213800Y-8150400D01*
X8273800Y-8210400D01*
X8273800Y-8464400D02*
X8333800Y-8404400D01*
X8273800Y-8344400D01*
X8213800Y-8404400D01*
X8273800Y-8464400D01*
X8273800Y-8718400D02*
X8333800Y-8658400D01*
X8273800Y-8598400D01*
X8213800Y-8658400D01*
X8273800Y-8718400D01*
X8273800Y-8972400D02*
X8333800Y-8912400D01*
X8273800Y-8852400D01*
X8213800Y-8912400D01*
X8273800Y-8972400D01*
X8273800Y-9480400D02*
X8333800Y-9420400D01*
X8273800Y-9360400D01*
X8213800Y-9420400D01*
X8273800Y-9480400D01*
X8273800Y-9734400D02*
X8333800Y-9674400D01*
X8273800Y-9614400D01*
X8213800Y-9674400D01*
X8273800Y-9734400D01*
X8273800Y-9988400D02*
X8333800Y-9928400D01*
X8273800Y-9868400D01*
X8213800Y-9928400D01*
X8273800Y-9988400D01*
X8273800Y-10242400D02*
X8333800Y-10182400D01*
X8273800Y-10122400D01*
X8213800Y-10182400D01*
X8273800Y-10242400D01*
X8273800Y-10496400D02*
X8333800Y-10436400D01*
X8273800Y-10376400D01*
X8213800Y-10436400D01*
X8273800Y-10496400D01*
X8273800Y-10750400D02*
X8333800Y-10690400D01*
X8273800Y-10630400D01*
X8213800Y-10690400D01*
X8273800Y-10750400D01*
X8273800Y-11004400D02*
X8333800Y-10944400D01*
X8273800Y-10884400D01*
X8213800Y-10944400D01*
X8273800Y-11004400D01*
X8273800Y-11258400D02*
X8333800Y-11198400D01*
X8273800Y-11138400D01*
X8213800Y-11198400D01*
X8273800Y-11258400D01*
X8273800Y-11512400D02*
X8333800Y-11452400D01*
X8273800Y-11392400D01*
X8213800Y-11452400D01*
X8273800Y-11512400D01*
X8273800Y-11766400D02*
X8333800Y-11706400D01*
X8273800Y-11646400D01*
X8213800Y-11706400D01*
X8273800Y-11766400D01*
X8273800Y-12020400D02*
X8333800Y-11960400D01*
X8273800Y-11900400D01*
X8213800Y-11960400D01*
X8273800Y-12020400D01*
X8273800Y-12274400D02*
X8333800Y-12214400D01*
X8273800Y-12154400D01*
X8213800Y-12214400D01*
X8273800Y-12274400D01*
X8273800Y-12528400D02*
X8333800Y-12468400D01*
X8273800Y-12408400D01*
X8213800Y-12468400D01*
X8273800Y-12528400D01*
X8273800Y-12782400D02*
X8333800Y-12722400D01*
X8273800Y-12662400D01*
X8213800Y-12722400D01*
X8273800Y-12782400D01*
X8273800Y-13036400D02*
X8333800Y-12976400D01*
X8273800Y-12916400D01*
X8213800Y-12976400D01*
X8273800Y-13036400D01*
X8273800Y-13290400D02*
X8333800Y-13230400D01*
X8273800Y-13170400D01*
X8213800Y-13230400D01*
X8273800Y-13290400D01*
X8273800Y-13544400D02*
X8333800Y-13484400D01*
X8273800Y-13424400D01*
X8213800Y-13484400D01*
X8273800Y-13544400D01*
X8273800Y-13798400D02*
X8333800Y-13738400D01*
X8273800Y-13678400D01*
X8213800Y-13738400D01*
X8273800Y-13798400D01*
X8273800Y-14052400D02*
X8333800Y-13992400D01*
X8273800Y-13932400D01*
X8213800Y-13992400D01*
X8273800Y-14052400D01*
X8273800Y-14306400D02*
X8333800Y-14246400D01*
X8273800Y-14186400D01*
X8213800Y-14246400D01*
X8273800Y-14306400D01*
X8273800Y-14560400D02*
X8333800Y-14500400D01*
X8273800Y-14440400D01*
X8213800Y-14500400D01*
X8273800Y-14560400D01*
X8273800Y-14814400D02*
X8333800Y-14754400D01*
X8273800Y-14694400D01*
X8213800Y-14754400D01*
X8273800Y-14814400D01*
X8273800Y-15068400D02*
X8333800Y-15008400D01*
X8273800Y-14948400D01*
X8213800Y-15008400D01*
X8273800Y-15068400D01*
D11*
X7722619Y-15720476D02*
X7722619Y-15520476D01*
X7770238Y-15520476D01*
X7798809Y-15530000D01*
X7817857Y-15549048D01*
X7827381Y-15568095D01*
X7836905Y-15606190D01*
X7836905Y-15634762D01*
X7827381Y-15672857D01*
X7817857Y-15691905D01*
X7798809Y-15710952D01*
X7770238Y-15720476D01*
X7722619Y-15720476D01*
X7922619Y-15720476D02*
X7922619Y-15587143D01*
X7922619Y-15625238D02*
X7932143Y-15606190D01*
X7941667Y-15596667D01*
X7960714Y-15587143D01*
X7979762Y-15587143D01*
X8046428Y-15720476D02*
X8046428Y-15587143D01*
X8046428Y-15520476D02*
X8036905Y-15530000D01*
X8046428Y-15539524D01*
X8055952Y-15530000D01*
X8046428Y-15520476D01*
X8046428Y-15539524D01*
X8170238Y-15720476D02*
X8151190Y-15710952D01*
X8141667Y-15691905D01*
X8141667Y-15520476D01*
X8275000Y-15720476D02*
X8255952Y-15710952D01*
X8246428Y-15691905D01*
X8246428Y-15520476D01*
X8503571Y-15720476D02*
X8503571Y-15520476D01*
X8570238Y-15663333D01*
X8636905Y-15520476D01*
X8636905Y-15720476D01*
X8817857Y-15720476D02*
X8817857Y-15615714D01*
X8808333Y-15596667D01*
X8789286Y-15587143D01*
X8751190Y-15587143D01*
X8732143Y-15596667D01*
X8817857Y-15710952D02*
X8798810Y-15720476D01*
X8751190Y-15720476D01*
X8732143Y-15710952D01*
X8722619Y-15691905D01*
X8722619Y-15672857D01*
X8732143Y-15653809D01*
X8751190Y-15644286D01*
X8798810Y-15644286D01*
X8817857Y-15634762D01*
X8913095Y-15587143D02*
X8913095Y-15787143D01*
X8913095Y-15596667D02*
X8932143Y-15587143D01*
X8970238Y-15587143D01*
X8989286Y-15596667D01*
X8998810Y-15606190D01*
X9008333Y-15625238D01*
X9008333Y-15682381D01*
X8998810Y-15701428D01*
X8989286Y-15710952D01*
X8970238Y-15720476D01*
X8932143Y-15720476D01*
X8913095Y-15710952D01*
X9094048Y-15701428D02*
X9103571Y-15710952D01*
X9094048Y-15720476D01*
X9084524Y-15710952D01*
X9094048Y-15701428D01*
X9094048Y-15720476D01*
X9094048Y-15596667D02*
X9103571Y-15606190D01*
X9094048Y-15615714D01*
X9084524Y-15606190D01*
X9094048Y-15596667D01*
X9094048Y-15615714D01*
D12*
X7425000Y-16030000D02*
X7465000Y-16070000D01*
X7465000Y-16030000D02*
X7425000Y-16070000D01*
D11*
X7760714Y-15940476D02*
X7779762Y-15940476D01*
X7798809Y-15950000D01*
X7808333Y-15959524D01*
X7817857Y-15978571D01*
X7827381Y-16016667D01*
X7827381Y-16064286D01*
X7817857Y-16102381D01*
X7808333Y-16121428D01*
X7798809Y-16130952D01*
X7779762Y-16140476D01*
X7760714Y-16140476D01*
X7741667Y-16130952D01*
X7732143Y-16121428D01*
X7722619Y-16102381D01*
X7713095Y-16064286D01*
X7713095Y-16016667D01*
X7722619Y-15978571D01*
X7732143Y-15959524D01*
X7741667Y-15950000D01*
X7760714Y-15940476D01*
X7913095Y-16121428D02*
X7922619Y-16130952D01*
X7913095Y-16140476D01*
X7903571Y-16130952D01*
X7913095Y-16121428D01*
X7913095Y-16140476D01*
X8094048Y-16007143D02*
X8094048Y-16140476D01*
X8046428Y-15930952D02*
X7998809Y-16073809D01*
X8122619Y-16073809D01*
X8236905Y-15940476D02*
X8255952Y-15940476D01*
X8275000Y-15950000D01*
X8284524Y-15959524D01*
X8294048Y-15978571D01*
X8303571Y-16016667D01*
X8303571Y-16064286D01*
X8294048Y-16102381D01*
X8284524Y-16121428D01*
X8275000Y-16130952D01*
X8255952Y-16140476D01*
X8236905Y-16140476D01*
X8217857Y-16130952D01*
X8208333Y-16121428D01*
X8198809Y-16102381D01*
X8189286Y-16064286D01*
X8189286Y-16016667D01*
X8198809Y-15978571D01*
X8208333Y-15959524D01*
X8217857Y-15950000D01*
X8236905Y-15940476D01*
X8427381Y-15940476D02*
X8446429Y-15940476D01*
X8465476Y-15950000D01*
X8475000Y-15959524D01*
X8484524Y-15978571D01*
X8494048Y-16016667D01*
X8494048Y-16064286D01*
X8484524Y-16102381D01*
X8475000Y-16121428D01*
X8465476Y-16130952D01*
X8446429Y-16140476D01*
X8427381Y-16140476D01*
X8408333Y-16130952D01*
X8398810Y-16121428D01*
X8389286Y-16102381D01*
X8379762Y-16064286D01*
X8379762Y-16016667D01*
X8389286Y-15978571D01*
X8398810Y-15959524D01*
X8408333Y-15950000D01*
X8427381Y-15940476D01*
X8579762Y-16140476D02*
X8579762Y-16007143D01*
X8579762Y-16026190D02*
X8589286Y-16016667D01*
X8608333Y-16007143D01*
X8636905Y-16007143D01*
X8655952Y-16016667D01*
X8665476Y-16035714D01*
X8665476Y-16140476D01*
X8665476Y-16035714D02*
X8675000Y-16016667D01*
X8694048Y-16007143D01*
X8722619Y-16007143D01*
X8741667Y-16016667D01*
X8751190Y-16035714D01*
X8751190Y-16140476D01*
X8846429Y-16140476D02*
X8846429Y-16007143D01*
X8846429Y-16026190D02*
X8855952Y-16016667D01*
X8875000Y-16007143D01*
X8903571Y-16007143D01*
X8922619Y-16016667D01*
X8932143Y-16035714D01*
X8932143Y-16140476D01*
X8932143Y-16035714D02*
X8941667Y-16016667D01*
X8960714Y-16007143D01*
X8989286Y-16007143D01*
X9008333Y-16016667D01*
X9017857Y-16035714D01*
X9017857Y-16140476D01*
X9408333Y-15930952D02*
X9236905Y-16188095D01*
X9665476Y-15940476D02*
X9684524Y-15940476D01*
X9703571Y-15950000D01*
X9713095Y-15959524D01*
X9722619Y-15978571D01*
X9732143Y-16016667D01*
X9732143Y-16064286D01*
X9722619Y-16102381D01*
X9713095Y-16121428D01*
X9703571Y-16130952D01*
X9684524Y-16140476D01*
X9665476Y-16140476D01*
X9646429Y-16130952D01*
X9636905Y-16121428D01*
X9627381Y-16102381D01*
X9617857Y-16064286D01*
X9617857Y-16016667D01*
X9627381Y-15978571D01*
X9636905Y-15959524D01*
X9646429Y-15950000D01*
X9665476Y-15940476D01*
X9817857Y-16121428D02*
X9827381Y-16130952D01*
X9817857Y-16140476D01*
X9808333Y-16130952D01*
X9817857Y-16121428D01*
X9817857Y-16140476D01*
X9951190Y-15940476D02*
X9970238Y-15940476D01*
X9989286Y-15950000D01*
X9998810Y-15959524D01*
X10008333Y-15978571D01*
X10017857Y-16016667D01*
X10017857Y-16064286D01*
X10008333Y-16102381D01*
X9998810Y-16121428D01*
X9989286Y-16130952D01*
X9970238Y-16140476D01*
X9951190Y-16140476D01*
X9932143Y-16130952D01*
X9922619Y-16121428D01*
X9913095Y-16102381D01*
X9903571Y-16064286D01*
X9903571Y-16016667D01*
X9913095Y-15978571D01*
X9922619Y-15959524D01*
X9932143Y-15950000D01*
X9951190Y-15940476D01*
X10208333Y-16140476D02*
X10094048Y-16140476D01*
X10151190Y-16140476D02*
X10151190Y-15940476D01*
X10132143Y-15969048D01*
X10113095Y-15988095D01*
X10094048Y-15997619D01*
X10389286Y-15940476D02*
X10294048Y-15940476D01*
X10284524Y-16035714D01*
X10294048Y-16026190D01*
X10313095Y-16016667D01*
X10360714Y-16016667D01*
X10379762Y-16026190D01*
X10389286Y-16035714D01*
X10398810Y-16054762D01*
X10398810Y-16102381D01*
X10389286Y-16121428D01*
X10379762Y-16130952D01*
X10360714Y-16140476D01*
X10313095Y-16140476D01*
X10294048Y-16130952D01*
X10284524Y-16121428D01*
X10465476Y-15940476D02*
X10598810Y-15940476D01*
X10513095Y-16140476D01*
X10665476Y-15940476D02*
X10665476Y-15978571D01*
X10741667Y-15940476D02*
X10741667Y-15978571D01*
X11036905Y-16216667D02*
X11027381Y-16207143D01*
X11008333Y-16178571D01*
X10998810Y-16159524D01*
X10989286Y-16130952D01*
X10979762Y-16083333D01*
X10979762Y-16045238D01*
X10989286Y-15997619D01*
X10998810Y-15969048D01*
X11008333Y-15950000D01*
X11027381Y-15921428D01*
X11036905Y-15911905D01*
X11103571Y-15959524D02*
X11113095Y-15950000D01*
X11132143Y-15940476D01*
X11179762Y-15940476D01*
X11198809Y-15950000D01*
X11208333Y-15959524D01*
X11217857Y-15978571D01*
X11217857Y-15997619D01*
X11208333Y-16026190D01*
X11094048Y-16140476D01*
X11217857Y-16140476D01*
X11389286Y-15940476D02*
X11351190Y-15940476D01*
X11332143Y-15950000D01*
X11322619Y-15959524D01*
X11303571Y-15988095D01*
X11294048Y-16026190D01*
X11294048Y-16102381D01*
X11303571Y-16121428D01*
X11313095Y-16130952D01*
X11332143Y-16140476D01*
X11370238Y-16140476D01*
X11389286Y-16130952D01*
X11398809Y-16121428D01*
X11408333Y-16102381D01*
X11408333Y-16054762D01*
X11398809Y-16035714D01*
X11389286Y-16026190D01*
X11370238Y-16016667D01*
X11332143Y-16016667D01*
X11313095Y-16026190D01*
X11303571Y-16035714D01*
X11294048Y-16054762D01*
X11598809Y-16140476D02*
X11484524Y-16140476D01*
X11541667Y-16140476D02*
X11541667Y-15940476D01*
X11522619Y-15969048D01*
X11503571Y-15988095D01*
X11484524Y-15997619D01*
X11836905Y-16140476D02*
X11836905Y-15940476D01*
X11922619Y-16140476D02*
X11922619Y-16035714D01*
X11913095Y-16016667D01*
X11894048Y-16007143D01*
X11865476Y-16007143D01*
X11846428Y-16016667D01*
X11836905Y-16026190D01*
X12046428Y-16140476D02*
X12027381Y-16130952D01*
X12017857Y-16121428D01*
X12008333Y-16102381D01*
X12008333Y-16045238D01*
X12017857Y-16026190D01*
X12027381Y-16016667D01*
X12046428Y-16007143D01*
X12075000Y-16007143D01*
X12094048Y-16016667D01*
X12103571Y-16026190D01*
X12113095Y-16045238D01*
X12113095Y-16102381D01*
X12103571Y-16121428D01*
X12094048Y-16130952D01*
X12075000Y-16140476D01*
X12046428Y-16140476D01*
X12227381Y-16140476D02*
X12208333Y-16130952D01*
X12198809Y-16111905D01*
X12198809Y-15940476D01*
X12379762Y-16130952D02*
X12360714Y-16140476D01*
X12322619Y-16140476D01*
X12303571Y-16130952D01*
X12294048Y-16111905D01*
X12294048Y-16035714D01*
X12303571Y-16016667D01*
X12322619Y-16007143D01*
X12360714Y-16007143D01*
X12379762Y-16016667D01*
X12389286Y-16035714D01*
X12389286Y-16054762D01*
X12294048Y-16073809D01*
X12465476Y-16130952D02*
X12484524Y-16140476D01*
X12522619Y-16140476D01*
X12541667Y-16130952D01*
X12551190Y-16111905D01*
X12551190Y-16102381D01*
X12541667Y-16083333D01*
X12522619Y-16073809D01*
X12494048Y-16073809D01*
X12475000Y-16064286D01*
X12465476Y-16045238D01*
X12465476Y-16035714D01*
X12475000Y-16016667D01*
X12494048Y-16007143D01*
X12522619Y-16007143D01*
X12541667Y-16016667D01*
X12617857Y-16216667D02*
X12627381Y-16207143D01*
X12646428Y-16178571D01*
X12655952Y-16159524D01*
X12665476Y-16130952D01*
X12675000Y-16083333D01*
X12675000Y-16045238D01*
X12665476Y-15997619D01*
X12655952Y-15969048D01*
X12646428Y-15950000D01*
X12627381Y-15921428D01*
X12617857Y-15911905D01*
D10*
X7465000Y-16314000D02*
G75*
G03*
X7465000Y-16314000I-50000J0D01*
G01*
D11*
X7827381Y-16404476D02*
X7713095Y-16404476D01*
X7770238Y-16404476D02*
X7770238Y-16204476D01*
X7751190Y-16233048D01*
X7732143Y-16252095D01*
X7713095Y-16261619D01*
X7913095Y-16385428D02*
X7922619Y-16394952D01*
X7913095Y-16404476D01*
X7903571Y-16394952D01*
X7913095Y-16385428D01*
X7913095Y-16404476D01*
X8046428Y-16204476D02*
X8065476Y-16204476D01*
X8084524Y-16214000D01*
X8094048Y-16223524D01*
X8103571Y-16242571D01*
X8113095Y-16280667D01*
X8113095Y-16328286D01*
X8103571Y-16366381D01*
X8094048Y-16385428D01*
X8084524Y-16394952D01*
X8065476Y-16404476D01*
X8046428Y-16404476D01*
X8027381Y-16394952D01*
X8017857Y-16385428D01*
X8008333Y-16366381D01*
X7998809Y-16328286D01*
X7998809Y-16280667D01*
X8008333Y-16242571D01*
X8017857Y-16223524D01*
X8027381Y-16214000D01*
X8046428Y-16204476D01*
X8236905Y-16204476D02*
X8255952Y-16204476D01*
X8275000Y-16214000D01*
X8284524Y-16223524D01*
X8294048Y-16242571D01*
X8303571Y-16280667D01*
X8303571Y-16328286D01*
X8294048Y-16366381D01*
X8284524Y-16385428D01*
X8275000Y-16394952D01*
X8255952Y-16404476D01*
X8236905Y-16404476D01*
X8217857Y-16394952D01*
X8208333Y-16385428D01*
X8198809Y-16366381D01*
X8189286Y-16328286D01*
X8189286Y-16280667D01*
X8198809Y-16242571D01*
X8208333Y-16223524D01*
X8217857Y-16214000D01*
X8236905Y-16204476D01*
X8427381Y-16204476D02*
X8446429Y-16204476D01*
X8465476Y-16214000D01*
X8475000Y-16223524D01*
X8484524Y-16242571D01*
X8494048Y-16280667D01*
X8494048Y-16328286D01*
X8484524Y-16366381D01*
X8475000Y-16385428D01*
X8465476Y-16394952D01*
X8446429Y-16404476D01*
X8427381Y-16404476D01*
X8408333Y-16394952D01*
X8398810Y-16385428D01*
X8389286Y-16366381D01*
X8379762Y-16328286D01*
X8379762Y-16280667D01*
X8389286Y-16242571D01*
X8398810Y-16223524D01*
X8408333Y-16214000D01*
X8427381Y-16204476D01*
X8579762Y-16404476D02*
X8579762Y-16271143D01*
X8579762Y-16290190D02*
X8589286Y-16280667D01*
X8608333Y-16271143D01*
X8636905Y-16271143D01*
X8655952Y-16280667D01*
X8665476Y-16299714D01*
X8665476Y-16404476D01*
X8665476Y-16299714D02*
X8675000Y-16280667D01*
X8694048Y-16271143D01*
X8722619Y-16271143D01*
X8741667Y-16280667D01*
X8751190Y-16299714D01*
X8751190Y-16404476D01*
X8846429Y-16404476D02*
X8846429Y-16271143D01*
X8846429Y-16290190D02*
X8855952Y-16280667D01*
X8875000Y-16271143D01*
X8903571Y-16271143D01*
X8922619Y-16280667D01*
X8932143Y-16299714D01*
X8932143Y-16404476D01*
X8932143Y-16299714D02*
X8941667Y-16280667D01*
X8960714Y-16271143D01*
X8989286Y-16271143D01*
X9008333Y-16280667D01*
X9017857Y-16299714D01*
X9017857Y-16404476D01*
X9408333Y-16194952D02*
X9236905Y-16452095D01*
X9665476Y-16204476D02*
X9684524Y-16204476D01*
X9703571Y-16214000D01*
X9713095Y-16223524D01*
X9722619Y-16242571D01*
X9732143Y-16280667D01*
X9732143Y-16328286D01*
X9722619Y-16366381D01*
X9713095Y-16385428D01*
X9703571Y-16394952D01*
X9684524Y-16404476D01*
X9665476Y-16404476D01*
X9646429Y-16394952D01*
X9636905Y-16385428D01*
X9627381Y-16366381D01*
X9617857Y-16328286D01*
X9617857Y-16280667D01*
X9627381Y-16242571D01*
X9636905Y-16223524D01*
X9646429Y-16214000D01*
X9665476Y-16204476D01*
X9817857Y-16385428D02*
X9827381Y-16394952D01*
X9817857Y-16404476D01*
X9808333Y-16394952D01*
X9817857Y-16385428D01*
X9817857Y-16404476D01*
X9951190Y-16204476D02*
X9970238Y-16204476D01*
X9989286Y-16214000D01*
X9998810Y-16223524D01*
X10008333Y-16242571D01*
X10017857Y-16280667D01*
X10017857Y-16328286D01*
X10008333Y-16366381D01*
X9998810Y-16385428D01*
X9989286Y-16394952D01*
X9970238Y-16404476D01*
X9951190Y-16404476D01*
X9932143Y-16394952D01*
X9922619Y-16385428D01*
X9913095Y-16366381D01*
X9903571Y-16328286D01*
X9903571Y-16280667D01*
X9913095Y-16242571D01*
X9922619Y-16223524D01*
X9932143Y-16214000D01*
X9951190Y-16204476D01*
X10084524Y-16204476D02*
X10208333Y-16204476D01*
X10141667Y-16280667D01*
X10170238Y-16280667D01*
X10189286Y-16290190D01*
X10198810Y-16299714D01*
X10208333Y-16318762D01*
X10208333Y-16366381D01*
X10198810Y-16385428D01*
X10189286Y-16394952D01*
X10170238Y-16404476D01*
X10113095Y-16404476D01*
X10094048Y-16394952D01*
X10084524Y-16385428D01*
X10303571Y-16404476D02*
X10341667Y-16404476D01*
X10360714Y-16394952D01*
X10370238Y-16385428D01*
X10389286Y-16356857D01*
X10398810Y-16318762D01*
X10398810Y-16242571D01*
X10389286Y-16223524D01*
X10379762Y-16214000D01*
X10360714Y-16204476D01*
X10322619Y-16204476D01*
X10303571Y-16214000D01*
X10294048Y-16223524D01*
X10284524Y-16242571D01*
X10284524Y-16290190D01*
X10294048Y-16309238D01*
X10303571Y-16318762D01*
X10322619Y-16328286D01*
X10360714Y-16328286D01*
X10379762Y-16318762D01*
X10389286Y-16309238D01*
X10398810Y-16290190D01*
X10570238Y-16271143D02*
X10570238Y-16404476D01*
X10522619Y-16194952D02*
X10475000Y-16337809D01*
X10598810Y-16337809D01*
X10665476Y-16204476D02*
X10665476Y-16242571D01*
X10741667Y-16204476D02*
X10741667Y-16242571D01*
X11036905Y-16480667D02*
X11027381Y-16471143D01*
X11008333Y-16442571D01*
X10998810Y-16423524D01*
X10989286Y-16394952D01*
X10979762Y-16347333D01*
X10979762Y-16309238D01*
X10989286Y-16261619D01*
X10998810Y-16233048D01*
X11008333Y-16214000D01*
X11027381Y-16185428D01*
X11036905Y-16175905D01*
X11198809Y-16204476D02*
X11160714Y-16204476D01*
X11141667Y-16214000D01*
X11132143Y-16223524D01*
X11113095Y-16252095D01*
X11103571Y-16290190D01*
X11103571Y-16366381D01*
X11113095Y-16385428D01*
X11122619Y-16394952D01*
X11141667Y-16404476D01*
X11179762Y-16404476D01*
X11198809Y-16394952D01*
X11208333Y-16385428D01*
X11217857Y-16366381D01*
X11217857Y-16318762D01*
X11208333Y-16299714D01*
X11198809Y-16290190D01*
X11179762Y-16280667D01*
X11141667Y-16280667D01*
X11122619Y-16290190D01*
X11113095Y-16299714D01*
X11103571Y-16318762D01*
X11313095Y-16404476D02*
X11351190Y-16404476D01*
X11370238Y-16394952D01*
X11379762Y-16385428D01*
X11398809Y-16356857D01*
X11408333Y-16318762D01*
X11408333Y-16242571D01*
X11398809Y-16223524D01*
X11389286Y-16214000D01*
X11370238Y-16204476D01*
X11332143Y-16204476D01*
X11313095Y-16214000D01*
X11303571Y-16223524D01*
X11294048Y-16242571D01*
X11294048Y-16290190D01*
X11303571Y-16309238D01*
X11313095Y-16318762D01*
X11332143Y-16328286D01*
X11370238Y-16328286D01*
X11389286Y-16318762D01*
X11398809Y-16309238D01*
X11408333Y-16290190D01*
X11646428Y-16404476D02*
X11646428Y-16204476D01*
X11732143Y-16404476D02*
X11732143Y-16299714D01*
X11722619Y-16280667D01*
X11703571Y-16271143D01*
X11675000Y-16271143D01*
X11655952Y-16280667D01*
X11646428Y-16290190D01*
X11855952Y-16404476D02*
X11836905Y-16394952D01*
X11827381Y-16385428D01*
X11817857Y-16366381D01*
X11817857Y-16309238D01*
X11827381Y-16290190D01*
X11836905Y-16280667D01*
X11855952Y-16271143D01*
X11884524Y-16271143D01*
X11903571Y-16280667D01*
X11913095Y-16290190D01*
X11922619Y-16309238D01*
X11922619Y-16366381D01*
X11913095Y-16385428D01*
X11903571Y-16394952D01*
X11884524Y-16404476D01*
X11855952Y-16404476D01*
X12036905Y-16404476D02*
X12017857Y-16394952D01*
X12008333Y-16375905D01*
X12008333Y-16204476D01*
X12189286Y-16394952D02*
X12170238Y-16404476D01*
X12132143Y-16404476D01*
X12113095Y-16394952D01*
X12103571Y-16375905D01*
X12103571Y-16299714D01*
X12113095Y-16280667D01*
X12132143Y-16271143D01*
X12170238Y-16271143D01*
X12189286Y-16280667D01*
X12198809Y-16299714D01*
X12198809Y-16318762D01*
X12103571Y-16337809D01*
X12275000Y-16394952D02*
X12294048Y-16404476D01*
X12332143Y-16404476D01*
X12351190Y-16394952D01*
X12360714Y-16375905D01*
X12360714Y-16366381D01*
X12351190Y-16347333D01*
X12332143Y-16337809D01*
X12303571Y-16337809D01*
X12284524Y-16328286D01*
X12275000Y-16309238D01*
X12275000Y-16299714D01*
X12284524Y-16280667D01*
X12303571Y-16271143D01*
X12332143Y-16271143D01*
X12351190Y-16280667D01*
X12427381Y-16480667D02*
X12436905Y-16471143D01*
X12455952Y-16442571D01*
X12465476Y-16423524D01*
X12475000Y-16394952D01*
X12484524Y-16347333D01*
X12484524Y-16309238D01*
X12475000Y-16261619D01*
X12465476Y-16233048D01*
X12455952Y-16214000D01*
X12436905Y-16185428D01*
X12427381Y-16175905D01*
D13*
X7414000Y-16527000D02*
X7414000Y-16629000D01*
X7363000Y-16578000D02*
X7465000Y-16578000D01*
D11*
X7827381Y-16668476D02*
X7713095Y-16668476D01*
X7770238Y-16668476D02*
X7770238Y-16468476D01*
X7751190Y-16497048D01*
X7732143Y-16516095D01*
X7713095Y-16525619D01*
X7913095Y-16649428D02*
X7922619Y-16658952D01*
X7913095Y-16668476D01*
X7903571Y-16658952D01*
X7913095Y-16649428D01*
X7913095Y-16668476D01*
X8046428Y-16468476D02*
X8065476Y-16468476D01*
X8084524Y-16478000D01*
X8094048Y-16487524D01*
X8103571Y-16506571D01*
X8113095Y-16544667D01*
X8113095Y-16592286D01*
X8103571Y-16630381D01*
X8094048Y-16649428D01*
X8084524Y-16658952D01*
X8065476Y-16668476D01*
X8046428Y-16668476D01*
X8027381Y-16658952D01*
X8017857Y-16649428D01*
X8008333Y-16630381D01*
X7998809Y-16592286D01*
X7998809Y-16544667D01*
X8008333Y-16506571D01*
X8017857Y-16487524D01*
X8027381Y-16478000D01*
X8046428Y-16468476D01*
X8189286Y-16487524D02*
X8198809Y-16478000D01*
X8217857Y-16468476D01*
X8265476Y-16468476D01*
X8284524Y-16478000D01*
X8294048Y-16487524D01*
X8303571Y-16506571D01*
X8303571Y-16525619D01*
X8294048Y-16554190D01*
X8179762Y-16668476D01*
X8303571Y-16668476D01*
X8427381Y-16468476D02*
X8446429Y-16468476D01*
X8465476Y-16478000D01*
X8475000Y-16487524D01*
X8484524Y-16506571D01*
X8494048Y-16544667D01*
X8494048Y-16592286D01*
X8484524Y-16630381D01*
X8475000Y-16649428D01*
X8465476Y-16658952D01*
X8446429Y-16668476D01*
X8427381Y-16668476D01*
X8408333Y-16658952D01*
X8398810Y-16649428D01*
X8389286Y-16630381D01*
X8379762Y-16592286D01*
X8379762Y-16544667D01*
X8389286Y-16506571D01*
X8398810Y-16487524D01*
X8408333Y-16478000D01*
X8427381Y-16468476D01*
X8579762Y-16668476D02*
X8579762Y-16535143D01*
X8579762Y-16554190D02*
X8589286Y-16544667D01*
X8608333Y-16535143D01*
X8636905Y-16535143D01*
X8655952Y-16544667D01*
X8665476Y-16563714D01*
X8665476Y-16668476D01*
X8665476Y-16563714D02*
X8675000Y-16544667D01*
X8694048Y-16535143D01*
X8722619Y-16535143D01*
X8741667Y-16544667D01*
X8751190Y-16563714D01*
X8751190Y-16668476D01*
X8846429Y-16668476D02*
X8846429Y-16535143D01*
X8846429Y-16554190D02*
X8855952Y-16544667D01*
X8875000Y-16535143D01*
X8903571Y-16535143D01*
X8922619Y-16544667D01*
X8932143Y-16563714D01*
X8932143Y-16668476D01*
X8932143Y-16563714D02*
X8941667Y-16544667D01*
X8960714Y-16535143D01*
X8989286Y-16535143D01*
X9008333Y-16544667D01*
X9017857Y-16563714D01*
X9017857Y-16668476D01*
X9408333Y-16458952D02*
X9236905Y-16716095D01*
X9665476Y-16468476D02*
X9684524Y-16468476D01*
X9703571Y-16478000D01*
X9713095Y-16487524D01*
X9722619Y-16506571D01*
X9732143Y-16544667D01*
X9732143Y-16592286D01*
X9722619Y-16630381D01*
X9713095Y-16649428D01*
X9703571Y-16658952D01*
X9684524Y-16668476D01*
X9665476Y-16668476D01*
X9646429Y-16658952D01*
X9636905Y-16649428D01*
X9627381Y-16630381D01*
X9617857Y-16592286D01*
X9617857Y-16544667D01*
X9627381Y-16506571D01*
X9636905Y-16487524D01*
X9646429Y-16478000D01*
X9665476Y-16468476D01*
X9817857Y-16649428D02*
X9827381Y-16658952D01*
X9817857Y-16668476D01*
X9808333Y-16658952D01*
X9817857Y-16649428D01*
X9817857Y-16668476D01*
X9951190Y-16468476D02*
X9970238Y-16468476D01*
X9989286Y-16478000D01*
X9998810Y-16487524D01*
X10008333Y-16506571D01*
X10017857Y-16544667D01*
X10017857Y-16592286D01*
X10008333Y-16630381D01*
X9998810Y-16649428D01*
X9989286Y-16658952D01*
X9970238Y-16668476D01*
X9951190Y-16668476D01*
X9932143Y-16658952D01*
X9922619Y-16649428D01*
X9913095Y-16630381D01*
X9903571Y-16592286D01*
X9903571Y-16544667D01*
X9913095Y-16506571D01*
X9922619Y-16487524D01*
X9932143Y-16478000D01*
X9951190Y-16468476D01*
X10189286Y-16535143D02*
X10189286Y-16668476D01*
X10141667Y-16458952D02*
X10094048Y-16601809D01*
X10217857Y-16601809D01*
X10332143Y-16468476D02*
X10351190Y-16468476D01*
X10370238Y-16478000D01*
X10379762Y-16487524D01*
X10389286Y-16506571D01*
X10398810Y-16544667D01*
X10398810Y-16592286D01*
X10389286Y-16630381D01*
X10379762Y-16649428D01*
X10370238Y-16658952D01*
X10351190Y-16668476D01*
X10332143Y-16668476D01*
X10313095Y-16658952D01*
X10303571Y-16649428D01*
X10294048Y-16630381D01*
X10284524Y-16592286D01*
X10284524Y-16544667D01*
X10294048Y-16506571D01*
X10303571Y-16487524D01*
X10313095Y-16478000D01*
X10332143Y-16468476D01*
X10475000Y-16487524D02*
X10484524Y-16478000D01*
X10503571Y-16468476D01*
X10551190Y-16468476D01*
X10570238Y-16478000D01*
X10579762Y-16487524D01*
X10589286Y-16506571D01*
X10589286Y-16525619D01*
X10579762Y-16554190D01*
X10465476Y-16668476D01*
X10589286Y-16668476D01*
X10665476Y-16468476D02*
X10665476Y-16506571D01*
X10741667Y-16468476D02*
X10741667Y-16506571D01*
X11036905Y-16744667D02*
X11027381Y-16735143D01*
X11008333Y-16706571D01*
X10998810Y-16687524D01*
X10989286Y-16658952D01*
X10979762Y-16611333D01*
X10979762Y-16573238D01*
X10989286Y-16525619D01*
X10998810Y-16497048D01*
X11008333Y-16478000D01*
X11027381Y-16449428D01*
X11036905Y-16439905D01*
X11141667Y-16554190D02*
X11122619Y-16544667D01*
X11113095Y-16535143D01*
X11103571Y-16516095D01*
X11103571Y-16506571D01*
X11113095Y-16487524D01*
X11122619Y-16478000D01*
X11141667Y-16468476D01*
X11179762Y-16468476D01*
X11198809Y-16478000D01*
X11208333Y-16487524D01*
X11217857Y-16506571D01*
X11217857Y-16516095D01*
X11208333Y-16535143D01*
X11198809Y-16544667D01*
X11179762Y-16554190D01*
X11141667Y-16554190D01*
X11122619Y-16563714D01*
X11113095Y-16573238D01*
X11103571Y-16592286D01*
X11103571Y-16630381D01*
X11113095Y-16649428D01*
X11122619Y-16658952D01*
X11141667Y-16668476D01*
X11179762Y-16668476D01*
X11198809Y-16658952D01*
X11208333Y-16649428D01*
X11217857Y-16630381D01*
X11217857Y-16592286D01*
X11208333Y-16573238D01*
X11198809Y-16563714D01*
X11179762Y-16554190D01*
X11389286Y-16468476D02*
X11351190Y-16468476D01*
X11332143Y-16478000D01*
X11322619Y-16487524D01*
X11303571Y-16516095D01*
X11294048Y-16554190D01*
X11294048Y-16630381D01*
X11303571Y-16649428D01*
X11313095Y-16658952D01*
X11332143Y-16668476D01*
X11370238Y-16668476D01*
X11389286Y-16658952D01*
X11398809Y-16649428D01*
X11408333Y-16630381D01*
X11408333Y-16582762D01*
X11398809Y-16563714D01*
X11389286Y-16554190D01*
X11370238Y-16544667D01*
X11332143Y-16544667D01*
X11313095Y-16554190D01*
X11303571Y-16563714D01*
X11294048Y-16582762D01*
X11646428Y-16668476D02*
X11646428Y-16468476D01*
X11732143Y-16668476D02*
X11732143Y-16563714D01*
X11722619Y-16544667D01*
X11703571Y-16535143D01*
X11675000Y-16535143D01*
X11655952Y-16544667D01*
X11646428Y-16554190D01*
X11855952Y-16668476D02*
X11836905Y-16658952D01*
X11827381Y-16649428D01*
X11817857Y-16630381D01*
X11817857Y-16573238D01*
X11827381Y-16554190D01*
X11836905Y-16544667D01*
X11855952Y-16535143D01*
X11884524Y-16535143D01*
X11903571Y-16544667D01*
X11913095Y-16554190D01*
X11922619Y-16573238D01*
X11922619Y-16630381D01*
X11913095Y-16649428D01*
X11903571Y-16658952D01*
X11884524Y-16668476D01*
X11855952Y-16668476D01*
X12036905Y-16668476D02*
X12017857Y-16658952D01*
X12008333Y-16639905D01*
X12008333Y-16468476D01*
X12189286Y-16658952D02*
X12170238Y-16668476D01*
X12132143Y-16668476D01*
X12113095Y-16658952D01*
X12103571Y-16639905D01*
X12103571Y-16563714D01*
X12113095Y-16544667D01*
X12132143Y-16535143D01*
X12170238Y-16535143D01*
X12189286Y-16544667D01*
X12198809Y-16563714D01*
X12198809Y-16582762D01*
X12103571Y-16601809D01*
X12275000Y-16658952D02*
X12294048Y-16668476D01*
X12332143Y-16668476D01*
X12351190Y-16658952D01*
X12360714Y-16639905D01*
X12360714Y-16630381D01*
X12351190Y-16611333D01*
X12332143Y-16601809D01*
X12303571Y-16601809D01*
X12284524Y-16592286D01*
X12275000Y-16573238D01*
X12275000Y-16563714D01*
X12284524Y-16544667D01*
X12303571Y-16535143D01*
X12332143Y-16535143D01*
X12351190Y-16544667D01*
X12427381Y-16744667D02*
X12436905Y-16735143D01*
X12455952Y-16706571D01*
X12465476Y-16687524D01*
X12475000Y-16658952D01*
X12484524Y-16611333D01*
X12484524Y-16573238D01*
X12475000Y-16525619D01*
X12465476Y-16497048D01*
X12455952Y-16478000D01*
X12436905Y-16449428D01*
X12427381Y-16439905D01*
D14*
X7448891Y-16880891D02*
X7448891Y-16803109D01*
X7371109Y-16803109D01*
X7371109Y-16880891D01*
X7448891Y-16880891D01*
D11*
X7827381Y-16932476D02*
X7713095Y-16932476D01*
X7770238Y-16932476D02*
X7770238Y-16732476D01*
X7751190Y-16761048D01*
X7732143Y-16780095D01*
X7713095Y-16789619D01*
X7913095Y-16913429D02*
X7922619Y-16922952D01*
X7913095Y-16932476D01*
X7903571Y-16922952D01*
X7913095Y-16913429D01*
X7913095Y-16932476D01*
X8113095Y-16932476D02*
X7998809Y-16932476D01*
X8055952Y-16932476D02*
X8055952Y-16732476D01*
X8036905Y-16761048D01*
X8017857Y-16780095D01*
X7998809Y-16789619D01*
X8236905Y-16732476D02*
X8255952Y-16732476D01*
X8275000Y-16742000D01*
X8284524Y-16751524D01*
X8294048Y-16770571D01*
X8303571Y-16808667D01*
X8303571Y-16856286D01*
X8294048Y-16894381D01*
X8284524Y-16913429D01*
X8275000Y-16922952D01*
X8255952Y-16932476D01*
X8236905Y-16932476D01*
X8217857Y-16922952D01*
X8208333Y-16913429D01*
X8198809Y-16894381D01*
X8189286Y-16856286D01*
X8189286Y-16808667D01*
X8198809Y-16770571D01*
X8208333Y-16751524D01*
X8217857Y-16742000D01*
X8236905Y-16732476D01*
X8427381Y-16732476D02*
X8446429Y-16732476D01*
X8465476Y-16742000D01*
X8475000Y-16751524D01*
X8484524Y-16770571D01*
X8494048Y-16808667D01*
X8494048Y-16856286D01*
X8484524Y-16894381D01*
X8475000Y-16913429D01*
X8465476Y-16922952D01*
X8446429Y-16932476D01*
X8427381Y-16932476D01*
X8408333Y-16922952D01*
X8398810Y-16913429D01*
X8389286Y-16894381D01*
X8379762Y-16856286D01*
X8379762Y-16808667D01*
X8389286Y-16770571D01*
X8398810Y-16751524D01*
X8408333Y-16742000D01*
X8427381Y-16732476D01*
X8579762Y-16932476D02*
X8579762Y-16799143D01*
X8579762Y-16818190D02*
X8589286Y-16808667D01*
X8608333Y-16799143D01*
X8636905Y-16799143D01*
X8655952Y-16808667D01*
X8665476Y-16827714D01*
X8665476Y-16932476D01*
X8665476Y-16827714D02*
X8675000Y-16808667D01*
X8694048Y-16799143D01*
X8722619Y-16799143D01*
X8741667Y-16808667D01*
X8751190Y-16827714D01*
X8751190Y-16932476D01*
X8846429Y-16932476D02*
X8846429Y-16799143D01*
X8846429Y-16818190D02*
X8855952Y-16808667D01*
X8875000Y-16799143D01*
X8903571Y-16799143D01*
X8922619Y-16808667D01*
X8932143Y-16827714D01*
X8932143Y-16932476D01*
X8932143Y-16827714D02*
X8941667Y-16808667D01*
X8960714Y-16799143D01*
X8989286Y-16799143D01*
X9008333Y-16808667D01*
X9017857Y-16827714D01*
X9017857Y-16932476D01*
X9408333Y-16722952D02*
X9236905Y-16980095D01*
X9665476Y-16732476D02*
X9684524Y-16732476D01*
X9703571Y-16742000D01*
X9713095Y-16751524D01*
X9722619Y-16770571D01*
X9732143Y-16808667D01*
X9732143Y-16856286D01*
X9722619Y-16894381D01*
X9713095Y-16913429D01*
X9703571Y-16922952D01*
X9684524Y-16932476D01*
X9665476Y-16932476D01*
X9646429Y-16922952D01*
X9636905Y-16913429D01*
X9627381Y-16894381D01*
X9617857Y-16856286D01*
X9617857Y-16808667D01*
X9627381Y-16770571D01*
X9636905Y-16751524D01*
X9646429Y-16742000D01*
X9665476Y-16732476D01*
X9817857Y-16913429D02*
X9827381Y-16922952D01*
X9817857Y-16932476D01*
X9808333Y-16922952D01*
X9817857Y-16913429D01*
X9817857Y-16932476D01*
X9951190Y-16732476D02*
X9970238Y-16732476D01*
X9989286Y-16742000D01*
X9998810Y-16751524D01*
X10008333Y-16770571D01*
X10017857Y-16808667D01*
X10017857Y-16856286D01*
X10008333Y-16894381D01*
X9998810Y-16913429D01*
X9989286Y-16922952D01*
X9970238Y-16932476D01*
X9951190Y-16932476D01*
X9932143Y-16922952D01*
X9922619Y-16913429D01*
X9913095Y-16894381D01*
X9903571Y-16856286D01*
X9903571Y-16808667D01*
X9913095Y-16770571D01*
X9922619Y-16751524D01*
X9932143Y-16742000D01*
X9951190Y-16732476D01*
X10189286Y-16799143D02*
X10189286Y-16932476D01*
X10141667Y-16722952D02*
X10094048Y-16865810D01*
X10217857Y-16865810D01*
X10275000Y-16732476D02*
X10398810Y-16732476D01*
X10332143Y-16808667D01*
X10360714Y-16808667D01*
X10379762Y-16818190D01*
X10389286Y-16827714D01*
X10398810Y-16846762D01*
X10398810Y-16894381D01*
X10389286Y-16913429D01*
X10379762Y-16922952D01*
X10360714Y-16932476D01*
X10303571Y-16932476D01*
X10284524Y-16922952D01*
X10275000Y-16913429D01*
X10465476Y-16732476D02*
X10589286Y-16732476D01*
X10522619Y-16808667D01*
X10551190Y-16808667D01*
X10570238Y-16818190D01*
X10579762Y-16827714D01*
X10589286Y-16846762D01*
X10589286Y-16894381D01*
X10579762Y-16913429D01*
X10570238Y-16922952D01*
X10551190Y-16932476D01*
X10494048Y-16932476D01*
X10475000Y-16922952D01*
X10465476Y-16913429D01*
X10665476Y-16732476D02*
X10665476Y-16770571D01*
X10741667Y-16732476D02*
X10741667Y-16770571D01*
X11036905Y-17008667D02*
X11027381Y-16999143D01*
X11008333Y-16970571D01*
X10998810Y-16951524D01*
X10989286Y-16922952D01*
X10979762Y-16875333D01*
X10979762Y-16837238D01*
X10989286Y-16789619D01*
X10998810Y-16761048D01*
X11008333Y-16742000D01*
X11027381Y-16713428D01*
X11036905Y-16703905D01*
X11198809Y-16799143D02*
X11198809Y-16932476D01*
X11151190Y-16722952D02*
X11103571Y-16865810D01*
X11227381Y-16865810D01*
X11455952Y-16932476D02*
X11455952Y-16732476D01*
X11541667Y-16932476D02*
X11541667Y-16827714D01*
X11532143Y-16808667D01*
X11513095Y-16799143D01*
X11484524Y-16799143D01*
X11465476Y-16808667D01*
X11455952Y-16818190D01*
X11665476Y-16932476D02*
X11646428Y-16922952D01*
X11636905Y-16913429D01*
X11627381Y-16894381D01*
X11627381Y-16837238D01*
X11636905Y-16818190D01*
X11646428Y-16808667D01*
X11665476Y-16799143D01*
X11694048Y-16799143D01*
X11713095Y-16808667D01*
X11722619Y-16818190D01*
X11732143Y-16837238D01*
X11732143Y-16894381D01*
X11722619Y-16913429D01*
X11713095Y-16922952D01*
X11694048Y-16932476D01*
X11665476Y-16932476D01*
X11846428Y-16932476D02*
X11827381Y-16922952D01*
X11817857Y-16903905D01*
X11817857Y-16732476D01*
X11998809Y-16922952D02*
X11979762Y-16932476D01*
X11941667Y-16932476D01*
X11922619Y-16922952D01*
X11913095Y-16903905D01*
X11913095Y-16827714D01*
X11922619Y-16808667D01*
X11941667Y-16799143D01*
X11979762Y-16799143D01*
X11998809Y-16808667D01*
X12008333Y-16827714D01*
X12008333Y-16846762D01*
X11913095Y-16865810D01*
X12084524Y-16922952D02*
X12103571Y-16932476D01*
X12141667Y-16932476D01*
X12160714Y-16922952D01*
X12170238Y-16903905D01*
X12170238Y-16894381D01*
X12160714Y-16875333D01*
X12141667Y-16865810D01*
X12113095Y-16865810D01*
X12094048Y-16856286D01*
X12084524Y-16837238D01*
X12084524Y-16827714D01*
X12094048Y-16808667D01*
X12113095Y-16799143D01*
X12141667Y-16799143D01*
X12160714Y-16808667D01*
X12236905Y-17008667D02*
X12246428Y-16999143D01*
X12265476Y-16970571D01*
X12275000Y-16951524D01*
X12284524Y-16922952D01*
X12294048Y-16875333D01*
X12294048Y-16837238D01*
X12284524Y-16789619D01*
X12275000Y-16761048D01*
X12265476Y-16742000D01*
X12246428Y-16713428D01*
X12236905Y-16703905D01*
D15*
X7405000Y-17166000D02*
X7465000Y-17106000D01*
X7405000Y-17046000D01*
X7345000Y-17106000D01*
X7405000Y-17166000D01*
D11*
X7827381Y-17196476D02*
X7713095Y-17196476D01*
X7770238Y-17196476D02*
X7770238Y-16996476D01*
X7751190Y-17025048D01*
X7732143Y-17044095D01*
X7713095Y-17053619D01*
X7913095Y-17177429D02*
X7922619Y-17186952D01*
X7913095Y-17196476D01*
X7903571Y-17186952D01*
X7913095Y-17177429D01*
X7913095Y-17196476D01*
X7998809Y-17015524D02*
X8008333Y-17006000D01*
X8027381Y-16996476D01*
X8075000Y-16996476D01*
X8094048Y-17006000D01*
X8103571Y-17015524D01*
X8113095Y-17034571D01*
X8113095Y-17053619D01*
X8103571Y-17082190D01*
X7989286Y-17196476D01*
X8113095Y-17196476D01*
X8236905Y-16996476D02*
X8255952Y-16996476D01*
X8275000Y-17006000D01*
X8284524Y-17015524D01*
X8294048Y-17034571D01*
X8303571Y-17072667D01*
X8303571Y-17120286D01*
X8294048Y-17158381D01*
X8284524Y-17177429D01*
X8275000Y-17186952D01*
X8255952Y-17196476D01*
X8236905Y-17196476D01*
X8217857Y-17186952D01*
X8208333Y-17177429D01*
X8198809Y-17158381D01*
X8189286Y-17120286D01*
X8189286Y-17072667D01*
X8198809Y-17034571D01*
X8208333Y-17015524D01*
X8217857Y-17006000D01*
X8236905Y-16996476D01*
X8427381Y-16996476D02*
X8446429Y-16996476D01*
X8465476Y-17006000D01*
X8475000Y-17015524D01*
X8484524Y-17034571D01*
X8494048Y-17072667D01*
X8494048Y-17120286D01*
X8484524Y-17158381D01*
X8475000Y-17177429D01*
X8465476Y-17186952D01*
X8446429Y-17196476D01*
X8427381Y-17196476D01*
X8408333Y-17186952D01*
X8398810Y-17177429D01*
X8389286Y-17158381D01*
X8379762Y-17120286D01*
X8379762Y-17072667D01*
X8389286Y-17034571D01*
X8398810Y-17015524D01*
X8408333Y-17006000D01*
X8427381Y-16996476D01*
X8579762Y-17196476D02*
X8579762Y-17063143D01*
X8579762Y-17082190D02*
X8589286Y-17072667D01*
X8608333Y-17063143D01*
X8636905Y-17063143D01*
X8655952Y-17072667D01*
X8665476Y-17091714D01*
X8665476Y-17196476D01*
X8665476Y-17091714D02*
X8675000Y-17072667D01*
X8694048Y-17063143D01*
X8722619Y-17063143D01*
X8741667Y-17072667D01*
X8751190Y-17091714D01*
X8751190Y-17196476D01*
X8846429Y-17196476D02*
X8846429Y-17063143D01*
X8846429Y-17082190D02*
X8855952Y-17072667D01*
X8875000Y-17063143D01*
X8903571Y-17063143D01*
X8922619Y-17072667D01*
X8932143Y-17091714D01*
X8932143Y-17196476D01*
X8932143Y-17091714D02*
X8941667Y-17072667D01*
X8960714Y-17063143D01*
X8989286Y-17063143D01*
X9008333Y-17072667D01*
X9017857Y-17091714D01*
X9017857Y-17196476D01*
X9408333Y-16986952D02*
X9236905Y-17244095D01*
X9665476Y-16996476D02*
X9684524Y-16996476D01*
X9703571Y-17006000D01*
X9713095Y-17015524D01*
X9722619Y-17034571D01*
X9732143Y-17072667D01*
X9732143Y-17120286D01*
X9722619Y-17158381D01*
X9713095Y-17177429D01*
X9703571Y-17186952D01*
X9684524Y-17196476D01*
X9665476Y-17196476D01*
X9646429Y-17186952D01*
X9636905Y-17177429D01*
X9627381Y-17158381D01*
X9617857Y-17120286D01*
X9617857Y-17072667D01*
X9627381Y-17034571D01*
X9636905Y-17015524D01*
X9646429Y-17006000D01*
X9665476Y-16996476D01*
X9817857Y-17177429D02*
X9827381Y-17186952D01*
X9817857Y-17196476D01*
X9808333Y-17186952D01*
X9817857Y-17177429D01*
X9817857Y-17196476D01*
X9951190Y-16996476D02*
X9970238Y-16996476D01*
X9989286Y-17006000D01*
X9998810Y-17015524D01*
X10008333Y-17034571D01*
X10017857Y-17072667D01*
X10017857Y-17120286D01*
X10008333Y-17158381D01*
X9998810Y-17177429D01*
X9989286Y-17186952D01*
X9970238Y-17196476D01*
X9951190Y-17196476D01*
X9932143Y-17186952D01*
X9922619Y-17177429D01*
X9913095Y-17158381D01*
X9903571Y-17120286D01*
X9903571Y-17072667D01*
X9913095Y-17034571D01*
X9922619Y-17015524D01*
X9932143Y-17006000D01*
X9951190Y-16996476D01*
X10189286Y-17063143D02*
X10189286Y-17196476D01*
X10141667Y-16986952D02*
X10094048Y-17129810D01*
X10217857Y-17129810D01*
X10275000Y-16996476D02*
X10408333Y-16996476D01*
X10322619Y-17196476D01*
X10475000Y-17015524D02*
X10484524Y-17006000D01*
X10503571Y-16996476D01*
X10551190Y-16996476D01*
X10570238Y-17006000D01*
X10579762Y-17015524D01*
X10589286Y-17034571D01*
X10589286Y-17053619D01*
X10579762Y-17082190D01*
X10465476Y-17196476D01*
X10589286Y-17196476D01*
X10665476Y-16996476D02*
X10665476Y-17034571D01*
X10741667Y-16996476D02*
X10741667Y-17034571D01*
X11036905Y-17272667D02*
X11027381Y-17263143D01*
X11008333Y-17234571D01*
X10998810Y-17215524D01*
X10989286Y-17186952D01*
X10979762Y-17139333D01*
X10979762Y-17101238D01*
X10989286Y-17053619D01*
X10998810Y-17025048D01*
X11008333Y-17006000D01*
X11027381Y-16977429D01*
X11036905Y-16967905D01*
X11208333Y-16996476D02*
X11113095Y-16996476D01*
X11103571Y-17091714D01*
X11113095Y-17082190D01*
X11132143Y-17072667D01*
X11179762Y-17072667D01*
X11198809Y-17082190D01*
X11208333Y-17091714D01*
X11217857Y-17110762D01*
X11217857Y-17158381D01*
X11208333Y-17177429D01*
X11198809Y-17186952D01*
X11179762Y-17196476D01*
X11132143Y-17196476D01*
X11113095Y-17186952D01*
X11103571Y-17177429D01*
X11389286Y-17063143D02*
X11389286Y-17196476D01*
X11341667Y-16986952D02*
X11294048Y-17129810D01*
X11417857Y-17129810D01*
X11646428Y-17196476D02*
X11646428Y-16996476D01*
X11732143Y-17196476D02*
X11732143Y-17091714D01*
X11722619Y-17072667D01*
X11703571Y-17063143D01*
X11675000Y-17063143D01*
X11655952Y-17072667D01*
X11646428Y-17082190D01*
X11855952Y-17196476D02*
X11836905Y-17186952D01*
X11827381Y-17177429D01*
X11817857Y-17158381D01*
X11817857Y-17101238D01*
X11827381Y-17082190D01*
X11836905Y-17072667D01*
X11855952Y-17063143D01*
X11884524Y-17063143D01*
X11903571Y-17072667D01*
X11913095Y-17082190D01*
X11922619Y-17101238D01*
X11922619Y-17158381D01*
X11913095Y-17177429D01*
X11903571Y-17186952D01*
X11884524Y-17196476D01*
X11855952Y-17196476D01*
X12036905Y-17196476D02*
X12017857Y-17186952D01*
X12008333Y-17167905D01*
X12008333Y-16996476D01*
X12189286Y-17186952D02*
X12170238Y-17196476D01*
X12132143Y-17196476D01*
X12113095Y-17186952D01*
X12103571Y-17167905D01*
X12103571Y-17091714D01*
X12113095Y-17072667D01*
X12132143Y-17063143D01*
X12170238Y-17063143D01*
X12189286Y-17072667D01*
X12198809Y-17091714D01*
X12198809Y-17110762D01*
X12103571Y-17129810D01*
X12275000Y-17186952D02*
X12294048Y-17196476D01*
X12332143Y-17196476D01*
X12351190Y-17186952D01*
X12360714Y-17167905D01*
X12360714Y-17158381D01*
X12351190Y-17139333D01*
X12332143Y-17129810D01*
X12303571Y-17129810D01*
X12284524Y-17120286D01*
X12275000Y-17101238D01*
X12275000Y-17091714D01*
X12284524Y-17072667D01*
X12303571Y-17063143D01*
X12332143Y-17063143D01*
X12351190Y-17072667D01*
X12427381Y-17272667D02*
X12436905Y-17263143D01*
X12455952Y-17234571D01*
X12465476Y-17215524D01*
X12475000Y-17186952D01*
X12484524Y-17139333D01*
X12484524Y-17101238D01*
X12475000Y-17053619D01*
X12465476Y-17025048D01*
X12455952Y-17006000D01*
X12436905Y-16977429D01*
X12427381Y-16967905D01*
M02*
