%TF.GenerationSoftware,KiCad,Pcbnew,6.0.11-2627ca5db0~126~ubuntu22.04.1*%
%TF.CreationDate,2024-03-12T11:09:11+00:00*%
%TF.ProjectId,zx-spectrum-diagnostics,7a782d73-7065-4637-9472-756d2d646961,1.2*%
%TF.SameCoordinates,Original*%
%TF.FileFunction,Copper,L2,Bot*%
%TF.FilePolarity,Positive*%
%FSLAX46Y46*%
G04 Gerber Fmt 4.6, Leading zero omitted, Abs format (unit mm)*
G04 Created by KiCad (PCBNEW 6.0.11-2627ca5db0~126~ubuntu22.04.1) date 2024-03-12 11:09:11*
%MOMM*%
%LPD*%
G01*
G04 APERTURE LIST*
G04 Aperture macros list*
%AMRoundRect*
0 Rectangle with rounded corners*
0 $1 Rounding radius*
0 $2 $3 $4 $5 $6 $7 $8 $9 X,Y pos of 4 corners*
0 Add a 4 corners polygon primitive as box body*
4,1,4,$2,$3,$4,$5,$6,$7,$8,$9,$2,$3,0*
0 Add four circle primitives for the rounded corners*
1,1,$1+$1,$2,$3*
1,1,$1+$1,$4,$5*
1,1,$1+$1,$6,$7*
1,1,$1+$1,$8,$9*
0 Add four rect primitives between the rounded corners*
20,1,$1+$1,$2,$3,$4,$5,0*
20,1,$1+$1,$4,$5,$6,$7,0*
20,1,$1+$1,$6,$7,$8,$9,0*
20,1,$1+$1,$8,$9,$2,$3,0*%
G04 Aperture macros list end*
%TA.AperFunction,ComponentPad*%
%ADD10C,2.000000*%
%TD*%
%TA.AperFunction,ComponentPad*%
%ADD11R,1.700000X1.700000*%
%TD*%
%TA.AperFunction,ComponentPad*%
%ADD12O,1.700000X1.700000*%
%TD*%
%TA.AperFunction,ComponentPad*%
%ADD13O,2.800000X1.727200*%
%TD*%
%TA.AperFunction,SMDPad,CuDef*%
%ADD14RoundRect,0.250000X-0.400000X-0.625000X0.400000X-0.625000X0.400000X0.625000X-0.400000X0.625000X0*%
%TD*%
%TA.AperFunction,SMDPad,CuDef*%
%ADD15RoundRect,0.250000X0.400000X0.625000X-0.400000X0.625000X-0.400000X-0.625000X0.400000X-0.625000X0*%
%TD*%
%TA.AperFunction,SMDPad,CuDef*%
%ADD16R,2.000000X0.650000*%
%TD*%
%TA.AperFunction,SMDPad,CuDef*%
%ADD17RoundRect,0.250001X0.462499X0.624999X-0.462499X0.624999X-0.462499X-0.624999X0.462499X-0.624999X0*%
%TD*%
%TA.AperFunction,SMDPad,CuDef*%
%ADD18RoundRect,0.250001X0.624999X-0.462499X0.624999X0.462499X-0.624999X0.462499X-0.624999X-0.462499X0*%
%TD*%
%TA.AperFunction,SMDPad,CuDef*%
%ADD19R,1.700000X3.500000*%
%TD*%
%TA.AperFunction,SMDPad,CuDef*%
%ADD20R,3.500000X1.700000*%
%TD*%
%TA.AperFunction,ViaPad*%
%ADD21C,0.800000*%
%TD*%
%TA.AperFunction,Conductor*%
%ADD22C,0.500000*%
%TD*%
%TA.AperFunction,Conductor*%
%ADD23C,0.250000*%
%TD*%
G04 APERTURE END LIST*
D10*
%TO.P,REF\u002A\u002A17,1*%
%TO.N,N/C*%
X166690000Y-148640000D03*
%TD*%
%TO.P,REF\u002A\u002A20,1*%
%TO.N,N/C*%
X148610000Y-151180000D03*
%TD*%
%TO.P,,1*%
%TO.N,P1_BLIPPER*%
X109220000Y-128778000D03*
%TD*%
%TO.P,REF\u002A\u002A19,1*%
%TO.N,N/C*%
X158770000Y-148640000D03*
%TD*%
%TO.P,REF\u002A\u002A,1*%
%TO.N,N/C*%
X148610000Y-141020000D03*
%TD*%
%TO.P,REF\u002A\u002A10,1*%
%TO.N,N/C*%
X148610000Y-146100000D03*
%TD*%
%TO.P,REF\u002A\u002A21,1*%
%TO.N,N/C*%
X151150000Y-151180000D03*
%TD*%
%TO.P,REF\u002A\u002A17,1*%
%TO.N,N/C*%
X153690000Y-148640000D03*
%TD*%
%TO.P,REF\u002A\u002A1,1*%
%TO.N,N/C*%
X151150000Y-141020000D03*
%TD*%
%TO.P,REF\u002A\u002A3,1*%
%TO.N,N/C*%
X169230000Y-141020000D03*
%TD*%
%TO.P,REF\u002A\u002A8,1*%
%TO.N,N/C*%
X169230000Y-143560000D03*
%TD*%
%TO.P,REF\u002A\u002A21,1*%
%TO.N,N/C*%
X164150000Y-151180000D03*
%TD*%
%TO.P,REF\u002A\u002A11,1*%
%TO.N,N/C*%
X164150000Y-146100000D03*
%TD*%
%TO.P,REF\u002A\u002A9,1*%
%TO.N,N/C*%
X158770000Y-143560000D03*
%TD*%
%TO.P,REF\u002A\u002A6,1*%
%TO.N,N/C*%
X164150000Y-143560000D03*
%TD*%
%TO.P,REF\u002A\u002A18,1*%
%TO.N,N/C*%
X156230000Y-148640000D03*
%TD*%
%TO.P,REF\u002A\u002A24,1*%
%TO.N,N/C*%
X158770000Y-151180000D03*
%TD*%
%TO.P,REF\u002A\u002A12,1*%
%TO.N,N/C*%
X166690000Y-146100000D03*
%TD*%
%TO.P,REF\u002A\u002A,1*%
%TO.N,N/C*%
X161610000Y-141020000D03*
%TD*%
%TO.P,,1*%
%TO.N,3V3_PICO1*%
X166270000Y-136750000D03*
%TD*%
%TO.P,REF\u002A\u002A13,1*%
%TO.N,N/C*%
X156230000Y-146100000D03*
%TD*%
%TO.P,REF\u002A\u002A24,1*%
%TO.N,N/C*%
X171770000Y-151180000D03*
%TD*%
%TO.P,REF\u002A\u002A3,1*%
%TO.N,N/C*%
X156230000Y-141020000D03*
%TD*%
%TO.P,REF\u002A\u002A22,1*%
%TO.N,N/C*%
X166690000Y-151180000D03*
%TD*%
%TO.P,REF\u002A\u002A13,1*%
%TO.N,N/C*%
X169230000Y-146100000D03*
%TD*%
%TO.P,,1*%
%TO.N,GND*%
X171850000Y-136810000D03*
%TD*%
%TO.P,REF\u002A\u002A2,1*%
%TO.N,N/C*%
X166690000Y-141020000D03*
%TD*%
D11*
%TO.P,J101,1,Pin_1*%
%TO.N,OLED_SDA*%
X161544000Y-118608000D03*
D12*
%TO.P,J101,2,Pin_2*%
%TO.N,OLED_SCK*%
X161544000Y-116068000D03*
%TO.P,J101,3,Pin_3*%
%TO.N,3V3_PICO1*%
X161544000Y-113528000D03*
%TO.P,J101,4,Pin_4*%
%TO.N,GND*%
X161544000Y-110988000D03*
%TD*%
D10*
%TO.P,SW101,1,A*%
%TO.N,GND*%
X143138000Y-148524000D03*
X136638000Y-148524000D03*
%TO.P,SW101,2,B*%
%TO.N,INPUT1*%
X136638000Y-144024000D03*
X143138000Y-144024000D03*
%TD*%
D13*
%TO.P,Z101,A1,A15*%
%TO.N,ZXA15*%
X82738000Y-81504000D03*
%TO.P,Z101,A2,A13*%
%TO.N,ZXA13*%
X82738000Y-84044000D03*
%TO.P,Z101,A3,D7*%
%TO.N,ZXD7*%
X82738000Y-86584000D03*
%TO.P,Z101,A4,NC*%
%TO.N,unconnected-(Z101-PadA4)*%
X82738000Y-89124000D03*
%TO.P,Z101,A6,D0*%
%TO.N,ZXD0*%
X82738000Y-94204000D03*
%TO.P,Z101,A7,D1*%
%TO.N,ZXD1*%
X82738000Y-96744000D03*
%TO.P,Z101,A8,D2*%
%TO.N,ZXD2*%
X82738000Y-99284000D03*
%TO.P,Z101,A9,D6*%
%TO.N,ZXD6*%
X82738000Y-101824000D03*
%TO.P,Z101,A10,D5*%
%TO.N,ZXD5*%
X82738000Y-104364000D03*
%TO.P,Z101,A11,D3*%
%TO.N,ZXD3*%
X82738000Y-106904000D03*
%TO.P,Z101,A12,D4*%
%TO.N,ZXD4*%
X82738000Y-109444000D03*
%TO.P,Z101,A13,~{INT}*%
%TO.N,ZXINT*%
X82738000Y-111984000D03*
%TO.P,Z101,A14,~{NMI}*%
%TO.N,ZXNMI*%
X82738000Y-114524000D03*
%TO.P,Z101,A15,~{HALT}*%
%TO.N,ZXHALT*%
X82738000Y-117064000D03*
%TO.P,Z101,A16,~{MREQ}*%
%TO.N,ZXMREQ*%
X82738000Y-119604000D03*
%TO.P,Z101,A17,~{IORQ}*%
%TO.N,ZXIORQ*%
X82738000Y-122144000D03*
%TO.P,Z101,A18,~{RD}*%
%TO.N,ZXRD*%
X82738000Y-124684000D03*
%TO.P,Z101,A19,~{WR}*%
%TO.N,ZXWR*%
X82738000Y-127224000D03*
%TO.P,Z101,A20,-5V*%
%TO.N,ZXMIN5V*%
X82738000Y-129764000D03*
%TO.P,Z101,A21,~{WAIT}*%
%TO.N,ZXWAIT*%
X82738000Y-132304000D03*
%TO.P,Z101,A22,+12V*%
%TO.N,ZX12V*%
X82738000Y-134844000D03*
%TO.P,Z101,A23,+12VAC*%
%TO.N,ZX12VAC*%
X82738000Y-137384000D03*
%TO.P,Z101,A24,~{M1}*%
%TO.N,ZXM1*%
X82738000Y-139924000D03*
%TO.P,Z101,A25,~{RFSH}*%
%TO.N,ZXRFSH*%
X82738000Y-142464000D03*
%TO.P,Z101,A26,A8*%
%TO.N,ZXA8*%
X82738000Y-145004000D03*
%TO.P,Z101,A27,A10*%
%TO.N,ZXA10*%
X82738000Y-147544000D03*
%TO.P,Z101,A28,NC*%
%TO.N,unconnected-(Z101-PadA28)*%
X82738000Y-150084000D03*
%TO.P,Z101,B1,A14*%
%TO.N,ZXA14*%
X77658000Y-81504000D03*
%TO.P,Z101,B2,A12*%
%TO.N,ZXA12*%
X77658000Y-84044000D03*
%TO.P,Z101,B3,+5v*%
%TO.N,+5V*%
X77658000Y-86584000D03*
%TO.P,Z101,B4,+9V*%
%TO.N,ZX9V*%
X77658000Y-89124000D03*
%TO.P,Z101,B6,GND*%
%TO.N,GND*%
X77658000Y-94204000D03*
%TO.P,Z101,B7,GND*%
X77658000Y-96744000D03*
%TO.P,Z101,B8,CLK*%
%TO.N,ZXCLK*%
X77658000Y-99284000D03*
%TO.P,Z101,B9,A0*%
%TO.N,ZXA0*%
X77658000Y-101824000D03*
%TO.P,Z101,B10,A1*%
%TO.N,ZXA1*%
X77658000Y-104364000D03*
%TO.P,Z101,B11,A2*%
%TO.N,ZXA2*%
X77658000Y-106904000D03*
%TO.P,Z101,B12,A3*%
%TO.N,ZXA3*%
X77658000Y-109444000D03*
%TO.P,Z101,B13,~{IORQGE}*%
%TO.N,ZXIORQGE*%
X77658000Y-111984000D03*
%TO.P,Z101,B14,GND*%
%TO.N,GND*%
X77658000Y-114524000D03*
%TO.P,Z101,B15,VIDEO*%
%TO.N,ZXVIDEO*%
X77658000Y-117064000D03*
%TO.P,Z101,B16,Y*%
%TO.N,ZXY*%
X77658000Y-119604000D03*
%TO.P,Z101,B17,V*%
%TO.N,ZXV*%
X77658000Y-122144000D03*
%TO.P,Z101,B18,U*%
%TO.N,ZXU*%
X77658000Y-124684000D03*
%TO.P,Z101,B19,~{BUSRQ}*%
%TO.N,ZXBUSRQ*%
X77658000Y-127224000D03*
%TO.P,Z101,B20,~{RESET}*%
%TO.N,ZXRESET*%
X77658000Y-129764000D03*
%TO.P,Z101,B21,A7*%
%TO.N,ZXA7*%
X77658000Y-132304000D03*
%TO.P,Z101,B22,A6*%
%TO.N,ZXA6*%
X77658000Y-134844000D03*
%TO.P,Z101,B23,A5*%
%TO.N,ZXA5*%
X77658000Y-137384000D03*
%TO.P,Z101,B24,A4*%
%TO.N,ZXA4*%
X77658000Y-139924000D03*
%TO.P,Z101,B25,~{ROMCS}*%
%TO.N,ZXROMCS*%
X77658000Y-142464000D03*
%TO.P,Z101,B26,~{BUSACK}*%
%TO.N,ZXBUSACK*%
X77658000Y-145004000D03*
%TO.P,Z101,B27,A9*%
%TO.N,ZXA9*%
X77658000Y-147544000D03*
%TO.P,Z101,B28,A11*%
%TO.N,ZXA11*%
X77658000Y-150084000D03*
%TD*%
D10*
%TO.P,REF\u002A\u002A15,1*%
%TO.N,N/C*%
X161610000Y-148640000D03*
%TD*%
%TO.P,REF\u002A\u002A5,1*%
%TO.N,N/C*%
X148610000Y-143560000D03*
%TD*%
%TO.P,,1*%
%TO.N,+5V*%
X169050000Y-136800000D03*
%TD*%
%TO.P,REF\u002A\u002A2,1*%
%TO.N,N/C*%
X153690000Y-141020000D03*
%TD*%
%TO.P,REF\u002A\u002A6,1*%
%TO.N,N/C*%
X151150000Y-143560000D03*
%TD*%
%TO.P,REF\u002A\u002A11,1*%
%TO.N,N/C*%
X151150000Y-146100000D03*
%TD*%
%TO.P,REF\u002A\u002A14,1*%
%TO.N,N/C*%
X171770000Y-146100000D03*
%TD*%
%TO.P,REF\u002A\u002A1,1*%
%TO.N,N/C*%
X164150000Y-141020000D03*
%TD*%
%TO.P,REF\u002A\u002A16,1*%
%TO.N,N/C*%
X164150000Y-148640000D03*
%TD*%
%TO.P,REF\u002A\u002A10,1*%
%TO.N,N/C*%
X161610000Y-146100000D03*
%TD*%
%TO.P,REF\u002A\u002A4,1*%
%TO.N,N/C*%
X158770000Y-141020000D03*
%TD*%
%TO.P,REF\u002A\u002A20,1*%
%TO.N,N/C*%
X161610000Y-151180000D03*
%TD*%
%TO.P,REF\u002A\u002A16,1*%
%TO.N,N/C*%
X151150000Y-148640000D03*
%TD*%
%TO.P,REF\u002A\u002A15,1*%
%TO.N,N/C*%
X148610000Y-148640000D03*
%TD*%
%TO.P,REF\u002A\u002A14,1*%
%TO.N,N/C*%
X158770000Y-146100000D03*
%TD*%
%TO.P,REF\u002A\u002A7,1*%
%TO.N,N/C*%
X166690000Y-143560000D03*
%TD*%
%TO.P,REF\u002A\u002A9,1*%
%TO.N,N/C*%
X171770000Y-143560000D03*
%TD*%
%TO.P,REF\u002A\u002A12,1*%
%TO.N,N/C*%
X153690000Y-146100000D03*
%TD*%
%TO.P,REF\u002A\u002A19,1*%
%TO.N,N/C*%
X171770000Y-148640000D03*
%TD*%
%TO.P,REF\u002A\u002A7,1*%
%TO.N,N/C*%
X153690000Y-143560000D03*
%TD*%
%TO.P,REF\u002A\u002A23,1*%
%TO.N,N/C*%
X169230000Y-151180000D03*
%TD*%
%TO.P,REF\u002A\u002A23,1*%
%TO.N,N/C*%
X156230000Y-151180000D03*
%TD*%
%TO.P,REF\u002A\u002A22,1*%
%TO.N,N/C*%
X153690000Y-151180000D03*
%TD*%
%TO.P,REF\u002A\u002A4,1*%
%TO.N,N/C*%
X171770000Y-141020000D03*
%TD*%
%TO.P,REF\u002A\u002A5,1*%
%TO.N,N/C*%
X161610000Y-143560000D03*
%TD*%
%TO.P,REF\u002A\u002A8,1*%
%TO.N,N/C*%
X156230000Y-143560000D03*
%TD*%
%TO.P,,1*%
%TO.N,P2_BLIPPER*%
X112776000Y-128778000D03*
%TD*%
%TO.P,REF\u002A\u002A18,1*%
%TO.N,N/C*%
X169230000Y-148640000D03*
%TD*%
D11*
%TO.P,J203,1,Pin_1*%
%TO.N,ZXA14*%
X87285000Y-81470000D03*
D12*
%TO.P,J203,2,Pin_2*%
%TO.N,ZXA12*%
X87285000Y-84010000D03*
%TO.P,J203,3,Pin_3*%
%TO.N,+5V*%
X87285000Y-86550000D03*
%TO.P,J203,4,Pin_4*%
%TO.N,ZXCLK*%
X87285000Y-89090000D03*
%TO.P,J203,5,Pin_5*%
%TO.N,ZXA0*%
X87285000Y-91630000D03*
%TO.P,J203,6,Pin_6*%
%TO.N,ZXA1*%
X87285000Y-94170000D03*
%TO.P,J203,7,Pin_7*%
%TO.N,ZXA2*%
X87285000Y-96710000D03*
%TO.P,J203,8,Pin_8*%
%TO.N,ZXA3*%
X87285000Y-99250000D03*
%TO.P,J203,9,Pin_9*%
%TO.N,ZXIORQGE*%
X87285000Y-101790000D03*
%TO.P,J203,10,Pin_10*%
%TO.N,ZXVIDEO*%
X87285000Y-104330000D03*
%TO.P,J203,11,Pin_11*%
%TO.N,ZXY*%
X87285000Y-106870000D03*
%TO.P,J203,12,Pin_12*%
%TO.N,ZXV*%
X87285000Y-109410000D03*
%TO.P,J203,13,Pin_13*%
%TO.N,ZXU*%
X87285000Y-111950000D03*
%TO.P,J203,14,Pin_14*%
%TO.N,ZXBUSRQ*%
X87285000Y-114490000D03*
%TO.P,J203,15,Pin_15*%
%TO.N,ZXRESET*%
X87285000Y-117030000D03*
%TO.P,J203,16,Pin_16*%
%TO.N,ZXA7*%
X87285000Y-119570000D03*
%TO.P,J203,17,Pin_17*%
%TO.N,ZXA6*%
X87285000Y-122110000D03*
%TO.P,J203,18,Pin_18*%
%TO.N,ZXA5*%
X87285000Y-124650000D03*
%TO.P,J203,19,Pin_19*%
%TO.N,ZXA4*%
X87285000Y-127190000D03*
%TO.P,J203,20,Pin_20*%
%TO.N,ZXROMCS*%
X87285000Y-129730000D03*
%TD*%
D14*
%TO.P,R106,1*%
%TO.N,12V_DIV*%
X92820000Y-143560000D03*
%TO.P,R106,2*%
%TO.N,GND*%
X95920000Y-143560000D03*
%TD*%
D15*
%TO.P,R101,1*%
%TO.N,3V3_PICO1*%
X103140000Y-150330000D03*
%TO.P,R101,2*%
%TO.N,MIN5V_DIV*%
X100040000Y-150330000D03*
%TD*%
D11*
%TO.P,J202,1,Pin_1*%
%TO.N,ZXA8*%
X92990000Y-138565000D03*
D12*
%TO.P,J202,2,Pin_2*%
%TO.N,ZXA10*%
X95530000Y-138565000D03*
%TO.P,J202,3,Pin_3*%
%TO.N,ZXA11*%
X98070000Y-138565000D03*
%TO.P,J202,4,Pin_4*%
%TO.N,ZXA9*%
X100610000Y-138565000D03*
%TO.P,J202,5,Pin_5*%
%TO.N,ZXBUSACK*%
X103150000Y-138565000D03*
%TO.P,J202,6,Pin_6*%
%TO.N,PICO_SIGNAL*%
X105690000Y-138565000D03*
%TO.P,J202,7,Pin_7*%
%TO.N,ZXMREQ*%
X108230000Y-138565000D03*
%TO.P,J202,8,Pin_8*%
%TO.N,ZXRD*%
X110770000Y-138565000D03*
%TO.P,J202,9,Pin_9*%
%TO.N,ZXCLK*%
X113310000Y-138565000D03*
%TO.P,J202,10,Pin_10*%
%TO.N,5V_DIV*%
X115850000Y-138565000D03*
%TO.P,J202,11,Pin_11*%
%TO.N,12V_DIV*%
X118390000Y-138565000D03*
%TO.P,J202,12,Pin_12*%
%TO.N,MIN5V_DIV*%
X120930000Y-138565000D03*
%TO.P,J202,13,Pin_13*%
%TO.N,P1_BLIPPER*%
X123470000Y-138565000D03*
%TO.P,J202,14,Pin_14*%
%TO.N,P2_BLIPPER*%
X126010000Y-138565000D03*
%TO.P,J202,15,Pin_15*%
%TO.N,P2_GPIO26*%
X128550000Y-138565000D03*
%TO.P,J202,16,Pin_16*%
%TO.N,P2_GPIO27*%
X131090000Y-138565000D03*
%TO.P,J202,17,Pin_17*%
%TO.N,P2_GPIO28*%
X133630000Y-138565000D03*
%TO.P,J202,18,Pin_18*%
%TO.N,ZX9V*%
X136170000Y-138565000D03*
%TO.P,J202,19,Pin_19*%
%TO.N,ZXMIN5V*%
X138710000Y-138565000D03*
%TO.P,J202,20,Pin_20*%
%TO.N,ZX12V*%
X141250000Y-138565000D03*
%TD*%
D16*
%TO.P,Q101,1,B*%
%TO.N,Net-(Q101-Pad1)*%
X90790000Y-148980000D03*
%TO.P,Q101,2,E*%
%TO.N,GND*%
X90790000Y-150880000D03*
%TO.P,Q101,3,C*%
%TO.N,ZXRESET*%
X87370000Y-149930000D03*
%TD*%
D17*
%TO.P,D102,1,K*%
%TO.N,3V3_PICO1*%
X115747500Y-150290000D03*
%TO.P,D102,2,A*%
%TO.N,MIN5V_DIV*%
X112772500Y-150290000D03*
%TD*%
D14*
%TO.P,R102,1*%
%TO.N,MIN5V_DIV*%
X105900000Y-150320000D03*
%TO.P,R102,2*%
%TO.N,ZXMIN5V*%
X109000000Y-150320000D03*
%TD*%
D15*
%TO.P,R103,1*%
%TO.N,5V_DIV*%
X101990000Y-143590000D03*
%TO.P,R103,2*%
%TO.N,+5V*%
X98890000Y-143590000D03*
%TD*%
%TO.P,R107,1*%
%TO.N,PICO_RESET_Z80*%
X97170000Y-150370000D03*
%TO.P,R107,2*%
%TO.N,Net-(Q101-Pad1)*%
X94070000Y-150370000D03*
%TD*%
D18*
%TO.P,D101,1,K*%
%TO.N,PICO_PWR*%
X126238000Y-83275500D03*
%TO.P,D101,2,A*%
%TO.N,+5V*%
X126238000Y-80300500D03*
%TD*%
D19*
%TO.P,U102,1,GPIO0*%
%TO.N,ZXA0*%
X117856000Y-67172000D03*
D12*
X117856000Y-68072000D03*
%TO.P,U102,2,GPIO1*%
%TO.N,ZXA1*%
X120396000Y-68072000D03*
D19*
X120396000Y-67172000D03*
D11*
%TO.P,U102,3,GND*%
%TO.N,GND*%
X122936000Y-68072000D03*
D19*
X122936000Y-67172000D03*
%TO.P,U102,4,GPIO2*%
%TO.N,ZXA2*%
X125476000Y-67172000D03*
D12*
X125476000Y-68072000D03*
D19*
%TO.P,U102,5,GPIO3*%
%TO.N,ZXA3*%
X128016000Y-67172000D03*
D12*
X128016000Y-68072000D03*
D19*
%TO.P,U102,6,GPIO4*%
%TO.N,ZXA4*%
X130556000Y-67172000D03*
D12*
X130556000Y-68072000D03*
%TO.P,U102,7,GPIO5*%
%TO.N,ZXA5*%
X133096000Y-68072000D03*
D19*
X133096000Y-67172000D03*
%TO.P,U102,8,GND*%
%TO.N,GND*%
X135636000Y-67172000D03*
D11*
X135636000Y-68072000D03*
D12*
%TO.P,U102,9,GPIO6*%
%TO.N,ZXA6*%
X138176000Y-68072000D03*
D19*
X138176000Y-67172000D03*
D12*
%TO.P,U102,10,GPIO7*%
%TO.N,ZXA7*%
X140716000Y-68072000D03*
D19*
X140716000Y-67172000D03*
D12*
%TO.P,U102,11,GPIO8*%
%TO.N,ZXA8*%
X143256000Y-68072000D03*
D19*
X143256000Y-67172000D03*
%TO.P,U102,12,GPIO9*%
%TO.N,ZXA9*%
X145796000Y-67172000D03*
D12*
X145796000Y-68072000D03*
D11*
%TO.P,U102,13,GND*%
%TO.N,GND*%
X148336000Y-68072000D03*
D19*
X148336000Y-67172000D03*
%TO.P,U102,14,GPIO10*%
%TO.N,ZXA10*%
X150876000Y-67172000D03*
D12*
X150876000Y-68072000D03*
D19*
%TO.P,U102,15,GPIO11*%
%TO.N,ZXA11*%
X153416000Y-67172000D03*
D12*
X153416000Y-68072000D03*
D19*
%TO.P,U102,16,GPIO12*%
%TO.N,ZXA12*%
X155956000Y-67172000D03*
D12*
X155956000Y-68072000D03*
%TO.P,U102,17,GPIO13*%
%TO.N,ZXA13*%
X158496000Y-68072000D03*
D19*
X158496000Y-67172000D03*
D11*
%TO.P,U102,18,GND*%
%TO.N,GND*%
X161036000Y-68072000D03*
D19*
X161036000Y-67172000D03*
D12*
%TO.P,U102,19,GPIO14*%
%TO.N,ZXA14*%
X163576000Y-68072000D03*
D19*
X163576000Y-67172000D03*
%TO.P,U102,20,GPIO15*%
%TO.N,ZXA15*%
X166116000Y-67172000D03*
D12*
X166116000Y-68072000D03*
%TO.P,U102,21,GPIO16*%
%TO.N,ZXMREQ*%
X166116000Y-85852000D03*
D19*
X166116000Y-86752000D03*
D12*
%TO.P,U102,22,GPIO17*%
%TO.N,ZXRD*%
X163576000Y-85852000D03*
D19*
X163576000Y-86752000D03*
%TO.P,U102,23,GND*%
%TO.N,GND*%
X161036000Y-86752000D03*
D11*
X161036000Y-85852000D03*
D19*
%TO.P,U102,24,GPIO18*%
%TO.N,ZXCLK*%
X158496000Y-86752000D03*
D12*
X158496000Y-85852000D03*
D19*
%TO.P,U102,25,GPIO19*%
%TO.N,P2_BLIPPER*%
X155956000Y-86752000D03*
D12*
X155956000Y-85852000D03*
D19*
%TO.P,U102,26,GPIO20*%
%TO.N,PICO_SIGNAL*%
X153416000Y-86752000D03*
D12*
X153416000Y-85852000D03*
D19*
%TO.P,U102,27,GPIO21*%
%TO.N,P2_LINKIN*%
X150876000Y-86752000D03*
D12*
X150876000Y-85852000D03*
D11*
%TO.P,U102,28,GND*%
%TO.N,GND*%
X148336000Y-85852000D03*
D19*
X148336000Y-86752000D03*
D12*
%TO.P,U102,29,GPIO22*%
%TO.N,P2_LINKOUT*%
X145796000Y-85852000D03*
D19*
X145796000Y-86752000D03*
D12*
%TO.P,U102,30,RUN*%
%TO.N,unconnected-(U102-Pad30)*%
X143256000Y-85852000D03*
D19*
X143256000Y-86752000D03*
%TO.P,U102,31,GPIO26_ADC0*%
%TO.N,P2_GPIO26*%
X140716000Y-86752000D03*
D12*
X140716000Y-85852000D03*
%TO.P,U102,32,GPIO27_ADC1*%
%TO.N,P2_GPIO27*%
X138176000Y-85852000D03*
D19*
X138176000Y-86752000D03*
%TO.P,U102,33,AGND*%
%TO.N,GND*%
X135636000Y-86752000D03*
D11*
X135636000Y-85852000D03*
D12*
%TO.P,U102,34,GPIO28_ADC2*%
%TO.N,P2_GPIO28*%
X133096000Y-85852000D03*
D19*
X133096000Y-86752000D03*
D12*
%TO.P,U102,35,ADC_VREF*%
%TO.N,unconnected-(U102-Pad35)*%
X130556000Y-85852000D03*
D19*
X130556000Y-86752000D03*
%TO.P,U102,36,3V3*%
%TO.N,3V3_PICO2*%
X128016000Y-86752000D03*
D12*
X128016000Y-85852000D03*
%TO.P,U102,37,3V3_EN*%
%TO.N,unconnected-(U102-Pad37)*%
X125476000Y-85852000D03*
D19*
X125476000Y-86752000D03*
%TO.P,U102,38,GND*%
%TO.N,GND*%
X122936000Y-86752000D03*
D11*
X122936000Y-85852000D03*
D19*
%TO.P,U102,39,VSYS*%
%TO.N,PICO_PWR*%
X120396000Y-86752000D03*
D12*
X120396000Y-85852000D03*
%TO.P,U102,40,VBUS*%
%TO.N,unconnected-(U102-Pad40)*%
X117856000Y-85852000D03*
D19*
X117856000Y-86752000D03*
D12*
%TO.P,U102,41,SWCLK*%
%TO.N,P2_SWCLK*%
X165886000Y-74422000D03*
D20*
X166786000Y-74422000D03*
D11*
%TO.P,U102,42,GND*%
%TO.N,GND*%
X165886000Y-76962000D03*
D20*
X166786000Y-76962000D03*
%TO.P,U102,43,SWDIO*%
%TO.N,P2_SWDIO*%
X166786000Y-79502000D03*
D12*
X165886000Y-79502000D03*
%TD*%
D17*
%TO.P,D103,1,K*%
%TO.N,MIN5V_DIV*%
X122057500Y-150270000D03*
%TO.P,D103,2,A*%
%TO.N,GND*%
X119082500Y-150270000D03*
%TD*%
D19*
%TO.P,U101,1,GPIO0*%
%TO.N,ZXD0*%
X117856000Y-105272000D03*
D12*
X117856000Y-106172000D03*
D19*
%TO.P,U101,2,GPIO1*%
%TO.N,ZXD1*%
X120396000Y-105272000D03*
D12*
X120396000Y-106172000D03*
D19*
%TO.P,U101,3,GND*%
%TO.N,GND*%
X122936000Y-105272000D03*
D11*
X122936000Y-106172000D03*
D12*
%TO.P,U101,4,GPIO2*%
%TO.N,ZXD2*%
X125476000Y-106172000D03*
D19*
X125476000Y-105272000D03*
%TO.P,U101,5,GPIO3*%
%TO.N,ZXD3*%
X128016000Y-105272000D03*
D12*
X128016000Y-106172000D03*
%TO.P,U101,6,GPIO4*%
%TO.N,ZXD4*%
X130556000Y-106172000D03*
D19*
X130556000Y-105272000D03*
D12*
%TO.P,U101,7,GPIO5*%
%TO.N,ZXD5*%
X133096000Y-106172000D03*
D19*
X133096000Y-105272000D03*
%TO.P,U101,8,GND*%
%TO.N,GND*%
X135636000Y-105272000D03*
D11*
X135636000Y-106172000D03*
D19*
%TO.P,U101,9,GPIO6*%
%TO.N,ZXD6*%
X138176000Y-105272000D03*
D12*
X138176000Y-106172000D03*
%TO.P,U101,10,GPIO7*%
%TO.N,ZXD7*%
X140716000Y-106172000D03*
D19*
X140716000Y-105272000D03*
%TO.P,U101,11,GPIO8*%
%TO.N,PICO_SIGNAL*%
X143256000Y-105272000D03*
D12*
X143256000Y-106172000D03*
%TO.P,U101,12,GPIO9*%
%TO.N,P1_BLIPPER*%
X145796000Y-106172000D03*
D19*
X145796000Y-105272000D03*
%TO.P,U101,13,GND*%
%TO.N,GND*%
X148336000Y-105272000D03*
D11*
X148336000Y-106172000D03*
D19*
%TO.P,U101,14,GPIO10*%
%TO.N,ZXMREQ*%
X150876000Y-105272000D03*
D12*
X150876000Y-106172000D03*
D19*
%TO.P,U101,15,GPIO11*%
%TO.N,ZXRD*%
X153416000Y-105272000D03*
D12*
X153416000Y-106172000D03*
D19*
%TO.P,U101,16,GPIO12*%
%TO.N,ZXWR*%
X155956000Y-105272000D03*
D12*
X155956000Y-106172000D03*
D19*
%TO.P,U101,17,GPIO13*%
%TO.N,ZXM1*%
X158496000Y-105272000D03*
D12*
X158496000Y-106172000D03*
D19*
%TO.P,U101,18,GND*%
%TO.N,GND*%
X161036000Y-105272000D03*
D11*
X161036000Y-106172000D03*
D12*
%TO.P,U101,19,GPIO14*%
%TO.N,ZXCLK*%
X163576000Y-106172000D03*
D19*
X163576000Y-105272000D03*
%TO.P,U101,20,GPIO15*%
%TO.N,ZXINT*%
X166116000Y-105272000D03*
D12*
X166116000Y-106172000D03*
%TO.P,U101,21,GPIO16*%
%TO.N,OLED_SDA*%
X166116000Y-123952000D03*
D19*
X166116000Y-124852000D03*
D12*
%TO.P,U101,22,GPIO17*%
%TO.N,OLED_SCK*%
X163576000Y-123952000D03*
D19*
X163576000Y-124852000D03*
%TO.P,U101,23,GND*%
%TO.N,GND*%
X161036000Y-124852000D03*
D11*
X161036000Y-123952000D03*
D12*
%TO.P,U101,24,GPIO18*%
%TO.N,P2_LINKOUT*%
X158496000Y-123952000D03*
D19*
X158496000Y-124852000D03*
D12*
%TO.P,U101,25,GPIO19*%
%TO.N,P2_LINKIN*%
X155956000Y-123952000D03*
D19*
X155956000Y-124852000D03*
D12*
%TO.P,U101,26,GPIO20*%
%TO.N,ZXIORQ*%
X153416000Y-123952000D03*
D19*
X153416000Y-124852000D03*
D12*
%TO.P,U101,27,GPIO21*%
%TO.N,INPUT1*%
X150876000Y-123952000D03*
D19*
X150876000Y-124852000D03*
D11*
%TO.P,U101,28,GND*%
%TO.N,GND*%
X148336000Y-123952000D03*
D19*
X148336000Y-124852000D03*
D12*
%TO.P,U101,29,GPIO22*%
%TO.N,PICO_RESET_Z80*%
X145796000Y-123952000D03*
D19*
X145796000Y-124852000D03*
%TO.P,U101,30,RUN*%
%TO.N,unconnected-(U101-Pad30)*%
X143256000Y-124852000D03*
D12*
X143256000Y-123952000D03*
D19*
%TO.P,U101,31,GPIO26_ADC0*%
%TO.N,MIN5V_DIV*%
X140716000Y-124852000D03*
D12*
X140716000Y-123952000D03*
%TO.P,U101,32,GPIO27_ADC1*%
%TO.N,12V_DIV*%
X138176000Y-123952000D03*
D19*
X138176000Y-124852000D03*
%TO.P,U101,33,AGND*%
%TO.N,GND*%
X135636000Y-124852000D03*
D11*
X135636000Y-123952000D03*
D19*
%TO.P,U101,34,GPIO28_ADC2*%
%TO.N,5V_DIV*%
X133096000Y-124852000D03*
D12*
X133096000Y-123952000D03*
D19*
%TO.P,U101,35,ADC_VREF*%
%TO.N,unconnected-(U101-Pad35)*%
X130556000Y-124852000D03*
D12*
X130556000Y-123952000D03*
D19*
%TO.P,U101,36,3V3*%
%TO.N,3V3_PICO1*%
X128016000Y-124852000D03*
D12*
X128016000Y-123952000D03*
D19*
%TO.P,U101,37,3V3_EN*%
%TO.N,unconnected-(U101-Pad37)*%
X125476000Y-124852000D03*
D12*
X125476000Y-123952000D03*
D11*
%TO.P,U101,38,GND*%
%TO.N,GND*%
X122936000Y-123952000D03*
D19*
X122936000Y-124852000D03*
D12*
%TO.P,U101,39,VSYS*%
%TO.N,PICO_PWR*%
X120396000Y-123952000D03*
D19*
X120396000Y-124852000D03*
D12*
%TO.P,U101,40,VBUS*%
%TO.N,unconnected-(U101-Pad40)*%
X117856000Y-123952000D03*
D19*
X117856000Y-124852000D03*
D12*
%TO.P,U101,41,SWCLK*%
%TO.N,P1_SWCLK*%
X165886000Y-112522000D03*
D20*
X166786000Y-112522000D03*
%TO.P,U101,42,GND*%
%TO.N,GND*%
X166786000Y-115062000D03*
D11*
X165886000Y-115062000D03*
D20*
%TO.P,U101,43,SWDIO*%
%TO.N,P1_SWDIO*%
X166786000Y-117602000D03*
D12*
X165886000Y-117602000D03*
%TD*%
D14*
%TO.P,R104,1*%
%TO.N,5V_DIV*%
X104650000Y-143530000D03*
%TO.P,R104,2*%
%TO.N,GND*%
X107750000Y-143530000D03*
%TD*%
D15*
%TO.P,R105,1*%
%TO.N,12V_DIV*%
X90180000Y-143550000D03*
%TO.P,R105,2*%
%TO.N,ZX12V*%
X87080000Y-143550000D03*
%TD*%
D11*
%TO.P,J201,1,Pin_1*%
%TO.N,ZXA15*%
X94090000Y-81430000D03*
D12*
%TO.P,J201,2,Pin_2*%
%TO.N,ZXA13*%
X94090000Y-83970000D03*
%TO.P,J201,3,Pin_3*%
%TO.N,ZXD7*%
X94090000Y-86510000D03*
%TO.P,J201,4,Pin_4*%
%TO.N,ZXD0*%
X94090000Y-89050000D03*
%TO.P,J201,5,Pin_5*%
%TO.N,ZXD1*%
X94090000Y-91590000D03*
%TO.P,J201,6,Pin_6*%
%TO.N,ZXD2*%
X94090000Y-94130000D03*
%TO.P,J201,7,Pin_7*%
%TO.N,ZXD6*%
X94090000Y-96670000D03*
%TO.P,J201,8,Pin_8*%
%TO.N,ZXD5*%
X94090000Y-99210000D03*
%TO.P,J201,9,Pin_9*%
%TO.N,ZXD3*%
X94090000Y-101750000D03*
%TO.P,J201,10,Pin_10*%
%TO.N,ZXD4*%
X94090000Y-104290000D03*
%TO.P,J201,11,Pin_11*%
%TO.N,ZXINT*%
X94090000Y-106830000D03*
%TO.P,J201,12,Pin_12*%
%TO.N,ZXNMI*%
X94090000Y-109370000D03*
%TO.P,J201,13,Pin_13*%
%TO.N,ZXHALT*%
X94090000Y-111910000D03*
%TO.P,J201,14,Pin_14*%
%TO.N,ZXMREQ*%
X94090000Y-114450000D03*
%TO.P,J201,15,Pin_15*%
%TO.N,ZXIORQ*%
X94090000Y-116990000D03*
%TO.P,J201,16,Pin_16*%
%TO.N,ZXRD*%
X94090000Y-119530000D03*
%TO.P,J201,17,Pin_17*%
%TO.N,ZXWR*%
X94090000Y-122070000D03*
%TO.P,J201,18,Pin_18*%
%TO.N,ZXWAIT*%
X94090000Y-124610000D03*
%TO.P,J201,19,Pin_19*%
%TO.N,ZXM1*%
X94090000Y-127150000D03*
%TO.P,J201,20,Pin_20*%
%TO.N,ZXRFSH*%
X94090000Y-129690000D03*
%TD*%
D21*
%TO.N,PICO_PWR*%
X115062000Y-83566000D03*
X120396000Y-83566000D03*
X120396000Y-122174000D03*
X115062000Y-122174000D03*
%TO.N,+5V*%
X98910000Y-147036000D03*
X126238000Y-77978000D03*
X172212000Y-59944000D03*
X168910000Y-133604000D03*
X146812000Y-139154500D03*
X79502000Y-77470000D03*
X79502000Y-59690000D03*
X172212000Y-133604000D03*
X146812000Y-146304000D03*
%TO.N,3V3_PICO1*%
X144018000Y-137414000D03*
X127762000Y-128815500D03*
X158242000Y-113538000D03*
X128016000Y-117856000D03*
X143256000Y-128778000D03*
X115758000Y-152878000D03*
X103124000Y-152908000D03*
X144460000Y-152878000D03*
X158242000Y-117856000D03*
%TO.N,MIN5V_DIV*%
X120904000Y-130339500D03*
X122060000Y-151910000D03*
X112810000Y-151892000D03*
X140716000Y-130302000D03*
X105130000Y-151892000D03*
X100070000Y-152060000D03*
%TO.N,GND*%
X108903000Y-143573000D03*
X117450000Y-150290000D03*
X92580000Y-146050000D03*
X95850000Y-146050000D03*
X92580000Y-151160000D03*
X122936000Y-102870000D03*
X110770000Y-150180000D03*
X135636000Y-102616000D03*
%TO.N,OLED_SDA*%
X166116000Y-121666000D03*
X161544000Y-121666000D03*
%TO.N,OLED_SCK*%
X163576000Y-116078000D03*
%TO.N,ZXMIN5V*%
X121333000Y-147574000D03*
X88900000Y-151384000D03*
X89110000Y-147828000D03*
X81026000Y-151384000D03*
X108970000Y-147580000D03*
X138684000Y-142748000D03*
X121158000Y-142748000D03*
%TO.N,5V_DIV*%
X133096000Y-131826000D03*
X104648000Y-140716000D03*
X115880000Y-140716000D03*
X115824000Y-131863500D03*
%TO.N,12V_DIV*%
X118364000Y-145300000D03*
X138176000Y-131064000D03*
X118364000Y-131064000D03*
X94440000Y-144720000D03*
%TO.N,ZX12V*%
X87122000Y-142202500D03*
X141224000Y-141478000D03*
%TO.N,P2_LINKOUT*%
X145796000Y-91948000D03*
X158496000Y-120650000D03*
X141986000Y-91948000D03*
X143510000Y-120650000D03*
%TO.N,P2_LINKIN*%
X149352000Y-121666000D03*
X155956000Y-121666000D03*
%TO.N,PICO_SIGNAL*%
X105664000Y-136398000D03*
X143256000Y-95758000D03*
X143256000Y-108458000D03*
X144573397Y-136398000D03*
X153416000Y-95758000D03*
X144526000Y-108458000D03*
%TO.N,P1_BLIPPER*%
X123444000Y-129540000D03*
X147066000Y-112522000D03*
X145542000Y-112522000D03*
X147066000Y-129540000D03*
%TO.N,P2_BLIPPER*%
X126746000Y-93980000D03*
X155956000Y-93726000D03*
X126746000Y-128778000D03*
%TO.N,P2_GPIO26*%
X129286000Y-95945500D03*
X140716000Y-95758000D03*
%TO.N,P2_GPIO27*%
X131826000Y-92964000D03*
X138176000Y-92964000D03*
%TO.N,ZXVIDEO*%
X85344000Y-107696000D03*
X80772000Y-108204000D03*
%TO.N,ZXY*%
X84582000Y-118364000D03*
%TO.N,ZXV*%
X84836000Y-120904000D03*
%TO.N,ZXU*%
X85852000Y-122936000D03*
%TO.N,ZXBUSRQ*%
X91402500Y-128270000D03*
X91438701Y-114554000D03*
%TO.N,ZXRESET*%
X90424000Y-117094000D03*
X79502000Y-152350000D03*
X90678000Y-131064000D03*
X87430000Y-152300000D03*
%TO.N,ZXA7*%
X104394000Y-63754000D03*
X140716000Y-63754000D03*
X104319000Y-123190000D03*
X89408000Y-123190000D03*
X89634500Y-133604000D03*
%TO.N,ZXA6*%
X103594500Y-124460000D03*
X103632000Y-72860500D03*
X92202000Y-120396000D03*
X88392000Y-135128000D03*
X138176000Y-73152000D03*
X95758000Y-124460000D03*
%TO.N,ZXA5*%
X99060000Y-125730000D03*
X99060000Y-72136000D03*
X133096000Y-72136000D03*
X80264000Y-125984000D03*
X80264000Y-137414000D03*
%TO.N,ZXA4*%
X86106000Y-137160000D03*
X99859500Y-128270000D03*
X130556000Y-71120000D03*
X99822000Y-71120000D03*
%TO.N,ZXROMCS*%
X86127500Y-140208000D03*
%TO.N,ZXA9*%
X100838000Y-134366000D03*
X102108000Y-116840000D03*
X88900000Y-145542000D03*
X145796000Y-75692000D03*
X105918000Y-75946000D03*
X105768000Y-116840000D03*
X88969636Y-140678500D03*
X102108000Y-134366000D03*
%TO.N,ZXA11*%
X97890214Y-147124596D03*
X153416000Y-81026000D03*
X108204000Y-111760000D03*
X108204000Y-81026000D03*
X87630000Y-148844000D03*
X98044000Y-132588000D03*
X87630000Y-147066000D03*
X100584000Y-132588000D03*
X100584000Y-111760000D03*
%TO.N,ZXIORQGE*%
X85090000Y-105156000D03*
X81026000Y-105664000D03*
%TO.N,ZXA3*%
X90930701Y-98804701D03*
X84836000Y-103124000D03*
X90678000Y-61722000D03*
X81026000Y-103124000D03*
X128016000Y-61468000D03*
%TO.N,ZXA2*%
X125476000Y-61976000D03*
X80772000Y-100584000D03*
X91655201Y-61979000D03*
X91655201Y-95511299D03*
X84836000Y-100330000D03*
%TO.N,ZXA1*%
X92379701Y-92202000D03*
X120396000Y-62992000D03*
X84582000Y-98044000D03*
X80772000Y-98044000D03*
X92379701Y-62789969D03*
%TO.N,ZXA0*%
X88900000Y-68072000D03*
X88900000Y-91694000D03*
X80107500Y-95504000D03*
X85090000Y-95504000D03*
%TO.N,ZXCLK*%
X168693500Y-98249000D03*
X109982000Y-98298000D03*
X163576000Y-98298000D03*
X96774000Y-90170000D03*
X79502000Y-92710000D03*
X96774000Y-87884000D03*
X164776364Y-132625500D03*
X109982000Y-90170000D03*
X158496000Y-98298000D03*
X85090000Y-92710000D03*
X168402000Y-128561500D03*
X164846000Y-128524000D03*
X113284000Y-132588000D03*
%TO.N,ZX9V*%
X136144000Y-134874000D03*
X167894000Y-134874000D03*
X80439403Y-60793903D03*
X171196000Y-60668500D03*
X171196000Y-132588000D03*
X167894000Y-132588000D03*
%TO.N,ZXA12*%
X155956000Y-82296000D03*
%TO.N,ZXA14*%
X90170000Y-81534000D03*
X109220000Y-85344000D03*
X90170000Y-85909500D03*
X163576000Y-81788000D03*
X109220000Y-81788000D03*
%TO.N,ZXA15*%
X95758000Y-69596000D03*
X95758000Y-81534000D03*
%TO.N,ZXA13*%
X158496000Y-70358000D03*
X96520000Y-83820000D03*
X96520000Y-70358000D03*
%TO.N,ZXD7*%
X110744000Y-86360000D03*
X140716000Y-100076000D03*
X110744000Y-99822000D03*
%TO.N,ZXD0*%
X117856000Y-89154000D03*
%TO.N,ZXD1*%
X120396000Y-91440000D03*
%TO.N,ZXD2*%
X125476000Y-93980000D03*
%TO.N,ZXD6*%
X138176000Y-96520000D03*
%TO.N,ZXD5*%
X133096000Y-100546500D03*
%TO.N,ZXD3*%
X128016000Y-101854000D03*
%TO.N,ZXD4*%
X130556000Y-104140000D03*
%TO.N,ZXINT*%
X107442000Y-105410000D03*
X107442000Y-107696000D03*
X96266000Y-105410000D03*
X96266000Y-106934000D03*
%TO.N,ZXA10*%
X150622000Y-76454000D03*
X106680000Y-76708000D03*
X106492500Y-114300000D03*
X97028000Y-146540500D03*
X101346000Y-114300000D03*
X95504000Y-133350000D03*
X101346000Y-133350000D03*
%TO.N,ZXA8*%
X102870000Y-135128000D03*
X102870000Y-119380000D03*
X143256000Y-64516000D03*
X105043500Y-119380000D03*
X87884000Y-145034000D03*
X105156000Y-64516000D03*
X91694000Y-135165500D03*
X88138000Y-139954000D03*
%TO.N,ZXRFSH*%
X93980000Y-136652000D03*
X90932000Y-136652000D03*
X87376000Y-139192000D03*
X87122000Y-140716000D03*
X90932000Y-139192000D03*
%TO.N,ZXM1*%
X92710000Y-135890000D03*
X89662000Y-138430000D03*
X158496000Y-110490000D03*
X89662000Y-135890000D03*
X96520000Y-127254000D03*
X97282000Y-110490000D03*
%TO.N,ZXWAIT*%
X91985500Y-132334000D03*
%TO.N,ZXWR*%
X155956000Y-109220000D03*
X92464952Y-122182952D03*
X96266000Y-108204000D03*
X96520000Y-121920000D03*
X90132500Y-126746000D03*
X90132500Y-125041470D03*
X92456000Y-124968000D03*
%TO.N,ZXRD*%
X110744000Y-133350000D03*
X165608000Y-133350000D03*
X153416000Y-102362000D03*
X163576000Y-89662000D03*
X169418000Y-102362000D03*
X169418000Y-129032000D03*
X153416000Y-115316000D03*
X98044000Y-115570000D03*
X165608000Y-129286000D03*
X98044000Y-119634000D03*
X169164000Y-89662000D03*
%TO.N,ZXIORQ*%
X153416000Y-119380000D03*
%TO.N,ZXMREQ*%
X169926000Y-85852000D03*
X166624000Y-130048000D03*
X150876000Y-100584000D03*
X170180000Y-129794000D03*
X150876000Y-113792000D03*
X108204000Y-134366000D03*
X166624000Y-133858000D03*
X170180000Y-100584000D03*
%TO.N,ZXNMI*%
X90678000Y-109986299D03*
X90678000Y-113030000D03*
%TO.N,Net-(Q101-Pad1)*%
X94010000Y-148680000D03*
X90810000Y-149860000D03*
%TO.N,PICO_RESET_Z80*%
X145730000Y-146930000D03*
X97170000Y-148440000D03*
%TO.N,INPUT1*%
X143002000Y-138430000D03*
X150876000Y-138176000D03*
%TD*%
D22*
%TO.N,PICO_PWR*%
X120396000Y-122174000D02*
X120396000Y-123952000D01*
X120396000Y-83566000D02*
X125947500Y-83566000D01*
X115062000Y-83566000D02*
X115062000Y-122174000D01*
%TO.N,+5V*%
X79502000Y-77470000D02*
X79502000Y-80953889D01*
X79508000Y-80959889D02*
X79508000Y-85302000D01*
X79502000Y-80953889D02*
X79508000Y-80959889D01*
X169050000Y-133744000D02*
X169050000Y-136800000D01*
X98910000Y-143610000D02*
X98910000Y-147036000D01*
X146812000Y-146304000D02*
X146812000Y-139154500D01*
D23*
X168910000Y-133604000D02*
X169050000Y-133744000D01*
D22*
X172212000Y-59944000D02*
X172212000Y-133604000D01*
X79508000Y-85302000D02*
X78420000Y-86390000D01*
X79502000Y-59690000D02*
X79502000Y-77470000D01*
X126238000Y-77978000D02*
X126238000Y-80300500D01*
%TO.N,3V3_PICO1*%
X144018000Y-137414000D02*
X143256000Y-136652000D01*
X143256000Y-136652000D02*
X143256000Y-128778000D01*
X158242000Y-117856000D02*
X158242000Y-113792000D01*
D23*
X115747500Y-152867500D02*
X115758000Y-152878000D01*
D22*
X127762000Y-128815500D02*
X127762000Y-124206000D01*
X128016000Y-123952000D02*
X128016000Y-117856000D01*
X144714000Y-138110000D02*
X144714000Y-152624000D01*
X144018000Y-137414000D02*
X144714000Y-138110000D01*
X144714000Y-152624000D02*
X144485000Y-152853000D01*
D23*
X144460000Y-152878000D02*
X144485000Y-152853000D01*
X103124000Y-150346000D02*
X103140000Y-150330000D01*
D22*
X115747500Y-150290000D02*
X115747500Y-152867500D01*
D23*
X158242000Y-113792000D02*
X157988000Y-113538000D01*
D22*
X103124000Y-152908000D02*
X103124000Y-150346000D01*
D23*
%TO.N,MIN5V_DIV*%
X120930000Y-130365500D02*
X120904000Y-130339500D01*
X122057500Y-139692500D02*
X120930000Y-138565000D01*
X105130000Y-151090000D02*
X105900000Y-150320000D01*
X122060000Y-151910000D02*
X122060000Y-150272500D01*
X122057500Y-150270000D02*
X122057500Y-139692500D01*
X100040000Y-152030000D02*
X100070000Y-152060000D01*
X100040000Y-150330000D02*
X100040000Y-152030000D01*
X112810000Y-152060000D02*
X112810000Y-150327500D01*
X105130000Y-152060000D02*
X105130000Y-151090000D01*
X120930000Y-138565000D02*
X120930000Y-130365500D01*
X140716000Y-130302000D02*
X140716000Y-123952000D01*
D22*
%TO.N,GND*%
X110060000Y-148450000D02*
X110770000Y-149160000D01*
D23*
X122936000Y-106172000D02*
X122936000Y-102870000D01*
X135636000Y-106172000D02*
X135636000Y-102616000D01*
D22*
X95850000Y-146050000D02*
X95850000Y-143630000D01*
X107750000Y-143530000D02*
X108860000Y-143530000D01*
D23*
X92300000Y-150880000D02*
X92580000Y-151160000D01*
D22*
X92580000Y-151160000D02*
X92580000Y-146050000D01*
X108860000Y-143530000D02*
X108903000Y-143573000D01*
X117450000Y-150290000D02*
X119062500Y-150290000D01*
X110770000Y-149160000D02*
X110770000Y-150180000D01*
D23*
X90790000Y-150880000D02*
X92300000Y-150880000D01*
D22*
X110060000Y-144730000D02*
X110060000Y-148450000D01*
X108903000Y-143573000D02*
X110060000Y-144730000D01*
D23*
%TO.N,OLED_SDA*%
X161544000Y-121666000D02*
X161544000Y-118608000D01*
X166116000Y-123952000D02*
X166116000Y-121666000D01*
%TO.N,OLED_SCK*%
X163576000Y-123952000D02*
X163576000Y-116078000D01*
%TO.N,ZXMIN5V*%
X88900000Y-151384000D02*
X88900000Y-148038000D01*
X138684000Y-142748000D02*
X138710000Y-142722000D01*
X81013000Y-130823000D02*
X81013000Y-151612500D01*
X108970000Y-147580000D02*
X108970000Y-150290000D01*
X81026000Y-130810000D02*
X81013000Y-130823000D01*
X121333000Y-147574000D02*
X121158000Y-147399000D01*
X82072000Y-129764000D02*
X81026000Y-130810000D01*
X88900000Y-148038000D02*
X89110000Y-147828000D01*
X138710000Y-142722000D02*
X138710000Y-138565000D01*
X121158000Y-147399000D02*
X121158000Y-142748000D01*
%TO.N,5V_DIV*%
X101990000Y-143590000D02*
X104590000Y-143590000D01*
X115880000Y-140716000D02*
X115850000Y-140686000D01*
X115850000Y-131889500D02*
X115824000Y-131863500D01*
X133096000Y-131826000D02*
X133096000Y-123952000D01*
X115850000Y-140686000D02*
X115850000Y-138565000D01*
X104650000Y-143530000D02*
X104648000Y-140716000D01*
X115850000Y-138565000D02*
X115850000Y-131889500D01*
%TO.N,12V_DIV*%
X118390000Y-138565000D02*
X118390000Y-131090000D01*
X118364000Y-145300000D02*
X118390000Y-145274000D01*
X93280000Y-143560000D02*
X94440000Y-144720000D01*
X118390000Y-131090000D02*
X118364000Y-131064000D01*
X90180000Y-143550000D02*
X92810000Y-143550000D01*
X118390000Y-145274000D02*
X118390000Y-138565000D01*
X138176000Y-131064000D02*
X138176000Y-123952000D01*
D22*
%TO.N,ZX12V*%
X85090000Y-141560000D02*
X87080000Y-143550000D01*
X85090000Y-134844000D02*
X82738000Y-134844000D01*
D23*
X87080000Y-143550000D02*
X87080000Y-142244500D01*
X141224000Y-141478000D02*
X141250000Y-141452000D01*
D22*
X85090000Y-134844000D02*
X85090000Y-141560000D01*
X141250000Y-141452000D02*
X141250000Y-138565000D01*
D23*
X87080000Y-142244500D02*
X87122000Y-142202500D01*
%TO.N,P2_LINKOUT*%
X145796000Y-91948000D02*
X145796000Y-85852000D01*
X141986000Y-119126000D02*
X141986000Y-91948000D01*
X158496000Y-123952000D02*
X158496000Y-120650000D01*
X143510000Y-120650000D02*
X141986000Y-119126000D01*
%TO.N,P2_LINKIN*%
X155956000Y-123952000D02*
X155956000Y-121666000D01*
X149352000Y-121666000D02*
X149352000Y-107696000D01*
X149606000Y-107442000D02*
X149606000Y-87122000D01*
X149606000Y-87122000D02*
X150876000Y-85852000D01*
X149352000Y-107696000D02*
X149606000Y-107442000D01*
%TO.N,PICO_SIGNAL*%
X144526000Y-136350603D02*
X144526000Y-108458000D01*
X143256000Y-106172000D02*
X143256000Y-95758000D01*
X144573397Y-136398000D02*
X144526000Y-136350603D01*
X143256000Y-108458000D02*
X143256000Y-106172000D01*
X153416000Y-95758000D02*
X153416000Y-85852000D01*
X105690000Y-138565000D02*
X105690000Y-136424000D01*
X105690000Y-136424000D02*
X105664000Y-136398000D01*
%TO.N,P1_BLIPPER*%
X145542000Y-112522000D02*
X145796000Y-112268000D01*
X123470000Y-129566000D02*
X123444000Y-129540000D01*
X147066000Y-129540000D02*
X147066000Y-112522000D01*
X145796000Y-112268000D02*
X145796000Y-106172000D01*
X123470000Y-138565000D02*
X123470000Y-129566000D01*
%TO.N,P2_BLIPPER*%
X126746000Y-128778000D02*
X126746000Y-93980000D01*
X126746000Y-137829000D02*
X126746000Y-128778000D01*
X126010000Y-138565000D02*
X126746000Y-137829000D01*
X155956000Y-93726000D02*
X155956000Y-85852000D01*
%TO.N,P2_GPIO26*%
X128550000Y-138565000D02*
X128550000Y-127482000D01*
X128550000Y-127482000D02*
X129286000Y-126746000D01*
X140716000Y-95758000D02*
X140716000Y-85852000D01*
X129286000Y-126746000D02*
X129286000Y-95945500D01*
%TO.N,P2_GPIO27*%
X131826000Y-137829000D02*
X131826000Y-92964000D01*
X131090000Y-138565000D02*
X131826000Y-137829000D01*
X138176000Y-92964000D02*
X138176000Y-85852000D01*
%TO.N,P2_GPIO28*%
X133630000Y-138565000D02*
X133630000Y-132562000D01*
X134366000Y-131826000D02*
X134366000Y-87122000D01*
X134366000Y-87122000D02*
X133096000Y-85852000D01*
X133630000Y-132562000D02*
X134366000Y-131826000D01*
%TO.N,ZXVIDEO*%
X77658000Y-117064000D02*
X80738821Y-113983179D01*
X80738821Y-113983179D02*
X80738821Y-108237179D01*
X85344000Y-107696000D02*
X85344000Y-106271000D01*
X85344000Y-106271000D02*
X87285000Y-104330000D01*
X80738821Y-108237179D02*
X80772000Y-108204000D01*
%TO.N,ZXY*%
X84894000Y-109261000D02*
X87285000Y-106870000D01*
X84894000Y-118052000D02*
X84894000Y-109261000D01*
X84582000Y-118364000D02*
X84894000Y-118052000D01*
%TO.N,ZXV*%
X85344000Y-111351000D02*
X87285000Y-109410000D01*
X84836000Y-120904000D02*
X85344000Y-120396000D01*
X85344000Y-120396000D02*
X85344000Y-111351000D01*
%TO.N,ZXU*%
X85852000Y-113383000D02*
X87285000Y-111950000D01*
X85852000Y-122682000D02*
X85852000Y-113383000D01*
%TO.N,ZXBUSRQ*%
X91438701Y-114554000D02*
X91438701Y-120893396D01*
X91440000Y-128232500D02*
X91402500Y-128270000D01*
X91440000Y-120904000D02*
X91440000Y-128232500D01*
%TO.N,ZXRESET*%
X79502000Y-152350000D02*
X79502000Y-130652000D01*
X90424000Y-123952000D02*
X90932000Y-124460000D01*
X87430000Y-152300000D02*
X87430000Y-149990000D01*
X90932000Y-127715195D02*
X90677500Y-127969695D01*
X90424000Y-117094000D02*
X90424000Y-123952000D01*
X90677500Y-127969695D02*
X90677500Y-131063500D01*
X79502000Y-130652000D02*
X78420000Y-129570000D01*
X90677500Y-131063500D02*
X90678000Y-131064000D01*
X90932000Y-124460000D02*
X90932000Y-127715195D01*
%TO.N,ZXA7*%
X104394000Y-73914000D02*
X104394000Y-63754000D01*
X89408000Y-121693000D02*
X89408000Y-133377500D01*
X140716000Y-63754000D02*
X140716000Y-68072000D01*
X104319000Y-123190000D02*
X104319000Y-73989000D01*
X87285000Y-119570000D02*
X89408000Y-121693000D01*
X89408000Y-133377500D02*
X89634500Y-133604000D01*
X104319000Y-73989000D02*
X104394000Y-73914000D01*
%TO.N,ZXA6*%
X88900000Y-123725000D02*
X87285000Y-122110000D01*
X92511000Y-120705000D02*
X95195000Y-120705000D01*
X88392000Y-135128000D02*
X88900000Y-134620000D01*
X95195000Y-120705000D02*
X95758000Y-121268000D01*
X88900000Y-134620000D02*
X88900000Y-123725000D01*
X103594500Y-72898000D02*
X103632000Y-72860500D01*
X95758000Y-123952000D02*
X95758000Y-124460000D01*
X138176000Y-73152000D02*
X138176000Y-68072000D01*
X103594500Y-124460000D02*
X103594500Y-72898000D01*
X95758000Y-121268000D02*
X95758000Y-123952000D01*
X92202000Y-120396000D02*
X92511000Y-120705000D01*
%TO.N,ZXA5*%
X133096000Y-72136000D02*
X133096000Y-68072000D01*
X99060000Y-125730000D02*
X99060000Y-72136000D01*
X80264000Y-125984000D02*
X80264000Y-137414000D01*
%TO.N,ZXA4*%
X99822000Y-128232500D02*
X99822000Y-71120000D01*
X86106000Y-137160000D02*
X86106000Y-128369000D01*
X99859500Y-128270000D02*
X99822000Y-128232500D01*
X130556000Y-71120000D02*
X130556000Y-68072000D01*
X86106000Y-128369000D02*
X87285000Y-127190000D01*
%TO.N,ZXROMCS*%
X87285000Y-137505000D02*
X87285000Y-129730000D01*
X86127500Y-138662500D02*
X87285000Y-137505000D01*
X86127500Y-140208000D02*
X86127500Y-138662500D01*
%TO.N,ZXA9*%
X100610000Y-134594000D02*
X100610000Y-138565000D01*
X105768000Y-116840000D02*
X105768000Y-76096000D01*
X145796000Y-75692000D02*
X145796000Y-68072000D01*
X88900000Y-140748136D02*
X88900000Y-145542000D01*
X105768000Y-76096000D02*
X105918000Y-75946000D01*
X100838000Y-134366000D02*
X100610000Y-134594000D01*
X88969636Y-140678500D02*
X88900000Y-140748136D01*
X102108000Y-116840000D02*
X102108000Y-134366000D01*
%TO.N,ZXA11*%
X153416000Y-81026000D02*
X153416000Y-68072000D01*
X98044000Y-132588000D02*
X98070000Y-132614000D01*
X97790000Y-147024382D02*
X97790000Y-138845000D01*
X87630000Y-148844000D02*
X87630000Y-147066000D01*
X97890214Y-147124596D02*
X97790000Y-147024382D01*
X98070000Y-132614000D02*
X98070000Y-138565000D01*
X100584000Y-111760000D02*
X100584000Y-132588000D01*
X108204000Y-111760000D02*
X108204000Y-81026000D01*
%TO.N,ZXIORQGE*%
X77658000Y-111984000D02*
X80010000Y-109632000D01*
X85090000Y-105156000D02*
X85090000Y-103985000D01*
X80010000Y-109632000D02*
X80010000Y-107840396D01*
X80010000Y-107840396D02*
X80751000Y-107099396D01*
X80751000Y-107099396D02*
X80751000Y-105939000D01*
X85090000Y-103985000D02*
X87285000Y-101790000D01*
X80751000Y-105939000D02*
X81026000Y-105664000D01*
X80772000Y-105918000D02*
X81026000Y-105664000D01*
%TO.N,ZXA3*%
X80301000Y-105363695D02*
X80772000Y-104892695D01*
X80772000Y-103378000D02*
X81026000Y-103124000D01*
X80772000Y-104892695D02*
X80772000Y-103378000D01*
X90930701Y-61974701D02*
X90930701Y-98804701D01*
X84836000Y-103124000D02*
X84836000Y-101699000D01*
X84836000Y-101699000D02*
X87285000Y-99250000D01*
X90678000Y-61722000D02*
X90930701Y-61974701D01*
X80301000Y-106913000D02*
X80301000Y-105363695D01*
X77770000Y-109444000D02*
X80301000Y-106913000D01*
X128016000Y-61468000D02*
X128016000Y-68072000D01*
%TO.N,ZXA2*%
X78008000Y-106904000D02*
X80264000Y-104648000D01*
X80264000Y-104648000D02*
X80264000Y-102362000D01*
X80772000Y-101854000D02*
X80772000Y-100584000D01*
X80264000Y-102362000D02*
X80772000Y-101854000D01*
X91655201Y-95511299D02*
X91655201Y-61979000D01*
X84836000Y-99060000D02*
X86868000Y-97028000D01*
X84836000Y-100330000D02*
X84836000Y-99060000D01*
X125476000Y-61976000D02*
X125476000Y-68072000D01*
%TO.N,ZXA1*%
X80772000Y-99558695D02*
X80772000Y-98044000D01*
X120396000Y-62992000D02*
X120396000Y-68072000D01*
X78770000Y-104364000D02*
X79756000Y-103378000D01*
X79756000Y-103378000D02*
X79756000Y-102233604D01*
X84582000Y-98044000D02*
X87285000Y-94870500D01*
X79756000Y-102233604D02*
X80047000Y-101942604D01*
X80047000Y-101942604D02*
X80047000Y-100283695D01*
X92379701Y-92202000D02*
X92379701Y-62789969D01*
X80047000Y-100283695D02*
X80772000Y-99558695D01*
%TO.N,ZXA0*%
X80047000Y-99435000D02*
X80047000Y-95564500D01*
X85090000Y-95504000D02*
X85090000Y-93825000D01*
X80047000Y-95564500D02*
X80107500Y-95504000D01*
X80047000Y-99435000D02*
X77658000Y-101824000D01*
X88900000Y-91694000D02*
X88900000Y-68258000D01*
X85090000Y-93825000D02*
X87285000Y-91630000D01*
%TO.N,ZXCLK*%
X85090000Y-92710000D02*
X85090000Y-91285000D01*
X96774000Y-90170000D02*
X96774000Y-87884000D01*
X168693500Y-98249000D02*
X168656000Y-98286500D01*
X113310000Y-132614000D02*
X113284000Y-132588000D01*
X113310000Y-138565000D02*
X113310000Y-132614000D01*
X79383000Y-97559000D02*
X79383000Y-92829000D01*
X168861000Y-111347000D02*
X168861000Y-128102500D01*
X168861000Y-128102500D02*
X168402000Y-128561500D01*
X109982000Y-98298000D02*
X109982000Y-90170000D01*
X168656000Y-98286500D02*
X168656000Y-111142000D01*
X164846000Y-132555864D02*
X164846000Y-128524000D01*
X168656000Y-111142000D02*
X168861000Y-111347000D01*
X77658000Y-99284000D02*
X79383000Y-97559000D01*
X79383000Y-92829000D02*
X79502000Y-92710000D01*
X158496000Y-98298000D02*
X158496000Y-85852000D01*
X163576000Y-106172000D02*
X163576000Y-98298000D01*
X85090000Y-91285000D02*
X87285000Y-89090000D01*
X164776364Y-132625500D02*
X164846000Y-132555864D01*
%TO.N,ZX9V*%
X80351500Y-60881806D02*
X80351500Y-86430500D01*
X136144000Y-134874000D02*
X136170000Y-134900000D01*
X80351500Y-86430500D02*
X77658000Y-89124000D01*
D22*
X167894000Y-132588000D02*
X167894000Y-134874000D01*
X136170000Y-134900000D02*
X136170000Y-138565000D01*
X171196000Y-60668500D02*
X171196000Y-132588000D01*
D23*
X80439403Y-60793903D02*
X80351500Y-60881806D01*
%TO.N,ZXA12*%
X155956000Y-82296000D02*
X155956000Y-68072000D01*
%TO.N,ZXA14*%
X109220000Y-85344000D02*
X109220000Y-81788000D01*
X90170000Y-81534000D02*
X90170000Y-85909500D01*
X163576000Y-81788000D02*
X163576000Y-68072000D01*
%TO.N,ZXA15*%
X95758000Y-81534000D02*
X95758000Y-69596000D01*
%TO.N,ZXA13*%
X96520000Y-83820000D02*
X96520000Y-70358000D01*
X158496000Y-70358000D02*
X158496000Y-68072000D01*
%TO.N,ZXD7*%
X140716000Y-100076000D02*
X140716000Y-106172000D01*
X110744000Y-86360000D02*
X110744000Y-99822000D01*
%TO.N,ZXD0*%
X117856000Y-89154000D02*
X117856000Y-106172000D01*
%TO.N,ZXD1*%
X120396000Y-91440000D02*
X120396000Y-106172000D01*
%TO.N,ZXD2*%
X125476000Y-93980000D02*
X125476000Y-106172000D01*
%TO.N,ZXD6*%
X138176000Y-96520000D02*
X138176000Y-106172000D01*
%TO.N,ZXD5*%
X133096000Y-100546500D02*
X133096000Y-106172000D01*
%TO.N,ZXD3*%
X128016000Y-101854000D02*
X128016000Y-106172000D01*
%TO.N,ZXINT*%
X96266000Y-106934000D02*
X96266000Y-105410000D01*
X107442000Y-105410000D02*
X107442000Y-107696000D01*
%TO.N,ZXA10*%
X95504000Y-133350000D02*
X95530000Y-133376000D01*
X95530000Y-133376000D02*
X95530000Y-138565000D01*
X101346000Y-114300000D02*
X101346000Y-133350000D01*
X97028000Y-146540500D02*
X97282000Y-146286500D01*
X106492500Y-76895500D02*
X106680000Y-76708000D01*
X97282000Y-140317000D02*
X97282000Y-146286500D01*
X95530000Y-138565000D02*
X97282000Y-140317000D01*
X106492500Y-114300000D02*
X106492500Y-76895500D01*
X150622000Y-76454000D02*
X150622000Y-68326000D01*
%TO.N,ZXA8*%
X105043500Y-64628500D02*
X105156000Y-64516000D01*
X91948000Y-137523000D02*
X92990000Y-138565000D01*
X105043500Y-119380000D02*
X105043500Y-64628500D01*
X88138000Y-144780000D02*
X88138000Y-139954000D01*
X143256000Y-64516000D02*
X143256000Y-68072000D01*
X91948000Y-135419500D02*
X91948000Y-137523000D01*
X91694000Y-135165500D02*
X91948000Y-135419500D01*
X87884000Y-145034000D02*
X88138000Y-144780000D01*
X102870000Y-119380000D02*
X102870000Y-135128000D01*
%TO.N,ZXRFSH*%
X94090000Y-136542000D02*
X94090000Y-129690000D01*
X93980000Y-136652000D02*
X94090000Y-136542000D01*
X90932000Y-139192000D02*
X90932000Y-136652000D01*
X87122000Y-139446000D02*
X87376000Y-139192000D01*
X87122000Y-140716000D02*
X87122000Y-139446000D01*
%TO.N,ZXM1*%
X92710000Y-128530000D02*
X94090000Y-127150000D01*
X97282000Y-110490000D02*
X97282000Y-126492000D01*
X92710000Y-135890000D02*
X92710000Y-128530000D01*
X97282000Y-126492000D02*
X96520000Y-127254000D01*
X158496000Y-110490000D02*
X158496000Y-106172000D01*
X89662000Y-138430000D02*
X89662000Y-135890000D01*
%TO.N,ZXWAIT*%
X92202000Y-132117500D02*
X91985500Y-132334000D01*
X92202000Y-126498000D02*
X92202000Y-132117500D01*
X94090000Y-124610000D02*
X92202000Y-126498000D01*
%TO.N,ZXWR*%
X92456000Y-122191904D02*
X92464952Y-122182952D01*
X155956000Y-109220000D02*
X155956000Y-106172000D01*
X90132500Y-125041470D02*
X90132500Y-126746000D01*
X96520000Y-121920000D02*
X96520000Y-108458000D01*
X96520000Y-108458000D02*
X96266000Y-108204000D01*
X92456000Y-124968000D02*
X92456000Y-122191904D01*
%TO.N,ZXRD*%
X153416000Y-102362000D02*
X153416000Y-106172000D01*
X153416000Y-115316000D02*
X153416000Y-106172000D01*
X110770000Y-138565000D02*
X110770000Y-133376000D01*
X169164000Y-89662000D02*
X169418000Y-89916000D01*
X165608000Y-133350000D02*
X165608000Y-129286000D01*
X98044000Y-119634000D02*
X98044000Y-115570000D01*
X110770000Y-133376000D02*
X110744000Y-133350000D01*
X169418000Y-89916000D02*
X169418000Y-102362000D01*
X163576000Y-89662000D02*
X163576000Y-85852000D01*
X169418000Y-102362000D02*
X169418000Y-129032000D01*
%TO.N,ZXIORQ*%
X153416000Y-119380000D02*
X153416000Y-123952000D01*
%TO.N,ZXMREQ*%
X169926000Y-85852000D02*
X170180000Y-86106000D01*
X108230000Y-138565000D02*
X108230000Y-134392000D01*
X170180000Y-86106000D02*
X170180000Y-100584000D01*
X166624000Y-133858000D02*
X166624000Y-130048000D01*
X170180000Y-100584000D02*
X170180000Y-129794000D01*
X108230000Y-134392000D02*
X108204000Y-134366000D01*
X150876000Y-100584000D02*
X150876000Y-106172000D01*
X150876000Y-113792000D02*
X150876000Y-106172000D01*
%TO.N,ZXNMI*%
X90678000Y-113030000D02*
X90678000Y-109986299D01*
%TO.N,Net-(Q101-Pad1)*%
X90790000Y-149840000D02*
X90810000Y-149860000D01*
X94010000Y-148680000D02*
X94010000Y-150310000D01*
X90790000Y-148980000D02*
X90790000Y-149840000D01*
%TO.N,PICO_RESET_Z80*%
X97170000Y-150370000D02*
X97170000Y-148440000D01*
X145730000Y-146930000D02*
X145796000Y-146864000D01*
X145796000Y-146864000D02*
X145796000Y-123952000D01*
%TO.N,INPUT1*%
X150876000Y-138176000D02*
X150876000Y-123952000D01*
X143138000Y-138566000D02*
X143002000Y-138430000D01*
X143138000Y-144024000D02*
X143138000Y-138566000D01*
%TD*%
M02*
