M48
; DRILL file {KiCad 6.0.11-2627ca5db0~126~ubuntu22.04.1} date Wed 13 Mar 2024 14:53:42 GMT
; FORMAT={-:-/ absolute / metric / decimal}
; #@! TF.CreationDate,2024-03-13T14:53:42+00:00
; #@! TF.GenerationSoftware,Kicad,Pcbnew,6.0.11-2627ca5db0~126~ubuntu22.04.1
; #@! TF.FileFunction,Plated,1,2,PTH
FMAT,2
METRIC
; #@! TA.AperFunction,Plated,PTH,ViaDrill
T1C0.400
; #@! TA.AperFunction,Plated,PTH,ComponentDrill
T2C1.000
; #@! TA.AperFunction,Plated,PTH,ComponentDrill
T3C1.020
; #@! TA.AperFunction,Plated,PTH,ComponentDrill
T4C1.100
; #@! TA.AperFunction,Plated,PTH,ComponentDrill
T5C1.200
%
G90
G05
T1
X79.502Y-59.69
X79.502Y-77.47
X79.502Y-92.71
X79.502Y-152.35
X80.108Y-95.504
X80.264Y-125.984
X80.264Y-137.414
X80.439Y-60.794
X80.772Y-98.044
X80.772Y-100.584
X80.772Y-108.204
X81.026Y-103.124
X81.026Y-105.664
X81.026Y-151.384
X84.582Y-98.044
X84.582Y-118.364
X84.836Y-100.33
X84.836Y-103.124
X84.836Y-120.904
X85.09Y-92.71
X85.09Y-95.504
X85.09Y-105.156
X85.344Y-107.696
X85.852Y-122.936
X86.106Y-137.16
X86.127Y-140.208
X87.122Y-140.716
X87.122Y-142.202
X87.376Y-139.192
X87.43Y-152.3
X87.63Y-147.066
X87.63Y-148.844
X87.884Y-145.034
X88.138Y-139.954
X88.392Y-135.128
X88.9Y-68.072
X88.9Y-91.694
X88.9Y-145.542
X88.9Y-151.384
X88.97Y-140.678
X89.11Y-147.828
X89.408Y-123.19
X89.635Y-133.604
X89.662Y-135.89
X89.662Y-138.43
X90.132Y-125.041
X90.132Y-126.746
X90.17Y-81.534
X90.17Y-85.909
X90.424Y-117.094
X90.678Y-61.722
X90.678Y-109.986
X90.678Y-113.03
X90.678Y-131.064
X90.81Y-149.86
X90.931Y-98.805
X90.932Y-136.652
X90.932Y-139.192
X91.402Y-128.27
X91.439Y-114.554
X91.655Y-61.979
X91.655Y-95.511
X91.694Y-135.165
X91.986Y-132.334
X92.202Y-120.396
X92.38Y-62.79
X92.38Y-92.202
X92.456Y-124.968
X92.465Y-122.183
X92.58Y-146.05
X92.58Y-151.16
X92.71Y-135.89
X93.98Y-136.652
X94.01Y-148.68
X94.44Y-144.72
X95.504Y-133.35
X95.758Y-69.596
X95.758Y-81.534
X95.758Y-124.46
X95.85Y-146.05
X96.266Y-105.41
X96.266Y-106.934
X96.266Y-108.204
X96.52Y-70.358
X96.52Y-83.82
X96.52Y-121.92
X96.52Y-127.254
X96.774Y-87.884
X96.774Y-90.17
X97.028Y-146.54
X97.17Y-148.44
X97.282Y-110.49
X97.89Y-147.125
X98.044Y-115.57
X98.044Y-119.634
X98.044Y-132.588
X98.91Y-147.036
X99.06Y-72.136
X99.06Y-125.73
X99.822Y-71.12
X99.859Y-128.27
X100.07Y-152.06
X100.584Y-111.76
X100.584Y-132.588
X100.838Y-134.366
X101.346Y-114.3
X101.346Y-133.35
X102.108Y-116.84
X102.108Y-134.366
X102.87Y-119.38
X102.87Y-135.128
X103.124Y-152.908
X103.594Y-124.46
X103.632Y-72.861
X104.319Y-123.19
X104.394Y-63.754
X104.648Y-140.716
X105.043Y-119.38
X105.13Y-151.892
X105.156Y-64.516
X105.664Y-136.398
X105.768Y-116.84
X105.918Y-75.946
X106.492Y-114.3
X106.68Y-76.708
X107.442Y-105.41
X107.442Y-107.696
X108.204Y-81.026
X108.204Y-111.76
X108.204Y-134.366
X108.903Y-143.573
X108.97Y-147.58
X109.22Y-81.788
X109.22Y-85.344
X109.982Y-90.17
X109.982Y-98.298
X110.744Y-86.36
X110.744Y-99.822
X110.744Y-133.35
X110.77Y-150.18
X112.81Y-151.892
X113.284Y-132.588
X115.062Y-83.566
X115.062Y-122.174
X115.758Y-152.878
X115.824Y-131.863
X115.88Y-140.716
X117.45Y-150.29
X117.856Y-89.154
X118.364Y-131.064
X118.364Y-145.3
X120.396Y-62.992
X120.396Y-83.566
X120.396Y-91.44
X120.396Y-122.174
X120.904Y-130.339
X121.158Y-142.748
X121.333Y-147.574
X122.06Y-151.91
X122.936Y-102.87
X123.444Y-129.54
X125.476Y-61.976
X125.476Y-93.98
X126.238Y-77.978
X126.746Y-93.98
X126.746Y-128.778
X127.762Y-128.815
X128.016Y-61.468
X128.016Y-101.854
X128.016Y-117.856
X129.286Y-95.945
X130.556Y-71.12
X130.556Y-104.14
X131.826Y-92.964
X133.096Y-72.136
X133.096Y-100.546
X133.096Y-131.826
X135.636Y-102.616
X136.144Y-134.874
X138.176Y-73.152
X138.176Y-92.964
X138.176Y-96.52
X138.176Y-131.064
X138.684Y-142.748
X140.716Y-63.754
X140.716Y-95.758
X140.716Y-100.076
X140.716Y-130.302
X141.224Y-141.478
X141.986Y-91.948
X143.002Y-138.43
X143.256Y-64.516
X143.256Y-95.758
X143.256Y-108.458
X143.256Y-128.778
X143.51Y-120.65
X144.018Y-137.414
X144.46Y-152.878
X144.526Y-108.458
X144.573Y-136.398
X145.542Y-112.522
X145.73Y-146.93
X145.796Y-75.692
X145.796Y-91.948
X146.812Y-139.154
X146.812Y-146.304
X147.066Y-112.522
X147.066Y-129.54
X149.352Y-121.666
X150.622Y-76.454
X150.622Y-141.986
X150.622Y-152.4
X150.876Y-100.584
X150.876Y-113.792
X150.876Y-138.176
X153.416Y-81.026
X153.416Y-95.758
X153.416Y-102.362
X153.416Y-115.316
X153.416Y-119.38
X155.956Y-82.296
X155.956Y-93.726
X155.956Y-109.22
X155.956Y-121.666
X158.242Y-113.538
X158.242Y-117.856
X158.496Y-70.358
X158.496Y-98.298
X158.496Y-110.49
X158.496Y-120.65
X161.544Y-121.666
X161.798Y-141.986
X161.798Y-152.4
X163.576Y-81.788
X163.576Y-89.662
X163.576Y-98.298
X163.576Y-116.078
X164.776Y-132.625
X164.846Y-128.524
X165.608Y-129.286
X165.608Y-133.35
X166.116Y-121.666
X166.624Y-130.048
X166.624Y-133.858
X167.894Y-132.588
X167.894Y-134.874
X168.402Y-128.561
X168.694Y-98.249
X168.91Y-133.604
X169.164Y-89.662
X169.418Y-102.362
X169.418Y-129.032
X169.926Y-85.852
X170.18Y-100.584
X170.18Y-129.794
X171.196Y-60.668
X171.196Y-132.588
X172.212Y-59.944
X172.212Y-133.604
X172.974Y-141.986
X172.974Y-152.4
T2
X87.285Y-81.47
X87.285Y-84.01
X87.285Y-86.55
X87.285Y-89.09
X87.285Y-91.63
X87.285Y-94.17
X87.285Y-96.71
X87.285Y-99.25
X87.285Y-101.79
X87.285Y-104.33
X87.285Y-106.87
X87.285Y-109.41
X87.285Y-111.95
X87.285Y-114.49
X87.285Y-117.03
X87.285Y-119.57
X87.285Y-122.11
X87.285Y-124.65
X87.285Y-127.19
X87.285Y-129.73
X92.99Y-138.565
X94.09Y-81.43
X94.09Y-83.97
X94.09Y-86.51
X94.09Y-89.05
X94.09Y-91.59
X94.09Y-94.13
X94.09Y-96.67
X94.09Y-99.21
X94.09Y-101.75
X94.09Y-104.29
X94.09Y-106.83
X94.09Y-109.37
X94.09Y-111.91
X94.09Y-114.45
X94.09Y-116.99
X94.09Y-119.53
X94.09Y-122.07
X94.09Y-124.61
X94.09Y-127.15
X94.09Y-129.69
X95.53Y-138.565
X98.07Y-138.565
X100.61Y-138.565
X103.15Y-138.565
X105.69Y-138.565
X108.23Y-138.565
X109.22Y-128.778
X110.77Y-138.565
X112.776Y-128.778
X113.31Y-138.565
X115.85Y-138.565
X118.39Y-138.565
X120.93Y-138.565
X123.47Y-138.565
X126.01Y-138.565
X128.55Y-138.565
X131.09Y-138.565
X133.63Y-138.565
X136.17Y-138.565
X138.71Y-138.565
X141.25Y-138.565
X161.544Y-110.988
X161.544Y-113.528
X161.544Y-116.068
X161.544Y-118.608
X166.27Y-136.75
X169.05Y-136.8
X171.85Y-136.81
T3
X117.856Y-68.072
X117.856Y-85.852
X117.856Y-106.172
X117.856Y-123.952
X120.396Y-68.072
X120.396Y-85.852
X120.396Y-106.172
X120.396Y-123.952
X122.936Y-68.072
X122.936Y-85.852
X122.936Y-106.172
X122.936Y-123.952
X125.476Y-68.072
X125.476Y-85.852
X125.476Y-106.172
X125.476Y-123.952
X128.016Y-68.072
X128.016Y-85.852
X128.016Y-106.172
X128.016Y-123.952
X130.556Y-68.072
X130.556Y-85.852
X130.556Y-106.172
X130.556Y-123.952
X133.096Y-68.072
X133.096Y-85.852
X133.096Y-106.172
X133.096Y-123.952
X135.636Y-68.072
X135.636Y-85.852
X135.636Y-106.172
X135.636Y-123.952
X138.176Y-68.072
X138.176Y-85.852
X138.176Y-106.172
X138.176Y-123.952
X140.716Y-68.072
X140.716Y-85.852
X140.716Y-106.172
X140.716Y-123.952
X143.256Y-68.072
X143.256Y-85.852
X143.256Y-106.172
X143.256Y-123.952
X145.796Y-68.072
X145.796Y-85.852
X145.796Y-106.172
X145.796Y-123.952
X148.336Y-68.072
X148.336Y-85.852
X148.336Y-106.172
X148.336Y-123.952
X150.876Y-68.072
X150.876Y-85.852
X150.876Y-106.172
X150.876Y-123.952
X153.416Y-68.072
X153.416Y-85.852
X153.416Y-106.172
X153.416Y-123.952
X155.956Y-68.072
X155.956Y-85.852
X155.956Y-106.172
X155.956Y-123.952
X158.496Y-68.072
X158.496Y-85.852
X158.496Y-106.172
X158.496Y-123.952
X161.036Y-68.072
X161.036Y-85.852
X161.036Y-106.172
X161.036Y-123.952
X163.576Y-68.072
X163.576Y-85.852
X163.576Y-106.172
X163.576Y-123.952
X165.886Y-74.422
X165.886Y-76.962
X165.886Y-79.502
X165.886Y-112.522
X165.886Y-115.062
X165.886Y-117.602
X166.116Y-68.072
X166.116Y-85.852
X166.116Y-106.172
X166.116Y-123.952
T4
X136.638Y-144.024
X136.638Y-148.524
X143.138Y-144.024
X143.138Y-148.524
T5
X77.658Y-81.504
X77.658Y-84.044
X77.658Y-86.584
X77.658Y-89.124
X77.658Y-94.204
X77.658Y-96.744
X77.658Y-99.284
X77.658Y-101.824
X77.658Y-104.364
X77.658Y-106.904
X77.658Y-109.444
X77.658Y-111.984
X77.658Y-114.524
X77.658Y-117.064
X77.658Y-119.604
X77.658Y-122.144
X77.658Y-124.684
X77.658Y-127.224
X77.658Y-129.764
X77.658Y-132.304
X77.658Y-134.844
X77.658Y-137.384
X77.658Y-139.924
X77.658Y-142.464
X77.658Y-145.004
X77.658Y-147.544
X77.658Y-150.084
X82.738Y-81.504
X82.738Y-84.044
X82.738Y-86.584
X82.738Y-89.124
X82.738Y-94.204
X82.738Y-96.744
X82.738Y-99.284
X82.738Y-101.824
X82.738Y-104.364
X82.738Y-106.904
X82.738Y-109.444
X82.738Y-111.984
X82.738Y-114.524
X82.738Y-117.064
X82.738Y-119.604
X82.738Y-122.144
X82.738Y-124.684
X82.738Y-127.224
X82.738Y-129.764
X82.738Y-132.304
X82.738Y-134.844
X82.738Y-137.384
X82.738Y-139.924
X82.738Y-142.464
X82.738Y-145.004
X82.738Y-147.544
X82.738Y-150.084
T0
M30
