%TF.GenerationSoftware,KiCad,Pcbnew,6.0.11-2627ca5db0~126~ubuntu22.04.1*%
%TF.CreationDate,2024-03-12T11:09:11+00:00*%
%TF.ProjectId,zx-spectrum-diagnostics,7a782d73-7065-4637-9472-756d2d646961,1.2*%
%TF.SameCoordinates,Original*%
%TF.FileFunction,Soldermask,Bot*%
%TF.FilePolarity,Negative*%
%FSLAX46Y46*%
G04 Gerber Fmt 4.6, Leading zero omitted, Abs format (unit mm)*
G04 Created by KiCad (PCBNEW 6.0.11-2627ca5db0~126~ubuntu22.04.1) date 2024-03-12 11:09:11*
%MOMM*%
%LPD*%
G01*
G04 APERTURE LIST*
G04 Aperture macros list*
%AMRoundRect*
0 Rectangle with rounded corners*
0 $1 Rounding radius*
0 $2 $3 $4 $5 $6 $7 $8 $9 X,Y pos of 4 corners*
0 Add a 4 corners polygon primitive as box body*
4,1,4,$2,$3,$4,$5,$6,$7,$8,$9,$2,$3,0*
0 Add four circle primitives for the rounded corners*
1,1,$1+$1,$2,$3*
1,1,$1+$1,$4,$5*
1,1,$1+$1,$6,$7*
1,1,$1+$1,$8,$9*
0 Add four rect primitives between the rounded corners*
20,1,$1+$1,$2,$3,$4,$5,0*
20,1,$1+$1,$4,$5,$6,$7,0*
20,1,$1+$1,$6,$7,$8,$9,0*
20,1,$1+$1,$8,$9,$2,$3,0*%
G04 Aperture macros list end*
%ADD10C,2.000000*%
%ADD11R,1.700000X1.700000*%
%ADD12O,1.700000X1.700000*%
%ADD13O,2.800000X1.727200*%
%ADD14RoundRect,0.250000X-0.400000X-0.625000X0.400000X-0.625000X0.400000X0.625000X-0.400000X0.625000X0*%
%ADD15RoundRect,0.250000X0.400000X0.625000X-0.400000X0.625000X-0.400000X-0.625000X0.400000X-0.625000X0*%
%ADD16R,2.000000X0.650000*%
%ADD17RoundRect,0.250001X0.462499X0.624999X-0.462499X0.624999X-0.462499X-0.624999X0.462499X-0.624999X0*%
%ADD18RoundRect,0.250001X0.624999X-0.462499X0.624999X0.462499X-0.624999X0.462499X-0.624999X-0.462499X0*%
%ADD19O,1.800000X1.800000*%
%ADD20O,1.500000X1.500000*%
%ADD21R,1.700000X3.500000*%
%ADD22R,3.500000X1.700000*%
G04 APERTURE END LIST*
D10*
%TO.C,REF\u002A\u002A17*%
X166690000Y-148640000D03*
%TD*%
%TO.C,REF\u002A\u002A20*%
X148610000Y-151180000D03*
%TD*%
%TO.C,*%
X109220000Y-128778000D03*
%TD*%
%TO.C,REF\u002A\u002A19*%
X158770000Y-148640000D03*
%TD*%
%TO.C,REF\u002A\u002A*%
X148610000Y-141020000D03*
%TD*%
%TO.C,REF\u002A\u002A10*%
X148610000Y-146100000D03*
%TD*%
%TO.C,REF\u002A\u002A21*%
X151150000Y-151180000D03*
%TD*%
%TO.C,REF\u002A\u002A17*%
X153690000Y-148640000D03*
%TD*%
%TO.C,REF\u002A\u002A1*%
X151150000Y-141020000D03*
%TD*%
%TO.C,REF\u002A\u002A3*%
X169230000Y-141020000D03*
%TD*%
%TO.C,REF\u002A\u002A8*%
X169230000Y-143560000D03*
%TD*%
%TO.C,REF\u002A\u002A21*%
X164150000Y-151180000D03*
%TD*%
%TO.C,REF\u002A\u002A11*%
X164150000Y-146100000D03*
%TD*%
%TO.C,REF\u002A\u002A9*%
X158770000Y-143560000D03*
%TD*%
%TO.C,REF\u002A\u002A6*%
X164150000Y-143560000D03*
%TD*%
%TO.C,REF\u002A\u002A18*%
X156230000Y-148640000D03*
%TD*%
%TO.C,REF\u002A\u002A24*%
X158770000Y-151180000D03*
%TD*%
%TO.C,REF\u002A\u002A12*%
X166690000Y-146100000D03*
%TD*%
%TO.C,REF\u002A\u002A*%
X161610000Y-141020000D03*
%TD*%
%TO.C,*%
X166270000Y-136750000D03*
%TD*%
%TO.C,REF\u002A\u002A13*%
X156230000Y-146100000D03*
%TD*%
%TO.C,REF\u002A\u002A24*%
X171770000Y-151180000D03*
%TD*%
%TO.C,REF\u002A\u002A3*%
X156230000Y-141020000D03*
%TD*%
%TO.C,REF\u002A\u002A22*%
X166690000Y-151180000D03*
%TD*%
%TO.C,REF\u002A\u002A13*%
X169230000Y-146100000D03*
%TD*%
%TO.C,*%
X171850000Y-136810000D03*
%TD*%
%TO.C,REF\u002A\u002A2*%
X166690000Y-141020000D03*
%TD*%
D11*
%TO.C,J101*%
X161544000Y-118608000D03*
D12*
X161544000Y-116068000D03*
X161544000Y-113528000D03*
X161544000Y-110988000D03*
%TD*%
D10*
%TO.C,SW101*%
X143138000Y-148524000D03*
X136638000Y-148524000D03*
X136638000Y-144024000D03*
X143138000Y-144024000D03*
%TD*%
D13*
%TO.C,Z101*%
X82738000Y-81504000D03*
X82738000Y-84044000D03*
X82738000Y-86584000D03*
X82738000Y-89124000D03*
X82738000Y-94204000D03*
X82738000Y-96744000D03*
X82738000Y-99284000D03*
X82738000Y-101824000D03*
X82738000Y-104364000D03*
X82738000Y-106904000D03*
X82738000Y-109444000D03*
X82738000Y-111984000D03*
X82738000Y-114524000D03*
X82738000Y-117064000D03*
X82738000Y-119604000D03*
X82738000Y-122144000D03*
X82738000Y-124684000D03*
X82738000Y-127224000D03*
X82738000Y-129764000D03*
X82738000Y-132304000D03*
X82738000Y-134844000D03*
X82738000Y-137384000D03*
X82738000Y-139924000D03*
X82738000Y-142464000D03*
X82738000Y-145004000D03*
X82738000Y-147544000D03*
X82738000Y-150084000D03*
X77658000Y-81504000D03*
X77658000Y-84044000D03*
X77658000Y-86584000D03*
X77658000Y-89124000D03*
X77658000Y-94204000D03*
X77658000Y-96744000D03*
X77658000Y-99284000D03*
X77658000Y-101824000D03*
X77658000Y-104364000D03*
X77658000Y-106904000D03*
X77658000Y-109444000D03*
X77658000Y-111984000D03*
X77658000Y-114524000D03*
X77658000Y-117064000D03*
X77658000Y-119604000D03*
X77658000Y-122144000D03*
X77658000Y-124684000D03*
X77658000Y-127224000D03*
X77658000Y-129764000D03*
X77658000Y-132304000D03*
X77658000Y-134844000D03*
X77658000Y-137384000D03*
X77658000Y-139924000D03*
X77658000Y-142464000D03*
X77658000Y-145004000D03*
X77658000Y-147544000D03*
X77658000Y-150084000D03*
%TD*%
D10*
%TO.C,REF\u002A\u002A15*%
X161610000Y-148640000D03*
%TD*%
%TO.C,REF\u002A\u002A5*%
X148610000Y-143560000D03*
%TD*%
%TO.C,*%
X169050000Y-136800000D03*
%TD*%
%TO.C,REF\u002A\u002A2*%
X153690000Y-141020000D03*
%TD*%
%TO.C,REF\u002A\u002A6*%
X151150000Y-143560000D03*
%TD*%
%TO.C,REF\u002A\u002A11*%
X151150000Y-146100000D03*
%TD*%
%TO.C,REF\u002A\u002A14*%
X171770000Y-146100000D03*
%TD*%
%TO.C,REF\u002A\u002A1*%
X164150000Y-141020000D03*
%TD*%
%TO.C,REF\u002A\u002A16*%
X164150000Y-148640000D03*
%TD*%
%TO.C,REF\u002A\u002A10*%
X161610000Y-146100000D03*
%TD*%
%TO.C,REF\u002A\u002A4*%
X158770000Y-141020000D03*
%TD*%
%TO.C,REF\u002A\u002A20*%
X161610000Y-151180000D03*
%TD*%
%TO.C,REF\u002A\u002A16*%
X151150000Y-148640000D03*
%TD*%
%TO.C,REF\u002A\u002A15*%
X148610000Y-148640000D03*
%TD*%
%TO.C,REF\u002A\u002A14*%
X158770000Y-146100000D03*
%TD*%
%TO.C,REF\u002A\u002A7*%
X166690000Y-143560000D03*
%TD*%
%TO.C,REF\u002A\u002A9*%
X171770000Y-143560000D03*
%TD*%
%TO.C,REF\u002A\u002A12*%
X153690000Y-146100000D03*
%TD*%
%TO.C,REF\u002A\u002A19*%
X171770000Y-148640000D03*
%TD*%
%TO.C,REF\u002A\u002A7*%
X153690000Y-143560000D03*
%TD*%
%TO.C,REF\u002A\u002A23*%
X169230000Y-151180000D03*
%TD*%
%TO.C,REF\u002A\u002A23*%
X156230000Y-151180000D03*
%TD*%
%TO.C,REF\u002A\u002A22*%
X153690000Y-151180000D03*
%TD*%
%TO.C,REF\u002A\u002A4*%
X171770000Y-141020000D03*
%TD*%
%TO.C,REF\u002A\u002A5*%
X161610000Y-143560000D03*
%TD*%
%TO.C,REF\u002A\u002A8*%
X156230000Y-143560000D03*
%TD*%
%TO.C,*%
X112776000Y-128778000D03*
%TD*%
%TO.C,REF\u002A\u002A18*%
X169230000Y-148640000D03*
%TD*%
D11*
%TO.C,J203*%
X87285000Y-81470000D03*
D12*
X87285000Y-84010000D03*
X87285000Y-86550000D03*
X87285000Y-89090000D03*
X87285000Y-91630000D03*
X87285000Y-94170000D03*
X87285000Y-96710000D03*
X87285000Y-99250000D03*
X87285000Y-101790000D03*
X87285000Y-104330000D03*
X87285000Y-106870000D03*
X87285000Y-109410000D03*
X87285000Y-111950000D03*
X87285000Y-114490000D03*
X87285000Y-117030000D03*
X87285000Y-119570000D03*
X87285000Y-122110000D03*
X87285000Y-124650000D03*
X87285000Y-127190000D03*
X87285000Y-129730000D03*
%TD*%
D14*
%TO.C,R106*%
X92820000Y-143560000D03*
X95920000Y-143560000D03*
%TD*%
D15*
%TO.C,R101*%
X103140000Y-150330000D03*
X100040000Y-150330000D03*
%TD*%
D11*
%TO.C,J202*%
X92990000Y-138565000D03*
D12*
X95530000Y-138565000D03*
X98070000Y-138565000D03*
X100610000Y-138565000D03*
X103150000Y-138565000D03*
X105690000Y-138565000D03*
X108230000Y-138565000D03*
X110770000Y-138565000D03*
X113310000Y-138565000D03*
X115850000Y-138565000D03*
X118390000Y-138565000D03*
X120930000Y-138565000D03*
X123470000Y-138565000D03*
X126010000Y-138565000D03*
X128550000Y-138565000D03*
X131090000Y-138565000D03*
X133630000Y-138565000D03*
X136170000Y-138565000D03*
X138710000Y-138565000D03*
X141250000Y-138565000D03*
%TD*%
D16*
%TO.C,Q101*%
X90790000Y-148980000D03*
X90790000Y-150880000D03*
X87370000Y-149930000D03*
%TD*%
D17*
%TO.C,D102*%
X115747500Y-150290000D03*
X112772500Y-150290000D03*
%TD*%
D14*
%TO.C,R102*%
X105900000Y-150320000D03*
X109000000Y-150320000D03*
%TD*%
D15*
%TO.C,R103*%
X101990000Y-143590000D03*
X98890000Y-143590000D03*
%TD*%
%TO.C,R107*%
X97170000Y-150370000D03*
X94070000Y-150370000D03*
%TD*%
D18*
%TO.C,D101*%
X126238000Y-83275500D03*
X126238000Y-80300500D03*
%TD*%
D19*
%TO.C,U102*%
X117986000Y-74237000D03*
D20*
X121016000Y-79387000D03*
X121016000Y-74537000D03*
D19*
X117986000Y-79687000D03*
D21*
X117856000Y-67172000D03*
D12*
X117856000Y-68072000D03*
X120396000Y-68072000D03*
D21*
X120396000Y-67172000D03*
D11*
X122936000Y-68072000D03*
D21*
X122936000Y-67172000D03*
X125476000Y-67172000D03*
D12*
X125476000Y-68072000D03*
D21*
X128016000Y-67172000D03*
D12*
X128016000Y-68072000D03*
D21*
X130556000Y-67172000D03*
D12*
X130556000Y-68072000D03*
X133096000Y-68072000D03*
D21*
X133096000Y-67172000D03*
X135636000Y-67172000D03*
D11*
X135636000Y-68072000D03*
D12*
X138176000Y-68072000D03*
D21*
X138176000Y-67172000D03*
D12*
X140716000Y-68072000D03*
D21*
X140716000Y-67172000D03*
D12*
X143256000Y-68072000D03*
D21*
X143256000Y-67172000D03*
X145796000Y-67172000D03*
D12*
X145796000Y-68072000D03*
D11*
X148336000Y-68072000D03*
D21*
X148336000Y-67172000D03*
X150876000Y-67172000D03*
D12*
X150876000Y-68072000D03*
D21*
X153416000Y-67172000D03*
D12*
X153416000Y-68072000D03*
D21*
X155956000Y-67172000D03*
D12*
X155956000Y-68072000D03*
X158496000Y-68072000D03*
D21*
X158496000Y-67172000D03*
D11*
X161036000Y-68072000D03*
D21*
X161036000Y-67172000D03*
D12*
X163576000Y-68072000D03*
D21*
X163576000Y-67172000D03*
X166116000Y-67172000D03*
D12*
X166116000Y-68072000D03*
X166116000Y-85852000D03*
D21*
X166116000Y-86752000D03*
D12*
X163576000Y-85852000D03*
D21*
X163576000Y-86752000D03*
X161036000Y-86752000D03*
D11*
X161036000Y-85852000D03*
D21*
X158496000Y-86752000D03*
D12*
X158496000Y-85852000D03*
D21*
X155956000Y-86752000D03*
D12*
X155956000Y-85852000D03*
D21*
X153416000Y-86752000D03*
D12*
X153416000Y-85852000D03*
D21*
X150876000Y-86752000D03*
D12*
X150876000Y-85852000D03*
D11*
X148336000Y-85852000D03*
D21*
X148336000Y-86752000D03*
D12*
X145796000Y-85852000D03*
D21*
X145796000Y-86752000D03*
D12*
X143256000Y-85852000D03*
D21*
X143256000Y-86752000D03*
X140716000Y-86752000D03*
D12*
X140716000Y-85852000D03*
X138176000Y-85852000D03*
D21*
X138176000Y-86752000D03*
X135636000Y-86752000D03*
D11*
X135636000Y-85852000D03*
D12*
X133096000Y-85852000D03*
D21*
X133096000Y-86752000D03*
D12*
X130556000Y-85852000D03*
D21*
X130556000Y-86752000D03*
X128016000Y-86752000D03*
D12*
X128016000Y-85852000D03*
X125476000Y-85852000D03*
D21*
X125476000Y-86752000D03*
X122936000Y-86752000D03*
D11*
X122936000Y-85852000D03*
D21*
X120396000Y-86752000D03*
D12*
X120396000Y-85852000D03*
X117856000Y-85852000D03*
D21*
X117856000Y-86752000D03*
D12*
X165886000Y-74422000D03*
D22*
X166786000Y-74422000D03*
D11*
X165886000Y-76962000D03*
D22*
X166786000Y-76962000D03*
X166786000Y-79502000D03*
D12*
X165886000Y-79502000D03*
%TD*%
D17*
%TO.C,D103*%
X122057500Y-150270000D03*
X119082500Y-150270000D03*
%TD*%
D19*
%TO.C,U101*%
X117986000Y-112337000D03*
D20*
X121016000Y-117487000D03*
X121016000Y-112637000D03*
D19*
X117986000Y-117787000D03*
D21*
X117856000Y-105272000D03*
D12*
X117856000Y-106172000D03*
D21*
X120396000Y-105272000D03*
D12*
X120396000Y-106172000D03*
D21*
X122936000Y-105272000D03*
D11*
X122936000Y-106172000D03*
D12*
X125476000Y-106172000D03*
D21*
X125476000Y-105272000D03*
X128016000Y-105272000D03*
D12*
X128016000Y-106172000D03*
X130556000Y-106172000D03*
D21*
X130556000Y-105272000D03*
D12*
X133096000Y-106172000D03*
D21*
X133096000Y-105272000D03*
X135636000Y-105272000D03*
D11*
X135636000Y-106172000D03*
D21*
X138176000Y-105272000D03*
D12*
X138176000Y-106172000D03*
X140716000Y-106172000D03*
D21*
X140716000Y-105272000D03*
X143256000Y-105272000D03*
D12*
X143256000Y-106172000D03*
X145796000Y-106172000D03*
D21*
X145796000Y-105272000D03*
X148336000Y-105272000D03*
D11*
X148336000Y-106172000D03*
D21*
X150876000Y-105272000D03*
D12*
X150876000Y-106172000D03*
D21*
X153416000Y-105272000D03*
D12*
X153416000Y-106172000D03*
D21*
X155956000Y-105272000D03*
D12*
X155956000Y-106172000D03*
D21*
X158496000Y-105272000D03*
D12*
X158496000Y-106172000D03*
D21*
X161036000Y-105272000D03*
D11*
X161036000Y-106172000D03*
D12*
X163576000Y-106172000D03*
D21*
X163576000Y-105272000D03*
X166116000Y-105272000D03*
D12*
X166116000Y-106172000D03*
X166116000Y-123952000D03*
D21*
X166116000Y-124852000D03*
D12*
X163576000Y-123952000D03*
D21*
X163576000Y-124852000D03*
X161036000Y-124852000D03*
D11*
X161036000Y-123952000D03*
D12*
X158496000Y-123952000D03*
D21*
X158496000Y-124852000D03*
D12*
X155956000Y-123952000D03*
D21*
X155956000Y-124852000D03*
D12*
X153416000Y-123952000D03*
D21*
X153416000Y-124852000D03*
D12*
X150876000Y-123952000D03*
D21*
X150876000Y-124852000D03*
D11*
X148336000Y-123952000D03*
D21*
X148336000Y-124852000D03*
D12*
X145796000Y-123952000D03*
D21*
X145796000Y-124852000D03*
X143256000Y-124852000D03*
D12*
X143256000Y-123952000D03*
D21*
X140716000Y-124852000D03*
D12*
X140716000Y-123952000D03*
X138176000Y-123952000D03*
D21*
X138176000Y-124852000D03*
X135636000Y-124852000D03*
D11*
X135636000Y-123952000D03*
D21*
X133096000Y-124852000D03*
D12*
X133096000Y-123952000D03*
D21*
X130556000Y-124852000D03*
D12*
X130556000Y-123952000D03*
D21*
X128016000Y-124852000D03*
D12*
X128016000Y-123952000D03*
D21*
X125476000Y-124852000D03*
D12*
X125476000Y-123952000D03*
D11*
X122936000Y-123952000D03*
D21*
X122936000Y-124852000D03*
D12*
X120396000Y-123952000D03*
D21*
X120396000Y-124852000D03*
D12*
X117856000Y-123952000D03*
D21*
X117856000Y-124852000D03*
D12*
X165886000Y-112522000D03*
D22*
X166786000Y-112522000D03*
X166786000Y-115062000D03*
D11*
X165886000Y-115062000D03*
D22*
X166786000Y-117602000D03*
D12*
X165886000Y-117602000D03*
%TD*%
D14*
%TO.C,R104*%
X104650000Y-143530000D03*
X107750000Y-143530000D03*
%TD*%
D15*
%TO.C,R105*%
X90180000Y-143550000D03*
X87080000Y-143550000D03*
%TD*%
D11*
%TO.C,J201*%
X94090000Y-81430000D03*
D12*
X94090000Y-83970000D03*
X94090000Y-86510000D03*
X94090000Y-89050000D03*
X94090000Y-91590000D03*
X94090000Y-94130000D03*
X94090000Y-96670000D03*
X94090000Y-99210000D03*
X94090000Y-101750000D03*
X94090000Y-104290000D03*
X94090000Y-106830000D03*
X94090000Y-109370000D03*
X94090000Y-111910000D03*
X94090000Y-114450000D03*
X94090000Y-116990000D03*
X94090000Y-119530000D03*
X94090000Y-122070000D03*
X94090000Y-124610000D03*
X94090000Y-127150000D03*
X94090000Y-129690000D03*
%TD*%
M02*
