%TF.GenerationSoftware,KiCad,Pcbnew,6.0.11-2627ca5db0~126~ubuntu22.04.1*%
%TF.CreationDate,2024-03-13T14:54:00+00:00*%
%TF.ProjectId,zx-spectrum-diagnostics,7a782d73-7065-4637-9472-756d2d646961,1.2*%
%TF.SameCoordinates,Original*%
%TF.FileFunction,Drillmap*%
%TF.FilePolarity,Positive*%
%FSLAX45Y45*%
G04 Gerber Fmt 4.5, Leading zero omitted, Abs format (unit mm)*
G04 Created by KiCad (PCBNEW 6.0.11-2627ca5db0~126~ubuntu22.04.1) date 2024-03-13 14:54:00*
%MOMM*%
%LPD*%
G01*
G04 APERTURE LIST*
%ADD10C,0.100000*%
%ADD11C,0.200000*%
%ADD12C,0.150000*%
%ADD13C,0.180000*%
G04 APERTURE END LIST*
D10*
X7470000Y-5588600D02*
X17461000Y-5588600D01*
X17461000Y-5588600D02*
X17461000Y-15405000D01*
X17461000Y-15405000D02*
X7470000Y-15405000D01*
X7470000Y-15405000D02*
X7470000Y-5588600D01*
D11*
D12*
X12026600Y-7378700D02*
X12176600Y-7528700D01*
X12176600Y-7378700D02*
X12026600Y-7528700D01*
X12026600Y-7863700D02*
X12176600Y-8013700D01*
X12176600Y-7863700D02*
X12026600Y-8013700D01*
X12026600Y-11188700D02*
X12176600Y-11338700D01*
X12176600Y-11188700D02*
X12026600Y-11338700D01*
X12026600Y-11673700D02*
X12176600Y-11823700D01*
X12176600Y-11673700D02*
X12026600Y-11823700D01*
D13*
X11888600Y-7423700D02*
G75*
G03*
X11888600Y-7423700I-90000J0D01*
G01*
X11888600Y-7968700D02*
G75*
G03*
X11888600Y-7968700I-90000J0D01*
G01*
X11888600Y-11233700D02*
G75*
G03*
X11888600Y-11233700I-90000J0D01*
G01*
X11888600Y-11778700D02*
G75*
G03*
X11888600Y-11778700I-90000J0D01*
G01*
D11*
X7722619Y-15720476D02*
X7722619Y-15520476D01*
X7770238Y-15520476D01*
X7798809Y-15530000D01*
X7817857Y-15549048D01*
X7827381Y-15568095D01*
X7836905Y-15606190D01*
X7836905Y-15634762D01*
X7827381Y-15672857D01*
X7817857Y-15691905D01*
X7798809Y-15710952D01*
X7770238Y-15720476D01*
X7722619Y-15720476D01*
X7922619Y-15720476D02*
X7922619Y-15587143D01*
X7922619Y-15625238D02*
X7932143Y-15606190D01*
X7941667Y-15596667D01*
X7960714Y-15587143D01*
X7979762Y-15587143D01*
X8046428Y-15720476D02*
X8046428Y-15587143D01*
X8046428Y-15520476D02*
X8036905Y-15530000D01*
X8046428Y-15539524D01*
X8055952Y-15530000D01*
X8046428Y-15520476D01*
X8046428Y-15539524D01*
X8170238Y-15720476D02*
X8151190Y-15710952D01*
X8141667Y-15691905D01*
X8141667Y-15520476D01*
X8275000Y-15720476D02*
X8255952Y-15710952D01*
X8246428Y-15691905D01*
X8246428Y-15520476D01*
X8503571Y-15720476D02*
X8503571Y-15520476D01*
X8570238Y-15663333D01*
X8636905Y-15520476D01*
X8636905Y-15720476D01*
X8817857Y-15720476D02*
X8817857Y-15615714D01*
X8808333Y-15596667D01*
X8789286Y-15587143D01*
X8751190Y-15587143D01*
X8732143Y-15596667D01*
X8817857Y-15710952D02*
X8798810Y-15720476D01*
X8751190Y-15720476D01*
X8732143Y-15710952D01*
X8722619Y-15691905D01*
X8722619Y-15672857D01*
X8732143Y-15653809D01*
X8751190Y-15644286D01*
X8798810Y-15644286D01*
X8817857Y-15634762D01*
X8913095Y-15587143D02*
X8913095Y-15787143D01*
X8913095Y-15596667D02*
X8932143Y-15587143D01*
X8970238Y-15587143D01*
X8989286Y-15596667D01*
X8998810Y-15606190D01*
X9008333Y-15625238D01*
X9008333Y-15682381D01*
X8998810Y-15701428D01*
X8989286Y-15710952D01*
X8970238Y-15720476D01*
X8932143Y-15720476D01*
X8913095Y-15710952D01*
X9094048Y-15701428D02*
X9103571Y-15710952D01*
X9094048Y-15720476D01*
X9084524Y-15710952D01*
X9094048Y-15701428D01*
X9094048Y-15720476D01*
X9094048Y-15596667D02*
X9103571Y-15606190D01*
X9094048Y-15615714D01*
X9084524Y-15606190D01*
X9094048Y-15596667D01*
X9094048Y-15615714D01*
D12*
X7315000Y-15975000D02*
X7465000Y-16125000D01*
X7465000Y-15975000D02*
X7315000Y-16125000D01*
D11*
X7827381Y-16140476D02*
X7713095Y-16140476D01*
X7770238Y-16140476D02*
X7770238Y-15940476D01*
X7751190Y-15969048D01*
X7732143Y-15988095D01*
X7713095Y-15997619D01*
X7913095Y-16121428D02*
X7922619Y-16130952D01*
X7913095Y-16140476D01*
X7903571Y-16130952D01*
X7913095Y-16121428D01*
X7913095Y-16140476D01*
X8103571Y-15940476D02*
X8008333Y-15940476D01*
X7998809Y-16035714D01*
X8008333Y-16026190D01*
X8027381Y-16016667D01*
X8075000Y-16016667D01*
X8094048Y-16026190D01*
X8103571Y-16035714D01*
X8113095Y-16054762D01*
X8113095Y-16102381D01*
X8103571Y-16121428D01*
X8094048Y-16130952D01*
X8075000Y-16140476D01*
X8027381Y-16140476D01*
X8008333Y-16130952D01*
X7998809Y-16121428D01*
X8236905Y-15940476D02*
X8255952Y-15940476D01*
X8275000Y-15950000D01*
X8284524Y-15959524D01*
X8294048Y-15978571D01*
X8303571Y-16016667D01*
X8303571Y-16064286D01*
X8294048Y-16102381D01*
X8284524Y-16121428D01*
X8275000Y-16130952D01*
X8255952Y-16140476D01*
X8236905Y-16140476D01*
X8217857Y-16130952D01*
X8208333Y-16121428D01*
X8198809Y-16102381D01*
X8189286Y-16064286D01*
X8189286Y-16016667D01*
X8198809Y-15978571D01*
X8208333Y-15959524D01*
X8217857Y-15950000D01*
X8236905Y-15940476D01*
X8427381Y-15940476D02*
X8446429Y-15940476D01*
X8465476Y-15950000D01*
X8475000Y-15959524D01*
X8484524Y-15978571D01*
X8494048Y-16016667D01*
X8494048Y-16064286D01*
X8484524Y-16102381D01*
X8475000Y-16121428D01*
X8465476Y-16130952D01*
X8446429Y-16140476D01*
X8427381Y-16140476D01*
X8408333Y-16130952D01*
X8398810Y-16121428D01*
X8389286Y-16102381D01*
X8379762Y-16064286D01*
X8379762Y-16016667D01*
X8389286Y-15978571D01*
X8398810Y-15959524D01*
X8408333Y-15950000D01*
X8427381Y-15940476D01*
X8579762Y-16140476D02*
X8579762Y-16007143D01*
X8579762Y-16026190D02*
X8589286Y-16016667D01*
X8608333Y-16007143D01*
X8636905Y-16007143D01*
X8655952Y-16016667D01*
X8665476Y-16035714D01*
X8665476Y-16140476D01*
X8665476Y-16035714D02*
X8675000Y-16016667D01*
X8694048Y-16007143D01*
X8722619Y-16007143D01*
X8741667Y-16016667D01*
X8751190Y-16035714D01*
X8751190Y-16140476D01*
X8846429Y-16140476D02*
X8846429Y-16007143D01*
X8846429Y-16026190D02*
X8855952Y-16016667D01*
X8875000Y-16007143D01*
X8903571Y-16007143D01*
X8922619Y-16016667D01*
X8932143Y-16035714D01*
X8932143Y-16140476D01*
X8932143Y-16035714D02*
X8941667Y-16016667D01*
X8960714Y-16007143D01*
X8989286Y-16007143D01*
X9008333Y-16016667D01*
X9017857Y-16035714D01*
X9017857Y-16140476D01*
X9408333Y-15930952D02*
X9236905Y-16188095D01*
X9665476Y-15940476D02*
X9684524Y-15940476D01*
X9703571Y-15950000D01*
X9713095Y-15959524D01*
X9722619Y-15978571D01*
X9732143Y-16016667D01*
X9732143Y-16064286D01*
X9722619Y-16102381D01*
X9713095Y-16121428D01*
X9703571Y-16130952D01*
X9684524Y-16140476D01*
X9665476Y-16140476D01*
X9646429Y-16130952D01*
X9636905Y-16121428D01*
X9627381Y-16102381D01*
X9617857Y-16064286D01*
X9617857Y-16016667D01*
X9627381Y-15978571D01*
X9636905Y-15959524D01*
X9646429Y-15950000D01*
X9665476Y-15940476D01*
X9817857Y-16121428D02*
X9827381Y-16130952D01*
X9817857Y-16140476D01*
X9808333Y-16130952D01*
X9817857Y-16121428D01*
X9817857Y-16140476D01*
X9951190Y-15940476D02*
X9970238Y-15940476D01*
X9989286Y-15950000D01*
X9998810Y-15959524D01*
X10008333Y-15978571D01*
X10017857Y-16016667D01*
X10017857Y-16064286D01*
X10008333Y-16102381D01*
X9998810Y-16121428D01*
X9989286Y-16130952D01*
X9970238Y-16140476D01*
X9951190Y-16140476D01*
X9932143Y-16130952D01*
X9922619Y-16121428D01*
X9913095Y-16102381D01*
X9903571Y-16064286D01*
X9903571Y-16016667D01*
X9913095Y-15978571D01*
X9922619Y-15959524D01*
X9932143Y-15950000D01*
X9951190Y-15940476D01*
X10198810Y-15940476D02*
X10103571Y-15940476D01*
X10094048Y-16035714D01*
X10103571Y-16026190D01*
X10122619Y-16016667D01*
X10170238Y-16016667D01*
X10189286Y-16026190D01*
X10198810Y-16035714D01*
X10208333Y-16054762D01*
X10208333Y-16102381D01*
X10198810Y-16121428D01*
X10189286Y-16130952D01*
X10170238Y-16140476D01*
X10122619Y-16140476D01*
X10103571Y-16130952D01*
X10094048Y-16121428D01*
X10303571Y-16140476D02*
X10341667Y-16140476D01*
X10360714Y-16130952D01*
X10370238Y-16121428D01*
X10389286Y-16092857D01*
X10398810Y-16054762D01*
X10398810Y-15978571D01*
X10389286Y-15959524D01*
X10379762Y-15950000D01*
X10360714Y-15940476D01*
X10322619Y-15940476D01*
X10303571Y-15950000D01*
X10294048Y-15959524D01*
X10284524Y-15978571D01*
X10284524Y-16026190D01*
X10294048Y-16045238D01*
X10303571Y-16054762D01*
X10322619Y-16064286D01*
X10360714Y-16064286D01*
X10379762Y-16054762D01*
X10389286Y-16045238D01*
X10398810Y-16026190D01*
X10589286Y-16140476D02*
X10475000Y-16140476D01*
X10532143Y-16140476D02*
X10532143Y-15940476D01*
X10513095Y-15969048D01*
X10494048Y-15988095D01*
X10475000Y-15997619D01*
X10665476Y-15940476D02*
X10665476Y-15978571D01*
X10741667Y-15940476D02*
X10741667Y-15978571D01*
X11036905Y-16216667D02*
X11027381Y-16207143D01*
X11008333Y-16178571D01*
X10998810Y-16159524D01*
X10989286Y-16130952D01*
X10979762Y-16083333D01*
X10979762Y-16045238D01*
X10989286Y-15997619D01*
X10998810Y-15969048D01*
X11008333Y-15950000D01*
X11027381Y-15921428D01*
X11036905Y-15911905D01*
X11198809Y-16007143D02*
X11198809Y-16140476D01*
X11151190Y-15930952D02*
X11103571Y-16073809D01*
X11227381Y-16073809D01*
X11455952Y-16140476D02*
X11455952Y-15940476D01*
X11541667Y-16140476D02*
X11541667Y-16035714D01*
X11532143Y-16016667D01*
X11513095Y-16007143D01*
X11484524Y-16007143D01*
X11465476Y-16016667D01*
X11455952Y-16026190D01*
X11665476Y-16140476D02*
X11646428Y-16130952D01*
X11636905Y-16121428D01*
X11627381Y-16102381D01*
X11627381Y-16045238D01*
X11636905Y-16026190D01*
X11646428Y-16016667D01*
X11665476Y-16007143D01*
X11694048Y-16007143D01*
X11713095Y-16016667D01*
X11722619Y-16026190D01*
X11732143Y-16045238D01*
X11732143Y-16102381D01*
X11722619Y-16121428D01*
X11713095Y-16130952D01*
X11694048Y-16140476D01*
X11665476Y-16140476D01*
X11846428Y-16140476D02*
X11827381Y-16130952D01*
X11817857Y-16111905D01*
X11817857Y-15940476D01*
X11998809Y-16130952D02*
X11979762Y-16140476D01*
X11941667Y-16140476D01*
X11922619Y-16130952D01*
X11913095Y-16111905D01*
X11913095Y-16035714D01*
X11922619Y-16016667D01*
X11941667Y-16007143D01*
X11979762Y-16007143D01*
X11998809Y-16016667D01*
X12008333Y-16035714D01*
X12008333Y-16054762D01*
X11913095Y-16073809D01*
X12084524Y-16130952D02*
X12103571Y-16140476D01*
X12141667Y-16140476D01*
X12160714Y-16130952D01*
X12170238Y-16111905D01*
X12170238Y-16102381D01*
X12160714Y-16083333D01*
X12141667Y-16073809D01*
X12113095Y-16073809D01*
X12094048Y-16064286D01*
X12084524Y-16045238D01*
X12084524Y-16035714D01*
X12094048Y-16016667D01*
X12113095Y-16007143D01*
X12141667Y-16007143D01*
X12160714Y-16016667D01*
X12236905Y-16216667D02*
X12246428Y-16207143D01*
X12265476Y-16178571D01*
X12275000Y-16159524D01*
X12284524Y-16130952D01*
X12294048Y-16083333D01*
X12294048Y-16045238D01*
X12284524Y-15997619D01*
X12275000Y-15969048D01*
X12265476Y-15950000D01*
X12246428Y-15921428D01*
X12236905Y-15911905D01*
X12598809Y-16216667D02*
X12589286Y-16207143D01*
X12570238Y-16178571D01*
X12560714Y-16159524D01*
X12551190Y-16130952D01*
X12541667Y-16083333D01*
X12541667Y-16045238D01*
X12551190Y-15997619D01*
X12560714Y-15969048D01*
X12570238Y-15950000D01*
X12589286Y-15921428D01*
X12598809Y-15911905D01*
X12675000Y-16007143D02*
X12675000Y-16140476D01*
X12675000Y-16026190D02*
X12684524Y-16016667D01*
X12703571Y-16007143D01*
X12732143Y-16007143D01*
X12751190Y-16016667D01*
X12760714Y-16035714D01*
X12760714Y-16140476D01*
X12884524Y-16140476D02*
X12865476Y-16130952D01*
X12855952Y-16121428D01*
X12846428Y-16102381D01*
X12846428Y-16045238D01*
X12855952Y-16026190D01*
X12865476Y-16016667D01*
X12884524Y-16007143D01*
X12913095Y-16007143D01*
X12932143Y-16016667D01*
X12941667Y-16026190D01*
X12951190Y-16045238D01*
X12951190Y-16102381D01*
X12941667Y-16121428D01*
X12932143Y-16130952D01*
X12913095Y-16140476D01*
X12884524Y-16140476D01*
X13008333Y-16007143D02*
X13084524Y-16007143D01*
X13036905Y-15940476D02*
X13036905Y-16111905D01*
X13046428Y-16130952D01*
X13065476Y-16140476D01*
X13084524Y-16140476D01*
X13303571Y-16007143D02*
X13303571Y-16207143D01*
X13303571Y-16016667D02*
X13322619Y-16007143D01*
X13360714Y-16007143D01*
X13379762Y-16016667D01*
X13389286Y-16026190D01*
X13398809Y-16045238D01*
X13398809Y-16102381D01*
X13389286Y-16121428D01*
X13379762Y-16130952D01*
X13360714Y-16140476D01*
X13322619Y-16140476D01*
X13303571Y-16130952D01*
X13513095Y-16140476D02*
X13494048Y-16130952D01*
X13484524Y-16111905D01*
X13484524Y-15940476D01*
X13675000Y-16140476D02*
X13675000Y-16035714D01*
X13665476Y-16016667D01*
X13646428Y-16007143D01*
X13608333Y-16007143D01*
X13589286Y-16016667D01*
X13675000Y-16130952D02*
X13655952Y-16140476D01*
X13608333Y-16140476D01*
X13589286Y-16130952D01*
X13579762Y-16111905D01*
X13579762Y-16092857D01*
X13589286Y-16073809D01*
X13608333Y-16064286D01*
X13655952Y-16064286D01*
X13675000Y-16054762D01*
X13741667Y-16007143D02*
X13817857Y-16007143D01*
X13770238Y-15940476D02*
X13770238Y-16111905D01*
X13779762Y-16130952D01*
X13798809Y-16140476D01*
X13817857Y-16140476D01*
X13960714Y-16130952D02*
X13941667Y-16140476D01*
X13903571Y-16140476D01*
X13884524Y-16130952D01*
X13875000Y-16111905D01*
X13875000Y-16035714D01*
X13884524Y-16016667D01*
X13903571Y-16007143D01*
X13941667Y-16007143D01*
X13960714Y-16016667D01*
X13970238Y-16035714D01*
X13970238Y-16054762D01*
X13875000Y-16073809D01*
X14141667Y-16140476D02*
X14141667Y-15940476D01*
X14141667Y-16130952D02*
X14122619Y-16140476D01*
X14084524Y-16140476D01*
X14065476Y-16130952D01*
X14055952Y-16121428D01*
X14046428Y-16102381D01*
X14046428Y-16045238D01*
X14055952Y-16026190D01*
X14065476Y-16016667D01*
X14084524Y-16007143D01*
X14122619Y-16007143D01*
X14141667Y-16016667D01*
X14217857Y-16216667D02*
X14227381Y-16207143D01*
X14246428Y-16178571D01*
X14255952Y-16159524D01*
X14265476Y-16130952D01*
X14275000Y-16083333D01*
X14275000Y-16045238D01*
X14265476Y-15997619D01*
X14255952Y-15969048D01*
X14246428Y-15950000D01*
X14227381Y-15921428D01*
X14217857Y-15911905D01*
D13*
X7465000Y-16320000D02*
G75*
G03*
X7465000Y-16320000I-90000J0D01*
G01*
D11*
X7827381Y-16410476D02*
X7713095Y-16410476D01*
X7770238Y-16410476D02*
X7770238Y-16210476D01*
X7751190Y-16239048D01*
X7732143Y-16258095D01*
X7713095Y-16267619D01*
X7913095Y-16391428D02*
X7922619Y-16400952D01*
X7913095Y-16410476D01*
X7903571Y-16400952D01*
X7913095Y-16391428D01*
X7913095Y-16410476D01*
X8036905Y-16296190D02*
X8017857Y-16286667D01*
X8008333Y-16277143D01*
X7998809Y-16258095D01*
X7998809Y-16248571D01*
X8008333Y-16229524D01*
X8017857Y-16220000D01*
X8036905Y-16210476D01*
X8075000Y-16210476D01*
X8094048Y-16220000D01*
X8103571Y-16229524D01*
X8113095Y-16248571D01*
X8113095Y-16258095D01*
X8103571Y-16277143D01*
X8094048Y-16286667D01*
X8075000Y-16296190D01*
X8036905Y-16296190D01*
X8017857Y-16305714D01*
X8008333Y-16315238D01*
X7998809Y-16334286D01*
X7998809Y-16372381D01*
X8008333Y-16391428D01*
X8017857Y-16400952D01*
X8036905Y-16410476D01*
X8075000Y-16410476D01*
X8094048Y-16400952D01*
X8103571Y-16391428D01*
X8113095Y-16372381D01*
X8113095Y-16334286D01*
X8103571Y-16315238D01*
X8094048Y-16305714D01*
X8075000Y-16296190D01*
X8236905Y-16210476D02*
X8255952Y-16210476D01*
X8275000Y-16220000D01*
X8284524Y-16229524D01*
X8294048Y-16248571D01*
X8303571Y-16286667D01*
X8303571Y-16334286D01*
X8294048Y-16372381D01*
X8284524Y-16391428D01*
X8275000Y-16400952D01*
X8255952Y-16410476D01*
X8236905Y-16410476D01*
X8217857Y-16400952D01*
X8208333Y-16391428D01*
X8198809Y-16372381D01*
X8189286Y-16334286D01*
X8189286Y-16286667D01*
X8198809Y-16248571D01*
X8208333Y-16229524D01*
X8217857Y-16220000D01*
X8236905Y-16210476D01*
X8427381Y-16210476D02*
X8446429Y-16210476D01*
X8465476Y-16220000D01*
X8475000Y-16229524D01*
X8484524Y-16248571D01*
X8494048Y-16286667D01*
X8494048Y-16334286D01*
X8484524Y-16372381D01*
X8475000Y-16391428D01*
X8465476Y-16400952D01*
X8446429Y-16410476D01*
X8427381Y-16410476D01*
X8408333Y-16400952D01*
X8398810Y-16391428D01*
X8389286Y-16372381D01*
X8379762Y-16334286D01*
X8379762Y-16286667D01*
X8389286Y-16248571D01*
X8398810Y-16229524D01*
X8408333Y-16220000D01*
X8427381Y-16210476D01*
X8579762Y-16410476D02*
X8579762Y-16277143D01*
X8579762Y-16296190D02*
X8589286Y-16286667D01*
X8608333Y-16277143D01*
X8636905Y-16277143D01*
X8655952Y-16286667D01*
X8665476Y-16305714D01*
X8665476Y-16410476D01*
X8665476Y-16305714D02*
X8675000Y-16286667D01*
X8694048Y-16277143D01*
X8722619Y-16277143D01*
X8741667Y-16286667D01*
X8751190Y-16305714D01*
X8751190Y-16410476D01*
X8846429Y-16410476D02*
X8846429Y-16277143D01*
X8846429Y-16296190D02*
X8855952Y-16286667D01*
X8875000Y-16277143D01*
X8903571Y-16277143D01*
X8922619Y-16286667D01*
X8932143Y-16305714D01*
X8932143Y-16410476D01*
X8932143Y-16305714D02*
X8941667Y-16286667D01*
X8960714Y-16277143D01*
X8989286Y-16277143D01*
X9008333Y-16286667D01*
X9017857Y-16305714D01*
X9017857Y-16410476D01*
X9408333Y-16200952D02*
X9236905Y-16458095D01*
X9665476Y-16210476D02*
X9684524Y-16210476D01*
X9703571Y-16220000D01*
X9713095Y-16229524D01*
X9722619Y-16248571D01*
X9732143Y-16286667D01*
X9732143Y-16334286D01*
X9722619Y-16372381D01*
X9713095Y-16391428D01*
X9703571Y-16400952D01*
X9684524Y-16410476D01*
X9665476Y-16410476D01*
X9646429Y-16400952D01*
X9636905Y-16391428D01*
X9627381Y-16372381D01*
X9617857Y-16334286D01*
X9617857Y-16286667D01*
X9627381Y-16248571D01*
X9636905Y-16229524D01*
X9646429Y-16220000D01*
X9665476Y-16210476D01*
X9817857Y-16391428D02*
X9827381Y-16400952D01*
X9817857Y-16410476D01*
X9808333Y-16400952D01*
X9817857Y-16391428D01*
X9817857Y-16410476D01*
X9951190Y-16210476D02*
X9970238Y-16210476D01*
X9989286Y-16220000D01*
X9998810Y-16229524D01*
X10008333Y-16248571D01*
X10017857Y-16286667D01*
X10017857Y-16334286D01*
X10008333Y-16372381D01*
X9998810Y-16391428D01*
X9989286Y-16400952D01*
X9970238Y-16410476D01*
X9951190Y-16410476D01*
X9932143Y-16400952D01*
X9922619Y-16391428D01*
X9913095Y-16372381D01*
X9903571Y-16334286D01*
X9903571Y-16286667D01*
X9913095Y-16248571D01*
X9922619Y-16229524D01*
X9932143Y-16220000D01*
X9951190Y-16210476D01*
X10084524Y-16210476D02*
X10217857Y-16210476D01*
X10132143Y-16410476D01*
X10332143Y-16210476D02*
X10351190Y-16210476D01*
X10370238Y-16220000D01*
X10379762Y-16229524D01*
X10389286Y-16248571D01*
X10398810Y-16286667D01*
X10398810Y-16334286D01*
X10389286Y-16372381D01*
X10379762Y-16391428D01*
X10370238Y-16400952D01*
X10351190Y-16410476D01*
X10332143Y-16410476D01*
X10313095Y-16400952D01*
X10303571Y-16391428D01*
X10294048Y-16372381D01*
X10284524Y-16334286D01*
X10284524Y-16286667D01*
X10294048Y-16248571D01*
X10303571Y-16229524D01*
X10313095Y-16220000D01*
X10332143Y-16210476D01*
X10494048Y-16410476D02*
X10532143Y-16410476D01*
X10551190Y-16400952D01*
X10560714Y-16391428D01*
X10579762Y-16362857D01*
X10589286Y-16324762D01*
X10589286Y-16248571D01*
X10579762Y-16229524D01*
X10570238Y-16220000D01*
X10551190Y-16210476D01*
X10513095Y-16210476D01*
X10494048Y-16220000D01*
X10484524Y-16229524D01*
X10475000Y-16248571D01*
X10475000Y-16296190D01*
X10484524Y-16315238D01*
X10494048Y-16324762D01*
X10513095Y-16334286D01*
X10551190Y-16334286D01*
X10570238Y-16324762D01*
X10579762Y-16315238D01*
X10589286Y-16296190D01*
X10665476Y-16210476D02*
X10665476Y-16248571D01*
X10741667Y-16210476D02*
X10741667Y-16248571D01*
X11036905Y-16486667D02*
X11027381Y-16477143D01*
X11008333Y-16448571D01*
X10998810Y-16429524D01*
X10989286Y-16400952D01*
X10979762Y-16353333D01*
X10979762Y-16315238D01*
X10989286Y-16267619D01*
X10998810Y-16239048D01*
X11008333Y-16220000D01*
X11027381Y-16191428D01*
X11036905Y-16181905D01*
X11198809Y-16277143D02*
X11198809Y-16410476D01*
X11151190Y-16200952D02*
X11103571Y-16343809D01*
X11227381Y-16343809D01*
X11455952Y-16410476D02*
X11455952Y-16210476D01*
X11541667Y-16410476D02*
X11541667Y-16305714D01*
X11532143Y-16286667D01*
X11513095Y-16277143D01*
X11484524Y-16277143D01*
X11465476Y-16286667D01*
X11455952Y-16296190D01*
X11665476Y-16410476D02*
X11646428Y-16400952D01*
X11636905Y-16391428D01*
X11627381Y-16372381D01*
X11627381Y-16315238D01*
X11636905Y-16296190D01*
X11646428Y-16286667D01*
X11665476Y-16277143D01*
X11694048Y-16277143D01*
X11713095Y-16286667D01*
X11722619Y-16296190D01*
X11732143Y-16315238D01*
X11732143Y-16372381D01*
X11722619Y-16391428D01*
X11713095Y-16400952D01*
X11694048Y-16410476D01*
X11665476Y-16410476D01*
X11846428Y-16410476D02*
X11827381Y-16400952D01*
X11817857Y-16381905D01*
X11817857Y-16210476D01*
X11998809Y-16400952D02*
X11979762Y-16410476D01*
X11941667Y-16410476D01*
X11922619Y-16400952D01*
X11913095Y-16381905D01*
X11913095Y-16305714D01*
X11922619Y-16286667D01*
X11941667Y-16277143D01*
X11979762Y-16277143D01*
X11998809Y-16286667D01*
X12008333Y-16305714D01*
X12008333Y-16324762D01*
X11913095Y-16343809D01*
X12084524Y-16400952D02*
X12103571Y-16410476D01*
X12141667Y-16410476D01*
X12160714Y-16400952D01*
X12170238Y-16381905D01*
X12170238Y-16372381D01*
X12160714Y-16353333D01*
X12141667Y-16343809D01*
X12113095Y-16343809D01*
X12094048Y-16334286D01*
X12084524Y-16315238D01*
X12084524Y-16305714D01*
X12094048Y-16286667D01*
X12113095Y-16277143D01*
X12141667Y-16277143D01*
X12160714Y-16286667D01*
X12236905Y-16486667D02*
X12246428Y-16477143D01*
X12265476Y-16448571D01*
X12275000Y-16429524D01*
X12284524Y-16400952D01*
X12294048Y-16353333D01*
X12294048Y-16315238D01*
X12284524Y-16267619D01*
X12275000Y-16239048D01*
X12265476Y-16220000D01*
X12246428Y-16191428D01*
X12236905Y-16181905D01*
X12598809Y-16486667D02*
X12589286Y-16477143D01*
X12570238Y-16448571D01*
X12560714Y-16429524D01*
X12551190Y-16400952D01*
X12541667Y-16353333D01*
X12541667Y-16315238D01*
X12551190Y-16267619D01*
X12560714Y-16239048D01*
X12570238Y-16220000D01*
X12589286Y-16191428D01*
X12598809Y-16181905D01*
X12675000Y-16277143D02*
X12675000Y-16410476D01*
X12675000Y-16296190D02*
X12684524Y-16286667D01*
X12703571Y-16277143D01*
X12732143Y-16277143D01*
X12751190Y-16286667D01*
X12760714Y-16305714D01*
X12760714Y-16410476D01*
X12884524Y-16410476D02*
X12865476Y-16400952D01*
X12855952Y-16391428D01*
X12846428Y-16372381D01*
X12846428Y-16315238D01*
X12855952Y-16296190D01*
X12865476Y-16286667D01*
X12884524Y-16277143D01*
X12913095Y-16277143D01*
X12932143Y-16286667D01*
X12941667Y-16296190D01*
X12951190Y-16315238D01*
X12951190Y-16372381D01*
X12941667Y-16391428D01*
X12932143Y-16400952D01*
X12913095Y-16410476D01*
X12884524Y-16410476D01*
X13008333Y-16277143D02*
X13084524Y-16277143D01*
X13036905Y-16210476D02*
X13036905Y-16381905D01*
X13046428Y-16400952D01*
X13065476Y-16410476D01*
X13084524Y-16410476D01*
X13303571Y-16277143D02*
X13303571Y-16477143D01*
X13303571Y-16286667D02*
X13322619Y-16277143D01*
X13360714Y-16277143D01*
X13379762Y-16286667D01*
X13389286Y-16296190D01*
X13398809Y-16315238D01*
X13398809Y-16372381D01*
X13389286Y-16391428D01*
X13379762Y-16400952D01*
X13360714Y-16410476D01*
X13322619Y-16410476D01*
X13303571Y-16400952D01*
X13513095Y-16410476D02*
X13494048Y-16400952D01*
X13484524Y-16381905D01*
X13484524Y-16210476D01*
X13675000Y-16410476D02*
X13675000Y-16305714D01*
X13665476Y-16286667D01*
X13646428Y-16277143D01*
X13608333Y-16277143D01*
X13589286Y-16286667D01*
X13675000Y-16400952D02*
X13655952Y-16410476D01*
X13608333Y-16410476D01*
X13589286Y-16400952D01*
X13579762Y-16381905D01*
X13579762Y-16362857D01*
X13589286Y-16343809D01*
X13608333Y-16334286D01*
X13655952Y-16334286D01*
X13675000Y-16324762D01*
X13741667Y-16277143D02*
X13817857Y-16277143D01*
X13770238Y-16210476D02*
X13770238Y-16381905D01*
X13779762Y-16400952D01*
X13798809Y-16410476D01*
X13817857Y-16410476D01*
X13960714Y-16400952D02*
X13941667Y-16410476D01*
X13903571Y-16410476D01*
X13884524Y-16400952D01*
X13875000Y-16381905D01*
X13875000Y-16305714D01*
X13884524Y-16286667D01*
X13903571Y-16277143D01*
X13941667Y-16277143D01*
X13960714Y-16286667D01*
X13970238Y-16305714D01*
X13970238Y-16324762D01*
X13875000Y-16343809D01*
X14141667Y-16410476D02*
X14141667Y-16210476D01*
X14141667Y-16400952D02*
X14122619Y-16410476D01*
X14084524Y-16410476D01*
X14065476Y-16400952D01*
X14055952Y-16391428D01*
X14046428Y-16372381D01*
X14046428Y-16315238D01*
X14055952Y-16296190D01*
X14065476Y-16286667D01*
X14084524Y-16277143D01*
X14122619Y-16277143D01*
X14141667Y-16286667D01*
X14217857Y-16486667D02*
X14227381Y-16477143D01*
X14246428Y-16448571D01*
X14255952Y-16429524D01*
X14265476Y-16400952D01*
X14275000Y-16353333D01*
X14275000Y-16315238D01*
X14265476Y-16267619D01*
X14255952Y-16239048D01*
X14246428Y-16220000D01*
X14227381Y-16191428D01*
X14217857Y-16181905D01*
M02*
